G04 #@! TF.GenerationSoftware,KiCad,Pcbnew,6.0.11-2627ca5db0~126~ubuntu20.04.1*
G04 #@! TF.CreationDate,2023-04-28T08:30:21+02:00*
G04 #@! TF.ProjectId,Semafor_bottom,53656d61-666f-4725-9f62-6f74746f6d2e,rev?*
G04 #@! TF.SameCoordinates,Original*
G04 #@! TF.FileFunction,Soldermask,Bot*
G04 #@! TF.FilePolarity,Negative*
%FSLAX46Y46*%
G04 Gerber Fmt 4.6, Leading zero omitted, Abs format (unit mm)*
G04 Created by KiCad (PCBNEW 6.0.11-2627ca5db0~126~ubuntu20.04.1) date 2023-04-28 08:30:21*
%MOMM*%
%LPD*%
G01*
G04 APERTURE LIST*
G04 Aperture macros list*
%AMHorizOval*
0 Thick line with rounded ends*
0 $1 width*
0 $2 $3 position (X,Y) of the first rounded end (center of the circle)*
0 $4 $5 position (X,Y) of the second rounded end (center of the circle)*
0 Add line between two ends*
20,1,$1,$2,$3,$4,$5,0*
0 Add two circle primitives to create the rounded ends*
1,1,$1,$2,$3*
1,1,$1,$4,$5*%
%AMRotRect*
0 Rectangle, with rotation*
0 The origin of the aperture is its center*
0 $1 length*
0 $2 width*
0 $3 Rotation angle, in degrees counterclockwise*
0 Add horizontal line*
21,1,$1,$2,0,0,$3*%
G04 Aperture macros list end*
%ADD10C,2.000000*%
%ADD11R,1.700000X1.700000*%
%ADD12O,1.700000X1.700000*%
%ADD13R,1.000000X1.000000*%
%ADD14O,1.000000X1.000000*%
%ADD15RotRect,1.700000X1.700000X45.000000*%
%ADD16HorizOval,1.700000X0.000000X0.000000X0.000000X0.000000X0*%
%ADD17O,2.900000X1.524000*%
%ADD18RotRect,1.700000X1.700000X315.000000*%
%ADD19HorizOval,1.700000X0.000000X0.000000X0.000000X0.000000X0*%
%ADD20C,0.650000*%
%ADD21HorizOval,1.000000X-0.315467X-0.450534X0.315467X0.450534X0*%
%ADD22HorizOval,1.000000X-0.172073X-0.245746X0.172073X0.245746X0*%
%ADD23C,1.800000*%
%ADD24RotRect,1.700000X1.700000X225.000000*%
%ADD25HorizOval,1.700000X0.000000X0.000000X0.000000X0.000000X0*%
%ADD26O,1.500000X2.000000*%
%ADD27R,1.500000X2.000000*%
G04 APERTURE END LIST*
D10*
G04 #@! TO.C,BZ1*
X125790000Y-63500000D03*
X133410000Y-63500000D03*
G04 #@! TD*
D11*
G04 #@! TO.C,J4*
X103900000Y-82660000D03*
D12*
X103900000Y-85200000D03*
X103900000Y-87740000D03*
G04 #@! TD*
D11*
G04 #@! TO.C,J3*
X185592620Y-70937500D03*
D12*
X185592620Y-73477500D03*
X185592620Y-76017500D03*
G04 #@! TD*
D13*
G04 #@! TO.C,J2*
X112016745Y-112212482D03*
D14*
X112016745Y-110942482D03*
G04 #@! TD*
D15*
G04 #@! TO.C,J8*
X183500000Y-84000000D03*
D16*
X185296051Y-85796051D03*
X187092102Y-87592102D03*
X188888154Y-89388154D03*
X190684205Y-91184205D03*
X192480256Y-92980256D03*
G04 #@! TD*
D17*
G04 #@! TO.C,BT1*
X168270000Y-134880000D03*
X168270000Y-62380000D03*
G04 #@! TD*
D18*
G04 #@! TO.C,J9*
X130500000Y-73000000D03*
D19*
X128703949Y-74796051D03*
X126907898Y-76592102D03*
X125111846Y-78388154D03*
G04 #@! TD*
D20*
G04 #@! TO.C,J1*
X121274287Y-132965194D03*
X126008986Y-136280466D03*
D21*
X127484369Y-136666529D03*
D22*
X118009346Y-135134884D03*
X125086820Y-140090585D03*
D21*
X120406895Y-131710829D03*
G04 #@! TD*
D23*
G04 #@! TO.C,SW1*
X134193802Y-134791913D03*
X135803977Y-131338880D03*
X137414153Y-127885848D03*
X131916535Y-144940326D03*
X127883465Y-143059674D03*
G04 #@! TD*
D24*
G04 #@! TO.C,J11*
X129500000Y-124000000D03*
D25*
X127703949Y-122203949D03*
X125907898Y-120407898D03*
X124111846Y-118611846D03*
G04 #@! TD*
D11*
G04 #@! TO.C,M1*
X112000000Y-120175000D03*
D12*
X112000000Y-122715000D03*
G04 #@! TD*
D11*
G04 #@! TO.C,J13*
X116475000Y-126875000D03*
D12*
X113935000Y-126875000D03*
X111395000Y-126875000D03*
G04 #@! TD*
D26*
G04 #@! TO.C,U4*
X138780000Y-85000000D03*
X141320000Y-85000000D03*
X143860000Y-85000000D03*
X146400000Y-85000000D03*
X148940000Y-85000000D03*
X151480000Y-85000000D03*
X154020000Y-85000000D03*
X144480000Y-53500000D03*
X141940000Y-53500000D03*
D27*
X139400000Y-53500000D03*
G04 #@! TD*
M02*
