M48
; DRILL file {KiCad 6.0.11-2627ca5db0~126~ubuntu20.04.1} date Fri Apr 28 08:30:21 2023
; FORMAT={-:-/ absolute / metric / decimal}
; #@! TF.CreationDate,2023-04-28T08:30:21+02:00
; #@! TF.GenerationSoftware,Kicad,Pcbnew,6.0.11-2627ca5db0~126~ubuntu20.04.1
; #@! TF.FileFunction,MixedPlating,1,2
FMAT,2
METRIC
; #@! TA.AperFunction,Plated,PTH,ViaDrill
T1C0.300
; #@! TA.AperFunction,Plated,PTH,ViaDrill
T2C0.500
; #@! TA.AperFunction,Plated,PTH,ComponentDrill
T3C0.600
; #@! TA.AperFunction,Plated,PTH,ComponentDrill
T4C0.700
; #@! TA.AperFunction,Plated,PTH,ComponentDrill
T5C0.762
; #@! TA.AperFunction,Plated,PTH,ComponentDrill
T6C0.900
; #@! TA.AperFunction,Plated,PTH,ViaDrill
T7C1.000
; #@! TA.AperFunction,Plated,PTH,ComponentDrill
T8C1.000
; #@! TA.AperFunction,Plated,PTH,ComponentDrill
T9C1.020
; #@! TA.AperFunction,Plated,PTH,ViaDrill
T10C1.500
; #@! TA.AperFunction,NonPlated,NPTH,ComponentDrill
T11C0.650
%
G90
G05
T1
X109.3Y-85.2
X111.65Y-94.1
X112.45Y-81.9
X112.45Y-94.1
X112.85Y-103.75
X115.25Y-97.3
X117.3Y-96.5
X117.4Y-106.65
X119.5Y-96.4
X120.8Y-116.7
X121.1Y-73.3
X121.4Y-94.1
X121.55Y-103.7
X121.7Y-107.25
X122.4Y-108.15
X122.5Y-113.45
X122.95Y-95.75
X123.15Y-107.85
X123.451Y-134.459
X123.6Y-94.1
X124.15Y-90.95
X124.508Y-135.199
X124.7Y-89.3
X124.7Y-106.45
X125.3Y-92.6
X125.7Y-93.4
X125.7Y-94.9
X125.7Y-96.4
X125.85Y-103.025
X125.85Y-113.35
X127.279Y-128.765
X128.332Y-129.441
X129.1Y-104.3
X129.1Y-113.4
X129.7Y-81.1
X132.4Y-96.4
X133.4Y-92.5
X133.752Y-95.02
X141.05Y-112.65
X143.9Y-87.75
X143.9Y-96.4
X145.2Y-95.75
X148.95Y-91.1
X155.55Y-86.7
X183.35Y-80.9
T2
X104.312Y-91.547
X114.2Y-91.5
X114.2Y-108.6
X115.55Y-102.1
X115.95Y-80.4
X116.2Y-88.5
X118.05Y-68.05
X118.82Y-120.67
X119.8Y-100.45
X120.303Y-128.497
X120.85Y-84.6
X120.85Y-88.15
X121.85Y-92.55
X122.2Y-79.9
X122.25Y-98.9
X127.3Y-109.15
X130.355Y-132.567
X130.4Y-101.75
X135.1Y-109.3
X141.4Y-91.65
X147.3Y-137.8
X150.0Y-90.95
X150.175Y-131.373
X155.8Y-131.4
X169.062Y-142.325
X184.8Y-100.1
X188.55Y-105.575
X192.18Y-100.81
T4
X112.017Y-110.942
X112.017Y-112.212
T6
X127.883Y-143.06
X131.917Y-144.94
X134.194Y-134.792
X135.804Y-131.339
X137.414Y-127.886
X138.78Y-85.0
X139.4Y-53.5
X141.32Y-85.0
X141.94Y-53.5
X143.86Y-85.0
X144.48Y-53.5
X146.4Y-85.0
X148.94Y-85.0
X151.48Y-85.0
X154.02Y-85.0
T7
X103.801Y-108.851
X156.8Y-128.2
T8
X103.9Y-82.66
X103.9Y-85.2
X103.9Y-87.74
X111.395Y-126.875
X112.0Y-120.175
X112.0Y-122.715
X113.935Y-126.875
X116.475Y-126.875
X124.112Y-118.612
X125.112Y-78.388
X125.908Y-120.408
X126.908Y-76.592
X127.704Y-122.204
X128.704Y-74.796
X129.5Y-124.0
X130.5Y-73.0
X183.5Y-84.0
X185.296Y-85.796
X185.593Y-70.938
X185.593Y-73.477
X185.593Y-76.017
X187.092Y-87.592
X188.888Y-89.388
X190.684Y-91.184
X192.48Y-92.98
T9
X125.79Y-63.5
X133.41Y-63.5
T10
X133.6Y-126.8
X140.1Y-124.9
X177.875Y-89.625
T11
X121.274Y-132.965
X126.009Y-136.28
T3
X118.181Y-134.889G85X117.837Y-135.381
G05
X120.722Y-131.26G85X120.091Y-132.161
G05
X125.259Y-139.845G85X124.915Y-140.336
G05
X127.8Y-136.216G85X127.169Y-137.117
G05
T5
X168.689Y-62.38G85X167.851Y-62.38
G05
X168.689Y-134.88G85X167.851Y-134.88
G05
T0
M30
