G04 #@! TF.GenerationSoftware,KiCad,Pcbnew,6.0.11-2627ca5db0~126~ubuntu20.04.1*
G04 #@! TF.CreationDate,2023-04-28T08:30:21+02:00*
G04 #@! TF.ProjectId,Semafor_bottom,53656d61-666f-4725-9f62-6f74746f6d2e,rev?*
G04 #@! TF.SameCoordinates,Original*
G04 #@! TF.FileFunction,Legend,Top*
G04 #@! TF.FilePolarity,Positive*
%FSLAX46Y46*%
G04 Gerber Fmt 4.6, Leading zero omitted, Abs format (unit mm)*
G04 Created by KiCad (PCBNEW 6.0.11-2627ca5db0~126~ubuntu20.04.1) date 2023-04-28 08:30:21*
%MOMM*%
%LPD*%
G01*
G04 APERTURE LIST*
%ADD10C,0.120000*%
%ADD11C,0.150000*%
%ADD12C,0.050000*%
%ADD13C,0.600000*%
G04 APERTURE END LIST*
D10*
X140457142Y-138312857D02*
X140457142Y-139284285D01*
X140514285Y-139398571D01*
X140571428Y-139455714D01*
X140685714Y-139512857D01*
X140914285Y-139512857D01*
X141028571Y-139455714D01*
X141085714Y-139398571D01*
X141142857Y-139284285D01*
X141142857Y-138312857D01*
X141714285Y-138712857D02*
X141714285Y-139512857D01*
X141714285Y-138827142D02*
X141771428Y-138770000D01*
X141885714Y-138712857D01*
X142057142Y-138712857D01*
X142171428Y-138770000D01*
X142228571Y-138884285D01*
X142228571Y-139512857D01*
X142800000Y-139512857D02*
X142800000Y-138712857D01*
X142800000Y-138312857D02*
X142742857Y-138370000D01*
X142800000Y-138427142D01*
X142857142Y-138370000D01*
X142800000Y-138312857D01*
X142800000Y-138427142D01*
X143257142Y-138712857D02*
X143542857Y-139512857D01*
X143828571Y-138712857D01*
X144742857Y-139455714D02*
X144628571Y-139512857D01*
X144400000Y-139512857D01*
X144285714Y-139455714D01*
X144228571Y-139341428D01*
X144228571Y-138884285D01*
X144285714Y-138770000D01*
X144400000Y-138712857D01*
X144628571Y-138712857D01*
X144742857Y-138770000D01*
X144800000Y-138884285D01*
X144800000Y-138998571D01*
X144228571Y-139112857D01*
X145314285Y-139512857D02*
X145314285Y-138712857D01*
X145314285Y-138941428D02*
X145371428Y-138827142D01*
X145428571Y-138770000D01*
X145542857Y-138712857D01*
X145657142Y-138712857D01*
X145942857Y-138712857D02*
X146571428Y-138712857D01*
X145942857Y-139512857D01*
X146571428Y-139512857D01*
X147542857Y-139512857D02*
X147542857Y-138884285D01*
X147485714Y-138770000D01*
X147371428Y-138712857D01*
X147142857Y-138712857D01*
X147028571Y-138770000D01*
X147542857Y-139455714D02*
X147428571Y-139512857D01*
X147142857Y-139512857D01*
X147028571Y-139455714D01*
X146971428Y-139341428D01*
X146971428Y-139227142D01*
X147028571Y-139112857D01*
X147142857Y-139055714D01*
X147428571Y-139055714D01*
X147542857Y-138998571D01*
X147371428Y-138255714D02*
X147200000Y-138427142D01*
X148285714Y-139512857D02*
X148171428Y-139455714D01*
X148114285Y-139341428D01*
X148114285Y-138312857D01*
X148742857Y-138712857D02*
X148742857Y-139512857D01*
X148742857Y-138827142D02*
X148800000Y-138770000D01*
X148914285Y-138712857D01*
X149085714Y-138712857D01*
X149200000Y-138770000D01*
X149257142Y-138884285D01*
X149257142Y-139512857D01*
X149828571Y-139512857D02*
X149828571Y-138712857D01*
X149942857Y-138255714D02*
X149771428Y-138427142D01*
X151314285Y-139512857D02*
X151314285Y-138712857D01*
X151314285Y-138827142D02*
X151371428Y-138770000D01*
X151485714Y-138712857D01*
X151657142Y-138712857D01*
X151771428Y-138770000D01*
X151828571Y-138884285D01*
X151828571Y-139512857D01*
X151828571Y-138884285D02*
X151885714Y-138770000D01*
X152000000Y-138712857D01*
X152171428Y-138712857D01*
X152285714Y-138770000D01*
X152342857Y-138884285D01*
X152342857Y-139512857D01*
X153085714Y-139512857D02*
X152971428Y-139455714D01*
X152914285Y-139398571D01*
X152857142Y-139284285D01*
X152857142Y-138941428D01*
X152914285Y-138827142D01*
X152971428Y-138770000D01*
X153085714Y-138712857D01*
X153257142Y-138712857D01*
X153371428Y-138770000D01*
X153428571Y-138827142D01*
X153485714Y-138941428D01*
X153485714Y-139284285D01*
X153428571Y-139398571D01*
X153371428Y-139455714D01*
X153257142Y-139512857D01*
X153085714Y-139512857D01*
X154514285Y-139512857D02*
X154514285Y-138312857D01*
X154514285Y-139455714D02*
X154400000Y-139512857D01*
X154171428Y-139512857D01*
X154057142Y-139455714D01*
X154000000Y-139398571D01*
X153942857Y-139284285D01*
X153942857Y-138941428D01*
X154000000Y-138827142D01*
X154057142Y-138770000D01*
X154171428Y-138712857D01*
X154400000Y-138712857D01*
X154514285Y-138770000D01*
X155600000Y-138712857D02*
X155600000Y-139512857D01*
X155085714Y-138712857D02*
X155085714Y-139341428D01*
X155142857Y-139455714D01*
X155257142Y-139512857D01*
X155428571Y-139512857D01*
X155542857Y-139455714D01*
X155600000Y-139398571D01*
X156342857Y-139512857D02*
X156228571Y-139455714D01*
X156171428Y-139341428D01*
X156171428Y-138312857D01*
X138514285Y-140644857D02*
X138514285Y-141844857D01*
X138514285Y-140702000D02*
X138628571Y-140644857D01*
X138857142Y-140644857D01*
X138971428Y-140702000D01*
X139028571Y-140759142D01*
X139085714Y-140873428D01*
X139085714Y-141216285D01*
X139028571Y-141330571D01*
X138971428Y-141387714D01*
X138857142Y-141444857D01*
X138628571Y-141444857D01*
X138514285Y-141387714D01*
X139600000Y-141444857D02*
X139600000Y-140644857D01*
X139600000Y-140873428D02*
X139657142Y-140759142D01*
X139714285Y-140702000D01*
X139828571Y-140644857D01*
X139942857Y-140644857D01*
X140514285Y-141444857D02*
X140400000Y-141387714D01*
X140342857Y-141330571D01*
X140285714Y-141216285D01*
X140285714Y-140873428D01*
X140342857Y-140759142D01*
X140400000Y-140702000D01*
X140514285Y-140644857D01*
X140685714Y-140644857D01*
X140800000Y-140702000D01*
X140857142Y-140759142D01*
X140914285Y-140873428D01*
X140914285Y-141216285D01*
X140857142Y-141330571D01*
X140800000Y-141387714D01*
X140685714Y-141444857D01*
X140514285Y-141444857D01*
X142342857Y-140644857D02*
X142342857Y-141844857D01*
X142342857Y-140702000D02*
X142457142Y-140644857D01*
X142685714Y-140644857D01*
X142800000Y-140702000D01*
X142857142Y-140759142D01*
X142914285Y-140873428D01*
X142914285Y-141216285D01*
X142857142Y-141330571D01*
X142800000Y-141387714D01*
X142685714Y-141444857D01*
X142457142Y-141444857D01*
X142342857Y-141387714D01*
X143600000Y-141444857D02*
X143485714Y-141387714D01*
X143428571Y-141330571D01*
X143371428Y-141216285D01*
X143371428Y-140873428D01*
X143428571Y-140759142D01*
X143485714Y-140702000D01*
X143600000Y-140644857D01*
X143771428Y-140644857D01*
X143885714Y-140702000D01*
X143942857Y-140759142D01*
X144000000Y-140873428D01*
X144000000Y-141216285D01*
X143942857Y-141330571D01*
X143885714Y-141387714D01*
X143771428Y-141444857D01*
X143600000Y-141444857D01*
X145028571Y-141444857D02*
X145028571Y-140244857D01*
X145028571Y-141387714D02*
X144914285Y-141444857D01*
X144685714Y-141444857D01*
X144571428Y-141387714D01*
X144514285Y-141330571D01*
X144457142Y-141216285D01*
X144457142Y-140873428D01*
X144514285Y-140759142D01*
X144571428Y-140702000D01*
X144685714Y-140644857D01*
X144914285Y-140644857D01*
X145028571Y-140702000D01*
X145600000Y-140644857D02*
X145600000Y-141844857D01*
X145600000Y-140702000D02*
X145714285Y-140644857D01*
X145942857Y-140644857D01*
X146057142Y-140702000D01*
X146114285Y-140759142D01*
X146171428Y-140873428D01*
X146171428Y-141216285D01*
X146114285Y-141330571D01*
X146057142Y-141387714D01*
X145942857Y-141444857D01*
X145714285Y-141444857D01*
X145600000Y-141387714D01*
X146857142Y-141444857D02*
X146742857Y-141387714D01*
X146685714Y-141330571D01*
X146628571Y-141216285D01*
X146628571Y-140873428D01*
X146685714Y-140759142D01*
X146742857Y-140702000D01*
X146857142Y-140644857D01*
X147028571Y-140644857D01*
X147142857Y-140702000D01*
X147200000Y-140759142D01*
X147257142Y-140873428D01*
X147257142Y-141216285D01*
X147200000Y-141330571D01*
X147142857Y-141387714D01*
X147028571Y-141444857D01*
X146857142Y-141444857D01*
X147771428Y-141444857D02*
X147771428Y-140644857D01*
X147771428Y-140873428D02*
X147828571Y-140759142D01*
X147885714Y-140702000D01*
X148000000Y-140644857D01*
X148114285Y-140644857D01*
X149028571Y-140644857D02*
X149028571Y-141444857D01*
X148514285Y-140644857D02*
X148514285Y-141273428D01*
X148571428Y-141387714D01*
X148685714Y-141444857D01*
X148857142Y-141444857D01*
X148971428Y-141387714D01*
X149028571Y-141330571D01*
X150342857Y-140644857D02*
X150800000Y-140644857D01*
X150514285Y-140244857D02*
X150514285Y-141273428D01*
X150571428Y-141387714D01*
X150685714Y-141444857D01*
X150800000Y-141444857D01*
X151085714Y-140644857D02*
X151371428Y-141444857D01*
X151657142Y-140644857D02*
X151371428Y-141444857D01*
X151257142Y-141730571D01*
X151200000Y-141787714D01*
X151085714Y-141844857D01*
X151485714Y-140187714D02*
X151314285Y-140359142D01*
X152114285Y-141444857D02*
X152114285Y-140644857D01*
X152114285Y-140759142D02*
X152171428Y-140702000D01*
X152285714Y-140644857D01*
X152457142Y-140644857D01*
X152571428Y-140702000D01*
X152628571Y-140816285D01*
X152628571Y-141444857D01*
X152628571Y-140816285D02*
X152685714Y-140702000D01*
X152800000Y-140644857D01*
X152971428Y-140644857D01*
X153085714Y-140702000D01*
X153142857Y-140816285D01*
X153142857Y-141444857D01*
X153885714Y-141444857D02*
X153771428Y-141387714D01*
X153714285Y-141330571D01*
X153657142Y-141216285D01*
X153657142Y-140873428D01*
X153714285Y-140759142D01*
X153771428Y-140702000D01*
X153885714Y-140644857D01*
X154057142Y-140644857D01*
X154171428Y-140702000D01*
X154228571Y-140759142D01*
X154285714Y-140873428D01*
X154285714Y-141216285D01*
X154228571Y-141330571D01*
X154171428Y-141387714D01*
X154057142Y-141444857D01*
X153885714Y-141444857D01*
X154685714Y-140644857D02*
X154971428Y-141444857D01*
X155257142Y-140644857D01*
X155600000Y-140644857D02*
X155885714Y-141444857D01*
X156171428Y-140644857D02*
X155885714Y-141444857D01*
X155771428Y-141730571D01*
X155714285Y-141787714D01*
X155600000Y-141844857D01*
X156000000Y-140187714D02*
X155828571Y-140359142D01*
X157142857Y-141387714D02*
X157028571Y-141444857D01*
X156800000Y-141444857D01*
X156685714Y-141387714D01*
X156628571Y-141330571D01*
X156571428Y-141216285D01*
X156571428Y-140873428D01*
X156628571Y-140759142D01*
X156685714Y-140702000D01*
X156800000Y-140644857D01*
X157028571Y-140644857D01*
X157142857Y-140702000D01*
X157657142Y-141444857D02*
X157657142Y-140244857D01*
X158171428Y-141444857D02*
X158171428Y-140816285D01*
X158114285Y-140702000D01*
X158000000Y-140644857D01*
X157828571Y-140644857D01*
X157714285Y-140702000D01*
X157657142Y-140759142D01*
X145771428Y-143376857D02*
X145771428Y-142176857D01*
X146285714Y-143376857D02*
X146285714Y-142748285D01*
X146228571Y-142634000D01*
X146114285Y-142576857D01*
X145942857Y-142576857D01*
X145828571Y-142634000D01*
X145771428Y-142691142D01*
X147314285Y-143319714D02*
X147200000Y-143376857D01*
X146971428Y-143376857D01*
X146857142Y-143319714D01*
X146800000Y-143205428D01*
X146800000Y-142748285D01*
X146857142Y-142634000D01*
X146971428Y-142576857D01*
X147200000Y-142576857D01*
X147314285Y-142634000D01*
X147371428Y-142748285D01*
X147371428Y-142862571D01*
X146800000Y-142976857D01*
X147885714Y-143376857D02*
X147885714Y-142576857D01*
X147885714Y-142805428D02*
X147942857Y-142691142D01*
X148000000Y-142634000D01*
X148114285Y-142576857D01*
X148228571Y-142576857D01*
X150171428Y-143376857D02*
X149485714Y-143376857D01*
X149828571Y-143376857D02*
X149828571Y-142176857D01*
X149714285Y-142348285D01*
X149600000Y-142462571D01*
X149485714Y-142519714D01*
X150685714Y-143262571D02*
X150742857Y-143319714D01*
X150685714Y-143376857D01*
X150628571Y-143319714D01*
X150685714Y-143262571D01*
X150685714Y-143376857D01*
X151485714Y-142176857D02*
X151600000Y-142176857D01*
X151714285Y-142234000D01*
X151771428Y-142291142D01*
X151828571Y-142405428D01*
X151885714Y-142634000D01*
X151885714Y-142919714D01*
X151828571Y-143148285D01*
X151771428Y-143262571D01*
X151714285Y-143319714D01*
X151600000Y-143376857D01*
X151485714Y-143376857D01*
X151371428Y-143319714D01*
X151314285Y-143262571D01*
X151257142Y-143148285D01*
X151200000Y-142919714D01*
X151200000Y-142634000D01*
X151257142Y-142405428D01*
X151314285Y-142291142D01*
X151371428Y-142234000D01*
X151485714Y-142176857D01*
X139571428Y-145308857D02*
X139571428Y-144108857D01*
X139571428Y-144566000D02*
X139685714Y-144508857D01*
X139914285Y-144508857D01*
X140028571Y-144566000D01*
X140085714Y-144623142D01*
X140142857Y-144737428D01*
X140142857Y-145080285D01*
X140085714Y-145194571D01*
X140028571Y-145251714D01*
X139914285Y-145308857D01*
X139685714Y-145308857D01*
X139571428Y-145251714D01*
X140542857Y-144508857D02*
X140828571Y-145308857D01*
X141114285Y-144508857D02*
X140828571Y-145308857D01*
X140714285Y-145594571D01*
X140657142Y-145651714D01*
X140542857Y-145708857D01*
X143171428Y-145308857D02*
X142771428Y-144737428D01*
X142485714Y-145308857D02*
X142485714Y-144108857D01*
X142942857Y-144108857D01*
X143057142Y-144166000D01*
X143114285Y-144223142D01*
X143171428Y-144337428D01*
X143171428Y-144508857D01*
X143114285Y-144623142D01*
X143057142Y-144680285D01*
X142942857Y-144737428D01*
X142485714Y-144737428D01*
X144142857Y-145251714D02*
X144028571Y-145308857D01*
X143800000Y-145308857D01*
X143685714Y-145251714D01*
X143628571Y-145137428D01*
X143628571Y-144680285D01*
X143685714Y-144566000D01*
X143800000Y-144508857D01*
X144028571Y-144508857D01*
X144142857Y-144566000D01*
X144200000Y-144680285D01*
X144200000Y-144794571D01*
X143628571Y-144908857D01*
X144714285Y-144508857D02*
X144714285Y-145308857D01*
X144714285Y-144623142D02*
X144771428Y-144566000D01*
X144885714Y-144508857D01*
X145057142Y-144508857D01*
X145171428Y-144566000D01*
X145228571Y-144680285D01*
X145228571Y-145308857D01*
X146314285Y-145308857D02*
X146314285Y-144680285D01*
X146257142Y-144566000D01*
X146142857Y-144508857D01*
X145914285Y-144508857D01*
X145800000Y-144566000D01*
X146314285Y-145251714D02*
X146200000Y-145308857D01*
X145914285Y-145308857D01*
X145800000Y-145251714D01*
X145742857Y-145137428D01*
X145742857Y-145023142D01*
X145800000Y-144908857D01*
X145914285Y-144851714D01*
X146200000Y-144851714D01*
X146314285Y-144794571D01*
X146714285Y-144508857D02*
X147171428Y-144508857D01*
X146885714Y-144108857D02*
X146885714Y-145137428D01*
X146942857Y-145251714D01*
X147057142Y-145308857D01*
X147171428Y-145308857D01*
X148085714Y-145308857D02*
X148085714Y-144680285D01*
X148028571Y-144566000D01*
X147914285Y-144508857D01*
X147685714Y-144508857D01*
X147571428Y-144566000D01*
X148085714Y-145251714D02*
X147971428Y-145308857D01*
X147685714Y-145308857D01*
X147571428Y-145251714D01*
X147514285Y-145137428D01*
X147514285Y-145023142D01*
X147571428Y-144908857D01*
X147685714Y-144851714D01*
X147971428Y-144851714D01*
X148085714Y-144794571D01*
X149457142Y-144108857D02*
X150257142Y-144108857D01*
X149457142Y-145308857D01*
X150257142Y-145308857D01*
X151171428Y-145251714D02*
X151057142Y-145308857D01*
X150828571Y-145308857D01*
X150714285Y-145251714D01*
X150657142Y-145137428D01*
X150657142Y-144680285D01*
X150714285Y-144566000D01*
X150828571Y-144508857D01*
X151057142Y-144508857D01*
X151171428Y-144566000D01*
X151228571Y-144680285D01*
X151228571Y-144794571D01*
X150657142Y-144908857D01*
X151742857Y-145308857D02*
X151742857Y-144508857D01*
X151742857Y-144623142D02*
X151800000Y-144566000D01*
X151914285Y-144508857D01*
X152085714Y-144508857D01*
X152200000Y-144566000D01*
X152257142Y-144680285D01*
X152257142Y-145308857D01*
X152257142Y-144680285D02*
X152314285Y-144566000D01*
X152428571Y-144508857D01*
X152600000Y-144508857D01*
X152714285Y-144566000D01*
X152771428Y-144680285D01*
X152771428Y-145308857D01*
X153857142Y-145308857D02*
X153857142Y-144680285D01*
X153800000Y-144566000D01*
X153685714Y-144508857D01*
X153457142Y-144508857D01*
X153342857Y-144566000D01*
X153857142Y-145251714D02*
X153742857Y-145308857D01*
X153457142Y-145308857D01*
X153342857Y-145251714D01*
X153285714Y-145137428D01*
X153285714Y-145023142D01*
X153342857Y-144908857D01*
X153457142Y-144851714D01*
X153742857Y-144851714D01*
X153857142Y-144794571D01*
X154428571Y-144508857D02*
X154428571Y-145308857D01*
X154428571Y-144623142D02*
X154485714Y-144566000D01*
X154600000Y-144508857D01*
X154771428Y-144508857D01*
X154885714Y-144566000D01*
X154942857Y-144680285D01*
X154942857Y-145308857D01*
X155685714Y-145308857D02*
X155571428Y-145251714D01*
X155514285Y-145194571D01*
X155457142Y-145080285D01*
X155457142Y-144737428D01*
X155514285Y-144623142D01*
X155571428Y-144566000D01*
X155685714Y-144508857D01*
X155857142Y-144508857D01*
X155971428Y-144566000D01*
X156028571Y-144623142D01*
X156085714Y-144737428D01*
X156085714Y-145080285D01*
X156028571Y-145194571D01*
X155971428Y-145251714D01*
X155857142Y-145308857D01*
X155685714Y-145308857D01*
X156485714Y-144508857D02*
X156771428Y-145308857D01*
X157057142Y-144508857D01*
X158028571Y-145308857D02*
X158028571Y-144680285D01*
X157971428Y-144566000D01*
X157857142Y-144508857D01*
X157628571Y-144508857D01*
X157514285Y-144566000D01*
X158028571Y-145251714D02*
X157914285Y-145308857D01*
X157628571Y-145308857D01*
X157514285Y-145251714D01*
X157457142Y-145137428D01*
X157457142Y-145023142D01*
X157514285Y-144908857D01*
X157628571Y-144851714D01*
X157914285Y-144851714D01*
X158028571Y-144794571D01*
X157857142Y-144051714D02*
X157685714Y-144223142D01*
X145971428Y-147240857D02*
X145971428Y-146040857D01*
X145971428Y-146498000D02*
X146085714Y-146440857D01*
X146314285Y-146440857D01*
X146428571Y-146498000D01*
X146485714Y-146555142D01*
X146542857Y-146669428D01*
X146542857Y-147012285D01*
X146485714Y-147126571D01*
X146428571Y-147183714D01*
X146314285Y-147240857D01*
X146085714Y-147240857D01*
X145971428Y-147183714D01*
X147228571Y-147240857D02*
X147114285Y-147183714D01*
X147057142Y-147126571D01*
X147000000Y-147012285D01*
X147000000Y-146669428D01*
X147057142Y-146555142D01*
X147114285Y-146498000D01*
X147228571Y-146440857D01*
X147400000Y-146440857D01*
X147514285Y-146498000D01*
X147571428Y-146555142D01*
X147628571Y-146669428D01*
X147628571Y-147012285D01*
X147571428Y-147126571D01*
X147514285Y-147183714D01*
X147400000Y-147240857D01*
X147228571Y-147240857D01*
X147971428Y-146440857D02*
X148428571Y-146440857D01*
X148142857Y-146040857D02*
X148142857Y-147069428D01*
X148200000Y-147183714D01*
X148314285Y-147240857D01*
X148428571Y-147240857D01*
X148657142Y-146440857D02*
X149114285Y-146440857D01*
X148828571Y-146040857D02*
X148828571Y-147069428D01*
X148885714Y-147183714D01*
X149000000Y-147240857D01*
X149114285Y-147240857D01*
X149685714Y-147240857D02*
X149571428Y-147183714D01*
X149514285Y-147126571D01*
X149457142Y-147012285D01*
X149457142Y-146669428D01*
X149514285Y-146555142D01*
X149571428Y-146498000D01*
X149685714Y-146440857D01*
X149857142Y-146440857D01*
X149971428Y-146498000D01*
X150028571Y-146555142D01*
X150085714Y-146669428D01*
X150085714Y-147012285D01*
X150028571Y-147126571D01*
X149971428Y-147183714D01*
X149857142Y-147240857D01*
X149685714Y-147240857D01*
X150600000Y-147240857D02*
X150600000Y-146440857D01*
X150600000Y-146555142D02*
X150657142Y-146498000D01*
X150771428Y-146440857D01*
X150942857Y-146440857D01*
X151057142Y-146498000D01*
X151114285Y-146612285D01*
X151114285Y-147240857D01*
X151114285Y-146612285D02*
X151171428Y-146498000D01*
X151285714Y-146440857D01*
X151457142Y-146440857D01*
X151571428Y-146498000D01*
X151628571Y-146612285D01*
X151628571Y-147240857D01*
D11*
G04 #@! TO.C,R11*
X181557142Y-72289880D02*
X181223809Y-71813690D01*
X180985714Y-72289880D02*
X180985714Y-71289880D01*
X181366666Y-71289880D01*
X181461904Y-71337500D01*
X181509523Y-71385119D01*
X181557142Y-71480357D01*
X181557142Y-71623214D01*
X181509523Y-71718452D01*
X181461904Y-71766071D01*
X181366666Y-71813690D01*
X180985714Y-71813690D01*
X182509523Y-72289880D02*
X181938095Y-72289880D01*
X182223809Y-72289880D02*
X182223809Y-71289880D01*
X182128571Y-71432738D01*
X182033333Y-71527976D01*
X181938095Y-71575595D01*
X183461904Y-72289880D02*
X182890476Y-72289880D01*
X183176190Y-72289880D02*
X183176190Y-71289880D01*
X183080952Y-71432738D01*
X182985714Y-71527976D01*
X182890476Y-71575595D01*
G04 #@! TO.C,BZ1*
X123041547Y-68028571D02*
X123184404Y-68076190D01*
X123232023Y-68123809D01*
X123279642Y-68219047D01*
X123279642Y-68361904D01*
X123232023Y-68457142D01*
X123184404Y-68504761D01*
X123089166Y-68552380D01*
X122708214Y-68552380D01*
X122708214Y-67552380D01*
X123041547Y-67552380D01*
X123136785Y-67600000D01*
X123184404Y-67647619D01*
X123232023Y-67742857D01*
X123232023Y-67838095D01*
X123184404Y-67933333D01*
X123136785Y-67980952D01*
X123041547Y-68028571D01*
X122708214Y-68028571D01*
X123612976Y-67552380D02*
X124279642Y-67552380D01*
X123612976Y-68552380D01*
X124279642Y-68552380D01*
X125184404Y-68552380D02*
X124612976Y-68552380D01*
X124898690Y-68552380D02*
X124898690Y-67552380D01*
X124803452Y-67695238D01*
X124708214Y-67790476D01*
X124612976Y-67838095D01*
G04 #@! TO.C,J4*
X103566666Y-79342380D02*
X103566666Y-80056666D01*
X103519047Y-80199523D01*
X103423809Y-80294761D01*
X103280952Y-80342380D01*
X103185714Y-80342380D01*
X104471428Y-79675714D02*
X104471428Y-80342380D01*
X104233333Y-79294761D02*
X103995238Y-80009047D01*
X104614285Y-80009047D01*
G04 #@! TO.C,J3*
X188166666Y-76452380D02*
X188166666Y-77166666D01*
X188119047Y-77309523D01*
X188023809Y-77404761D01*
X187880952Y-77452380D01*
X187785714Y-77452380D01*
X188547619Y-76452380D02*
X189166666Y-76452380D01*
X188833333Y-76833333D01*
X188976190Y-76833333D01*
X189071428Y-76880952D01*
X189119047Y-76928571D01*
X189166666Y-77023809D01*
X189166666Y-77261904D01*
X189119047Y-77357142D01*
X189071428Y-77404761D01*
X188976190Y-77452380D01*
X188690476Y-77452380D01*
X188595238Y-77404761D01*
X188547619Y-77357142D01*
G04 #@! TO.C,R12*
X166288392Y-141227380D02*
X165955059Y-140751190D01*
X165716964Y-141227380D02*
X165716964Y-140227380D01*
X166097916Y-140227380D01*
X166193154Y-140275000D01*
X166240773Y-140322619D01*
X166288392Y-140417857D01*
X166288392Y-140560714D01*
X166240773Y-140655952D01*
X166193154Y-140703571D01*
X166097916Y-140751190D01*
X165716964Y-140751190D01*
X167240773Y-141227380D02*
X166669345Y-141227380D01*
X166955059Y-141227380D02*
X166955059Y-140227380D01*
X166859821Y-140370238D01*
X166764583Y-140465476D01*
X166669345Y-140513095D01*
X167621726Y-140322619D02*
X167669345Y-140275000D01*
X167764583Y-140227380D01*
X168002678Y-140227380D01*
X168097916Y-140275000D01*
X168145535Y-140322619D01*
X168193154Y-140417857D01*
X168193154Y-140513095D01*
X168145535Y-140655952D01*
X167574107Y-141227380D01*
X168193154Y-141227380D01*
G04 #@! TO.C,D13*
X184332380Y-117254285D02*
X183332380Y-117254285D01*
X183332380Y-117016190D01*
X183380000Y-116873333D01*
X183475238Y-116778095D01*
X183570476Y-116730476D01*
X183760952Y-116682857D01*
X183903809Y-116682857D01*
X184094285Y-116730476D01*
X184189523Y-116778095D01*
X184284761Y-116873333D01*
X184332380Y-117016190D01*
X184332380Y-117254285D01*
X184332380Y-115730476D02*
X184332380Y-116301904D01*
X184332380Y-116016190D02*
X183332380Y-116016190D01*
X183475238Y-116111428D01*
X183570476Y-116206666D01*
X183618095Y-116301904D01*
X183332380Y-115397142D02*
X183332380Y-114778095D01*
X183713333Y-115111428D01*
X183713333Y-114968571D01*
X183760952Y-114873333D01*
X183808571Y-114825714D01*
X183903809Y-114778095D01*
X184141904Y-114778095D01*
X184237142Y-114825714D01*
X184284761Y-114873333D01*
X184332380Y-114968571D01*
X184332380Y-115254285D01*
X184284761Y-115349523D01*
X184237142Y-115397142D01*
G04 #@! TO.C,D15*
X103102380Y-117464285D02*
X102102380Y-117464285D01*
X102102380Y-117226190D01*
X102150000Y-117083333D01*
X102245238Y-116988095D01*
X102340476Y-116940476D01*
X102530952Y-116892857D01*
X102673809Y-116892857D01*
X102864285Y-116940476D01*
X102959523Y-116988095D01*
X103054761Y-117083333D01*
X103102380Y-117226190D01*
X103102380Y-117464285D01*
X103102380Y-115940476D02*
X103102380Y-116511904D01*
X103102380Y-116226190D02*
X102102380Y-116226190D01*
X102245238Y-116321428D01*
X102340476Y-116416666D01*
X102388095Y-116511904D01*
X102102380Y-115035714D02*
X102102380Y-115511904D01*
X102578571Y-115559523D01*
X102530952Y-115511904D01*
X102483333Y-115416666D01*
X102483333Y-115178571D01*
X102530952Y-115083333D01*
X102578571Y-115035714D01*
X102673809Y-114988095D01*
X102911904Y-114988095D01*
X103007142Y-115035714D01*
X103054761Y-115083333D01*
X103102380Y-115178571D01*
X103102380Y-115416666D01*
X103054761Y-115511904D01*
X103007142Y-115559523D01*
G04 #@! TO.C,R15*
X118307142Y-120152380D02*
X117973809Y-119676190D01*
X117735714Y-120152380D02*
X117735714Y-119152380D01*
X118116666Y-119152380D01*
X118211904Y-119200000D01*
X118259523Y-119247619D01*
X118307142Y-119342857D01*
X118307142Y-119485714D01*
X118259523Y-119580952D01*
X118211904Y-119628571D01*
X118116666Y-119676190D01*
X117735714Y-119676190D01*
X119259523Y-120152380D02*
X118688095Y-120152380D01*
X118973809Y-120152380D02*
X118973809Y-119152380D01*
X118878571Y-119295238D01*
X118783333Y-119390476D01*
X118688095Y-119438095D01*
X120164285Y-119152380D02*
X119688095Y-119152380D01*
X119640476Y-119628571D01*
X119688095Y-119580952D01*
X119783333Y-119533333D01*
X120021428Y-119533333D01*
X120116666Y-119580952D01*
X120164285Y-119628571D01*
X120211904Y-119723809D01*
X120211904Y-119961904D01*
X120164285Y-120057142D01*
X120116666Y-120104761D01*
X120021428Y-120152380D01*
X119783333Y-120152380D01*
X119688095Y-120104761D01*
X119640476Y-120057142D01*
G04 #@! TO.C,J2*
X111683411Y-113799862D02*
X111683411Y-114514148D01*
X111635792Y-114657005D01*
X111540554Y-114752243D01*
X111397697Y-114799862D01*
X111302459Y-114799862D01*
X112111983Y-113895101D02*
X112159602Y-113847482D01*
X112254840Y-113799862D01*
X112492935Y-113799862D01*
X112588173Y-113847482D01*
X112635792Y-113895101D01*
X112683411Y-113990339D01*
X112683411Y-114085577D01*
X112635792Y-114228434D01*
X112064364Y-114799862D01*
X112683411Y-114799862D01*
G04 #@! TO.C,R8*
X150302380Y-130216666D02*
X149826190Y-130550000D01*
X150302380Y-130788095D02*
X149302380Y-130788095D01*
X149302380Y-130407142D01*
X149350000Y-130311904D01*
X149397619Y-130264285D01*
X149492857Y-130216666D01*
X149635714Y-130216666D01*
X149730952Y-130264285D01*
X149778571Y-130311904D01*
X149826190Y-130407142D01*
X149826190Y-130788095D01*
X149730952Y-129645238D02*
X149683333Y-129740476D01*
X149635714Y-129788095D01*
X149540476Y-129835714D01*
X149492857Y-129835714D01*
X149397619Y-129788095D01*
X149350000Y-129740476D01*
X149302380Y-129645238D01*
X149302380Y-129454761D01*
X149350000Y-129359523D01*
X149397619Y-129311904D01*
X149492857Y-129264285D01*
X149540476Y-129264285D01*
X149635714Y-129311904D01*
X149683333Y-129359523D01*
X149730952Y-129454761D01*
X149730952Y-129645238D01*
X149778571Y-129740476D01*
X149826190Y-129788095D01*
X149921428Y-129835714D01*
X150111904Y-129835714D01*
X150207142Y-129788095D01*
X150254761Y-129740476D01*
X150302380Y-129645238D01*
X150302380Y-129454761D01*
X150254761Y-129359523D01*
X150207142Y-129311904D01*
X150111904Y-129264285D01*
X149921428Y-129264285D01*
X149826190Y-129311904D01*
X149778571Y-129359523D01*
X149730952Y-129454761D01*
G04 #@! TO.C,U2*
X155052380Y-128211904D02*
X155861904Y-128211904D01*
X155957142Y-128164285D01*
X156004761Y-128116666D01*
X156052380Y-128021428D01*
X156052380Y-127830952D01*
X156004761Y-127735714D01*
X155957142Y-127688095D01*
X155861904Y-127640476D01*
X155052380Y-127640476D01*
X155147619Y-127211904D02*
X155100000Y-127164285D01*
X155052380Y-127069047D01*
X155052380Y-126830952D01*
X155100000Y-126735714D01*
X155147619Y-126688095D01*
X155242857Y-126640476D01*
X155338095Y-126640476D01*
X155480952Y-126688095D01*
X156052380Y-127259523D01*
X156052380Y-126640476D01*
G04 #@! TO.C,R16*
X141624880Y-93942857D02*
X141148690Y-94276190D01*
X141624880Y-94514285D02*
X140624880Y-94514285D01*
X140624880Y-94133333D01*
X140672500Y-94038095D01*
X140720119Y-93990476D01*
X140815357Y-93942857D01*
X140958214Y-93942857D01*
X141053452Y-93990476D01*
X141101071Y-94038095D01*
X141148690Y-94133333D01*
X141148690Y-94514285D01*
X141624880Y-92990476D02*
X141624880Y-93561904D01*
X141624880Y-93276190D02*
X140624880Y-93276190D01*
X140767738Y-93371428D01*
X140862976Y-93466666D01*
X140910595Y-93561904D01*
X140624880Y-92133333D02*
X140624880Y-92323809D01*
X140672500Y-92419047D01*
X140720119Y-92466666D01*
X140862976Y-92561904D01*
X141053452Y-92609523D01*
X141434404Y-92609523D01*
X141529642Y-92561904D01*
X141577261Y-92514285D01*
X141624880Y-92419047D01*
X141624880Y-92228571D01*
X141577261Y-92133333D01*
X141529642Y-92085714D01*
X141434404Y-92038095D01*
X141196309Y-92038095D01*
X141101071Y-92085714D01*
X141053452Y-92133333D01*
X141005833Y-92228571D01*
X141005833Y-92419047D01*
X141053452Y-92514285D01*
X141101071Y-92561904D01*
X141196309Y-92609523D01*
G04 #@! TO.C,C13*
X186832142Y-97367857D02*
X186879761Y-97415476D01*
X186927380Y-97558333D01*
X186927380Y-97653571D01*
X186879761Y-97796428D01*
X186784523Y-97891666D01*
X186689285Y-97939285D01*
X186498809Y-97986904D01*
X186355952Y-97986904D01*
X186165476Y-97939285D01*
X186070238Y-97891666D01*
X185975000Y-97796428D01*
X185927380Y-97653571D01*
X185927380Y-97558333D01*
X185975000Y-97415476D01*
X186022619Y-97367857D01*
X186927380Y-96415476D02*
X186927380Y-96986904D01*
X186927380Y-96701190D02*
X185927380Y-96701190D01*
X186070238Y-96796428D01*
X186165476Y-96891666D01*
X186213095Y-96986904D01*
X185927380Y-96082142D02*
X185927380Y-95463095D01*
X186308333Y-95796428D01*
X186308333Y-95653571D01*
X186355952Y-95558333D01*
X186403571Y-95510714D01*
X186498809Y-95463095D01*
X186736904Y-95463095D01*
X186832142Y-95510714D01*
X186879761Y-95558333D01*
X186927380Y-95653571D01*
X186927380Y-95939285D01*
X186879761Y-96034523D01*
X186832142Y-96082142D01*
G04 #@! TO.C,D21*
X117154812Y-77203433D02*
X117154812Y-76203433D01*
X117392907Y-76203433D01*
X117535764Y-76251053D01*
X117631002Y-76346291D01*
X117678621Y-76441529D01*
X117726240Y-76632005D01*
X117726240Y-76774862D01*
X117678621Y-76965338D01*
X117631002Y-77060576D01*
X117535764Y-77155814D01*
X117392907Y-77203433D01*
X117154812Y-77203433D01*
X118107193Y-76298672D02*
X118154812Y-76251053D01*
X118250050Y-76203433D01*
X118488145Y-76203433D01*
X118583383Y-76251053D01*
X118631002Y-76298672D01*
X118678621Y-76393910D01*
X118678621Y-76489148D01*
X118631002Y-76632005D01*
X118059574Y-77203433D01*
X118678621Y-77203433D01*
X119631002Y-77203433D02*
X119059574Y-77203433D01*
X119345288Y-77203433D02*
X119345288Y-76203433D01*
X119250050Y-76346291D01*
X119154812Y-76441529D01*
X119059574Y-76489148D01*
G04 #@! TO.C,R22*
X123607856Y-94552380D02*
X123274523Y-94076190D01*
X123036428Y-94552380D02*
X123036428Y-93552380D01*
X123417380Y-93552380D01*
X123512618Y-93600000D01*
X123560237Y-93647619D01*
X123607856Y-93742857D01*
X123607856Y-93885714D01*
X123560237Y-93980952D01*
X123512618Y-94028571D01*
X123417380Y-94076190D01*
X123036428Y-94076190D01*
X123988809Y-93647619D02*
X124036428Y-93600000D01*
X124131666Y-93552380D01*
X124369761Y-93552380D01*
X124464999Y-93600000D01*
X124512618Y-93647619D01*
X124560237Y-93742857D01*
X124560237Y-93838095D01*
X124512618Y-93980952D01*
X123941190Y-94552380D01*
X124560237Y-94552380D01*
X124941190Y-93647619D02*
X124988809Y-93600000D01*
X125084047Y-93552380D01*
X125322142Y-93552380D01*
X125417380Y-93600000D01*
X125464999Y-93647619D01*
X125512618Y-93742857D01*
X125512618Y-93838095D01*
X125464999Y-93980952D01*
X124893571Y-94552380D01*
X125512618Y-94552380D01*
G04 #@! TO.C,J8*
X180918386Y-81889791D02*
X181423462Y-82394867D01*
X181490806Y-82529554D01*
X181490806Y-82664241D01*
X181423462Y-82798928D01*
X181356119Y-82866271D01*
X181659165Y-81755104D02*
X181558149Y-81788775D01*
X181490806Y-81788775D01*
X181389791Y-81755104D01*
X181356119Y-81721432D01*
X181322447Y-81620417D01*
X181322447Y-81553073D01*
X181356119Y-81452058D01*
X181490806Y-81317371D01*
X181591821Y-81283699D01*
X181659165Y-81283699D01*
X181760180Y-81317371D01*
X181793852Y-81351043D01*
X181827523Y-81452058D01*
X181827523Y-81519401D01*
X181793852Y-81620417D01*
X181659165Y-81755104D01*
X181625493Y-81856119D01*
X181625493Y-81923462D01*
X181659165Y-82024478D01*
X181793852Y-82159165D01*
X181894867Y-82192836D01*
X181962210Y-82192836D01*
X182063226Y-82159165D01*
X182197913Y-82024478D01*
X182231584Y-81923462D01*
X182231584Y-81856119D01*
X182197913Y-81755104D01*
X182063226Y-81620417D01*
X181962210Y-81586745D01*
X181894867Y-81586745D01*
X181793852Y-81620417D01*
G04 #@! TO.C,C4*
X131257142Y-99916666D02*
X131304761Y-99964285D01*
X131352380Y-100107142D01*
X131352380Y-100202380D01*
X131304761Y-100345238D01*
X131209523Y-100440476D01*
X131114285Y-100488095D01*
X130923809Y-100535714D01*
X130780952Y-100535714D01*
X130590476Y-100488095D01*
X130495238Y-100440476D01*
X130400000Y-100345238D01*
X130352380Y-100202380D01*
X130352380Y-100107142D01*
X130400000Y-99964285D01*
X130447619Y-99916666D01*
X130685714Y-99059523D02*
X131352380Y-99059523D01*
X130304761Y-99297619D02*
X131019047Y-99535714D01*
X131019047Y-98916666D01*
G04 #@! TO.C,U3*
X191352380Y-99974404D02*
X192161904Y-99974404D01*
X192257142Y-99926785D01*
X192304761Y-99879166D01*
X192352380Y-99783928D01*
X192352380Y-99593452D01*
X192304761Y-99498214D01*
X192257142Y-99450595D01*
X192161904Y-99402976D01*
X191352380Y-99402976D01*
X191352380Y-99022023D02*
X191352380Y-98402976D01*
X191733333Y-98736309D01*
X191733333Y-98593452D01*
X191780952Y-98498214D01*
X191828571Y-98450595D01*
X191923809Y-98402976D01*
X192161904Y-98402976D01*
X192257142Y-98450595D01*
X192304761Y-98498214D01*
X192352380Y-98593452D01*
X192352380Y-98879166D01*
X192304761Y-98974404D01*
X192257142Y-99022023D01*
G04 #@! TO.C,D18*
X120629729Y-125102894D02*
X119810577Y-124529318D01*
X119947142Y-124334282D01*
X120068089Y-124244573D01*
X120200730Y-124221185D01*
X120306058Y-124236804D01*
X120489400Y-124307049D01*
X120606421Y-124388989D01*
X120735137Y-124537249D01*
X120785839Y-124630882D01*
X120809227Y-124763523D01*
X120766294Y-124907858D01*
X120629729Y-125102894D01*
X121503750Y-123854662D02*
X121175992Y-124322749D01*
X121339871Y-124088706D02*
X120520719Y-123515129D01*
X120583114Y-123675083D01*
X120606502Y-123807724D01*
X120590883Y-123913052D01*
X121363421Y-123058818D02*
X121269787Y-123109519D01*
X121203467Y-123121213D01*
X121098139Y-123105594D01*
X121059132Y-123078281D01*
X121008431Y-122984647D01*
X120996737Y-122918327D01*
X121012356Y-122812999D01*
X121121608Y-122656970D01*
X121215242Y-122606269D01*
X121281562Y-122594575D01*
X121386890Y-122610194D01*
X121425897Y-122637507D01*
X121476599Y-122731141D01*
X121488293Y-122797461D01*
X121472674Y-122902789D01*
X121363421Y-123058818D01*
X121347802Y-123164145D01*
X121359496Y-123230466D01*
X121410197Y-123324099D01*
X121566226Y-123433352D01*
X121671554Y-123448971D01*
X121737874Y-123437277D01*
X121831508Y-123386576D01*
X121940760Y-123230547D01*
X121956380Y-123125219D01*
X121944685Y-123058899D01*
X121893984Y-122965265D01*
X121737955Y-122856012D01*
X121632628Y-122840393D01*
X121566307Y-122852087D01*
X121472674Y-122902789D01*
G04 #@! TO.C,D24*
X121320421Y-127885648D02*
X120746845Y-128704800D01*
X120551809Y-128568235D01*
X120462100Y-128447288D01*
X120438712Y-128314647D01*
X120454331Y-128209319D01*
X120524576Y-128025977D01*
X120606516Y-127908956D01*
X120754776Y-127780240D01*
X120848409Y-127729538D01*
X120981050Y-127706150D01*
X121125385Y-127749083D01*
X121320421Y-127885648D01*
X120021326Y-128080523D02*
X119955006Y-128092217D01*
X119849678Y-128076598D01*
X119654642Y-127940032D01*
X119603941Y-127846398D01*
X119592247Y-127780078D01*
X119607866Y-127674750D01*
X119662492Y-127596736D01*
X119783439Y-127507027D01*
X120579284Y-127366698D01*
X120072189Y-127011627D01*
X118987675Y-127066092D02*
X119370059Y-126519990D01*
X118964206Y-127514715D02*
X119568939Y-127066173D01*
X119061845Y-126711101D01*
G04 #@! TO.C,C6*
X148133333Y-91357142D02*
X148085714Y-91404761D01*
X147942857Y-91452380D01*
X147847619Y-91452380D01*
X147704761Y-91404761D01*
X147609523Y-91309523D01*
X147561904Y-91214285D01*
X147514285Y-91023809D01*
X147514285Y-90880952D01*
X147561904Y-90690476D01*
X147609523Y-90595238D01*
X147704761Y-90500000D01*
X147847619Y-90452380D01*
X147942857Y-90452380D01*
X148085714Y-90500000D01*
X148133333Y-90547619D01*
X148990476Y-90452380D02*
X148800000Y-90452380D01*
X148704761Y-90500000D01*
X148657142Y-90547619D01*
X148561904Y-90690476D01*
X148514285Y-90880952D01*
X148514285Y-91261904D01*
X148561904Y-91357142D01*
X148609523Y-91404761D01*
X148704761Y-91452380D01*
X148895238Y-91452380D01*
X148990476Y-91404761D01*
X149038095Y-91357142D01*
X149085714Y-91261904D01*
X149085714Y-91023809D01*
X149038095Y-90928571D01*
X148990476Y-90880952D01*
X148895238Y-90833333D01*
X148704761Y-90833333D01*
X148609523Y-90880952D01*
X148561904Y-90928571D01*
X148514285Y-91023809D01*
G04 #@! TO.C,Q6*
X180454761Y-79997619D02*
X180359523Y-79950000D01*
X180264285Y-79854761D01*
X180121428Y-79711904D01*
X180026190Y-79664285D01*
X179930952Y-79664285D01*
X179978571Y-79902380D02*
X179883333Y-79854761D01*
X179788095Y-79759523D01*
X179740476Y-79569047D01*
X179740476Y-79235714D01*
X179788095Y-79045238D01*
X179883333Y-78950000D01*
X179978571Y-78902380D01*
X180169047Y-78902380D01*
X180264285Y-78950000D01*
X180359523Y-79045238D01*
X180407142Y-79235714D01*
X180407142Y-79569047D01*
X180359523Y-79759523D01*
X180264285Y-79854761D01*
X180169047Y-79902380D01*
X179978571Y-79902380D01*
X181264285Y-78902380D02*
X181073809Y-78902380D01*
X180978571Y-78950000D01*
X180930952Y-78997619D01*
X180835714Y-79140476D01*
X180788095Y-79330952D01*
X180788095Y-79711904D01*
X180835714Y-79807142D01*
X180883333Y-79854761D01*
X180978571Y-79902380D01*
X181169047Y-79902380D01*
X181264285Y-79854761D01*
X181311904Y-79807142D01*
X181359523Y-79711904D01*
X181359523Y-79473809D01*
X181311904Y-79378571D01*
X181264285Y-79330952D01*
X181169047Y-79283333D01*
X180978571Y-79283333D01*
X180883333Y-79330952D01*
X180835714Y-79378571D01*
X180788095Y-79473809D01*
G04 #@! TO.C,C14*
X187007142Y-106532142D02*
X186959523Y-106579761D01*
X186816666Y-106627380D01*
X186721428Y-106627380D01*
X186578571Y-106579761D01*
X186483333Y-106484523D01*
X186435714Y-106389285D01*
X186388095Y-106198809D01*
X186388095Y-106055952D01*
X186435714Y-105865476D01*
X186483333Y-105770238D01*
X186578571Y-105675000D01*
X186721428Y-105627380D01*
X186816666Y-105627380D01*
X186959523Y-105675000D01*
X187007142Y-105722619D01*
X187959523Y-106627380D02*
X187388095Y-106627380D01*
X187673809Y-106627380D02*
X187673809Y-105627380D01*
X187578571Y-105770238D01*
X187483333Y-105865476D01*
X187388095Y-105913095D01*
X188816666Y-105960714D02*
X188816666Y-106627380D01*
X188578571Y-105579761D02*
X188340476Y-106294047D01*
X188959523Y-106294047D01*
G04 #@! TO.C,C3*
X136307142Y-101766666D02*
X136354761Y-101814285D01*
X136402380Y-101957142D01*
X136402380Y-102052380D01*
X136354761Y-102195238D01*
X136259523Y-102290476D01*
X136164285Y-102338095D01*
X135973809Y-102385714D01*
X135830952Y-102385714D01*
X135640476Y-102338095D01*
X135545238Y-102290476D01*
X135450000Y-102195238D01*
X135402380Y-102052380D01*
X135402380Y-101957142D01*
X135450000Y-101814285D01*
X135497619Y-101766666D01*
X135402380Y-101433333D02*
X135402380Y-100814285D01*
X135783333Y-101147619D01*
X135783333Y-101004761D01*
X135830952Y-100909523D01*
X135878571Y-100861904D01*
X135973809Y-100814285D01*
X136211904Y-100814285D01*
X136307142Y-100861904D01*
X136354761Y-100909523D01*
X136402380Y-101004761D01*
X136402380Y-101290476D01*
X136354761Y-101385714D01*
X136307142Y-101433333D01*
G04 #@! TO.C,R30*
X123657142Y-97852380D02*
X123323809Y-97376190D01*
X123085714Y-97852380D02*
X123085714Y-96852380D01*
X123466666Y-96852380D01*
X123561904Y-96900000D01*
X123609523Y-96947619D01*
X123657142Y-97042857D01*
X123657142Y-97185714D01*
X123609523Y-97280952D01*
X123561904Y-97328571D01*
X123466666Y-97376190D01*
X123085714Y-97376190D01*
X123990476Y-96852380D02*
X124609523Y-96852380D01*
X124276190Y-97233333D01*
X124419047Y-97233333D01*
X124514285Y-97280952D01*
X124561904Y-97328571D01*
X124609523Y-97423809D01*
X124609523Y-97661904D01*
X124561904Y-97757142D01*
X124514285Y-97804761D01*
X124419047Y-97852380D01*
X124133333Y-97852380D01*
X124038095Y-97804761D01*
X123990476Y-97757142D01*
X125228571Y-96852380D02*
X125323809Y-96852380D01*
X125419047Y-96900000D01*
X125466666Y-96947619D01*
X125514285Y-97042857D01*
X125561904Y-97233333D01*
X125561904Y-97471428D01*
X125514285Y-97661904D01*
X125466666Y-97757142D01*
X125419047Y-97804761D01*
X125323809Y-97852380D01*
X125228571Y-97852380D01*
X125133333Y-97804761D01*
X125085714Y-97757142D01*
X125038095Y-97661904D01*
X124990476Y-97471428D01*
X124990476Y-97233333D01*
X125038095Y-97042857D01*
X125085714Y-96947619D01*
X125133333Y-96900000D01*
X125228571Y-96852380D01*
G04 #@! TO.C,D20*
X130970610Y-130492150D02*
X130397034Y-131311302D01*
X130201998Y-131174737D01*
X130112289Y-131053790D01*
X130088901Y-130921149D01*
X130104520Y-130815821D01*
X130174765Y-130632479D01*
X130256705Y-130515458D01*
X130404965Y-130386742D01*
X130498598Y-130336040D01*
X130631239Y-130312652D01*
X130775574Y-130355585D01*
X130970610Y-130492150D01*
X129671515Y-130687025D02*
X129605195Y-130698719D01*
X129499867Y-130683100D01*
X129304831Y-130546534D01*
X129254130Y-130452900D01*
X129242436Y-130386580D01*
X129258055Y-130281252D01*
X129312681Y-130203238D01*
X129433628Y-130113529D01*
X130229473Y-129973200D01*
X129722378Y-129618129D01*
X128641708Y-130082210D02*
X128563693Y-130027584D01*
X128512992Y-129933950D01*
X128501298Y-129867630D01*
X128516917Y-129762302D01*
X128587163Y-129578960D01*
X128723728Y-129383924D01*
X128871988Y-129255208D01*
X128965622Y-129204507D01*
X129031942Y-129192813D01*
X129137270Y-129208432D01*
X129215284Y-129263058D01*
X129265986Y-129356692D01*
X129277680Y-129423012D01*
X129262061Y-129528340D01*
X129191815Y-129711682D01*
X129055249Y-129906718D01*
X128906990Y-130035434D01*
X128813356Y-130086135D01*
X128747036Y-130097829D01*
X128641708Y-130082210D01*
G04 #@! TO.C,Q3*
X117972619Y-70945238D02*
X117925000Y-71040476D01*
X117829761Y-71135714D01*
X117686904Y-71278571D01*
X117639285Y-71373809D01*
X117639285Y-71469047D01*
X117877380Y-71421428D02*
X117829761Y-71516666D01*
X117734523Y-71611904D01*
X117544047Y-71659523D01*
X117210714Y-71659523D01*
X117020238Y-71611904D01*
X116925000Y-71516666D01*
X116877380Y-71421428D01*
X116877380Y-71230952D01*
X116925000Y-71135714D01*
X117020238Y-71040476D01*
X117210714Y-70992857D01*
X117544047Y-70992857D01*
X117734523Y-71040476D01*
X117829761Y-71135714D01*
X117877380Y-71230952D01*
X117877380Y-71421428D01*
X116877380Y-70659523D02*
X116877380Y-70040476D01*
X117258333Y-70373809D01*
X117258333Y-70230952D01*
X117305952Y-70135714D01*
X117353571Y-70088095D01*
X117448809Y-70040476D01*
X117686904Y-70040476D01*
X117782142Y-70088095D01*
X117829761Y-70135714D01*
X117877380Y-70230952D01*
X117877380Y-70516666D01*
X117829761Y-70611904D01*
X117782142Y-70659523D01*
G04 #@! TO.C,R7*
X117383333Y-102402380D02*
X117050000Y-101926190D01*
X116811904Y-102402380D02*
X116811904Y-101402380D01*
X117192857Y-101402380D01*
X117288095Y-101450000D01*
X117335714Y-101497619D01*
X117383333Y-101592857D01*
X117383333Y-101735714D01*
X117335714Y-101830952D01*
X117288095Y-101878571D01*
X117192857Y-101926190D01*
X116811904Y-101926190D01*
X117716666Y-101402380D02*
X118383333Y-101402380D01*
X117954761Y-102402380D01*
G04 #@! TO.C,D22*
X108897975Y-118991785D02*
X107897975Y-118991785D01*
X107897975Y-118753690D01*
X107945595Y-118610833D01*
X108040833Y-118515595D01*
X108136071Y-118467976D01*
X108326547Y-118420357D01*
X108469404Y-118420357D01*
X108659880Y-118467976D01*
X108755118Y-118515595D01*
X108850356Y-118610833D01*
X108897975Y-118753690D01*
X108897975Y-118991785D01*
X107993214Y-118039404D02*
X107945595Y-117991785D01*
X107897975Y-117896547D01*
X107897975Y-117658452D01*
X107945595Y-117563214D01*
X107993214Y-117515595D01*
X108088452Y-117467976D01*
X108183690Y-117467976D01*
X108326547Y-117515595D01*
X108897975Y-118087023D01*
X108897975Y-117467976D01*
X107993214Y-117087023D02*
X107945595Y-117039404D01*
X107897975Y-116944166D01*
X107897975Y-116706071D01*
X107945595Y-116610833D01*
X107993214Y-116563214D01*
X108088452Y-116515595D01*
X108183690Y-116515595D01*
X108326547Y-116563214D01*
X108897975Y-117134642D01*
X108897975Y-116515595D01*
G04 #@! TO.C,C8*
X102732670Y-107351108D02*
X102685051Y-107398727D01*
X102542194Y-107446346D01*
X102446956Y-107446346D01*
X102304098Y-107398727D01*
X102208860Y-107303489D01*
X102161241Y-107208251D01*
X102113622Y-107017775D01*
X102113622Y-106874918D01*
X102161241Y-106684442D01*
X102208860Y-106589204D01*
X102304098Y-106493966D01*
X102446956Y-106446346D01*
X102542194Y-106446346D01*
X102685051Y-106493966D01*
X102732670Y-106541585D01*
X103304098Y-106874918D02*
X103208860Y-106827299D01*
X103161241Y-106779680D01*
X103113622Y-106684442D01*
X103113622Y-106636823D01*
X103161241Y-106541585D01*
X103208860Y-106493966D01*
X103304098Y-106446346D01*
X103494575Y-106446346D01*
X103589813Y-106493966D01*
X103637432Y-106541585D01*
X103685051Y-106636823D01*
X103685051Y-106684442D01*
X103637432Y-106779680D01*
X103589813Y-106827299D01*
X103494575Y-106874918D01*
X103304098Y-106874918D01*
X103208860Y-106922537D01*
X103161241Y-106970156D01*
X103113622Y-107065394D01*
X103113622Y-107255870D01*
X103161241Y-107351108D01*
X103208860Y-107398727D01*
X103304098Y-107446346D01*
X103494575Y-107446346D01*
X103589813Y-107398727D01*
X103637432Y-107351108D01*
X103685051Y-107255870D01*
X103685051Y-107065394D01*
X103637432Y-106970156D01*
X103589813Y-106922537D01*
X103494575Y-106874918D01*
G04 #@! TO.C,Q4*
X115735951Y-120735119D02*
X115640713Y-120687500D01*
X115545475Y-120592261D01*
X115402618Y-120449404D01*
X115307380Y-120401785D01*
X115212142Y-120401785D01*
X115259761Y-120639880D02*
X115164523Y-120592261D01*
X115069285Y-120497023D01*
X115021666Y-120306547D01*
X115021666Y-119973214D01*
X115069285Y-119782738D01*
X115164523Y-119687500D01*
X115259761Y-119639880D01*
X115450237Y-119639880D01*
X115545475Y-119687500D01*
X115640713Y-119782738D01*
X115688332Y-119973214D01*
X115688332Y-120306547D01*
X115640713Y-120497023D01*
X115545475Y-120592261D01*
X115450237Y-120639880D01*
X115259761Y-120639880D01*
X116545475Y-119973214D02*
X116545475Y-120639880D01*
X116307380Y-119592261D02*
X116069285Y-120306547D01*
X116688332Y-120306547D01*
G04 #@! TO.C,R5*
X109189267Y-107862614D02*
X108855934Y-107386424D01*
X108617838Y-107862614D02*
X108617838Y-106862614D01*
X108998791Y-106862614D01*
X109094029Y-106910234D01*
X109141648Y-106957853D01*
X109189267Y-107053091D01*
X109189267Y-107195948D01*
X109141648Y-107291186D01*
X109094029Y-107338805D01*
X108998791Y-107386424D01*
X108617838Y-107386424D01*
X110094029Y-106862614D02*
X109617838Y-106862614D01*
X109570219Y-107338805D01*
X109617838Y-107291186D01*
X109713076Y-107243567D01*
X109951172Y-107243567D01*
X110046410Y-107291186D01*
X110094029Y-107338805D01*
X110141648Y-107434043D01*
X110141648Y-107672138D01*
X110094029Y-107767376D01*
X110046410Y-107814995D01*
X109951172Y-107862614D01*
X109713076Y-107862614D01*
X109617838Y-107814995D01*
X109570219Y-107767376D01*
G04 #@! TO.C,R17*
X139154880Y-97842857D02*
X138678690Y-98176190D01*
X139154880Y-98414285D02*
X138154880Y-98414285D01*
X138154880Y-98033333D01*
X138202500Y-97938095D01*
X138250119Y-97890476D01*
X138345357Y-97842857D01*
X138488214Y-97842857D01*
X138583452Y-97890476D01*
X138631071Y-97938095D01*
X138678690Y-98033333D01*
X138678690Y-98414285D01*
X139154880Y-96890476D02*
X139154880Y-97461904D01*
X139154880Y-97176190D02*
X138154880Y-97176190D01*
X138297738Y-97271428D01*
X138392976Y-97366666D01*
X138440595Y-97461904D01*
X138154880Y-96557142D02*
X138154880Y-95890476D01*
X139154880Y-96319047D01*
G04 #@! TO.C,U1*
X99788095Y-90852380D02*
X99788095Y-91661904D01*
X99835714Y-91757142D01*
X99883333Y-91804761D01*
X99978571Y-91852380D01*
X100169047Y-91852380D01*
X100264285Y-91804761D01*
X100311904Y-91757142D01*
X100359523Y-91661904D01*
X100359523Y-90852380D01*
X101359523Y-91852380D02*
X100788095Y-91852380D01*
X101073809Y-91852380D02*
X101073809Y-90852380D01*
X100978571Y-90995238D01*
X100883333Y-91090476D01*
X100788095Y-91138095D01*
X101166666Y-104161904D02*
X101166666Y-103685714D01*
X101452380Y-104257142D02*
X100452380Y-103923809D01*
X101452380Y-103590476D01*
X100785714Y-103257142D02*
X101452380Y-103257142D01*
X100880952Y-103257142D02*
X100833333Y-103209523D01*
X100785714Y-103114285D01*
X100785714Y-102971428D01*
X100833333Y-102876190D01*
X100928571Y-102828571D01*
X101452380Y-102828571D01*
X100785714Y-102495238D02*
X100785714Y-102114285D01*
X100452380Y-102352380D02*
X101309523Y-102352380D01*
X101404761Y-102304761D01*
X101452380Y-102209523D01*
X101452380Y-102114285D01*
X101404761Y-101400000D02*
X101452380Y-101495238D01*
X101452380Y-101685714D01*
X101404761Y-101780952D01*
X101309523Y-101828571D01*
X100928571Y-101828571D01*
X100833333Y-101780952D01*
X100785714Y-101685714D01*
X100785714Y-101495238D01*
X100833333Y-101400000D01*
X100928571Y-101352380D01*
X101023809Y-101352380D01*
X101119047Y-101828571D01*
X100785714Y-100923809D02*
X101452380Y-100923809D01*
X100880952Y-100923809D02*
X100833333Y-100876190D01*
X100785714Y-100780952D01*
X100785714Y-100638095D01*
X100833333Y-100542857D01*
X100928571Y-100495238D01*
X101452380Y-100495238D01*
X100785714Y-100019047D02*
X101452380Y-100019047D01*
X100880952Y-100019047D02*
X100833333Y-99971428D01*
X100785714Y-99876190D01*
X100785714Y-99733333D01*
X100833333Y-99638095D01*
X100928571Y-99590476D01*
X101452380Y-99590476D01*
X101452380Y-98685714D02*
X100928571Y-98685714D01*
X100833333Y-98733333D01*
X100785714Y-98828571D01*
X100785714Y-99019047D01*
X100833333Y-99114285D01*
X101404761Y-98685714D02*
X101452380Y-98780952D01*
X101452380Y-99019047D01*
X101404761Y-99114285D01*
X101309523Y-99161904D01*
X101214285Y-99161904D01*
X101119047Y-99114285D01*
X101071428Y-99019047D01*
X101071428Y-98780952D01*
X101023809Y-98685714D01*
X101166666Y-97495238D02*
X101166666Y-97019047D01*
X101452380Y-97590476D02*
X100452380Y-97257142D01*
X101452380Y-96923809D01*
X101452380Y-96590476D02*
X100785714Y-96590476D01*
X100976190Y-96590476D02*
X100880952Y-96542857D01*
X100833333Y-96495238D01*
X100785714Y-96400000D01*
X100785714Y-96304761D01*
X101404761Y-95590476D02*
X101452380Y-95685714D01*
X101452380Y-95876190D01*
X101404761Y-95971428D01*
X101309523Y-96019047D01*
X100928571Y-96019047D01*
X100833333Y-95971428D01*
X100785714Y-95876190D01*
X100785714Y-95685714D01*
X100833333Y-95590476D01*
X100928571Y-95542857D01*
X101023809Y-95542857D01*
X101119047Y-96019047D01*
X101452380Y-94685714D02*
X100928571Y-94685714D01*
X100833333Y-94733333D01*
X100785714Y-94828571D01*
X100785714Y-95019047D01*
X100833333Y-95114285D01*
X101404761Y-94685714D02*
X101452380Y-94780952D01*
X101452380Y-95019047D01*
X101404761Y-95114285D01*
X101309523Y-95161904D01*
X101214285Y-95161904D01*
X101119047Y-95114285D01*
X101071428Y-95019047D01*
X101071428Y-94780952D01*
X101023809Y-94685714D01*
G04 #@! TO.C,C9*
X105476955Y-110846132D02*
X105429336Y-110893751D01*
X105286479Y-110941370D01*
X105191241Y-110941370D01*
X105048383Y-110893751D01*
X104953145Y-110798513D01*
X104905526Y-110703275D01*
X104857907Y-110512799D01*
X104857907Y-110369942D01*
X104905526Y-110179466D01*
X104953145Y-110084228D01*
X105048383Y-109988990D01*
X105191241Y-109941370D01*
X105286479Y-109941370D01*
X105429336Y-109988990D01*
X105476955Y-110036609D01*
X105953145Y-110941370D02*
X106143622Y-110941370D01*
X106238860Y-110893751D01*
X106286479Y-110846132D01*
X106381717Y-110703275D01*
X106429336Y-110512799D01*
X106429336Y-110131847D01*
X106381717Y-110036609D01*
X106334098Y-109988990D01*
X106238860Y-109941370D01*
X106048383Y-109941370D01*
X105953145Y-109988990D01*
X105905526Y-110036609D01*
X105857907Y-110131847D01*
X105857907Y-110369942D01*
X105905526Y-110465180D01*
X105953145Y-110512799D01*
X106048383Y-110560418D01*
X106238860Y-110560418D01*
X106334098Y-110512799D01*
X106381717Y-110465180D01*
X106429336Y-110369942D01*
G04 #@! TO.C,C2*
X112583333Y-108857142D02*
X112535714Y-108904761D01*
X112392857Y-108952380D01*
X112297619Y-108952380D01*
X112154761Y-108904761D01*
X112059523Y-108809523D01*
X112011904Y-108714285D01*
X111964285Y-108523809D01*
X111964285Y-108380952D01*
X112011904Y-108190476D01*
X112059523Y-108095238D01*
X112154761Y-108000000D01*
X112297619Y-107952380D01*
X112392857Y-107952380D01*
X112535714Y-108000000D01*
X112583333Y-108047619D01*
X112964285Y-108047619D02*
X113011904Y-108000000D01*
X113107142Y-107952380D01*
X113345238Y-107952380D01*
X113440476Y-108000000D01*
X113488095Y-108047619D01*
X113535714Y-108142857D01*
X113535714Y-108238095D01*
X113488095Y-108380952D01*
X112916666Y-108952380D01*
X113535714Y-108952380D01*
G04 #@! TO.C,BT1*
X165914285Y-138828571D02*
X166057142Y-138876190D01*
X166104761Y-138923809D01*
X166152380Y-139019047D01*
X166152380Y-139161904D01*
X166104761Y-139257142D01*
X166057142Y-139304761D01*
X165961904Y-139352380D01*
X165580952Y-139352380D01*
X165580952Y-138352380D01*
X165914285Y-138352380D01*
X166009523Y-138400000D01*
X166057142Y-138447619D01*
X166104761Y-138542857D01*
X166104761Y-138638095D01*
X166057142Y-138733333D01*
X166009523Y-138780952D01*
X165914285Y-138828571D01*
X165580952Y-138828571D01*
X166438095Y-138352380D02*
X167009523Y-138352380D01*
X166723809Y-139352380D02*
X166723809Y-138352380D01*
X167866666Y-139352380D02*
X167295238Y-139352380D01*
X167580952Y-139352380D02*
X167580952Y-138352380D01*
X167485714Y-138495238D01*
X167390476Y-138590476D01*
X167295238Y-138638095D01*
G04 #@! TO.C,C1*
X153983333Y-133257142D02*
X153935714Y-133304761D01*
X153792857Y-133352380D01*
X153697619Y-133352380D01*
X153554761Y-133304761D01*
X153459523Y-133209523D01*
X153411904Y-133114285D01*
X153364285Y-132923809D01*
X153364285Y-132780952D01*
X153411904Y-132590476D01*
X153459523Y-132495238D01*
X153554761Y-132400000D01*
X153697619Y-132352380D01*
X153792857Y-132352380D01*
X153935714Y-132400000D01*
X153983333Y-132447619D01*
X154935714Y-133352380D02*
X154364285Y-133352380D01*
X154650000Y-133352380D02*
X154650000Y-132352380D01*
X154554761Y-132495238D01*
X154459523Y-132590476D01*
X154364285Y-132638095D01*
G04 #@! TO.C,R18*
X138459642Y-90032380D02*
X138126309Y-89556190D01*
X137888214Y-90032380D02*
X137888214Y-89032380D01*
X138269166Y-89032380D01*
X138364404Y-89080000D01*
X138412023Y-89127619D01*
X138459642Y-89222857D01*
X138459642Y-89365714D01*
X138412023Y-89460952D01*
X138364404Y-89508571D01*
X138269166Y-89556190D01*
X137888214Y-89556190D01*
X139412023Y-90032380D02*
X138840595Y-90032380D01*
X139126309Y-90032380D02*
X139126309Y-89032380D01*
X139031071Y-89175238D01*
X138935833Y-89270476D01*
X138840595Y-89318095D01*
X139983452Y-89460952D02*
X139888214Y-89413333D01*
X139840595Y-89365714D01*
X139792976Y-89270476D01*
X139792976Y-89222857D01*
X139840595Y-89127619D01*
X139888214Y-89080000D01*
X139983452Y-89032380D01*
X140173928Y-89032380D01*
X140269166Y-89080000D01*
X140316785Y-89127619D01*
X140364404Y-89222857D01*
X140364404Y-89270476D01*
X140316785Y-89365714D01*
X140269166Y-89413333D01*
X140173928Y-89460952D01*
X139983452Y-89460952D01*
X139888214Y-89508571D01*
X139840595Y-89556190D01*
X139792976Y-89651428D01*
X139792976Y-89841904D01*
X139840595Y-89937142D01*
X139888214Y-89984761D01*
X139983452Y-90032380D01*
X140173928Y-90032380D01*
X140269166Y-89984761D01*
X140316785Y-89937142D01*
X140364404Y-89841904D01*
X140364404Y-89651428D01*
X140316785Y-89556190D01*
X140269166Y-89508571D01*
X140173928Y-89460952D01*
G04 #@! TO.C,R21*
X123732142Y-89702380D02*
X123398809Y-89226190D01*
X123160714Y-89702380D02*
X123160714Y-88702380D01*
X123541666Y-88702380D01*
X123636904Y-88750000D01*
X123684523Y-88797619D01*
X123732142Y-88892857D01*
X123732142Y-89035714D01*
X123684523Y-89130952D01*
X123636904Y-89178571D01*
X123541666Y-89226190D01*
X123160714Y-89226190D01*
X124113095Y-88797619D02*
X124160714Y-88750000D01*
X124255952Y-88702380D01*
X124494047Y-88702380D01*
X124589285Y-88750000D01*
X124636904Y-88797619D01*
X124684523Y-88892857D01*
X124684523Y-88988095D01*
X124636904Y-89130952D01*
X124065476Y-89702380D01*
X124684523Y-89702380D01*
X125636904Y-89702380D02*
X125065476Y-89702380D01*
X125351190Y-89702380D02*
X125351190Y-88702380D01*
X125255952Y-88845238D01*
X125160714Y-88940476D01*
X125065476Y-88988095D01*
G04 #@! TO.C,R3*
X129823152Y-133625689D02*
X129823071Y-134206953D01*
X130291239Y-133953447D02*
X129717662Y-134772599D01*
X129405604Y-134554093D01*
X129354903Y-134460460D01*
X129343209Y-134394140D01*
X129358828Y-134288812D01*
X129440768Y-134171790D01*
X129534401Y-134121089D01*
X129600722Y-134109395D01*
X129706049Y-134125014D01*
X130018107Y-134343519D01*
X128976525Y-134253649D02*
X128469431Y-133898578D01*
X128960987Y-133777712D01*
X128843965Y-133695772D01*
X128793264Y-133602139D01*
X128781570Y-133535818D01*
X128797189Y-133430491D01*
X128933754Y-133235454D01*
X129027388Y-133184753D01*
X129093708Y-133173059D01*
X129199036Y-133188678D01*
X129433079Y-133352557D01*
X129483781Y-133446191D01*
X129495475Y-133512511D01*
G04 #@! TO.C,U6*
X147538095Y-88252380D02*
X147538095Y-89061904D01*
X147585714Y-89157142D01*
X147633333Y-89204761D01*
X147728571Y-89252380D01*
X147919047Y-89252380D01*
X148014285Y-89204761D01*
X148061904Y-89157142D01*
X148109523Y-89061904D01*
X148109523Y-88252380D01*
X149014285Y-88252380D02*
X148823809Y-88252380D01*
X148728571Y-88300000D01*
X148680952Y-88347619D01*
X148585714Y-88490476D01*
X148538095Y-88680952D01*
X148538095Y-89061904D01*
X148585714Y-89157142D01*
X148633333Y-89204761D01*
X148728571Y-89252380D01*
X148919047Y-89252380D01*
X149014285Y-89204761D01*
X149061904Y-89157142D01*
X149109523Y-89061904D01*
X149109523Y-88823809D01*
X149061904Y-88728571D01*
X149014285Y-88680952D01*
X148919047Y-88633333D01*
X148728571Y-88633333D01*
X148633333Y-88680952D01*
X148585714Y-88728571D01*
X148538095Y-88823809D01*
G04 #@! TO.C,R29*
X103122380Y-113667857D02*
X102646190Y-114001190D01*
X103122380Y-114239285D02*
X102122380Y-114239285D01*
X102122380Y-113858333D01*
X102170000Y-113763095D01*
X102217619Y-113715476D01*
X102312857Y-113667857D01*
X102455714Y-113667857D01*
X102550952Y-113715476D01*
X102598571Y-113763095D01*
X102646190Y-113858333D01*
X102646190Y-114239285D01*
X102217619Y-113286904D02*
X102170000Y-113239285D01*
X102122380Y-113144047D01*
X102122380Y-112905952D01*
X102170000Y-112810714D01*
X102217619Y-112763095D01*
X102312857Y-112715476D01*
X102408095Y-112715476D01*
X102550952Y-112763095D01*
X103122380Y-113334523D01*
X103122380Y-112715476D01*
X103122380Y-112239285D02*
X103122380Y-112048809D01*
X103074761Y-111953571D01*
X103027142Y-111905952D01*
X102884285Y-111810714D01*
X102693809Y-111763095D01*
X102312857Y-111763095D01*
X102217619Y-111810714D01*
X102170000Y-111858333D01*
X102122380Y-111953571D01*
X102122380Y-112144047D01*
X102170000Y-112239285D01*
X102217619Y-112286904D01*
X102312857Y-112334523D01*
X102550952Y-112334523D01*
X102646190Y-112286904D01*
X102693809Y-112239285D01*
X102741428Y-112144047D01*
X102741428Y-111953571D01*
X102693809Y-111858333D01*
X102646190Y-111810714D01*
X102550952Y-111763095D01*
G04 #@! TO.C,C26*
X154657142Y-88107142D02*
X154609523Y-88154761D01*
X154466666Y-88202380D01*
X154371428Y-88202380D01*
X154228571Y-88154761D01*
X154133333Y-88059523D01*
X154085714Y-87964285D01*
X154038095Y-87773809D01*
X154038095Y-87630952D01*
X154085714Y-87440476D01*
X154133333Y-87345238D01*
X154228571Y-87250000D01*
X154371428Y-87202380D01*
X154466666Y-87202380D01*
X154609523Y-87250000D01*
X154657142Y-87297619D01*
X155038095Y-87297619D02*
X155085714Y-87250000D01*
X155180952Y-87202380D01*
X155419047Y-87202380D01*
X155514285Y-87250000D01*
X155561904Y-87297619D01*
X155609523Y-87392857D01*
X155609523Y-87488095D01*
X155561904Y-87630952D01*
X154990476Y-88202380D01*
X155609523Y-88202380D01*
X156466666Y-87202380D02*
X156276190Y-87202380D01*
X156180952Y-87250000D01*
X156133333Y-87297619D01*
X156038095Y-87440476D01*
X155990476Y-87630952D01*
X155990476Y-88011904D01*
X156038095Y-88107142D01*
X156085714Y-88154761D01*
X156180952Y-88202380D01*
X156371428Y-88202380D01*
X156466666Y-88154761D01*
X156514285Y-88107142D01*
X156561904Y-88011904D01*
X156561904Y-87773809D01*
X156514285Y-87678571D01*
X156466666Y-87630952D01*
X156371428Y-87583333D01*
X156180952Y-87583333D01*
X156085714Y-87630952D01*
X156038095Y-87678571D01*
X155990476Y-87773809D01*
G04 #@! TO.C,R20*
X123782142Y-92952380D02*
X123448809Y-92476190D01*
X123210714Y-92952380D02*
X123210714Y-91952380D01*
X123591666Y-91952380D01*
X123686904Y-92000000D01*
X123734523Y-92047619D01*
X123782142Y-92142857D01*
X123782142Y-92285714D01*
X123734523Y-92380952D01*
X123686904Y-92428571D01*
X123591666Y-92476190D01*
X123210714Y-92476190D01*
X124163095Y-92047619D02*
X124210714Y-92000000D01*
X124305952Y-91952380D01*
X124544047Y-91952380D01*
X124639285Y-92000000D01*
X124686904Y-92047619D01*
X124734523Y-92142857D01*
X124734523Y-92238095D01*
X124686904Y-92380952D01*
X124115476Y-92952380D01*
X124734523Y-92952380D01*
X125353571Y-91952380D02*
X125448809Y-91952380D01*
X125544047Y-92000000D01*
X125591666Y-92047619D01*
X125639285Y-92142857D01*
X125686904Y-92333333D01*
X125686904Y-92571428D01*
X125639285Y-92761904D01*
X125591666Y-92857142D01*
X125544047Y-92904761D01*
X125448809Y-92952380D01*
X125353571Y-92952380D01*
X125258333Y-92904761D01*
X125210714Y-92857142D01*
X125163095Y-92761904D01*
X125115476Y-92571428D01*
X125115476Y-92333333D01*
X125163095Y-92142857D01*
X125210714Y-92047619D01*
X125258333Y-92000000D01*
X125353571Y-91952380D01*
G04 #@! TO.C,J9*
X132727072Y-71748477D02*
X133232148Y-72253553D01*
X133299492Y-72388240D01*
X133299492Y-72522927D01*
X133232148Y-72657614D01*
X133164805Y-72724957D01*
X133804568Y-72085194D02*
X133939255Y-71950507D01*
X133972927Y-71849492D01*
X133972927Y-71782148D01*
X133939255Y-71613790D01*
X133838240Y-71445431D01*
X133568866Y-71176057D01*
X133467851Y-71142385D01*
X133400507Y-71142385D01*
X133299492Y-71176057D01*
X133164805Y-71310744D01*
X133131133Y-71411759D01*
X133131133Y-71479103D01*
X133164805Y-71580118D01*
X133333164Y-71748477D01*
X133434179Y-71782148D01*
X133501522Y-71782148D01*
X133602538Y-71748477D01*
X133737225Y-71613790D01*
X133770896Y-71512774D01*
X133770896Y-71445431D01*
X133737225Y-71344416D01*
G04 #@! TO.C,R23*
X123657856Y-91402380D02*
X123324523Y-90926190D01*
X123086428Y-91402380D02*
X123086428Y-90402380D01*
X123467380Y-90402380D01*
X123562618Y-90450000D01*
X123610237Y-90497619D01*
X123657856Y-90592857D01*
X123657856Y-90735714D01*
X123610237Y-90830952D01*
X123562618Y-90878571D01*
X123467380Y-90926190D01*
X123086428Y-90926190D01*
X124038809Y-90497619D02*
X124086428Y-90450000D01*
X124181666Y-90402380D01*
X124419761Y-90402380D01*
X124514999Y-90450000D01*
X124562618Y-90497619D01*
X124610237Y-90592857D01*
X124610237Y-90688095D01*
X124562618Y-90830952D01*
X123991190Y-91402380D01*
X124610237Y-91402380D01*
X124943571Y-90402380D02*
X125562618Y-90402380D01*
X125229285Y-90783333D01*
X125372142Y-90783333D01*
X125467380Y-90830952D01*
X125514999Y-90878571D01*
X125562618Y-90973809D01*
X125562618Y-91211904D01*
X125514999Y-91307142D01*
X125467380Y-91354761D01*
X125372142Y-91402380D01*
X125086428Y-91402380D01*
X124991190Y-91354761D01*
X124943571Y-91307142D01*
G04 #@! TO.C,J1*
X117758949Y-132239775D02*
X118168646Y-131654666D01*
X118289593Y-131564958D01*
X118422234Y-131541570D01*
X118566569Y-131584502D01*
X118644583Y-131639128D01*
X117513373Y-130847046D02*
X117981460Y-131174804D01*
X117747417Y-131010925D02*
X117173840Y-131830077D01*
X117333794Y-131767682D01*
X117466435Y-131744294D01*
X117571763Y-131759913D01*
G04 #@! TO.C,R1*
X117533333Y-97802380D02*
X117200000Y-97326190D01*
X116961904Y-97802380D02*
X116961904Y-96802380D01*
X117342857Y-96802380D01*
X117438095Y-96850000D01*
X117485714Y-96897619D01*
X117533333Y-96992857D01*
X117533333Y-97135714D01*
X117485714Y-97230952D01*
X117438095Y-97278571D01*
X117342857Y-97326190D01*
X116961904Y-97326190D01*
X118485714Y-97802380D02*
X117914285Y-97802380D01*
X118200000Y-97802380D02*
X118200000Y-96802380D01*
X118104761Y-96945238D01*
X118009523Y-97040476D01*
X117914285Y-97088095D01*
G04 #@! TO.C,D19*
X127599809Y-128070850D02*
X127026233Y-128890002D01*
X126831197Y-128753437D01*
X126741488Y-128632490D01*
X126718100Y-128499849D01*
X126733719Y-128394521D01*
X126803964Y-128211179D01*
X126885904Y-128094158D01*
X127034164Y-127965442D01*
X127127797Y-127914740D01*
X127260438Y-127891352D01*
X127404773Y-127934285D01*
X127599809Y-128070850D01*
X126351577Y-127196829D02*
X126819664Y-127524587D01*
X126585621Y-127360708D02*
X126012044Y-128179860D01*
X126171998Y-128117465D01*
X126304639Y-128094077D01*
X126409967Y-128109696D01*
X125961505Y-126923698D02*
X125805476Y-126814445D01*
X125700148Y-126798826D01*
X125633828Y-126810520D01*
X125473874Y-126872915D01*
X125325614Y-127001631D01*
X125107109Y-127313689D01*
X125091490Y-127419017D01*
X125103184Y-127485337D01*
X125153885Y-127578971D01*
X125309914Y-127688223D01*
X125415242Y-127703842D01*
X125481562Y-127692148D01*
X125575196Y-127641447D01*
X125711762Y-127446411D01*
X125727381Y-127341083D01*
X125715687Y-127274763D01*
X125664985Y-127181129D01*
X125508956Y-127071876D01*
X125403629Y-127056257D01*
X125337308Y-127067951D01*
X125243675Y-127118653D01*
G04 #@! TO.C,R13*
X191632142Y-97977380D02*
X191298809Y-97501190D01*
X191060714Y-97977380D02*
X191060714Y-96977380D01*
X191441666Y-96977380D01*
X191536904Y-97025000D01*
X191584523Y-97072619D01*
X191632142Y-97167857D01*
X191632142Y-97310714D01*
X191584523Y-97405952D01*
X191536904Y-97453571D01*
X191441666Y-97501190D01*
X191060714Y-97501190D01*
X192584523Y-97977380D02*
X192013095Y-97977380D01*
X192298809Y-97977380D02*
X192298809Y-96977380D01*
X192203571Y-97120238D01*
X192108333Y-97215476D01*
X192013095Y-97263095D01*
X192917857Y-96977380D02*
X193536904Y-96977380D01*
X193203571Y-97358333D01*
X193346428Y-97358333D01*
X193441666Y-97405952D01*
X193489285Y-97453571D01*
X193536904Y-97548809D01*
X193536904Y-97786904D01*
X193489285Y-97882142D01*
X193441666Y-97929761D01*
X193346428Y-97977380D01*
X193060714Y-97977380D01*
X192965476Y-97929761D01*
X192917857Y-97882142D01*
G04 #@! TO.C,SW1*
X136703347Y-134679470D02*
X136806879Y-134570122D01*
X136907502Y-134354334D01*
X136904594Y-134247895D01*
X136881561Y-134184612D01*
X136815371Y-134101205D01*
X136729056Y-134060956D01*
X136622616Y-134063864D01*
X136559334Y-134086897D01*
X136475927Y-134153087D01*
X136352271Y-134305593D01*
X136268864Y-134371783D01*
X136205582Y-134394816D01*
X136099142Y-134397724D01*
X136012827Y-134357475D01*
X135946637Y-134274068D01*
X135923604Y-134210786D01*
X135920696Y-134104346D01*
X136021319Y-133888558D01*
X136124851Y-133779211D01*
X136222566Y-133456983D02*
X137229497Y-133663814D01*
X136662633Y-133189314D01*
X137390495Y-133318554D01*
X136584810Y-132680148D01*
X137873487Y-132282774D02*
X137631991Y-132800664D01*
X137752739Y-132541719D02*
X136846431Y-132119100D01*
X136935654Y-132265789D01*
X136981720Y-132392354D01*
X136984628Y-132498794D01*
G04 #@! TO.C,R19*
X123707142Y-96152380D02*
X123373809Y-95676190D01*
X123135714Y-96152380D02*
X123135714Y-95152380D01*
X123516666Y-95152380D01*
X123611904Y-95200000D01*
X123659523Y-95247619D01*
X123707142Y-95342857D01*
X123707142Y-95485714D01*
X123659523Y-95580952D01*
X123611904Y-95628571D01*
X123516666Y-95676190D01*
X123135714Y-95676190D01*
X124659523Y-96152380D02*
X124088095Y-96152380D01*
X124373809Y-96152380D02*
X124373809Y-95152380D01*
X124278571Y-95295238D01*
X124183333Y-95390476D01*
X124088095Y-95438095D01*
X125135714Y-96152380D02*
X125326190Y-96152380D01*
X125421428Y-96104761D01*
X125469047Y-96057142D01*
X125564285Y-95914285D01*
X125611904Y-95723809D01*
X125611904Y-95342857D01*
X125564285Y-95247619D01*
X125516666Y-95200000D01*
X125421428Y-95152380D01*
X125230952Y-95152380D01*
X125135714Y-95200000D01*
X125088095Y-95247619D01*
X125040476Y-95342857D01*
X125040476Y-95580952D01*
X125088095Y-95676190D01*
X125135714Y-95723809D01*
X125230952Y-95771428D01*
X125421428Y-95771428D01*
X125516666Y-95723809D01*
X125564285Y-95676190D01*
X125611904Y-95580952D01*
G04 #@! TO.C,C7*
X155083333Y-90007142D02*
X155035714Y-90054761D01*
X154892857Y-90102380D01*
X154797619Y-90102380D01*
X154654761Y-90054761D01*
X154559523Y-89959523D01*
X154511904Y-89864285D01*
X154464285Y-89673809D01*
X154464285Y-89530952D01*
X154511904Y-89340476D01*
X154559523Y-89245238D01*
X154654761Y-89150000D01*
X154797619Y-89102380D01*
X154892857Y-89102380D01*
X155035714Y-89150000D01*
X155083333Y-89197619D01*
X155416666Y-89102380D02*
X156083333Y-89102380D01*
X155654761Y-90102380D01*
G04 #@! TO.C,D16*
X162216964Y-144227380D02*
X162216964Y-143227380D01*
X162455059Y-143227380D01*
X162597916Y-143275000D01*
X162693154Y-143370238D01*
X162740773Y-143465476D01*
X162788392Y-143655952D01*
X162788392Y-143798809D01*
X162740773Y-143989285D01*
X162693154Y-144084523D01*
X162597916Y-144179761D01*
X162455059Y-144227380D01*
X162216964Y-144227380D01*
X163740773Y-144227380D02*
X163169345Y-144227380D01*
X163455059Y-144227380D02*
X163455059Y-143227380D01*
X163359821Y-143370238D01*
X163264583Y-143465476D01*
X163169345Y-143513095D01*
X164597916Y-143227380D02*
X164407440Y-143227380D01*
X164312202Y-143275000D01*
X164264583Y-143322619D01*
X164169345Y-143465476D01*
X164121726Y-143655952D01*
X164121726Y-144036904D01*
X164169345Y-144132142D01*
X164216964Y-144179761D01*
X164312202Y-144227380D01*
X164502678Y-144227380D01*
X164597916Y-144179761D01*
X164645535Y-144132142D01*
X164693154Y-144036904D01*
X164693154Y-143798809D01*
X164645535Y-143703571D01*
X164597916Y-143655952D01*
X164502678Y-143608333D01*
X164312202Y-143608333D01*
X164216964Y-143655952D01*
X164169345Y-143703571D01*
X164121726Y-143798809D01*
G04 #@! TO.C,D17*
X182977380Y-105464285D02*
X181977380Y-105464285D01*
X181977380Y-105226190D01*
X182025000Y-105083333D01*
X182120238Y-104988095D01*
X182215476Y-104940476D01*
X182405952Y-104892857D01*
X182548809Y-104892857D01*
X182739285Y-104940476D01*
X182834523Y-104988095D01*
X182929761Y-105083333D01*
X182977380Y-105226190D01*
X182977380Y-105464285D01*
X182977380Y-103940476D02*
X182977380Y-104511904D01*
X182977380Y-104226190D02*
X181977380Y-104226190D01*
X182120238Y-104321428D01*
X182215476Y-104416666D01*
X182263095Y-104511904D01*
X181977380Y-103607142D02*
X181977380Y-102940476D01*
X182977380Y-103369047D01*
G04 #@! TO.C,R9*
X192502380Y-102366666D02*
X192026190Y-102700000D01*
X192502380Y-102938095D02*
X191502380Y-102938095D01*
X191502380Y-102557142D01*
X191550000Y-102461904D01*
X191597619Y-102414285D01*
X191692857Y-102366666D01*
X191835714Y-102366666D01*
X191930952Y-102414285D01*
X191978571Y-102461904D01*
X192026190Y-102557142D01*
X192026190Y-102938095D01*
X192502380Y-101890476D02*
X192502380Y-101700000D01*
X192454761Y-101604761D01*
X192407142Y-101557142D01*
X192264285Y-101461904D01*
X192073809Y-101414285D01*
X191692857Y-101414285D01*
X191597619Y-101461904D01*
X191550000Y-101509523D01*
X191502380Y-101604761D01*
X191502380Y-101795238D01*
X191550000Y-101890476D01*
X191597619Y-101938095D01*
X191692857Y-101985714D01*
X191930952Y-101985714D01*
X192026190Y-101938095D01*
X192073809Y-101890476D01*
X192121428Y-101795238D01*
X192121428Y-101604761D01*
X192073809Y-101509523D01*
X192026190Y-101461904D01*
X191930952Y-101414285D01*
G04 #@! TO.C,J11*
X121640355Y-116635194D02*
X122145431Y-117140270D01*
X122212774Y-117274957D01*
X122212774Y-117409644D01*
X122145431Y-117544331D01*
X122078087Y-117611675D01*
X123054568Y-116635194D02*
X122650507Y-117039255D01*
X122852538Y-116837225D02*
X122145431Y-116130118D01*
X122179103Y-116298477D01*
X122179103Y-116433164D01*
X122145431Y-116534179D01*
X123728003Y-115961759D02*
X123323942Y-116365820D01*
X123525973Y-116163790D02*
X122818866Y-115456683D01*
X122852538Y-115625042D01*
X122852538Y-115759729D01*
X122818866Y-115860744D01*
G04 #@! TO.C,M1*
X111190476Y-118297380D02*
X111190476Y-117297380D01*
X111523809Y-118011666D01*
X111857142Y-117297380D01*
X111857142Y-118297380D01*
X112857142Y-118297380D02*
X112285714Y-118297380D01*
X112571428Y-118297380D02*
X112571428Y-117297380D01*
X112476190Y-117440238D01*
X112380952Y-117535476D01*
X112285714Y-117583095D01*
G04 #@! TO.C,C5*
X149933333Y-96257142D02*
X149885714Y-96304761D01*
X149742857Y-96352380D01*
X149647619Y-96352380D01*
X149504761Y-96304761D01*
X149409523Y-96209523D01*
X149361904Y-96114285D01*
X149314285Y-95923809D01*
X149314285Y-95780952D01*
X149361904Y-95590476D01*
X149409523Y-95495238D01*
X149504761Y-95400000D01*
X149647619Y-95352380D01*
X149742857Y-95352380D01*
X149885714Y-95400000D01*
X149933333Y-95447619D01*
X150838095Y-95352380D02*
X150361904Y-95352380D01*
X150314285Y-95828571D01*
X150361904Y-95780952D01*
X150457142Y-95733333D01*
X150695238Y-95733333D01*
X150790476Y-95780952D01*
X150838095Y-95828571D01*
X150885714Y-95923809D01*
X150885714Y-96161904D01*
X150838095Y-96257142D01*
X150790476Y-96304761D01*
X150695238Y-96352380D01*
X150457142Y-96352380D01*
X150361904Y-96304761D01*
X150314285Y-96257142D01*
G04 #@! TO.C,R10*
X190752380Y-108517857D02*
X190276190Y-108851190D01*
X190752380Y-109089285D02*
X189752380Y-109089285D01*
X189752380Y-108708333D01*
X189800000Y-108613095D01*
X189847619Y-108565476D01*
X189942857Y-108517857D01*
X190085714Y-108517857D01*
X190180952Y-108565476D01*
X190228571Y-108613095D01*
X190276190Y-108708333D01*
X190276190Y-109089285D01*
X190752380Y-107565476D02*
X190752380Y-108136904D01*
X190752380Y-107851190D02*
X189752380Y-107851190D01*
X189895238Y-107946428D01*
X189990476Y-108041666D01*
X190038095Y-108136904D01*
X189752380Y-106946428D02*
X189752380Y-106851190D01*
X189800000Y-106755952D01*
X189847619Y-106708333D01*
X189942857Y-106660714D01*
X190133333Y-106613095D01*
X190371428Y-106613095D01*
X190561904Y-106660714D01*
X190657142Y-106708333D01*
X190704761Y-106755952D01*
X190752380Y-106851190D01*
X190752380Y-106946428D01*
X190704761Y-107041666D01*
X190657142Y-107089285D01*
X190561904Y-107136904D01*
X190371428Y-107184523D01*
X190133333Y-107184523D01*
X189942857Y-107136904D01*
X189847619Y-107089285D01*
X189800000Y-107041666D01*
X189752380Y-106946428D01*
G04 #@! TO.C,R14*
X119482142Y-66827380D02*
X119148809Y-66351190D01*
X118910714Y-66827380D02*
X118910714Y-65827380D01*
X119291666Y-65827380D01*
X119386904Y-65875000D01*
X119434523Y-65922619D01*
X119482142Y-66017857D01*
X119482142Y-66160714D01*
X119434523Y-66255952D01*
X119386904Y-66303571D01*
X119291666Y-66351190D01*
X118910714Y-66351190D01*
X120434523Y-66827380D02*
X119863095Y-66827380D01*
X120148809Y-66827380D02*
X120148809Y-65827380D01*
X120053571Y-65970238D01*
X119958333Y-66065476D01*
X119863095Y-66113095D01*
X121291666Y-66160714D02*
X121291666Y-66827380D01*
X121053571Y-65779761D02*
X120815476Y-66494047D01*
X121434523Y-66494047D01*
G04 #@! TO.C,J13*
X110440476Y-128952380D02*
X110440476Y-129666666D01*
X110392857Y-129809523D01*
X110297619Y-129904761D01*
X110154761Y-129952380D01*
X110059523Y-129952380D01*
X111440476Y-129952380D02*
X110869047Y-129952380D01*
X111154761Y-129952380D02*
X111154761Y-128952380D01*
X111059523Y-129095238D01*
X110964285Y-129190476D01*
X110869047Y-129238095D01*
X111773809Y-128952380D02*
X112392857Y-128952380D01*
X112059523Y-129333333D01*
X112202380Y-129333333D01*
X112297619Y-129380952D01*
X112345238Y-129428571D01*
X112392857Y-129523809D01*
X112392857Y-129761904D01*
X112345238Y-129857142D01*
X112297619Y-129904761D01*
X112202380Y-129952380D01*
X111916666Y-129952380D01*
X111821428Y-129904761D01*
X111773809Y-129857142D01*
G04 #@! TO.C,Q7*
X184022619Y-90670238D02*
X183975000Y-90765476D01*
X183879761Y-90860714D01*
X183736904Y-91003571D01*
X183689285Y-91098809D01*
X183689285Y-91194047D01*
X183927380Y-91146428D02*
X183879761Y-91241666D01*
X183784523Y-91336904D01*
X183594047Y-91384523D01*
X183260714Y-91384523D01*
X183070238Y-91336904D01*
X182975000Y-91241666D01*
X182927380Y-91146428D01*
X182927380Y-90955952D01*
X182975000Y-90860714D01*
X183070238Y-90765476D01*
X183260714Y-90717857D01*
X183594047Y-90717857D01*
X183784523Y-90765476D01*
X183879761Y-90860714D01*
X183927380Y-90955952D01*
X183927380Y-91146428D01*
X182927380Y-90384523D02*
X182927380Y-89717857D01*
X183927380Y-90146428D01*
G04 #@! TO.C,Q2*
X144604761Y-100297619D02*
X144509523Y-100250000D01*
X144414285Y-100154761D01*
X144271428Y-100011904D01*
X144176190Y-99964285D01*
X144080952Y-99964285D01*
X144128571Y-100202380D02*
X144033333Y-100154761D01*
X143938095Y-100059523D01*
X143890476Y-99869047D01*
X143890476Y-99535714D01*
X143938095Y-99345238D01*
X144033333Y-99250000D01*
X144128571Y-99202380D01*
X144319047Y-99202380D01*
X144414285Y-99250000D01*
X144509523Y-99345238D01*
X144557142Y-99535714D01*
X144557142Y-99869047D01*
X144509523Y-100059523D01*
X144414285Y-100154761D01*
X144319047Y-100202380D01*
X144128571Y-100202380D01*
X144938095Y-99297619D02*
X144985714Y-99250000D01*
X145080952Y-99202380D01*
X145319047Y-99202380D01*
X145414285Y-99250000D01*
X145461904Y-99297619D01*
X145509523Y-99392857D01*
X145509523Y-99488095D01*
X145461904Y-99630952D01*
X144890476Y-100202380D01*
X145509523Y-100202380D01*
G04 #@! TO.C,R6*
X147222380Y-120256666D02*
X146746190Y-120590000D01*
X147222380Y-120828095D02*
X146222380Y-120828095D01*
X146222380Y-120447142D01*
X146270000Y-120351904D01*
X146317619Y-120304285D01*
X146412857Y-120256666D01*
X146555714Y-120256666D01*
X146650952Y-120304285D01*
X146698571Y-120351904D01*
X146746190Y-120447142D01*
X146746190Y-120828095D01*
X146222380Y-119399523D02*
X146222380Y-119590000D01*
X146270000Y-119685238D01*
X146317619Y-119732857D01*
X146460476Y-119828095D01*
X146650952Y-119875714D01*
X147031904Y-119875714D01*
X147127142Y-119828095D01*
X147174761Y-119780476D01*
X147222380Y-119685238D01*
X147222380Y-119494761D01*
X147174761Y-119399523D01*
X147127142Y-119351904D01*
X147031904Y-119304285D01*
X146793809Y-119304285D01*
X146698571Y-119351904D01*
X146650952Y-119399523D01*
X146603333Y-119494761D01*
X146603333Y-119685238D01*
X146650952Y-119780476D01*
X146698571Y-119828095D01*
X146793809Y-119875714D01*
G04 #@! TO.C,U5*
X132338095Y-87852380D02*
X132338095Y-88661904D01*
X132385714Y-88757142D01*
X132433333Y-88804761D01*
X132528571Y-88852380D01*
X132719047Y-88852380D01*
X132814285Y-88804761D01*
X132861904Y-88757142D01*
X132909523Y-88661904D01*
X132909523Y-87852380D01*
X133861904Y-87852380D02*
X133385714Y-87852380D01*
X133338095Y-88328571D01*
X133385714Y-88280952D01*
X133480952Y-88233333D01*
X133719047Y-88233333D01*
X133814285Y-88280952D01*
X133861904Y-88328571D01*
X133909523Y-88423809D01*
X133909523Y-88661904D01*
X133861904Y-88757142D01*
X133814285Y-88804761D01*
X133719047Y-88852380D01*
X133480952Y-88852380D01*
X133385714Y-88804761D01*
X133338095Y-88757142D01*
G04 #@! TO.C,D14*
X181042380Y-120184285D02*
X180042380Y-120184285D01*
X180042380Y-119946190D01*
X180090000Y-119803333D01*
X180185238Y-119708095D01*
X180280476Y-119660476D01*
X180470952Y-119612857D01*
X180613809Y-119612857D01*
X180804285Y-119660476D01*
X180899523Y-119708095D01*
X180994761Y-119803333D01*
X181042380Y-119946190D01*
X181042380Y-120184285D01*
X181042380Y-118660476D02*
X181042380Y-119231904D01*
X181042380Y-118946190D02*
X180042380Y-118946190D01*
X180185238Y-119041428D01*
X180280476Y-119136666D01*
X180328095Y-119231904D01*
X180375714Y-117803333D02*
X181042380Y-117803333D01*
X179994761Y-118041428D02*
X180709047Y-118279523D01*
X180709047Y-117660476D01*
G04 #@! TO.C,C10*
X156207142Y-121832857D02*
X156254761Y-121880476D01*
X156302380Y-122023333D01*
X156302380Y-122118571D01*
X156254761Y-122261428D01*
X156159523Y-122356666D01*
X156064285Y-122404285D01*
X155873809Y-122451904D01*
X155730952Y-122451904D01*
X155540476Y-122404285D01*
X155445238Y-122356666D01*
X155350000Y-122261428D01*
X155302380Y-122118571D01*
X155302380Y-122023333D01*
X155350000Y-121880476D01*
X155397619Y-121832857D01*
X156302380Y-120880476D02*
X156302380Y-121451904D01*
X156302380Y-121166190D02*
X155302380Y-121166190D01*
X155445238Y-121261428D01*
X155540476Y-121356666D01*
X155588095Y-121451904D01*
X155302380Y-120261428D02*
X155302380Y-120166190D01*
X155350000Y-120070952D01*
X155397619Y-120023333D01*
X155492857Y-119975714D01*
X155683333Y-119928095D01*
X155921428Y-119928095D01*
X156111904Y-119975714D01*
X156207142Y-120023333D01*
X156254761Y-120070952D01*
X156302380Y-120166190D01*
X156302380Y-120261428D01*
X156254761Y-120356666D01*
X156207142Y-120404285D01*
X156111904Y-120451904D01*
X155921428Y-120499523D01*
X155683333Y-120499523D01*
X155492857Y-120451904D01*
X155397619Y-120404285D01*
X155350000Y-120356666D01*
X155302380Y-120261428D01*
G04 #@! TO.C,L1*
X184377380Y-97966666D02*
X184377380Y-98442857D01*
X183377380Y-98442857D01*
X184377380Y-97109523D02*
X184377380Y-97680952D01*
X184377380Y-97395238D02*
X183377380Y-97395238D01*
X183520238Y-97490476D01*
X183615476Y-97585714D01*
X183663095Y-97680952D01*
G04 #@! TO.C,R2*
X126440028Y-131439918D02*
X126439947Y-132021182D01*
X126908115Y-131767676D02*
X126334538Y-132586828D01*
X126022480Y-132368322D01*
X125971779Y-132274689D01*
X125960085Y-132208369D01*
X125975704Y-132103041D01*
X126057644Y-131986019D01*
X126151277Y-131935318D01*
X126217598Y-131923624D01*
X126322925Y-131939243D01*
X126634983Y-132157748D01*
X125609020Y-131962550D02*
X125542699Y-131974244D01*
X125437372Y-131958625D01*
X125242336Y-131822059D01*
X125191634Y-131728426D01*
X125179940Y-131662105D01*
X125195559Y-131556778D01*
X125250186Y-131478763D01*
X125371132Y-131389055D01*
X126166977Y-131248726D01*
X125659883Y-130893655D01*
G04 #@! TO.C,U4*
X157588095Y-56152380D02*
X157588095Y-56961904D01*
X157635714Y-57057142D01*
X157683333Y-57104761D01*
X157778571Y-57152380D01*
X157969047Y-57152380D01*
X158064285Y-57104761D01*
X158111904Y-57057142D01*
X158159523Y-56961904D01*
X158159523Y-56152380D01*
X159064285Y-56485714D02*
X159064285Y-57152380D01*
X158826190Y-56104761D02*
X158588095Y-56819047D01*
X159207142Y-56819047D01*
G04 #@! TO.C,R24*
X180607142Y-86827380D02*
X180273809Y-86351190D01*
X180035714Y-86827380D02*
X180035714Y-85827380D01*
X180416666Y-85827380D01*
X180511904Y-85875000D01*
X180559523Y-85922619D01*
X180607142Y-86017857D01*
X180607142Y-86160714D01*
X180559523Y-86255952D01*
X180511904Y-86303571D01*
X180416666Y-86351190D01*
X180035714Y-86351190D01*
X180988095Y-85922619D02*
X181035714Y-85875000D01*
X181130952Y-85827380D01*
X181369047Y-85827380D01*
X181464285Y-85875000D01*
X181511904Y-85922619D01*
X181559523Y-86017857D01*
X181559523Y-86113095D01*
X181511904Y-86255952D01*
X180940476Y-86827380D01*
X181559523Y-86827380D01*
X182416666Y-86160714D02*
X182416666Y-86827380D01*
X182178571Y-85779761D02*
X181940476Y-86494047D01*
X182559523Y-86494047D01*
G04 #@! TO.C,R28*
X185307142Y-79952380D02*
X184973809Y-79476190D01*
X184735714Y-79952380D02*
X184735714Y-78952380D01*
X185116666Y-78952380D01*
X185211904Y-79000000D01*
X185259523Y-79047619D01*
X185307142Y-79142857D01*
X185307142Y-79285714D01*
X185259523Y-79380952D01*
X185211904Y-79428571D01*
X185116666Y-79476190D01*
X184735714Y-79476190D01*
X185688095Y-79047619D02*
X185735714Y-79000000D01*
X185830952Y-78952380D01*
X186069047Y-78952380D01*
X186164285Y-79000000D01*
X186211904Y-79047619D01*
X186259523Y-79142857D01*
X186259523Y-79238095D01*
X186211904Y-79380952D01*
X185640476Y-79952380D01*
X186259523Y-79952380D01*
X186830952Y-79380952D02*
X186735714Y-79333333D01*
X186688095Y-79285714D01*
X186640476Y-79190476D01*
X186640476Y-79142857D01*
X186688095Y-79047619D01*
X186735714Y-79000000D01*
X186830952Y-78952380D01*
X187021428Y-78952380D01*
X187116666Y-79000000D01*
X187164285Y-79047619D01*
X187211904Y-79142857D01*
X187211904Y-79190476D01*
X187164285Y-79285714D01*
X187116666Y-79333333D01*
X187021428Y-79380952D01*
X186830952Y-79380952D01*
X186735714Y-79428571D01*
X186688095Y-79476190D01*
X186640476Y-79571428D01*
X186640476Y-79761904D01*
X186688095Y-79857142D01*
X186735714Y-79904761D01*
X186830952Y-79952380D01*
X187021428Y-79952380D01*
X187116666Y-79904761D01*
X187164285Y-79857142D01*
X187211904Y-79761904D01*
X187211904Y-79571428D01*
X187164285Y-79476190D01*
X187116666Y-79428571D01*
X187021428Y-79380952D01*
G04 #@! TO.C,R25*
X141357142Y-104552380D02*
X141023809Y-104076190D01*
X140785714Y-104552380D02*
X140785714Y-103552380D01*
X141166666Y-103552380D01*
X141261904Y-103600000D01*
X141309523Y-103647619D01*
X141357142Y-103742857D01*
X141357142Y-103885714D01*
X141309523Y-103980952D01*
X141261904Y-104028571D01*
X141166666Y-104076190D01*
X140785714Y-104076190D01*
X141738095Y-103647619D02*
X141785714Y-103600000D01*
X141880952Y-103552380D01*
X142119047Y-103552380D01*
X142214285Y-103600000D01*
X142261904Y-103647619D01*
X142309523Y-103742857D01*
X142309523Y-103838095D01*
X142261904Y-103980952D01*
X141690476Y-104552380D01*
X142309523Y-104552380D01*
X143214285Y-103552380D02*
X142738095Y-103552380D01*
X142690476Y-104028571D01*
X142738095Y-103980952D01*
X142833333Y-103933333D01*
X143071428Y-103933333D01*
X143166666Y-103980952D01*
X143214285Y-104028571D01*
X143261904Y-104123809D01*
X143261904Y-104361904D01*
X143214285Y-104457142D01*
X143166666Y-104504761D01*
X143071428Y-104552380D01*
X142833333Y-104552380D01*
X142738095Y-104504761D01*
X142690476Y-104457142D01*
G04 #@! TO.C,C25*
X106852142Y-118462857D02*
X106899761Y-118510476D01*
X106947380Y-118653333D01*
X106947380Y-118748571D01*
X106899761Y-118891428D01*
X106804523Y-118986666D01*
X106709285Y-119034285D01*
X106518809Y-119081904D01*
X106375952Y-119081904D01*
X106185476Y-119034285D01*
X106090238Y-118986666D01*
X105995000Y-118891428D01*
X105947380Y-118748571D01*
X105947380Y-118653333D01*
X105995000Y-118510476D01*
X106042619Y-118462857D01*
X106042619Y-118081904D02*
X105995000Y-118034285D01*
X105947380Y-117939047D01*
X105947380Y-117700952D01*
X105995000Y-117605714D01*
X106042619Y-117558095D01*
X106137857Y-117510476D01*
X106233095Y-117510476D01*
X106375952Y-117558095D01*
X106947380Y-118129523D01*
X106947380Y-117510476D01*
X105947380Y-116605714D02*
X105947380Y-117081904D01*
X106423571Y-117129523D01*
X106375952Y-117081904D01*
X106328333Y-116986666D01*
X106328333Y-116748571D01*
X106375952Y-116653333D01*
X106423571Y-116605714D01*
X106518809Y-116558095D01*
X106756904Y-116558095D01*
X106852142Y-116605714D01*
X106899761Y-116653333D01*
X106947380Y-116748571D01*
X106947380Y-116986666D01*
X106899761Y-117081904D01*
X106852142Y-117129523D01*
D10*
G04 #@! TO.C,R11*
X182337258Y-72915000D02*
X181862742Y-72915000D01*
X182337258Y-73960000D02*
X181862742Y-73960000D01*
G04 #@! TO.C,BZ1*
X123350000Y-61750000D02*
X123350000Y-60250000D01*
X122600000Y-61000000D02*
X124100000Y-61000000D01*
D12*
X135280000Y-63500000D02*
G75*
G03*
X135280000Y-63500000I-5680000J0D01*
G01*
D10*
G04 #@! TO.C,J4*
X105230000Y-83930000D02*
X105230000Y-89070000D01*
X102570000Y-83930000D02*
X102570000Y-89070000D01*
X102570000Y-89070000D02*
X105230000Y-89070000D01*
X102570000Y-83930000D02*
X105230000Y-83930000D01*
X103900000Y-81330000D02*
X105230000Y-81330000D01*
X105230000Y-81330000D02*
X105230000Y-82660000D01*
G04 #@! TO.C,J3*
X186922620Y-72207500D02*
X186922620Y-77347500D01*
X186922620Y-69607500D02*
X186922620Y-70937500D01*
X184262620Y-77347500D02*
X186922620Y-77347500D01*
X184262620Y-72207500D02*
X184262620Y-77347500D01*
X184262620Y-72207500D02*
X186922620Y-72207500D01*
X185592620Y-69607500D02*
X186922620Y-69607500D01*
G04 #@! TO.C,R12*
X166562742Y-141777500D02*
X167037258Y-141777500D01*
X166562742Y-142822500D02*
X167037258Y-142822500D01*
G04 #@! TO.C,D13*
X181645000Y-115200000D02*
X181645000Y-117485000D01*
X183115000Y-117485000D02*
X183115000Y-115200000D01*
X181645000Y-117485000D02*
X183115000Y-117485000D01*
G04 #@! TO.C,D15*
X103365000Y-114715000D02*
X103365000Y-117000000D01*
X104835000Y-117000000D02*
X104835000Y-114715000D01*
X104835000Y-114715000D02*
X103365000Y-114715000D01*
G04 #@! TO.C,R15*
X118298690Y-123084758D02*
X118298690Y-122610242D01*
X119343690Y-123084758D02*
X119343690Y-122610242D01*
G04 #@! TO.C,J2*
X110686745Y-111577482D02*
X110686745Y-110247482D01*
X113346745Y-111577482D02*
X112776745Y-111577482D01*
X110686745Y-112972482D02*
X110686745Y-112212482D01*
X113346745Y-110247482D02*
X112324275Y-110247482D01*
X113346745Y-111577482D02*
X113346745Y-110247482D01*
X111709215Y-110247482D02*
X110686745Y-110247482D01*
X112016745Y-112972482D02*
X110686745Y-112972482D01*
X111256745Y-111577482D02*
X110686745Y-111577482D01*
G04 #@! TO.C,R8*
X151922500Y-130302742D02*
X151922500Y-130777258D01*
X150877500Y-130302742D02*
X150877500Y-130777258D01*
G04 #@! TO.C,U2*
X149460000Y-124190000D02*
X149460000Y-122310000D01*
X154640000Y-124190000D02*
X154640000Y-122310000D01*
X154640000Y-124190000D02*
X154640000Y-126070000D01*
X149460000Y-124190000D02*
X149460000Y-127715000D01*
G04 #@! TO.C,R16*
X139174758Y-93822500D02*
X138700242Y-93822500D01*
X139174758Y-92777500D02*
X138700242Y-92777500D01*
G04 #@! TO.C,C13*
X187135000Y-99588748D02*
X187135000Y-100111252D01*
X185665000Y-99588748D02*
X185665000Y-100111252D01*
G04 #@! TO.C,D21*
X116200000Y-73700000D02*
X120100000Y-73700000D01*
X116200000Y-73700000D02*
X116200000Y-75700000D01*
X116200000Y-75700000D02*
X120100000Y-75700000D01*
G04 #@! TO.C,R22*
X127537258Y-94672500D02*
X127062742Y-94672500D01*
X127537258Y-93627500D02*
X127062742Y-93627500D01*
G04 #@! TO.C,J8*
X185338478Y-83957574D02*
X194361160Y-92980256D01*
X183457574Y-85838478D02*
X192480256Y-94861160D01*
X183457574Y-85838478D02*
X185338478Y-83957574D01*
X192480256Y-94861160D02*
X194361160Y-92980256D01*
X183500000Y-82119096D02*
X184440452Y-83059548D01*
X182559548Y-83059548D02*
X183500000Y-82119096D01*
G04 #@! TO.C,C4*
X133527366Y-99290000D02*
X133246206Y-99290000D01*
X133527366Y-100310000D02*
X133246206Y-100310000D01*
G04 #@! TO.C,U3*
X187765000Y-100787500D02*
X187765000Y-102587500D01*
X190885000Y-100787500D02*
X190885000Y-101587500D01*
X187765000Y-100787500D02*
X187765000Y-99987500D01*
X190885000Y-100787500D02*
X190885000Y-99987500D01*
G04 #@! TO.C,D18*
X120288757Y-126409216D02*
X121681316Y-127384296D01*
X120288757Y-126409216D02*
X121751377Y-124320378D01*
X121681316Y-127384296D02*
X123143935Y-125295458D01*
G04 #@! TO.C,D24*
X125489763Y-126230054D02*
X123851459Y-125082901D01*
X123851459Y-125082901D02*
X121614511Y-128277594D01*
X125489763Y-126230054D02*
X123252815Y-129424747D01*
G04 #@! TO.C,C6*
X148610000Y-93710580D02*
X148610000Y-93429420D01*
X147590000Y-93710580D02*
X147590000Y-93429420D01*
G04 #@! TO.C,Q6*
X179740000Y-76587500D02*
X179740000Y-75937500D01*
X179740000Y-76587500D02*
X179740000Y-78262500D01*
X182860000Y-76587500D02*
X182860000Y-77237500D01*
X182860000Y-76587500D02*
X182860000Y-75937500D01*
G04 #@! TO.C,C14*
X187338748Y-104960000D02*
X187861252Y-104960000D01*
X187338748Y-103490000D02*
X187861252Y-103490000D01*
G04 #@! TO.C,C3*
X133698038Y-102485000D02*
X133175534Y-102485000D01*
X133698038Y-101015000D02*
X133175534Y-101015000D01*
G04 #@! TO.C,R30*
X127537258Y-96877500D02*
X127062742Y-96877500D01*
X127537258Y-97922500D02*
X127062742Y-97922500D01*
G04 #@! TO.C,D20*
X129130341Y-132746733D02*
X127041503Y-131284113D01*
X130105421Y-131354174D02*
X128016583Y-129891555D01*
X129130341Y-132746733D02*
X130105421Y-131354174D01*
G04 #@! TO.C,Q3*
X121660000Y-71000000D02*
X121660000Y-69325000D01*
X118540000Y-71000000D02*
X118540000Y-71650000D01*
X118540000Y-71000000D02*
X118540000Y-70350000D01*
X121660000Y-71000000D02*
X121660000Y-71650000D01*
G04 #@! TO.C,R7*
X117312742Y-100972500D02*
X117787258Y-100972500D01*
X117312742Y-99927500D02*
X117787258Y-99927500D01*
G04 #@! TO.C,D22*
X107721190Y-119527500D02*
X107721190Y-123427500D01*
X109721190Y-119527500D02*
X109721190Y-123427500D01*
X109721190Y-119527500D02*
X107721190Y-119527500D01*
G04 #@! TO.C,C8*
X106167950Y-106182961D02*
X105645446Y-106182961D01*
X106167950Y-107652961D02*
X105645446Y-107652961D01*
G04 #@! TO.C,Q4*
X115891190Y-124267500D02*
X115241190Y-124267500D01*
X115891190Y-121147500D02*
X115241190Y-121147500D01*
X115891190Y-124267500D02*
X117566190Y-124267500D01*
X115891190Y-121147500D02*
X116541190Y-121147500D01*
G04 #@! TO.C,R5*
X109135346Y-109348837D02*
X109609862Y-109348837D01*
X109135346Y-108303837D02*
X109609862Y-108303837D01*
G04 #@! TO.C,R17*
X139199758Y-94477500D02*
X138725242Y-94477500D01*
X139199758Y-95522500D02*
X138725242Y-95522500D01*
G04 #@! TO.C,U1*
X103650000Y-105500000D02*
X98250000Y-105500000D01*
X98250000Y-105500000D02*
X98250000Y-92300000D01*
X98250000Y-92300000D02*
X103650000Y-92300000D01*
X103650000Y-92300000D02*
X103650000Y-105500000D01*
X103650000Y-105500000D02*
X114850000Y-105500000D01*
X114850000Y-105500000D02*
X114850000Y-92300000D01*
X114850000Y-92300000D02*
X103650000Y-92300000D01*
X103650000Y-92300000D02*
X103650000Y-105500000D01*
G04 #@! TO.C,C9*
X106197278Y-109361338D02*
X105916118Y-109361338D01*
X106197278Y-108341338D02*
X105916118Y-108341338D01*
G04 #@! TO.C,C2*
X113000493Y-106112482D02*
X113522997Y-106112482D01*
X113000493Y-107582482D02*
X113522997Y-107582482D01*
D13*
G04 #@! TO.C,BT1*
X178270000Y-60630000D02*
X158270000Y-60630000D01*
D10*
X169270000Y-64880000D02*
X167270000Y-64880000D01*
X170020000Y-128880000D02*
X166270000Y-128880000D01*
X168145000Y-127005000D02*
X168145000Y-130755000D01*
D13*
X178270000Y-137630000D02*
X158270000Y-137630000D01*
X158270000Y-137630000D02*
X158270000Y-60630000D01*
X178270000Y-60630000D02*
X178270000Y-137630000D01*
D10*
G04 #@! TO.C,C1*
X153215000Y-130178748D02*
X153215000Y-130701252D01*
X154685000Y-130178748D02*
X154685000Y-130701252D01*
G04 #@! TO.C,R18*
X139174758Y-91722500D02*
X138700242Y-91722500D01*
X139174758Y-90677500D02*
X138700242Y-90677500D01*
G04 #@! TO.C,R21*
X127062742Y-89822500D02*
X127537258Y-89822500D01*
X127062742Y-88777500D02*
X127537258Y-88777500D01*
G04 #@! TO.C,R3*
X127788776Y-132442161D02*
X128040486Y-132618411D01*
X127352858Y-133064717D02*
X127604568Y-133240967D01*
G04 #@! TO.C,U6*
X147110000Y-91850000D02*
X147110000Y-88400000D01*
X147110000Y-91850000D02*
X147110000Y-93800000D01*
X141990000Y-91850000D02*
X141990000Y-93800000D01*
X141990000Y-91850000D02*
X141990000Y-89900000D01*
G04 #@! TO.C,R29*
X103577500Y-113262258D02*
X103577500Y-112787742D01*
X104622500Y-113262258D02*
X104622500Y-112787742D01*
G04 #@! TO.C,C26*
X152109420Y-88160000D02*
X152390580Y-88160000D01*
X152109420Y-87140000D02*
X152390580Y-87140000D01*
G04 #@! TO.C,R20*
X127537258Y-92027500D02*
X127062742Y-92027500D01*
X127537258Y-93072500D02*
X127062742Y-93072500D01*
G04 #@! TO.C,J9*
X130500000Y-71119096D02*
X131440452Y-72059548D01*
X128661522Y-72957574D02*
X123230942Y-78388154D01*
X123230942Y-78388154D02*
X125111846Y-80269058D01*
X130542426Y-74838478D02*
X125111846Y-80269058D01*
X128661522Y-72957574D02*
X130542426Y-74838478D01*
X129559548Y-72059548D02*
X130500000Y-71119096D01*
G04 #@! TO.C,R23*
X127537258Y-91472500D02*
X127062742Y-91472500D01*
X127537258Y-90427500D02*
X127062742Y-90427500D01*
G04 #@! TO.C,J1*
X124853200Y-141086738D02*
X123763405Y-142643127D01*
X116063375Y-137251509D02*
X123763405Y-142643127D01*
X127090148Y-137892045D02*
X125942995Y-139530349D01*
X117153171Y-135695120D02*
X116063375Y-137251509D01*
X119390119Y-132500427D02*
X118242966Y-134138731D01*
G04 #@! TO.C,R1*
X117787258Y-98377500D02*
X117312742Y-98377500D01*
X117787258Y-99422500D02*
X117312742Y-99422500D01*
G04 #@! TO.C,D19*
X124903806Y-127711964D02*
X126992644Y-129174584D01*
X123928726Y-129104523D02*
X126017564Y-130567142D01*
X124903806Y-127711964D02*
X123928726Y-129104523D01*
G04 #@! TO.C,R13*
X188962742Y-96952500D02*
X189437258Y-96952500D01*
X188962742Y-97997500D02*
X189437258Y-97997500D01*
G04 #@! TO.C,SW1*
X136917785Y-126584111D02*
X138730400Y-127429347D01*
X138730400Y-127429347D02*
X134504218Y-136492425D01*
X134504218Y-136492425D02*
X132691602Y-135647189D01*
X132691602Y-135647189D02*
X136917785Y-126584111D01*
X126199650Y-143653721D02*
X132543804Y-146612049D01*
X132543804Y-146612049D02*
X136769987Y-137548971D01*
X136769987Y-137548971D02*
X130425833Y-134590643D01*
X130425833Y-134590643D02*
X126199650Y-143653721D01*
X128012265Y-144498957D02*
X130504612Y-145661158D01*
X130504612Y-145661158D02*
X129553721Y-147700350D01*
X129553721Y-147700350D02*
X127061373Y-146538149D01*
X127061373Y-146538149D02*
X128012265Y-144498957D01*
G04 #@! TO.C,R19*
X127536544Y-96272500D02*
X127062028Y-96272500D01*
X127536544Y-95227500D02*
X127062028Y-95227500D01*
G04 #@! TO.C,C7*
X152158748Y-88795000D02*
X152681252Y-88795000D01*
X152158748Y-90265000D02*
X152681252Y-90265000D01*
G04 #@! TO.C,D16*
X164910000Y-143010000D02*
X164910000Y-141540000D01*
X162625000Y-143010000D02*
X164910000Y-143010000D01*
X164910000Y-141540000D02*
X162625000Y-141540000D01*
G04 #@! TO.C,D17*
X183350000Y-107725000D02*
X185350000Y-107725000D01*
X185350000Y-107725000D02*
X185350000Y-103825000D01*
X183350000Y-107725000D02*
X183350000Y-103825000D01*
G04 #@! TO.C,R9*
X192447500Y-104987258D02*
X192447500Y-104512742D01*
X191402500Y-104987258D02*
X191402500Y-104512742D01*
G04 #@! TO.C,J11*
X131380904Y-124000000D02*
X130440452Y-124940452D01*
X130440452Y-123059548D02*
X131380904Y-124000000D01*
X127661522Y-124042426D02*
X122230942Y-118611846D01*
X124111846Y-116730942D02*
X122230942Y-118611846D01*
X129542426Y-122161522D02*
X127661522Y-124042426D01*
X129542426Y-122161522D02*
X124111846Y-116730942D01*
G04 #@! TO.C,M1*
X110670000Y-124045000D02*
X113330000Y-124045000D01*
X110670000Y-121445000D02*
X113330000Y-121445000D01*
X110670000Y-118845000D02*
X112000000Y-118845000D01*
X110670000Y-121445000D02*
X110670000Y-124045000D01*
X113330000Y-121445000D02*
X113330000Y-124045000D01*
X110670000Y-120175000D02*
X110670000Y-118845000D01*
G04 #@! TO.C,C5*
X150755000Y-93641252D02*
X150755000Y-93118748D01*
X149285000Y-93641252D02*
X149285000Y-93118748D01*
G04 #@! TO.C,R10*
X189752500Y-104512742D02*
X189752500Y-104987258D01*
X190797500Y-104512742D02*
X190797500Y-104987258D01*
G04 #@! TO.C,R14*
X120437258Y-68547500D02*
X119962742Y-68547500D01*
X120437258Y-67502500D02*
X119962742Y-67502500D01*
G04 #@! TO.C,J13*
X115205000Y-128205000D02*
X110065000Y-128205000D01*
X110065000Y-125545000D02*
X110065000Y-128205000D01*
X117805000Y-128205000D02*
X116475000Y-128205000D01*
X117805000Y-126875000D02*
X117805000Y-128205000D01*
X115205000Y-125545000D02*
X110065000Y-125545000D01*
X115205000Y-125545000D02*
X115205000Y-128205000D01*
G04 #@! TO.C,Q7*
X182635000Y-90575000D02*
X182635000Y-91225000D01*
X179515000Y-90575000D02*
X179515000Y-91225000D01*
X179515000Y-90575000D02*
X179515000Y-89925000D01*
X182635000Y-90575000D02*
X182635000Y-88900000D01*
G04 #@! TO.C,Q2*
X140240000Y-99650000D02*
X140240000Y-101325000D01*
X140240000Y-99650000D02*
X140240000Y-99000000D01*
X143360000Y-99650000D02*
X143360000Y-100300000D01*
X143360000Y-99650000D02*
X143360000Y-99000000D01*
G04 #@! TO.C,R6*
X147677500Y-120327258D02*
X147677500Y-119852742D01*
X148722500Y-120327258D02*
X148722500Y-119852742D01*
G04 #@! TO.C,U5*
X133137500Y-89315000D02*
X135087500Y-89315000D01*
X133137500Y-98185000D02*
X131187500Y-98185000D01*
X133137500Y-98185000D02*
X136587500Y-98185000D01*
X133137500Y-89315000D02*
X131187500Y-89315000D01*
G04 #@! TO.C,D14*
X179965000Y-117485000D02*
X181435000Y-117485000D01*
X179965000Y-115200000D02*
X179965000Y-117485000D01*
X181435000Y-117485000D02*
X181435000Y-115200000D01*
G04 #@! TO.C,C10*
X156685000Y-124228748D02*
X156685000Y-124751252D01*
X155215000Y-124228748D02*
X155215000Y-124751252D01*
G04 #@! TO.C,L1*
X184775000Y-102275000D02*
X181275000Y-102275000D01*
X181275000Y-102275000D02*
X181275000Y-98775000D01*
X181275000Y-98775000D02*
X184775000Y-98775000D01*
X184775000Y-98775000D02*
X184775000Y-102275000D01*
X183815569Y-100484431D02*
G75*
G03*
X183815569Y-100484431I-790569J0D01*
G01*
G04 #@! TO.C,R2*
X124323881Y-130821729D02*
X124072171Y-130645479D01*
X124759799Y-130199173D02*
X124508089Y-130022923D01*
G04 #@! TO.C,U4*
X136400000Y-83500000D02*
X156400000Y-83500000D01*
X156400000Y-83500000D02*
X156400000Y-57500000D01*
X156400000Y-57500000D02*
X136400000Y-57500000D01*
X136400000Y-57500000D02*
X136400000Y-83500000D01*
X156900000Y-86500000D02*
X135900000Y-86500000D01*
X135900000Y-86500000D02*
X135900000Y-50500000D01*
X135900000Y-50500000D02*
X156900000Y-50500000D01*
X156900000Y-50500000D02*
X156900000Y-86500000D01*
G04 #@! TO.C,R24*
X181437258Y-88272500D02*
X180962742Y-88272500D01*
X181437258Y-87227500D02*
X180962742Y-87227500D01*
G04 #@! TO.C,R28*
X183337258Y-78877500D02*
X182862742Y-78877500D01*
X183337258Y-79922500D02*
X182862742Y-79922500D01*
G04 #@! TO.C,R25*
X141662742Y-101947500D02*
X142137258Y-101947500D01*
X141662742Y-102992500D02*
X142137258Y-102992500D01*
G04 #@! TO.C,C25*
X106061190Y-120756920D02*
X106061190Y-121038080D01*
X107081190Y-120756920D02*
X107081190Y-121038080D01*
G04 #@! TD*
M02*
