G04 #@! TF.GenerationSoftware,KiCad,Pcbnew,6.0.11-2627ca5db0~126~ubuntu20.04.1*
G04 #@! TF.CreationDate,2023-04-27T18:05:00+02:00*
G04 #@! TF.ProjectId,Semafor,53656d61-666f-4722-9e6b-696361645f70,rev?*
G04 #@! TF.SameCoordinates,Original*
G04 #@! TF.FileFunction,Legend,Bot*
G04 #@! TF.FilePolarity,Positive*
%FSLAX46Y46*%
G04 Gerber Fmt 4.6, Leading zero omitted, Abs format (unit mm)*
G04 Created by KiCad (PCBNEW 6.0.11-2627ca5db0~126~ubuntu20.04.1) date 2023-04-27 18:05:00*
%MOMM*%
%LPD*%
G01*
G04 APERTURE LIST*
%ADD10C,0.150000*%
%ADD11C,0.120000*%
G04 APERTURE END LIST*
D10*
X230328571Y-94591071D02*
X230328571Y-95805357D01*
X230257142Y-95948214D01*
X230185714Y-96019642D01*
X230042857Y-96091071D01*
X229757142Y-96091071D01*
X229614285Y-96019642D01*
X229542857Y-95948214D01*
X229471428Y-95805357D01*
X229471428Y-94591071D01*
X228757142Y-95091071D02*
X228757142Y-96091071D01*
X228757142Y-95233928D02*
X228685714Y-95162500D01*
X228542857Y-95091071D01*
X228328571Y-95091071D01*
X228185714Y-95162500D01*
X228114285Y-95305357D01*
X228114285Y-96091071D01*
X227400000Y-96091071D02*
X227400000Y-95091071D01*
X227400000Y-94591071D02*
X227471428Y-94662500D01*
X227400000Y-94733928D01*
X227328571Y-94662500D01*
X227400000Y-94591071D01*
X227400000Y-94733928D01*
X226828571Y-95091071D02*
X226471428Y-96091071D01*
X226114285Y-95091071D01*
X224971428Y-96019642D02*
X225114285Y-96091071D01*
X225400000Y-96091071D01*
X225542857Y-96019642D01*
X225614285Y-95876785D01*
X225614285Y-95305357D01*
X225542857Y-95162500D01*
X225400000Y-95091071D01*
X225114285Y-95091071D01*
X224971428Y-95162500D01*
X224900000Y-95305357D01*
X224900000Y-95448214D01*
X225614285Y-95591071D01*
X224257142Y-96091071D02*
X224257142Y-95091071D01*
X224257142Y-95376785D02*
X224185714Y-95233928D01*
X224114285Y-95162500D01*
X223971428Y-95091071D01*
X223828571Y-95091071D01*
X223471428Y-95091071D02*
X222685714Y-95091071D01*
X223471428Y-96091071D01*
X222685714Y-96091071D01*
X221471428Y-96091071D02*
X221471428Y-95305357D01*
X221542857Y-95162500D01*
X221685714Y-95091071D01*
X221971428Y-95091071D01*
X222114285Y-95162500D01*
X221471428Y-96019642D02*
X221614285Y-96091071D01*
X221971428Y-96091071D01*
X222114285Y-96019642D01*
X222185714Y-95876785D01*
X222185714Y-95733928D01*
X222114285Y-95591071D01*
X221971428Y-95519642D01*
X221614285Y-95519642D01*
X221471428Y-95448214D01*
X221685714Y-94519642D02*
X221900000Y-94733928D01*
X220542857Y-96091071D02*
X220685714Y-96019642D01*
X220757142Y-95876785D01*
X220757142Y-94591071D01*
X219971428Y-95091071D02*
X219971428Y-96091071D01*
X219971428Y-95233928D02*
X219900000Y-95162500D01*
X219757142Y-95091071D01*
X219542857Y-95091071D01*
X219400000Y-95162500D01*
X219328571Y-95305357D01*
X219328571Y-96091071D01*
X218614285Y-96091071D02*
X218614285Y-95091071D01*
X218471428Y-94519642D02*
X218685714Y-94733928D01*
X216757142Y-96091071D02*
X216757142Y-95091071D01*
X216757142Y-95233928D02*
X216685714Y-95162500D01*
X216542857Y-95091071D01*
X216328571Y-95091071D01*
X216185714Y-95162500D01*
X216114285Y-95305357D01*
X216114285Y-96091071D01*
X216114285Y-95305357D02*
X216042857Y-95162500D01*
X215900000Y-95091071D01*
X215685714Y-95091071D01*
X215542857Y-95162500D01*
X215471428Y-95305357D01*
X215471428Y-96091071D01*
X214542857Y-96091071D02*
X214685714Y-96019642D01*
X214757142Y-95948214D01*
X214828571Y-95805357D01*
X214828571Y-95376785D01*
X214757142Y-95233928D01*
X214685714Y-95162500D01*
X214542857Y-95091071D01*
X214328571Y-95091071D01*
X214185714Y-95162500D01*
X214114285Y-95233928D01*
X214042857Y-95376785D01*
X214042857Y-95805357D01*
X214114285Y-95948214D01*
X214185714Y-96019642D01*
X214328571Y-96091071D01*
X214542857Y-96091071D01*
X212757142Y-96091071D02*
X212757142Y-94591071D01*
X212757142Y-96019642D02*
X212900000Y-96091071D01*
X213185714Y-96091071D01*
X213328571Y-96019642D01*
X213400000Y-95948214D01*
X213471428Y-95805357D01*
X213471428Y-95376785D01*
X213400000Y-95233928D01*
X213328571Y-95162500D01*
X213185714Y-95091071D01*
X212900000Y-95091071D01*
X212757142Y-95162500D01*
X211400000Y-95091071D02*
X211400000Y-96091071D01*
X212042857Y-95091071D02*
X212042857Y-95876785D01*
X211971428Y-96019642D01*
X211828571Y-96091071D01*
X211614285Y-96091071D01*
X211471428Y-96019642D01*
X211400000Y-95948214D01*
X210471428Y-96091071D02*
X210614285Y-96019642D01*
X210685714Y-95876785D01*
X210685714Y-94591071D01*
X232757142Y-97506071D02*
X232757142Y-99006071D01*
X232757142Y-97577500D02*
X232614285Y-97506071D01*
X232328571Y-97506071D01*
X232185714Y-97577500D01*
X232114285Y-97648928D01*
X232042857Y-97791785D01*
X232042857Y-98220357D01*
X232114285Y-98363214D01*
X232185714Y-98434642D01*
X232328571Y-98506071D01*
X232614285Y-98506071D01*
X232757142Y-98434642D01*
X231400000Y-98506071D02*
X231400000Y-97506071D01*
X231400000Y-97791785D02*
X231328571Y-97648928D01*
X231257142Y-97577500D01*
X231114285Y-97506071D01*
X230971428Y-97506071D01*
X230257142Y-98506071D02*
X230400000Y-98434642D01*
X230471428Y-98363214D01*
X230542857Y-98220357D01*
X230542857Y-97791785D01*
X230471428Y-97648928D01*
X230400000Y-97577500D01*
X230257142Y-97506071D01*
X230042857Y-97506071D01*
X229900000Y-97577500D01*
X229828571Y-97648928D01*
X229757142Y-97791785D01*
X229757142Y-98220357D01*
X229828571Y-98363214D01*
X229900000Y-98434642D01*
X230042857Y-98506071D01*
X230257142Y-98506071D01*
X227971428Y-97506071D02*
X227971428Y-99006071D01*
X227971428Y-97577500D02*
X227828571Y-97506071D01*
X227542857Y-97506071D01*
X227400000Y-97577500D01*
X227328571Y-97648928D01*
X227257142Y-97791785D01*
X227257142Y-98220357D01*
X227328571Y-98363214D01*
X227400000Y-98434642D01*
X227542857Y-98506071D01*
X227828571Y-98506071D01*
X227971428Y-98434642D01*
X226400000Y-98506071D02*
X226542857Y-98434642D01*
X226614285Y-98363214D01*
X226685714Y-98220357D01*
X226685714Y-97791785D01*
X226614285Y-97648928D01*
X226542857Y-97577500D01*
X226400000Y-97506071D01*
X226185714Y-97506071D01*
X226042857Y-97577500D01*
X225971428Y-97648928D01*
X225900000Y-97791785D01*
X225900000Y-98220357D01*
X225971428Y-98363214D01*
X226042857Y-98434642D01*
X226185714Y-98506071D01*
X226400000Y-98506071D01*
X224614285Y-98506071D02*
X224614285Y-97006071D01*
X224614285Y-98434642D02*
X224757142Y-98506071D01*
X225042857Y-98506071D01*
X225185714Y-98434642D01*
X225257142Y-98363214D01*
X225328571Y-98220357D01*
X225328571Y-97791785D01*
X225257142Y-97648928D01*
X225185714Y-97577500D01*
X225042857Y-97506071D01*
X224757142Y-97506071D01*
X224614285Y-97577500D01*
X223900000Y-97506071D02*
X223900000Y-99006071D01*
X223900000Y-97577500D02*
X223757142Y-97506071D01*
X223471428Y-97506071D01*
X223328571Y-97577500D01*
X223257142Y-97648928D01*
X223185714Y-97791785D01*
X223185714Y-98220357D01*
X223257142Y-98363214D01*
X223328571Y-98434642D01*
X223471428Y-98506071D01*
X223757142Y-98506071D01*
X223900000Y-98434642D01*
X222328571Y-98506071D02*
X222471428Y-98434642D01*
X222542857Y-98363214D01*
X222614285Y-98220357D01*
X222614285Y-97791785D01*
X222542857Y-97648928D01*
X222471428Y-97577500D01*
X222328571Y-97506071D01*
X222114285Y-97506071D01*
X221971428Y-97577500D01*
X221900000Y-97648928D01*
X221828571Y-97791785D01*
X221828571Y-98220357D01*
X221900000Y-98363214D01*
X221971428Y-98434642D01*
X222114285Y-98506071D01*
X222328571Y-98506071D01*
X221185714Y-98506071D02*
X221185714Y-97506071D01*
X221185714Y-97791785D02*
X221114285Y-97648928D01*
X221042857Y-97577500D01*
X220900000Y-97506071D01*
X220757142Y-97506071D01*
X219614285Y-97506071D02*
X219614285Y-98506071D01*
X220257142Y-97506071D02*
X220257142Y-98291785D01*
X220185714Y-98434642D01*
X220042857Y-98506071D01*
X219828571Y-98506071D01*
X219685714Y-98434642D01*
X219614285Y-98363214D01*
X217971428Y-97506071D02*
X217400000Y-97506071D01*
X217757142Y-97006071D02*
X217757142Y-98291785D01*
X217685714Y-98434642D01*
X217542857Y-98506071D01*
X217400000Y-98506071D01*
X217042857Y-97506071D02*
X216685714Y-98506071D01*
X216328571Y-97506071D02*
X216685714Y-98506071D01*
X216828571Y-98863214D01*
X216900000Y-98934642D01*
X217042857Y-99006071D01*
X216542857Y-96934642D02*
X216757142Y-97148928D01*
X215757142Y-98506071D02*
X215757142Y-97506071D01*
X215757142Y-97648928D02*
X215685714Y-97577500D01*
X215542857Y-97506071D01*
X215328571Y-97506071D01*
X215185714Y-97577500D01*
X215114285Y-97720357D01*
X215114285Y-98506071D01*
X215114285Y-97720357D02*
X215042857Y-97577500D01*
X214900000Y-97506071D01*
X214685714Y-97506071D01*
X214542857Y-97577500D01*
X214471428Y-97720357D01*
X214471428Y-98506071D01*
X213542857Y-98506071D02*
X213685714Y-98434642D01*
X213757142Y-98363214D01*
X213828571Y-98220357D01*
X213828571Y-97791785D01*
X213757142Y-97648928D01*
X213685714Y-97577500D01*
X213542857Y-97506071D01*
X213328571Y-97506071D01*
X213185714Y-97577500D01*
X213114285Y-97648928D01*
X213042857Y-97791785D01*
X213042857Y-98220357D01*
X213114285Y-98363214D01*
X213185714Y-98434642D01*
X213328571Y-98506071D01*
X213542857Y-98506071D01*
X212542857Y-97506071D02*
X212185714Y-98506071D01*
X211828571Y-97506071D01*
X211400000Y-97506071D02*
X211042857Y-98506071D01*
X210685714Y-97506071D02*
X211042857Y-98506071D01*
X211185714Y-98863214D01*
X211257142Y-98934642D01*
X211400000Y-99006071D01*
X210900000Y-96934642D02*
X211114285Y-97148928D01*
X209471428Y-98434642D02*
X209614285Y-98506071D01*
X209900000Y-98506071D01*
X210042857Y-98434642D01*
X210114285Y-98363214D01*
X210185714Y-98220357D01*
X210185714Y-97791785D01*
X210114285Y-97648928D01*
X210042857Y-97577500D01*
X209900000Y-97506071D01*
X209614285Y-97506071D01*
X209471428Y-97577500D01*
X208828571Y-98506071D02*
X208828571Y-97006071D01*
X208185714Y-98506071D02*
X208185714Y-97720357D01*
X208257142Y-97577500D01*
X208400000Y-97506071D01*
X208614285Y-97506071D01*
X208757142Y-97577500D01*
X208828571Y-97648928D01*
X223685714Y-100921071D02*
X223685714Y-99421071D01*
X223042857Y-100921071D02*
X223042857Y-100135357D01*
X223114285Y-99992500D01*
X223257142Y-99921071D01*
X223471428Y-99921071D01*
X223614285Y-99992500D01*
X223685714Y-100063928D01*
X221757142Y-100849642D02*
X221900000Y-100921071D01*
X222185714Y-100921071D01*
X222328571Y-100849642D01*
X222400000Y-100706785D01*
X222400000Y-100135357D01*
X222328571Y-99992500D01*
X222185714Y-99921071D01*
X221900000Y-99921071D01*
X221757142Y-99992500D01*
X221685714Y-100135357D01*
X221685714Y-100278214D01*
X222400000Y-100421071D01*
X221042857Y-100921071D02*
X221042857Y-99921071D01*
X221042857Y-100206785D02*
X220971428Y-100063928D01*
X220900000Y-99992500D01*
X220757142Y-99921071D01*
X220614285Y-99921071D01*
X218185714Y-100921071D02*
X219042857Y-100921071D01*
X218614285Y-100921071D02*
X218614285Y-99421071D01*
X218757142Y-99635357D01*
X218900000Y-99778214D01*
X219042857Y-99849642D01*
X217542857Y-100778214D02*
X217471428Y-100849642D01*
X217542857Y-100921071D01*
X217614285Y-100849642D01*
X217542857Y-100778214D01*
X217542857Y-100921071D01*
X216542857Y-99421071D02*
X216400000Y-99421071D01*
X216257142Y-99492500D01*
X216185714Y-99563928D01*
X216114285Y-99706785D01*
X216042857Y-99992500D01*
X216042857Y-100349642D01*
X216114285Y-100635357D01*
X216185714Y-100778214D01*
X216257142Y-100849642D01*
X216400000Y-100921071D01*
X216542857Y-100921071D01*
X216685714Y-100849642D01*
X216757142Y-100778214D01*
X216828571Y-100635357D01*
X216900000Y-100349642D01*
X216900000Y-99992500D01*
X216828571Y-99706785D01*
X216757142Y-99563928D01*
X216685714Y-99492500D01*
X216542857Y-99421071D01*
X231435714Y-103336071D02*
X231435714Y-101836071D01*
X231435714Y-102407500D02*
X231292857Y-102336071D01*
X231007142Y-102336071D01*
X230864285Y-102407500D01*
X230792857Y-102478928D01*
X230721428Y-102621785D01*
X230721428Y-103050357D01*
X230792857Y-103193214D01*
X230864285Y-103264642D01*
X231007142Y-103336071D01*
X231292857Y-103336071D01*
X231435714Y-103264642D01*
X230221428Y-102336071D02*
X229864285Y-103336071D01*
X229507142Y-102336071D02*
X229864285Y-103336071D01*
X230007142Y-103693214D01*
X230078571Y-103764642D01*
X230221428Y-103836071D01*
X226935714Y-103336071D02*
X227435714Y-102621785D01*
X227792857Y-103336071D02*
X227792857Y-101836071D01*
X227221428Y-101836071D01*
X227078571Y-101907500D01*
X227007142Y-101978928D01*
X226935714Y-102121785D01*
X226935714Y-102336071D01*
X227007142Y-102478928D01*
X227078571Y-102550357D01*
X227221428Y-102621785D01*
X227792857Y-102621785D01*
X225721428Y-103264642D02*
X225864285Y-103336071D01*
X226150000Y-103336071D01*
X226292857Y-103264642D01*
X226364285Y-103121785D01*
X226364285Y-102550357D01*
X226292857Y-102407500D01*
X226150000Y-102336071D01*
X225864285Y-102336071D01*
X225721428Y-102407500D01*
X225650000Y-102550357D01*
X225650000Y-102693214D01*
X226364285Y-102836071D01*
X225007142Y-102336071D02*
X225007142Y-103336071D01*
X225007142Y-102478928D02*
X224935714Y-102407500D01*
X224792857Y-102336071D01*
X224578571Y-102336071D01*
X224435714Y-102407500D01*
X224364285Y-102550357D01*
X224364285Y-103336071D01*
X223007142Y-103336071D02*
X223007142Y-102550357D01*
X223078571Y-102407500D01*
X223221428Y-102336071D01*
X223507142Y-102336071D01*
X223650000Y-102407500D01*
X223007142Y-103264642D02*
X223150000Y-103336071D01*
X223507142Y-103336071D01*
X223650000Y-103264642D01*
X223721428Y-103121785D01*
X223721428Y-102978928D01*
X223650000Y-102836071D01*
X223507142Y-102764642D01*
X223150000Y-102764642D01*
X223007142Y-102693214D01*
X222507142Y-102336071D02*
X221935714Y-102336071D01*
X222292857Y-101836071D02*
X222292857Y-103121785D01*
X222221428Y-103264642D01*
X222078571Y-103336071D01*
X221935714Y-103336071D01*
X220792857Y-103336071D02*
X220792857Y-102550357D01*
X220864285Y-102407500D01*
X221007142Y-102336071D01*
X221292857Y-102336071D01*
X221435714Y-102407500D01*
X220792857Y-103264642D02*
X220935714Y-103336071D01*
X221292857Y-103336071D01*
X221435714Y-103264642D01*
X221507142Y-103121785D01*
X221507142Y-102978928D01*
X221435714Y-102836071D01*
X221292857Y-102764642D01*
X220935714Y-102764642D01*
X220792857Y-102693214D01*
X219078571Y-101836071D02*
X218078571Y-101836071D01*
X219078571Y-103336071D01*
X218078571Y-103336071D01*
X216935714Y-103264642D02*
X217078571Y-103336071D01*
X217364285Y-103336071D01*
X217507142Y-103264642D01*
X217578571Y-103121785D01*
X217578571Y-102550357D01*
X217507142Y-102407500D01*
X217364285Y-102336071D01*
X217078571Y-102336071D01*
X216935714Y-102407500D01*
X216864285Y-102550357D01*
X216864285Y-102693214D01*
X217578571Y-102836071D01*
X216221428Y-103336071D02*
X216221428Y-102336071D01*
X216221428Y-102478928D02*
X216150000Y-102407500D01*
X216007142Y-102336071D01*
X215792857Y-102336071D01*
X215650000Y-102407500D01*
X215578571Y-102550357D01*
X215578571Y-103336071D01*
X215578571Y-102550357D02*
X215507142Y-102407500D01*
X215364285Y-102336071D01*
X215150000Y-102336071D01*
X215007142Y-102407500D01*
X214935714Y-102550357D01*
X214935714Y-103336071D01*
X213578571Y-103336071D02*
X213578571Y-102550357D01*
X213650000Y-102407500D01*
X213792857Y-102336071D01*
X214078571Y-102336071D01*
X214221428Y-102407500D01*
X213578571Y-103264642D02*
X213721428Y-103336071D01*
X214078571Y-103336071D01*
X214221428Y-103264642D01*
X214292857Y-103121785D01*
X214292857Y-102978928D01*
X214221428Y-102836071D01*
X214078571Y-102764642D01*
X213721428Y-102764642D01*
X213578571Y-102693214D01*
X212864285Y-102336071D02*
X212864285Y-103336071D01*
X212864285Y-102478928D02*
X212792857Y-102407500D01*
X212650000Y-102336071D01*
X212435714Y-102336071D01*
X212292857Y-102407500D01*
X212221428Y-102550357D01*
X212221428Y-103336071D01*
X211292857Y-103336071D02*
X211435714Y-103264642D01*
X211507142Y-103193214D01*
X211578571Y-103050357D01*
X211578571Y-102621785D01*
X211507142Y-102478928D01*
X211435714Y-102407500D01*
X211292857Y-102336071D01*
X211078571Y-102336071D01*
X210935714Y-102407500D01*
X210864285Y-102478928D01*
X210792857Y-102621785D01*
X210792857Y-103050357D01*
X210864285Y-103193214D01*
X210935714Y-103264642D01*
X211078571Y-103336071D01*
X211292857Y-103336071D01*
X210292857Y-102336071D02*
X209935714Y-103336071D01*
X209578571Y-102336071D01*
X208364285Y-103336071D02*
X208364285Y-102550357D01*
X208435714Y-102407500D01*
X208578571Y-102336071D01*
X208864285Y-102336071D01*
X209007142Y-102407500D01*
X208364285Y-103264642D02*
X208507142Y-103336071D01*
X208864285Y-103336071D01*
X209007142Y-103264642D01*
X209078571Y-103121785D01*
X209078571Y-102978928D01*
X209007142Y-102836071D01*
X208864285Y-102764642D01*
X208507142Y-102764642D01*
X208364285Y-102693214D01*
X208578571Y-101764642D02*
X208792857Y-101978928D01*
X223435714Y-105751071D02*
X223435714Y-104251071D01*
X223435714Y-104822500D02*
X223292857Y-104751071D01*
X223007142Y-104751071D01*
X222864285Y-104822500D01*
X222792857Y-104893928D01*
X222721428Y-105036785D01*
X222721428Y-105465357D01*
X222792857Y-105608214D01*
X222864285Y-105679642D01*
X223007142Y-105751071D01*
X223292857Y-105751071D01*
X223435714Y-105679642D01*
X221864285Y-105751071D02*
X222007142Y-105679642D01*
X222078571Y-105608214D01*
X222150000Y-105465357D01*
X222150000Y-105036785D01*
X222078571Y-104893928D01*
X222007142Y-104822500D01*
X221864285Y-104751071D01*
X221650000Y-104751071D01*
X221507142Y-104822500D01*
X221435714Y-104893928D01*
X221364285Y-105036785D01*
X221364285Y-105465357D01*
X221435714Y-105608214D01*
X221507142Y-105679642D01*
X221650000Y-105751071D01*
X221864285Y-105751071D01*
X220935714Y-104751071D02*
X220364285Y-104751071D01*
X220721428Y-104251071D02*
X220721428Y-105536785D01*
X220650000Y-105679642D01*
X220507142Y-105751071D01*
X220364285Y-105751071D01*
X220078571Y-104751071D02*
X219507142Y-104751071D01*
X219864285Y-104251071D02*
X219864285Y-105536785D01*
X219792857Y-105679642D01*
X219650000Y-105751071D01*
X219507142Y-105751071D01*
X218792857Y-105751071D02*
X218935714Y-105679642D01*
X219007142Y-105608214D01*
X219078571Y-105465357D01*
X219078571Y-105036785D01*
X219007142Y-104893928D01*
X218935714Y-104822500D01*
X218792857Y-104751071D01*
X218578571Y-104751071D01*
X218435714Y-104822500D01*
X218364285Y-104893928D01*
X218292857Y-105036785D01*
X218292857Y-105465357D01*
X218364285Y-105608214D01*
X218435714Y-105679642D01*
X218578571Y-105751071D01*
X218792857Y-105751071D01*
X217650000Y-105751071D02*
X217650000Y-104751071D01*
X217650000Y-104893928D02*
X217578571Y-104822500D01*
X217435714Y-104751071D01*
X217221428Y-104751071D01*
X217078571Y-104822500D01*
X217007142Y-104965357D01*
X217007142Y-105751071D01*
X217007142Y-104965357D02*
X216935714Y-104822500D01*
X216792857Y-104751071D01*
X216578571Y-104751071D01*
X216435714Y-104822500D01*
X216364285Y-104965357D01*
X216364285Y-105751071D01*
X110978571Y-95891071D02*
X110978571Y-97105357D01*
X110907142Y-97248214D01*
X110835714Y-97319642D01*
X110692857Y-97391071D01*
X110407142Y-97391071D01*
X110264285Y-97319642D01*
X110192857Y-97248214D01*
X110121428Y-97105357D01*
X110121428Y-95891071D01*
X109407142Y-96391071D02*
X109407142Y-97391071D01*
X109407142Y-96533928D02*
X109335714Y-96462500D01*
X109192857Y-96391071D01*
X108978571Y-96391071D01*
X108835714Y-96462500D01*
X108764285Y-96605357D01*
X108764285Y-97391071D01*
X108050000Y-97391071D02*
X108050000Y-96391071D01*
X108050000Y-95891071D02*
X108121428Y-95962500D01*
X108050000Y-96033928D01*
X107978571Y-95962500D01*
X108050000Y-95891071D01*
X108050000Y-96033928D01*
X107478571Y-96391071D02*
X107121428Y-97391071D01*
X106764285Y-96391071D01*
X105621428Y-97319642D02*
X105764285Y-97391071D01*
X106050000Y-97391071D01*
X106192857Y-97319642D01*
X106264285Y-97176785D01*
X106264285Y-96605357D01*
X106192857Y-96462500D01*
X106050000Y-96391071D01*
X105764285Y-96391071D01*
X105621428Y-96462500D01*
X105550000Y-96605357D01*
X105550000Y-96748214D01*
X106264285Y-96891071D01*
X104907142Y-97391071D02*
X104907142Y-96391071D01*
X104907142Y-96676785D02*
X104835714Y-96533928D01*
X104764285Y-96462500D01*
X104621428Y-96391071D01*
X104478571Y-96391071D01*
X104121428Y-96391071D02*
X103335714Y-96391071D01*
X104121428Y-97391071D01*
X103335714Y-97391071D01*
X102121428Y-97391071D02*
X102121428Y-96605357D01*
X102192857Y-96462500D01*
X102335714Y-96391071D01*
X102621428Y-96391071D01*
X102764285Y-96462500D01*
X102121428Y-97319642D02*
X102264285Y-97391071D01*
X102621428Y-97391071D01*
X102764285Y-97319642D01*
X102835714Y-97176785D01*
X102835714Y-97033928D01*
X102764285Y-96891071D01*
X102621428Y-96819642D01*
X102264285Y-96819642D01*
X102121428Y-96748214D01*
X102335714Y-95819642D02*
X102550000Y-96033928D01*
X101192857Y-97391071D02*
X101335714Y-97319642D01*
X101407142Y-97176785D01*
X101407142Y-95891071D01*
X100621428Y-96391071D02*
X100621428Y-97391071D01*
X100621428Y-96533928D02*
X100550000Y-96462500D01*
X100407142Y-96391071D01*
X100192857Y-96391071D01*
X100050000Y-96462500D01*
X99978571Y-96605357D01*
X99978571Y-97391071D01*
X99264285Y-97391071D02*
X99264285Y-96391071D01*
X99121428Y-95819642D02*
X99335714Y-96033928D01*
X97407142Y-97391071D02*
X97407142Y-96391071D01*
X97407142Y-96533928D02*
X97335714Y-96462500D01*
X97192857Y-96391071D01*
X96978571Y-96391071D01*
X96835714Y-96462500D01*
X96764285Y-96605357D01*
X96764285Y-97391071D01*
X96764285Y-96605357D02*
X96692857Y-96462500D01*
X96550000Y-96391071D01*
X96335714Y-96391071D01*
X96192857Y-96462500D01*
X96121428Y-96605357D01*
X96121428Y-97391071D01*
X95192857Y-97391071D02*
X95335714Y-97319642D01*
X95407142Y-97248214D01*
X95478571Y-97105357D01*
X95478571Y-96676785D01*
X95407142Y-96533928D01*
X95335714Y-96462500D01*
X95192857Y-96391071D01*
X94978571Y-96391071D01*
X94835714Y-96462500D01*
X94764285Y-96533928D01*
X94692857Y-96676785D01*
X94692857Y-97105357D01*
X94764285Y-97248214D01*
X94835714Y-97319642D01*
X94978571Y-97391071D01*
X95192857Y-97391071D01*
X93407142Y-97391071D02*
X93407142Y-95891071D01*
X93407142Y-97319642D02*
X93550000Y-97391071D01*
X93835714Y-97391071D01*
X93978571Y-97319642D01*
X94050000Y-97248214D01*
X94121428Y-97105357D01*
X94121428Y-96676785D01*
X94050000Y-96533928D01*
X93978571Y-96462500D01*
X93835714Y-96391071D01*
X93550000Y-96391071D01*
X93407142Y-96462500D01*
X92050000Y-96391071D02*
X92050000Y-97391071D01*
X92692857Y-96391071D02*
X92692857Y-97176785D01*
X92621428Y-97319642D01*
X92478571Y-97391071D01*
X92264285Y-97391071D01*
X92121428Y-97319642D01*
X92050000Y-97248214D01*
X91121428Y-97391071D02*
X91264285Y-97319642D01*
X91335714Y-97176785D01*
X91335714Y-95891071D01*
X113407142Y-98806071D02*
X113407142Y-100306071D01*
X113407142Y-98877500D02*
X113264285Y-98806071D01*
X112978571Y-98806071D01*
X112835714Y-98877500D01*
X112764285Y-98948928D01*
X112692857Y-99091785D01*
X112692857Y-99520357D01*
X112764285Y-99663214D01*
X112835714Y-99734642D01*
X112978571Y-99806071D01*
X113264285Y-99806071D01*
X113407142Y-99734642D01*
X112050000Y-99806071D02*
X112050000Y-98806071D01*
X112050000Y-99091785D02*
X111978571Y-98948928D01*
X111907142Y-98877500D01*
X111764285Y-98806071D01*
X111621428Y-98806071D01*
X110907142Y-99806071D02*
X111050000Y-99734642D01*
X111121428Y-99663214D01*
X111192857Y-99520357D01*
X111192857Y-99091785D01*
X111121428Y-98948928D01*
X111050000Y-98877500D01*
X110907142Y-98806071D01*
X110692857Y-98806071D01*
X110550000Y-98877500D01*
X110478571Y-98948928D01*
X110407142Y-99091785D01*
X110407142Y-99520357D01*
X110478571Y-99663214D01*
X110550000Y-99734642D01*
X110692857Y-99806071D01*
X110907142Y-99806071D01*
X108621428Y-98806071D02*
X108621428Y-100306071D01*
X108621428Y-98877500D02*
X108478571Y-98806071D01*
X108192857Y-98806071D01*
X108050000Y-98877500D01*
X107978571Y-98948928D01*
X107907142Y-99091785D01*
X107907142Y-99520357D01*
X107978571Y-99663214D01*
X108050000Y-99734642D01*
X108192857Y-99806071D01*
X108478571Y-99806071D01*
X108621428Y-99734642D01*
X107050000Y-99806071D02*
X107192857Y-99734642D01*
X107264285Y-99663214D01*
X107335714Y-99520357D01*
X107335714Y-99091785D01*
X107264285Y-98948928D01*
X107192857Y-98877500D01*
X107050000Y-98806071D01*
X106835714Y-98806071D01*
X106692857Y-98877500D01*
X106621428Y-98948928D01*
X106550000Y-99091785D01*
X106550000Y-99520357D01*
X106621428Y-99663214D01*
X106692857Y-99734642D01*
X106835714Y-99806071D01*
X107050000Y-99806071D01*
X105264285Y-99806071D02*
X105264285Y-98306071D01*
X105264285Y-99734642D02*
X105407142Y-99806071D01*
X105692857Y-99806071D01*
X105835714Y-99734642D01*
X105907142Y-99663214D01*
X105978571Y-99520357D01*
X105978571Y-99091785D01*
X105907142Y-98948928D01*
X105835714Y-98877500D01*
X105692857Y-98806071D01*
X105407142Y-98806071D01*
X105264285Y-98877500D01*
X104550000Y-98806071D02*
X104550000Y-100306071D01*
X104550000Y-98877500D02*
X104407142Y-98806071D01*
X104121428Y-98806071D01*
X103978571Y-98877500D01*
X103907142Y-98948928D01*
X103835714Y-99091785D01*
X103835714Y-99520357D01*
X103907142Y-99663214D01*
X103978571Y-99734642D01*
X104121428Y-99806071D01*
X104407142Y-99806071D01*
X104550000Y-99734642D01*
X102978571Y-99806071D02*
X103121428Y-99734642D01*
X103192857Y-99663214D01*
X103264285Y-99520357D01*
X103264285Y-99091785D01*
X103192857Y-98948928D01*
X103121428Y-98877500D01*
X102978571Y-98806071D01*
X102764285Y-98806071D01*
X102621428Y-98877500D01*
X102550000Y-98948928D01*
X102478571Y-99091785D01*
X102478571Y-99520357D01*
X102550000Y-99663214D01*
X102621428Y-99734642D01*
X102764285Y-99806071D01*
X102978571Y-99806071D01*
X101835714Y-99806071D02*
X101835714Y-98806071D01*
X101835714Y-99091785D02*
X101764285Y-98948928D01*
X101692857Y-98877500D01*
X101550000Y-98806071D01*
X101407142Y-98806071D01*
X100264285Y-98806071D02*
X100264285Y-99806071D01*
X100907142Y-98806071D02*
X100907142Y-99591785D01*
X100835714Y-99734642D01*
X100692857Y-99806071D01*
X100478571Y-99806071D01*
X100335714Y-99734642D01*
X100264285Y-99663214D01*
X98621428Y-98806071D02*
X98050000Y-98806071D01*
X98407142Y-98306071D02*
X98407142Y-99591785D01*
X98335714Y-99734642D01*
X98192857Y-99806071D01*
X98050000Y-99806071D01*
X97692857Y-98806071D02*
X97335714Y-99806071D01*
X96978571Y-98806071D02*
X97335714Y-99806071D01*
X97478571Y-100163214D01*
X97550000Y-100234642D01*
X97692857Y-100306071D01*
X97192857Y-98234642D02*
X97407142Y-98448928D01*
X96407142Y-99806071D02*
X96407142Y-98806071D01*
X96407142Y-98948928D02*
X96335714Y-98877500D01*
X96192857Y-98806071D01*
X95978571Y-98806071D01*
X95835714Y-98877500D01*
X95764285Y-99020357D01*
X95764285Y-99806071D01*
X95764285Y-99020357D02*
X95692857Y-98877500D01*
X95550000Y-98806071D01*
X95335714Y-98806071D01*
X95192857Y-98877500D01*
X95121428Y-99020357D01*
X95121428Y-99806071D01*
X94192857Y-99806071D02*
X94335714Y-99734642D01*
X94407142Y-99663214D01*
X94478571Y-99520357D01*
X94478571Y-99091785D01*
X94407142Y-98948928D01*
X94335714Y-98877500D01*
X94192857Y-98806071D01*
X93978571Y-98806071D01*
X93835714Y-98877500D01*
X93764285Y-98948928D01*
X93692857Y-99091785D01*
X93692857Y-99520357D01*
X93764285Y-99663214D01*
X93835714Y-99734642D01*
X93978571Y-99806071D01*
X94192857Y-99806071D01*
X93192857Y-98806071D02*
X92835714Y-99806071D01*
X92478571Y-98806071D01*
X92050000Y-98806071D02*
X91692857Y-99806071D01*
X91335714Y-98806071D02*
X91692857Y-99806071D01*
X91835714Y-100163214D01*
X91907142Y-100234642D01*
X92050000Y-100306071D01*
X91550000Y-98234642D02*
X91764285Y-98448928D01*
X90121428Y-99734642D02*
X90264285Y-99806071D01*
X90550000Y-99806071D01*
X90692857Y-99734642D01*
X90764285Y-99663214D01*
X90835714Y-99520357D01*
X90835714Y-99091785D01*
X90764285Y-98948928D01*
X90692857Y-98877500D01*
X90550000Y-98806071D01*
X90264285Y-98806071D01*
X90121428Y-98877500D01*
X89478571Y-99806071D02*
X89478571Y-98306071D01*
X88835714Y-99806071D02*
X88835714Y-99020357D01*
X88907142Y-98877500D01*
X89050000Y-98806071D01*
X89264285Y-98806071D01*
X89407142Y-98877500D01*
X89478571Y-98948928D01*
X104335714Y-102221071D02*
X104335714Y-100721071D01*
X103692857Y-102221071D02*
X103692857Y-101435357D01*
X103764285Y-101292500D01*
X103907142Y-101221071D01*
X104121428Y-101221071D01*
X104264285Y-101292500D01*
X104335714Y-101363928D01*
X102407142Y-102149642D02*
X102550000Y-102221071D01*
X102835714Y-102221071D01*
X102978571Y-102149642D01*
X103050000Y-102006785D01*
X103050000Y-101435357D01*
X102978571Y-101292500D01*
X102835714Y-101221071D01*
X102550000Y-101221071D01*
X102407142Y-101292500D01*
X102335714Y-101435357D01*
X102335714Y-101578214D01*
X103050000Y-101721071D01*
X101692857Y-102221071D02*
X101692857Y-101221071D01*
X101692857Y-101506785D02*
X101621428Y-101363928D01*
X101550000Y-101292500D01*
X101407142Y-101221071D01*
X101264285Y-101221071D01*
X98835714Y-102221071D02*
X99692857Y-102221071D01*
X99264285Y-102221071D02*
X99264285Y-100721071D01*
X99407142Y-100935357D01*
X99550000Y-101078214D01*
X99692857Y-101149642D01*
X98192857Y-102078214D02*
X98121428Y-102149642D01*
X98192857Y-102221071D01*
X98264285Y-102149642D01*
X98192857Y-102078214D01*
X98192857Y-102221071D01*
X97192857Y-100721071D02*
X97050000Y-100721071D01*
X96907142Y-100792500D01*
X96835714Y-100863928D01*
X96764285Y-101006785D01*
X96692857Y-101292500D01*
X96692857Y-101649642D01*
X96764285Y-101935357D01*
X96835714Y-102078214D01*
X96907142Y-102149642D01*
X97050000Y-102221071D01*
X97192857Y-102221071D01*
X97335714Y-102149642D01*
X97407142Y-102078214D01*
X97478571Y-101935357D01*
X97550000Y-101649642D01*
X97550000Y-101292500D01*
X97478571Y-101006785D01*
X97407142Y-100863928D01*
X97335714Y-100792500D01*
X97192857Y-100721071D01*
X112085714Y-104636071D02*
X112085714Y-103136071D01*
X112085714Y-103707500D02*
X111942857Y-103636071D01*
X111657142Y-103636071D01*
X111514285Y-103707500D01*
X111442857Y-103778928D01*
X111371428Y-103921785D01*
X111371428Y-104350357D01*
X111442857Y-104493214D01*
X111514285Y-104564642D01*
X111657142Y-104636071D01*
X111942857Y-104636071D01*
X112085714Y-104564642D01*
X110871428Y-103636071D02*
X110514285Y-104636071D01*
X110157142Y-103636071D02*
X110514285Y-104636071D01*
X110657142Y-104993214D01*
X110728571Y-105064642D01*
X110871428Y-105136071D01*
X107585714Y-104636071D02*
X108085714Y-103921785D01*
X108442857Y-104636071D02*
X108442857Y-103136071D01*
X107871428Y-103136071D01*
X107728571Y-103207500D01*
X107657142Y-103278928D01*
X107585714Y-103421785D01*
X107585714Y-103636071D01*
X107657142Y-103778928D01*
X107728571Y-103850357D01*
X107871428Y-103921785D01*
X108442857Y-103921785D01*
X106371428Y-104564642D02*
X106514285Y-104636071D01*
X106800000Y-104636071D01*
X106942857Y-104564642D01*
X107014285Y-104421785D01*
X107014285Y-103850357D01*
X106942857Y-103707500D01*
X106800000Y-103636071D01*
X106514285Y-103636071D01*
X106371428Y-103707500D01*
X106300000Y-103850357D01*
X106300000Y-103993214D01*
X107014285Y-104136071D01*
X105657142Y-103636071D02*
X105657142Y-104636071D01*
X105657142Y-103778928D02*
X105585714Y-103707500D01*
X105442857Y-103636071D01*
X105228571Y-103636071D01*
X105085714Y-103707500D01*
X105014285Y-103850357D01*
X105014285Y-104636071D01*
X103657142Y-104636071D02*
X103657142Y-103850357D01*
X103728571Y-103707500D01*
X103871428Y-103636071D01*
X104157142Y-103636071D01*
X104300000Y-103707500D01*
X103657142Y-104564642D02*
X103800000Y-104636071D01*
X104157142Y-104636071D01*
X104300000Y-104564642D01*
X104371428Y-104421785D01*
X104371428Y-104278928D01*
X104300000Y-104136071D01*
X104157142Y-104064642D01*
X103800000Y-104064642D01*
X103657142Y-103993214D01*
X103157142Y-103636071D02*
X102585714Y-103636071D01*
X102942857Y-103136071D02*
X102942857Y-104421785D01*
X102871428Y-104564642D01*
X102728571Y-104636071D01*
X102585714Y-104636071D01*
X101442857Y-104636071D02*
X101442857Y-103850357D01*
X101514285Y-103707500D01*
X101657142Y-103636071D01*
X101942857Y-103636071D01*
X102085714Y-103707500D01*
X101442857Y-104564642D02*
X101585714Y-104636071D01*
X101942857Y-104636071D01*
X102085714Y-104564642D01*
X102157142Y-104421785D01*
X102157142Y-104278928D01*
X102085714Y-104136071D01*
X101942857Y-104064642D01*
X101585714Y-104064642D01*
X101442857Y-103993214D01*
X99728571Y-103136071D02*
X98728571Y-103136071D01*
X99728571Y-104636071D01*
X98728571Y-104636071D01*
X97585714Y-104564642D02*
X97728571Y-104636071D01*
X98014285Y-104636071D01*
X98157142Y-104564642D01*
X98228571Y-104421785D01*
X98228571Y-103850357D01*
X98157142Y-103707500D01*
X98014285Y-103636071D01*
X97728571Y-103636071D01*
X97585714Y-103707500D01*
X97514285Y-103850357D01*
X97514285Y-103993214D01*
X98228571Y-104136071D01*
X96871428Y-104636071D02*
X96871428Y-103636071D01*
X96871428Y-103778928D02*
X96800000Y-103707500D01*
X96657142Y-103636071D01*
X96442857Y-103636071D01*
X96300000Y-103707500D01*
X96228571Y-103850357D01*
X96228571Y-104636071D01*
X96228571Y-103850357D02*
X96157142Y-103707500D01*
X96014285Y-103636071D01*
X95800000Y-103636071D01*
X95657142Y-103707500D01*
X95585714Y-103850357D01*
X95585714Y-104636071D01*
X94228571Y-104636071D02*
X94228571Y-103850357D01*
X94300000Y-103707500D01*
X94442857Y-103636071D01*
X94728571Y-103636071D01*
X94871428Y-103707500D01*
X94228571Y-104564642D02*
X94371428Y-104636071D01*
X94728571Y-104636071D01*
X94871428Y-104564642D01*
X94942857Y-104421785D01*
X94942857Y-104278928D01*
X94871428Y-104136071D01*
X94728571Y-104064642D01*
X94371428Y-104064642D01*
X94228571Y-103993214D01*
X93514285Y-103636071D02*
X93514285Y-104636071D01*
X93514285Y-103778928D02*
X93442857Y-103707500D01*
X93300000Y-103636071D01*
X93085714Y-103636071D01*
X92942857Y-103707500D01*
X92871428Y-103850357D01*
X92871428Y-104636071D01*
X91942857Y-104636071D02*
X92085714Y-104564642D01*
X92157142Y-104493214D01*
X92228571Y-104350357D01*
X92228571Y-103921785D01*
X92157142Y-103778928D01*
X92085714Y-103707500D01*
X91942857Y-103636071D01*
X91728571Y-103636071D01*
X91585714Y-103707500D01*
X91514285Y-103778928D01*
X91442857Y-103921785D01*
X91442857Y-104350357D01*
X91514285Y-104493214D01*
X91585714Y-104564642D01*
X91728571Y-104636071D01*
X91942857Y-104636071D01*
X90942857Y-103636071D02*
X90585714Y-104636071D01*
X90228571Y-103636071D01*
X89014285Y-104636071D02*
X89014285Y-103850357D01*
X89085714Y-103707500D01*
X89228571Y-103636071D01*
X89514285Y-103636071D01*
X89657142Y-103707500D01*
X89014285Y-104564642D02*
X89157142Y-104636071D01*
X89514285Y-104636071D01*
X89657142Y-104564642D01*
X89728571Y-104421785D01*
X89728571Y-104278928D01*
X89657142Y-104136071D01*
X89514285Y-104064642D01*
X89157142Y-104064642D01*
X89014285Y-103993214D01*
X89228571Y-103064642D02*
X89442857Y-103278928D01*
X102192857Y-106051071D02*
X101621428Y-106051071D01*
X101978571Y-105551071D02*
X101978571Y-106836785D01*
X101907142Y-106979642D01*
X101764285Y-107051071D01*
X101621428Y-107051071D01*
X100907142Y-107051071D02*
X101050000Y-106979642D01*
X101121428Y-106908214D01*
X101192857Y-106765357D01*
X101192857Y-106336785D01*
X101121428Y-106193928D01*
X101050000Y-106122500D01*
X100907142Y-106051071D01*
X100692857Y-106051071D01*
X100550000Y-106122500D01*
X100478571Y-106193928D01*
X100407142Y-106336785D01*
X100407142Y-106765357D01*
X100478571Y-106908214D01*
X100550000Y-106979642D01*
X100692857Y-107051071D01*
X100907142Y-107051071D01*
X99764285Y-106051071D02*
X99764285Y-107551071D01*
X99764285Y-106122500D02*
X99621428Y-106051071D01*
X99335714Y-106051071D01*
X99192857Y-106122500D01*
X99121428Y-106193928D01*
X99050000Y-106336785D01*
X99050000Y-106765357D01*
X99121428Y-106908214D01*
X99192857Y-106979642D01*
X99335714Y-107051071D01*
X99621428Y-107051071D01*
X99764285Y-106979642D01*
G04 #@! TO.C,J7*
X83898477Y-126477072D02*
X84403553Y-126982148D01*
X84538240Y-127049492D01*
X84672927Y-127049492D01*
X84807614Y-126982148D01*
X84874957Y-126914805D01*
X83629103Y-126746446D02*
X83157698Y-127217851D01*
X84167851Y-127621912D01*
G04 #@! TO.C,J5*
X82498477Y-77477072D02*
X83003553Y-77982148D01*
X83138240Y-78049492D01*
X83272927Y-78049492D01*
X83407614Y-77982148D01*
X83474957Y-77914805D01*
X81825042Y-78150507D02*
X82161759Y-77813790D01*
X82532148Y-78116835D01*
X82464805Y-78116835D01*
X82363790Y-78150507D01*
X82195431Y-78318866D01*
X82161759Y-78419881D01*
X82161759Y-78487225D01*
X82195431Y-78588240D01*
X82363790Y-78756599D01*
X82464805Y-78790270D01*
X82532148Y-78790270D01*
X82633164Y-78756599D01*
X82801522Y-78588240D01*
X82835194Y-78487225D01*
X82835194Y-78419881D01*
G04 #@! TO.C,J6*
X133889791Y-82418386D02*
X134394867Y-82923462D01*
X134529554Y-82990806D01*
X134664241Y-82990806D01*
X134798928Y-82923462D01*
X134866271Y-82856119D01*
X133250027Y-83058149D02*
X133384714Y-82923462D01*
X133485730Y-82889791D01*
X133553073Y-82889791D01*
X133721432Y-82923462D01*
X133889791Y-83024478D01*
X134159165Y-83293852D01*
X134192836Y-83394867D01*
X134192836Y-83462210D01*
X134159165Y-83563226D01*
X134024478Y-83697913D01*
X133923462Y-83731584D01*
X133856119Y-83731584D01*
X133755104Y-83697913D01*
X133586745Y-83529554D01*
X133553073Y-83428539D01*
X133553073Y-83361195D01*
X133586745Y-83260180D01*
X133721432Y-83125493D01*
X133822447Y-83091821D01*
X133889791Y-83091821D01*
X133990806Y-83125493D01*
D11*
G04 #@! TO.C,BZ1*
X195100000Y-62000000D02*
X196600000Y-62000000D01*
X195850000Y-62750000D02*
X195850000Y-61250000D01*
G04 #@! TO.C,J7*
X80161522Y-125042426D02*
X74730942Y-119611846D01*
X81059548Y-125940452D02*
X82000000Y-126880904D01*
X80161522Y-125042426D02*
X82042426Y-123161522D01*
X82042426Y-123161522D02*
X76611846Y-117730942D01*
X74730942Y-119611846D02*
X76611846Y-117730942D01*
X82000000Y-126880904D02*
X82940452Y-125940452D01*
G04 #@! TO.C,J5*
X83940452Y-74940452D02*
X84880904Y-74000000D01*
X83042426Y-75838478D02*
X81161522Y-73957574D01*
X84880904Y-74000000D02*
X83940452Y-73059548D01*
X83042426Y-75838478D02*
X77611846Y-81269058D01*
X81161522Y-73957574D02*
X75730942Y-79388154D01*
X77611846Y-81269058D02*
X75730942Y-79388154D01*
G04 #@! TO.C,J6*
X134119096Y-85000000D02*
X135059548Y-85940452D01*
X135059548Y-84059548D02*
X134119096Y-85000000D01*
X135957574Y-86838478D02*
X144980256Y-95861160D01*
X137838478Y-84957574D02*
X146861160Y-93980256D01*
X146861160Y-93980256D02*
X144980256Y-95861160D01*
X137838478Y-84957574D02*
X135957574Y-86838478D01*
G04 #@! TD*
M02*
