M48
; DRILL file {KiCad 6.0.11-2627ca5db0~126~ubuntu20.04.1} date Mon Feb  6 20:23:24 2023
; FORMAT={-:-/ absolute / metric / decimal}
; #@! TF.CreationDate,2023-02-06T20:23:24+01:00
; #@! TF.GenerationSoftware,Kicad,Pcbnew,6.0.11-2627ca5db0~126~ubuntu20.04.1
; #@! TF.FileFunction,MixedPlating,1,2
FMAT,2
METRIC
; #@! TA.AperFunction,Plated,PTH,ViaDrill
T1C0.400
; #@! TA.AperFunction,Plated,PTH,ComponentDrill
T2C0.600
; #@! TA.AperFunction,Plated,PTH,ComponentDrill
T3C0.762
; #@! TA.AperFunction,Plated,PTH,ComponentDrill
T4C0.900
; #@! TA.AperFunction,Plated,PTH,ComponentDrill
T5C1.000
; #@! TA.AperFunction,Plated,PTH,ComponentDrill
T6C1.020
; #@! TA.AperFunction,NonPlated,NPTH,ComponentDrill
T7C0.650
%
G90
G05
T1
X-171.6Y95.55
X-164.25Y132.1
X-161.709Y116.399
X-160.559Y116.049
X-159.65Y60.2
X-158.809Y116.049
X-156.45Y85.95
X-156.259Y127.199
X-155.259Y121.199
X-154.859Y123.749
X-154.859Y113.599
X-154.409Y116.099
X-154.209Y114.599
X-153.859Y117.049
X-152.55Y87.05
X-151.9Y60.75
X-151.721Y65.629
X-150.979Y66.371
X-150.9Y124.2
X-149.9Y122.15
X-149.4Y62.8
X-148.6Y63.45
X-148.45Y57.15
X-147.65Y72.0
X-147.55Y127.45
X-146.85Y55.8
X-145.55Y118.25
X-145.3Y129.0
X-143.65Y125.35
X-143.25Y119.15
X-141.85Y112.85
X-141.75Y118.5
X-139.7Y159.9
X-135.85Y118.85
X-135.838Y85.75
X-131.65Y35.8
X-131.15Y132.3
X-127.1Y147.95
X-126.1Y144.85
X-125.05Y150.05
X-123.15Y137.35
X-120.36Y142.54
X-119.65Y130.55
X-119.2Y125.8
X-118.55Y133.95
X-117.91Y142.64
X-116.95Y134.0
X-116.66Y142.04
X-114.95Y128.7
X-111.5Y149.95
X-104.5Y171.7
X-96.1Y25.85
X-94.1Y28.55
X-86.1Y132.3
X-68.15Y164.35
X-60.3Y40.4
X-40.5Y140.2
X-35.8Y68.25
X-28.45Y104.5
T4
X-77.505Y131.492
X-75.709Y129.696
X-73.913Y127.9
X-72.117Y126.104
X-70.321Y124.308
X-68.525Y122.512
X-66.729Y120.716
X-48.486Y147.02
X-46.69Y145.224
X-44.894Y143.428
T5
X-148.755Y75.325
X-146.215Y75.325
X-143.675Y75.325
X-83.224Y144.25
X-83.224Y141.71
T6
X-106.6Y162.705
X-106.6Y155.085
T7
X-154.566Y58.985
X-150.851Y54.557
T2
X-158.511Y57.542G85X-158.051Y57.927
G05
X-155.5Y60.068G85X-154.658Y60.775
G05
X-152.957Y50.923G85X-152.498Y51.309
G05
X-149.947Y53.449G85X-149.104Y54.156
G05
T3
X-137.25Y61.631G85X-137.25Y62.469
G05
X-63.55Y61.631G85X-63.55Y62.469
G05
T0
M30
