M48
; DRILL file {KiCad 6.0.11-2627ca5db0~126~ubuntu20.04.1} date Thu Apr 27 18:05:00 2023
; FORMAT={-:-/ absolute / metric / decimal}
; #@! TF.CreationDate,2023-04-27T18:05:00+02:00
; #@! TF.GenerationSoftware,Kicad,Pcbnew,6.0.11-2627ca5db0~126~ubuntu20.04.1
; #@! TF.FileFunction,MixedPlating,1,2
FMAT,2
METRIC
; #@! TA.AperFunction,Plated,PTH,ViaDrill
T1C0.300
; #@! TA.AperFunction,Plated,PTH,ViaDrill
T2C0.500
; #@! TA.AperFunction,Plated,PTH,ComponentDrill
T3C0.600
; #@! TA.AperFunction,Plated,PTH,ComponentDrill
T4C0.700
; #@! TA.AperFunction,Plated,PTH,ComponentDrill
T5C0.762
; #@! TA.AperFunction,Plated,PTH,ComponentDrill
T6C0.900
; #@! TA.AperFunction,Plated,PTH,ViaDrill
T7C1.000
; #@! TA.AperFunction,Plated,PTH,ComponentDrill
T8C1.000
; #@! TA.AperFunction,Plated,PTH,ComponentDrill
T9C1.020
; #@! TA.AperFunction,Plated,PTH,ViaDrill
T10C1.500
; #@! TA.AperFunction,NonPlated,NPTH,ComponentDrill
T11C0.650
%
G90
G05
T1
X96.1Y-56.5
X110.75Y-56.25
X181.8Y-86.2
X184.15Y-95.1
X184.95Y-82.9
X184.95Y-95.1
X185.35Y-104.75
X187.75Y-98.3
X189.8Y-97.5
X189.9Y-107.65
X192.0Y-97.4
X193.3Y-117.7
X193.6Y-74.3
X193.9Y-95.1
X194.05Y-104.7
X194.2Y-108.25
X194.9Y-109.15
X195.0Y-114.45
X195.45Y-96.75
X195.65Y-108.85
X195.951Y-135.459
X196.1Y-95.1
X196.65Y-91.95
X197.008Y-136.199
X197.2Y-90.3
X197.2Y-107.45
X197.8Y-93.6
X198.2Y-94.4
X198.2Y-95.9
X198.2Y-97.4
X198.35Y-104.025
X198.35Y-114.35
X199.779Y-129.765
X200.832Y-130.441
X201.6Y-105.3
X201.6Y-114.4
X202.2Y-82.1
X204.9Y-97.4
X205.9Y-93.5
X206.252Y-96.02
X213.55Y-113.65
X216.4Y-88.75
X216.4Y-97.4
X217.7Y-96.75
X221.45Y-92.1
X228.05Y-87.7
X255.85Y-81.9
T2
X52.35Y-104.27
X56.55Y-79.95
X60.95Y-127.6
X72.4Y-60.9
X80.05Y-143.45
X95.25Y-53.5
X95.61Y-52.35
X104.51Y-147.56
X104.55Y-53.5
X119.85Y-56.45
X127.55Y-139.0
X129.0Y-82.1
X138.95Y-72.25
X143.4Y-119.95
X147.56Y-95.44
X176.812Y-92.547
X186.7Y-92.5
X186.7Y-109.6
X188.05Y-103.1
X188.45Y-81.4
X188.7Y-89.5
X190.55Y-69.05
X191.32Y-121.67
X192.3Y-101.45
X192.803Y-129.497
X193.35Y-85.6
X193.35Y-89.15
X194.35Y-93.55
X194.7Y-80.9
X194.75Y-99.9
X199.8Y-110.15
X202.855Y-133.567
X202.9Y-102.75
X207.6Y-110.3
X213.9Y-92.65
X219.8Y-138.8
X222.5Y-91.95
X222.675Y-132.373
X228.3Y-132.4
X241.562Y-143.325
X264.68Y-101.81
T4
X184.517Y-111.942
X184.517Y-113.212
T6
X200.383Y-144.06
X204.417Y-145.94
X206.694Y-135.792
X208.304Y-132.339
X209.914Y-128.886
X211.28Y-86.0
X211.9Y-54.5
X213.82Y-86.0
X214.44Y-54.5
X216.36Y-86.0
X216.98Y-54.5
X218.9Y-86.0
X221.44Y-86.0
X223.98Y-86.0
X226.52Y-86.0
T7
X57.7Y-95.5
X59.575Y-117.575
X66.7Y-75.45
X75.45Y-133.45
X82.075Y-60.075
X87.25Y-57.6
X95.4Y-144.35
X104.5Y-57.6
X118.175Y-140.925
X123.675Y-66.325
X134.4Y-124.7
X139.325Y-81.975
X143.75Y-104.5
X176.301Y-109.851
X229.3Y-129.2
T8
X76.612Y-119.612
X77.612Y-79.388
X78.408Y-121.408
X79.408Y-77.592
X80.204Y-123.204
X81.204Y-75.796
X82.0Y-125.0
X83.0Y-74.0
X136.0Y-85.0
X137.796Y-86.796
X139.592Y-88.592
X141.388Y-90.388
X143.184Y-92.184
X144.98Y-93.98
X176.4Y-83.66
X176.4Y-86.2
X176.4Y-88.74
X183.895Y-127.875
X184.5Y-121.175
X184.5Y-123.715
X186.435Y-127.875
X188.975Y-127.875
X196.612Y-119.612
X197.612Y-79.388
X198.408Y-121.408
X199.408Y-77.592
X200.204Y-123.204
X201.204Y-75.796
X202.0Y-125.0
X203.0Y-74.0
X256.0Y-85.0
X257.796Y-86.796
X258.093Y-71.938
X258.093Y-74.477
X258.093Y-77.017
X259.592Y-88.592
X261.388Y-90.388
X263.184Y-92.184
X264.98Y-93.98
T9
X198.29Y-64.5
X205.91Y-64.5
T10
X206.1Y-127.8
X212.6Y-125.9
X250.375Y-90.625
T11
X193.774Y-133.965
X198.509Y-137.28
T3
X190.681Y-135.889G85X190.337Y-136.381
G05
X193.222Y-132.26G85X192.591Y-133.161
G05
X197.759Y-140.845G85X197.415Y-141.336
G05
X200.3Y-137.216G85X199.669Y-138.117
G05
T5
X241.189Y-63.38G85X240.351Y-63.38
G05
X241.189Y-135.88G85X240.351Y-135.88
G05
T0
M30
