M48
; DRILL file {KiCad 6.0.11-2627ca5db0~126~ubuntu20.04.1} date Mon Feb  6 16:11:19 2023
; FORMAT={-:-/ absolute / metric / decimal}
; #@! TF.CreationDate,2023-02-06T16:11:19+01:00
; #@! TF.GenerationSoftware,Kicad,Pcbnew,6.0.11-2627ca5db0~126~ubuntu20.04.1
; #@! TF.FileFunction,MixedPlating,1,2
FMAT,2
METRIC
; #@! TA.AperFunction,Plated,PTH,ViaDrill
T1C0.400
; #@! TA.AperFunction,Plated,PTH,ComponentDrill
T2C0.600
; #@! TA.AperFunction,Plated,PTH,ComponentDrill
T3C0.762
; #@! TA.AperFunction,Plated,PTH,ComponentDrill
T4C0.900
; #@! TA.AperFunction,Plated,PTH,ComponentDrill
T5C1.000
; #@! TA.AperFunction,Plated,PTH,ComponentDrill
T6C1.020
; #@! TA.AperFunction,NonPlated,NPTH,ComponentDrill
T7C0.650
%
G90
G05
T1
X-186.4Y120.75
X-185.25Y120.4
X-183.5Y120.4
X-183.2Y99.75
X-183.1Y139.35
X-182.9Y115.85
X-180.95Y131.55
X-179.95Y125.55
X-179.55Y128.1
X-179.55Y117.95
X-179.1Y120.45
X-178.9Y118.95
X-178.55Y121.4
X-177.312Y136.737
X-176.05Y132.45
X-175.025Y49.125
X-174.7Y130.65
X-171.875Y53.8
X-170.9Y134.95
X-170.9Y42.75
X-170.825Y53.8
X-170.68Y131.23
X-168.85Y44.6
X-168.0Y45.35
X-167.45Y39.15
X-166.85Y139.8
X-165.85Y37.8
X-165.65Y119.1
X-163.05Y118.2
X-161.75Y126.25
X-161.2Y115.25
X-158.9Y118.75
X-151.375Y181.675
X-147.55Y134.8
X-143.9Y132.85
X-143.85Y141.55
X-140.7Y44.7
X-139.4Y41.725
X-139.4Y34.925
X-134.05Y132.1
X-132.85Y147.95
X-132.65Y122.6
X-132.325Y23.925
X-126.45Y45.05
X-124.95Y149.05
X-124.75Y136.9
X-123.1Y139.35
X-122.5Y149.15
X-121.25Y148.55
X-119.9Y140.6
X-116.75Y129.85
X-96.2Y-0.9
X-88.575Y2.4
X-65.6Y155.2
X-63.65Y13.2
X-59.45Y173.55
T4
X-167.249Y168.464
X-165.453Y170.26
X-163.657Y172.056
X-151.721Y139.445
X-149.925Y141.241
X-148.129Y143.037
X-146.333Y144.833
X-144.537Y146.629
X-142.741Y148.425
X-140.945Y150.221
T5
X-140.575Y59.58
X-140.575Y57.04
X-140.575Y54.5
X-62.851Y152.69
X-62.851Y150.15
T6
X-126.91Y186.875
X-119.29Y186.875
T7
X-173.566Y40.985
X-169.851Y36.557
T2
X-177.511Y39.542G85X-177.051Y39.927
G05
X-174.5Y42.068G85X-173.658Y42.775
G05
X-171.957Y32.923G85X-171.498Y33.309
G05
X-168.947Y35.449G85X-168.104Y36.156
G05
T3
X-137.35Y22.081G85X-137.35Y22.919
G05
X-63.65Y22.081G85X-63.65Y22.919
G05
T0
M30
