G04 #@! TF.GenerationSoftware,KiCad,Pcbnew,6.0.11-2627ca5db0~126~ubuntu20.04.1*
G04 #@! TF.CreationDate,2023-04-27T18:05:00+02:00*
G04 #@! TF.ProjectId,Semafor,53656d61-666f-4722-9e6b-696361645f70,rev?*
G04 #@! TF.SameCoordinates,Original*
G04 #@! TF.FileFunction,Legend,Top*
G04 #@! TF.FilePolarity,Positive*
%FSLAX46Y46*%
G04 Gerber Fmt 4.6, Leading zero omitted, Abs format (unit mm)*
G04 Created by KiCad (PCBNEW 6.0.11-2627ca5db0~126~ubuntu20.04.1) date 2023-04-27 18:05:00*
%MOMM*%
%LPD*%
G01*
G04 APERTURE LIST*
%ADD10C,0.150000*%
%ADD11C,0.120000*%
%ADD12C,0.600000*%
%ADD13C,0.050000*%
G04 APERTURE END LIST*
D10*
X111171428Y-120591071D02*
X111171428Y-121805357D01*
X111242857Y-121948214D01*
X111314285Y-122019642D01*
X111457142Y-122091071D01*
X111742857Y-122091071D01*
X111885714Y-122019642D01*
X111957142Y-121948214D01*
X112028571Y-121805357D01*
X112028571Y-120591071D01*
X112742857Y-121091071D02*
X112742857Y-122091071D01*
X112742857Y-121233928D02*
X112814285Y-121162500D01*
X112957142Y-121091071D01*
X113171428Y-121091071D01*
X113314285Y-121162500D01*
X113385714Y-121305357D01*
X113385714Y-122091071D01*
X114100000Y-122091071D02*
X114100000Y-121091071D01*
X114100000Y-120591071D02*
X114028571Y-120662500D01*
X114100000Y-120733928D01*
X114171428Y-120662500D01*
X114100000Y-120591071D01*
X114100000Y-120733928D01*
X114671428Y-121091071D02*
X115028571Y-122091071D01*
X115385714Y-121091071D01*
X116528571Y-122019642D02*
X116385714Y-122091071D01*
X116100000Y-122091071D01*
X115957142Y-122019642D01*
X115885714Y-121876785D01*
X115885714Y-121305357D01*
X115957142Y-121162500D01*
X116100000Y-121091071D01*
X116385714Y-121091071D01*
X116528571Y-121162500D01*
X116600000Y-121305357D01*
X116600000Y-121448214D01*
X115885714Y-121591071D01*
X117242857Y-122091071D02*
X117242857Y-121091071D01*
X117242857Y-121376785D02*
X117314285Y-121233928D01*
X117385714Y-121162500D01*
X117528571Y-121091071D01*
X117671428Y-121091071D01*
X118028571Y-121091071D02*
X118814285Y-121091071D01*
X118028571Y-122091071D01*
X118814285Y-122091071D01*
X120028571Y-122091071D02*
X120028571Y-121305357D01*
X119957142Y-121162500D01*
X119814285Y-121091071D01*
X119528571Y-121091071D01*
X119385714Y-121162500D01*
X120028571Y-122019642D02*
X119885714Y-122091071D01*
X119528571Y-122091071D01*
X119385714Y-122019642D01*
X119314285Y-121876785D01*
X119314285Y-121733928D01*
X119385714Y-121591071D01*
X119528571Y-121519642D01*
X119885714Y-121519642D01*
X120028571Y-121448214D01*
X119814285Y-120519642D02*
X119600000Y-120733928D01*
X120957142Y-122091071D02*
X120814285Y-122019642D01*
X120742857Y-121876785D01*
X120742857Y-120591071D01*
X121528571Y-121091071D02*
X121528571Y-122091071D01*
X121528571Y-121233928D02*
X121600000Y-121162500D01*
X121742857Y-121091071D01*
X121957142Y-121091071D01*
X122100000Y-121162500D01*
X122171428Y-121305357D01*
X122171428Y-122091071D01*
X122885714Y-122091071D02*
X122885714Y-121091071D01*
X123028571Y-120519642D02*
X122814285Y-120733928D01*
X124742857Y-122091071D02*
X124742857Y-121091071D01*
X124742857Y-121233928D02*
X124814285Y-121162500D01*
X124957142Y-121091071D01*
X125171428Y-121091071D01*
X125314285Y-121162500D01*
X125385714Y-121305357D01*
X125385714Y-122091071D01*
X125385714Y-121305357D02*
X125457142Y-121162500D01*
X125600000Y-121091071D01*
X125814285Y-121091071D01*
X125957142Y-121162500D01*
X126028571Y-121305357D01*
X126028571Y-122091071D01*
X126957142Y-122091071D02*
X126814285Y-122019642D01*
X126742857Y-121948214D01*
X126671428Y-121805357D01*
X126671428Y-121376785D01*
X126742857Y-121233928D01*
X126814285Y-121162500D01*
X126957142Y-121091071D01*
X127171428Y-121091071D01*
X127314285Y-121162500D01*
X127385714Y-121233928D01*
X127457142Y-121376785D01*
X127457142Y-121805357D01*
X127385714Y-121948214D01*
X127314285Y-122019642D01*
X127171428Y-122091071D01*
X126957142Y-122091071D01*
X128742857Y-122091071D02*
X128742857Y-120591071D01*
X128742857Y-122019642D02*
X128600000Y-122091071D01*
X128314285Y-122091071D01*
X128171428Y-122019642D01*
X128100000Y-121948214D01*
X128028571Y-121805357D01*
X128028571Y-121376785D01*
X128100000Y-121233928D01*
X128171428Y-121162500D01*
X128314285Y-121091071D01*
X128600000Y-121091071D01*
X128742857Y-121162500D01*
X130100000Y-121091071D02*
X130100000Y-122091071D01*
X129457142Y-121091071D02*
X129457142Y-121876785D01*
X129528571Y-122019642D01*
X129671428Y-122091071D01*
X129885714Y-122091071D01*
X130028571Y-122019642D01*
X130100000Y-121948214D01*
X131028571Y-122091071D02*
X130885714Y-122019642D01*
X130814285Y-121876785D01*
X130814285Y-120591071D01*
X108742857Y-123506071D02*
X108742857Y-125006071D01*
X108742857Y-123577500D02*
X108885714Y-123506071D01*
X109171428Y-123506071D01*
X109314285Y-123577500D01*
X109385714Y-123648928D01*
X109457142Y-123791785D01*
X109457142Y-124220357D01*
X109385714Y-124363214D01*
X109314285Y-124434642D01*
X109171428Y-124506071D01*
X108885714Y-124506071D01*
X108742857Y-124434642D01*
X110100000Y-124506071D02*
X110100000Y-123506071D01*
X110100000Y-123791785D02*
X110171428Y-123648928D01*
X110242857Y-123577500D01*
X110385714Y-123506071D01*
X110528571Y-123506071D01*
X111242857Y-124506071D02*
X111100000Y-124434642D01*
X111028571Y-124363214D01*
X110957142Y-124220357D01*
X110957142Y-123791785D01*
X111028571Y-123648928D01*
X111100000Y-123577500D01*
X111242857Y-123506071D01*
X111457142Y-123506071D01*
X111600000Y-123577500D01*
X111671428Y-123648928D01*
X111742857Y-123791785D01*
X111742857Y-124220357D01*
X111671428Y-124363214D01*
X111600000Y-124434642D01*
X111457142Y-124506071D01*
X111242857Y-124506071D01*
X113528571Y-123506071D02*
X113528571Y-125006071D01*
X113528571Y-123577500D02*
X113671428Y-123506071D01*
X113957142Y-123506071D01*
X114100000Y-123577500D01*
X114171428Y-123648928D01*
X114242857Y-123791785D01*
X114242857Y-124220357D01*
X114171428Y-124363214D01*
X114100000Y-124434642D01*
X113957142Y-124506071D01*
X113671428Y-124506071D01*
X113528571Y-124434642D01*
X115100000Y-124506071D02*
X114957142Y-124434642D01*
X114885714Y-124363214D01*
X114814285Y-124220357D01*
X114814285Y-123791785D01*
X114885714Y-123648928D01*
X114957142Y-123577500D01*
X115100000Y-123506071D01*
X115314285Y-123506071D01*
X115457142Y-123577500D01*
X115528571Y-123648928D01*
X115600000Y-123791785D01*
X115600000Y-124220357D01*
X115528571Y-124363214D01*
X115457142Y-124434642D01*
X115314285Y-124506071D01*
X115100000Y-124506071D01*
X116885714Y-124506071D02*
X116885714Y-123006071D01*
X116885714Y-124434642D02*
X116742857Y-124506071D01*
X116457142Y-124506071D01*
X116314285Y-124434642D01*
X116242857Y-124363214D01*
X116171428Y-124220357D01*
X116171428Y-123791785D01*
X116242857Y-123648928D01*
X116314285Y-123577500D01*
X116457142Y-123506071D01*
X116742857Y-123506071D01*
X116885714Y-123577500D01*
X117600000Y-123506071D02*
X117600000Y-125006071D01*
X117600000Y-123577500D02*
X117742857Y-123506071D01*
X118028571Y-123506071D01*
X118171428Y-123577500D01*
X118242857Y-123648928D01*
X118314285Y-123791785D01*
X118314285Y-124220357D01*
X118242857Y-124363214D01*
X118171428Y-124434642D01*
X118028571Y-124506071D01*
X117742857Y-124506071D01*
X117600000Y-124434642D01*
X119171428Y-124506071D02*
X119028571Y-124434642D01*
X118957142Y-124363214D01*
X118885714Y-124220357D01*
X118885714Y-123791785D01*
X118957142Y-123648928D01*
X119028571Y-123577500D01*
X119171428Y-123506071D01*
X119385714Y-123506071D01*
X119528571Y-123577500D01*
X119600000Y-123648928D01*
X119671428Y-123791785D01*
X119671428Y-124220357D01*
X119600000Y-124363214D01*
X119528571Y-124434642D01*
X119385714Y-124506071D01*
X119171428Y-124506071D01*
X120314285Y-124506071D02*
X120314285Y-123506071D01*
X120314285Y-123791785D02*
X120385714Y-123648928D01*
X120457142Y-123577500D01*
X120600000Y-123506071D01*
X120742857Y-123506071D01*
X121885714Y-123506071D02*
X121885714Y-124506071D01*
X121242857Y-123506071D02*
X121242857Y-124291785D01*
X121314285Y-124434642D01*
X121457142Y-124506071D01*
X121671428Y-124506071D01*
X121814285Y-124434642D01*
X121885714Y-124363214D01*
X123528571Y-123506071D02*
X124100000Y-123506071D01*
X123742857Y-123006071D02*
X123742857Y-124291785D01*
X123814285Y-124434642D01*
X123957142Y-124506071D01*
X124100000Y-124506071D01*
X124457142Y-123506071D02*
X124814285Y-124506071D01*
X125171428Y-123506071D02*
X124814285Y-124506071D01*
X124671428Y-124863214D01*
X124600000Y-124934642D01*
X124457142Y-125006071D01*
X124957142Y-122934642D02*
X124742857Y-123148928D01*
X125742857Y-124506071D02*
X125742857Y-123506071D01*
X125742857Y-123648928D02*
X125814285Y-123577500D01*
X125957142Y-123506071D01*
X126171428Y-123506071D01*
X126314285Y-123577500D01*
X126385714Y-123720357D01*
X126385714Y-124506071D01*
X126385714Y-123720357D02*
X126457142Y-123577500D01*
X126600000Y-123506071D01*
X126814285Y-123506071D01*
X126957142Y-123577500D01*
X127028571Y-123720357D01*
X127028571Y-124506071D01*
X127957142Y-124506071D02*
X127814285Y-124434642D01*
X127742857Y-124363214D01*
X127671428Y-124220357D01*
X127671428Y-123791785D01*
X127742857Y-123648928D01*
X127814285Y-123577500D01*
X127957142Y-123506071D01*
X128171428Y-123506071D01*
X128314285Y-123577500D01*
X128385714Y-123648928D01*
X128457142Y-123791785D01*
X128457142Y-124220357D01*
X128385714Y-124363214D01*
X128314285Y-124434642D01*
X128171428Y-124506071D01*
X127957142Y-124506071D01*
X128957142Y-123506071D02*
X129314285Y-124506071D01*
X129671428Y-123506071D01*
X130100000Y-123506071D02*
X130457142Y-124506071D01*
X130814285Y-123506071D02*
X130457142Y-124506071D01*
X130314285Y-124863214D01*
X130242857Y-124934642D01*
X130100000Y-125006071D01*
X130600000Y-122934642D02*
X130385714Y-123148928D01*
X132028571Y-124434642D02*
X131885714Y-124506071D01*
X131600000Y-124506071D01*
X131457142Y-124434642D01*
X131385714Y-124363214D01*
X131314285Y-124220357D01*
X131314285Y-123791785D01*
X131385714Y-123648928D01*
X131457142Y-123577500D01*
X131600000Y-123506071D01*
X131885714Y-123506071D01*
X132028571Y-123577500D01*
X132671428Y-124506071D02*
X132671428Y-123006071D01*
X133314285Y-124506071D02*
X133314285Y-123720357D01*
X133242857Y-123577500D01*
X133100000Y-123506071D01*
X132885714Y-123506071D01*
X132742857Y-123577500D01*
X132671428Y-123648928D01*
X117814285Y-126921071D02*
X117814285Y-125421071D01*
X118457142Y-126921071D02*
X118457142Y-126135357D01*
X118385714Y-125992500D01*
X118242857Y-125921071D01*
X118028571Y-125921071D01*
X117885714Y-125992500D01*
X117814285Y-126063928D01*
X119742857Y-126849642D02*
X119600000Y-126921071D01*
X119314285Y-126921071D01*
X119171428Y-126849642D01*
X119100000Y-126706785D01*
X119100000Y-126135357D01*
X119171428Y-125992500D01*
X119314285Y-125921071D01*
X119600000Y-125921071D01*
X119742857Y-125992500D01*
X119814285Y-126135357D01*
X119814285Y-126278214D01*
X119100000Y-126421071D01*
X120457142Y-126921071D02*
X120457142Y-125921071D01*
X120457142Y-126206785D02*
X120528571Y-126063928D01*
X120600000Y-125992500D01*
X120742857Y-125921071D01*
X120885714Y-125921071D01*
X123314285Y-126921071D02*
X122457142Y-126921071D01*
X122885714Y-126921071D02*
X122885714Y-125421071D01*
X122742857Y-125635357D01*
X122600000Y-125778214D01*
X122457142Y-125849642D01*
X123957142Y-126778214D02*
X124028571Y-126849642D01*
X123957142Y-126921071D01*
X123885714Y-126849642D01*
X123957142Y-126778214D01*
X123957142Y-126921071D01*
X124957142Y-125421071D02*
X125100000Y-125421071D01*
X125242857Y-125492500D01*
X125314285Y-125563928D01*
X125385714Y-125706785D01*
X125457142Y-125992500D01*
X125457142Y-126349642D01*
X125385714Y-126635357D01*
X125314285Y-126778214D01*
X125242857Y-126849642D01*
X125100000Y-126921071D01*
X124957142Y-126921071D01*
X124814285Y-126849642D01*
X124742857Y-126778214D01*
X124671428Y-126635357D01*
X124600000Y-126349642D01*
X124600000Y-125992500D01*
X124671428Y-125706785D01*
X124742857Y-125563928D01*
X124814285Y-125492500D01*
X124957142Y-125421071D01*
X110064285Y-129336071D02*
X110064285Y-127836071D01*
X110064285Y-128407500D02*
X110207142Y-128336071D01*
X110492857Y-128336071D01*
X110635714Y-128407500D01*
X110707142Y-128478928D01*
X110778571Y-128621785D01*
X110778571Y-129050357D01*
X110707142Y-129193214D01*
X110635714Y-129264642D01*
X110492857Y-129336071D01*
X110207142Y-129336071D01*
X110064285Y-129264642D01*
X111278571Y-128336071D02*
X111635714Y-129336071D01*
X111992857Y-128336071D02*
X111635714Y-129336071D01*
X111492857Y-129693214D01*
X111421428Y-129764642D01*
X111278571Y-129836071D01*
X114564285Y-129336071D02*
X114064285Y-128621785D01*
X113707142Y-129336071D02*
X113707142Y-127836071D01*
X114278571Y-127836071D01*
X114421428Y-127907500D01*
X114492857Y-127978928D01*
X114564285Y-128121785D01*
X114564285Y-128336071D01*
X114492857Y-128478928D01*
X114421428Y-128550357D01*
X114278571Y-128621785D01*
X113707142Y-128621785D01*
X115778571Y-129264642D02*
X115635714Y-129336071D01*
X115350000Y-129336071D01*
X115207142Y-129264642D01*
X115135714Y-129121785D01*
X115135714Y-128550357D01*
X115207142Y-128407500D01*
X115350000Y-128336071D01*
X115635714Y-128336071D01*
X115778571Y-128407500D01*
X115850000Y-128550357D01*
X115850000Y-128693214D01*
X115135714Y-128836071D01*
X116492857Y-128336071D02*
X116492857Y-129336071D01*
X116492857Y-128478928D02*
X116564285Y-128407500D01*
X116707142Y-128336071D01*
X116921428Y-128336071D01*
X117064285Y-128407500D01*
X117135714Y-128550357D01*
X117135714Y-129336071D01*
X118492857Y-129336071D02*
X118492857Y-128550357D01*
X118421428Y-128407500D01*
X118278571Y-128336071D01*
X117992857Y-128336071D01*
X117850000Y-128407500D01*
X118492857Y-129264642D02*
X118350000Y-129336071D01*
X117992857Y-129336071D01*
X117850000Y-129264642D01*
X117778571Y-129121785D01*
X117778571Y-128978928D01*
X117850000Y-128836071D01*
X117992857Y-128764642D01*
X118350000Y-128764642D01*
X118492857Y-128693214D01*
X118992857Y-128336071D02*
X119564285Y-128336071D01*
X119207142Y-127836071D02*
X119207142Y-129121785D01*
X119278571Y-129264642D01*
X119421428Y-129336071D01*
X119564285Y-129336071D01*
X120707142Y-129336071D02*
X120707142Y-128550357D01*
X120635714Y-128407500D01*
X120492857Y-128336071D01*
X120207142Y-128336071D01*
X120064285Y-128407500D01*
X120707142Y-129264642D02*
X120564285Y-129336071D01*
X120207142Y-129336071D01*
X120064285Y-129264642D01*
X119992857Y-129121785D01*
X119992857Y-128978928D01*
X120064285Y-128836071D01*
X120207142Y-128764642D01*
X120564285Y-128764642D01*
X120707142Y-128693214D01*
X122421428Y-127836071D02*
X123421428Y-127836071D01*
X122421428Y-129336071D01*
X123421428Y-129336071D01*
X124564285Y-129264642D02*
X124421428Y-129336071D01*
X124135714Y-129336071D01*
X123992857Y-129264642D01*
X123921428Y-129121785D01*
X123921428Y-128550357D01*
X123992857Y-128407500D01*
X124135714Y-128336071D01*
X124421428Y-128336071D01*
X124564285Y-128407500D01*
X124635714Y-128550357D01*
X124635714Y-128693214D01*
X123921428Y-128836071D01*
X125278571Y-129336071D02*
X125278571Y-128336071D01*
X125278571Y-128478928D02*
X125349999Y-128407500D01*
X125492857Y-128336071D01*
X125707142Y-128336071D01*
X125849999Y-128407500D01*
X125921428Y-128550357D01*
X125921428Y-129336071D01*
X125921428Y-128550357D02*
X125992857Y-128407500D01*
X126135714Y-128336071D01*
X126349999Y-128336071D01*
X126492857Y-128407500D01*
X126564285Y-128550357D01*
X126564285Y-129336071D01*
X127921428Y-129336071D02*
X127921428Y-128550357D01*
X127849999Y-128407500D01*
X127707142Y-128336071D01*
X127421428Y-128336071D01*
X127278571Y-128407500D01*
X127921428Y-129264642D02*
X127778571Y-129336071D01*
X127421428Y-129336071D01*
X127278571Y-129264642D01*
X127207142Y-129121785D01*
X127207142Y-128978928D01*
X127278571Y-128836071D01*
X127421428Y-128764642D01*
X127778571Y-128764642D01*
X127921428Y-128693214D01*
X128635714Y-128336071D02*
X128635714Y-129336071D01*
X128635714Y-128478928D02*
X128707142Y-128407500D01*
X128849999Y-128336071D01*
X129064285Y-128336071D01*
X129207142Y-128407500D01*
X129278571Y-128550357D01*
X129278571Y-129336071D01*
X130207142Y-129336071D02*
X130064285Y-129264642D01*
X129992857Y-129193214D01*
X129921428Y-129050357D01*
X129921428Y-128621785D01*
X129992857Y-128478928D01*
X130064285Y-128407500D01*
X130207142Y-128336071D01*
X130421428Y-128336071D01*
X130564285Y-128407500D01*
X130635714Y-128478928D01*
X130707142Y-128621785D01*
X130707142Y-129050357D01*
X130635714Y-129193214D01*
X130564285Y-129264642D01*
X130421428Y-129336071D01*
X130207142Y-129336071D01*
X131207142Y-128336071D02*
X131564285Y-129336071D01*
X131921428Y-128336071D01*
X133135714Y-129336071D02*
X133135714Y-128550357D01*
X133064285Y-128407500D01*
X132921428Y-128336071D01*
X132635714Y-128336071D01*
X132492857Y-128407500D01*
X133135714Y-129264642D02*
X132992857Y-129336071D01*
X132635714Y-129336071D01*
X132492857Y-129264642D01*
X132421428Y-129121785D01*
X132421428Y-128978928D01*
X132492857Y-128836071D01*
X132635714Y-128764642D01*
X132992857Y-128764642D01*
X133135714Y-128693214D01*
X132921428Y-127764642D02*
X132707142Y-127978928D01*
X119957142Y-130751071D02*
X120528571Y-130751071D01*
X120171428Y-130251071D02*
X120171428Y-131536785D01*
X120242857Y-131679642D01*
X120385714Y-131751071D01*
X120528571Y-131751071D01*
X121242857Y-131751071D02*
X121100000Y-131679642D01*
X121028571Y-131608214D01*
X120957142Y-131465357D01*
X120957142Y-131036785D01*
X121028571Y-130893928D01*
X121100000Y-130822500D01*
X121242857Y-130751071D01*
X121457142Y-130751071D01*
X121600000Y-130822500D01*
X121671428Y-130893928D01*
X121742857Y-131036785D01*
X121742857Y-131465357D01*
X121671428Y-131608214D01*
X121600000Y-131679642D01*
X121457142Y-131751071D01*
X121242857Y-131751071D01*
X122385714Y-130751071D02*
X122385714Y-132251071D01*
X122385714Y-130822500D02*
X122528571Y-130751071D01*
X122814285Y-130751071D01*
X122957142Y-130822500D01*
X123028571Y-130893928D01*
X123100000Y-131036785D01*
X123100000Y-131465357D01*
X123028571Y-131608214D01*
X122957142Y-131679642D01*
X122814285Y-131751071D01*
X122528571Y-131751071D01*
X122385714Y-131679642D01*
D11*
X212957142Y-139312857D02*
X212957142Y-140284285D01*
X213014285Y-140398571D01*
X213071428Y-140455714D01*
X213185714Y-140512857D01*
X213414285Y-140512857D01*
X213528571Y-140455714D01*
X213585714Y-140398571D01*
X213642857Y-140284285D01*
X213642857Y-139312857D01*
X214214285Y-139712857D02*
X214214285Y-140512857D01*
X214214285Y-139827142D02*
X214271428Y-139770000D01*
X214385714Y-139712857D01*
X214557142Y-139712857D01*
X214671428Y-139770000D01*
X214728571Y-139884285D01*
X214728571Y-140512857D01*
X215300000Y-140512857D02*
X215300000Y-139712857D01*
X215300000Y-139312857D02*
X215242857Y-139370000D01*
X215300000Y-139427142D01*
X215357142Y-139370000D01*
X215300000Y-139312857D01*
X215300000Y-139427142D01*
X215757142Y-139712857D02*
X216042857Y-140512857D01*
X216328571Y-139712857D01*
X217242857Y-140455714D02*
X217128571Y-140512857D01*
X216900000Y-140512857D01*
X216785714Y-140455714D01*
X216728571Y-140341428D01*
X216728571Y-139884285D01*
X216785714Y-139770000D01*
X216900000Y-139712857D01*
X217128571Y-139712857D01*
X217242857Y-139770000D01*
X217300000Y-139884285D01*
X217300000Y-139998571D01*
X216728571Y-140112857D01*
X217814285Y-140512857D02*
X217814285Y-139712857D01*
X217814285Y-139941428D02*
X217871428Y-139827142D01*
X217928571Y-139770000D01*
X218042857Y-139712857D01*
X218157142Y-139712857D01*
X218442857Y-139712857D02*
X219071428Y-139712857D01*
X218442857Y-140512857D01*
X219071428Y-140512857D01*
X220042857Y-140512857D02*
X220042857Y-139884285D01*
X219985714Y-139770000D01*
X219871428Y-139712857D01*
X219642857Y-139712857D01*
X219528571Y-139770000D01*
X220042857Y-140455714D02*
X219928571Y-140512857D01*
X219642857Y-140512857D01*
X219528571Y-140455714D01*
X219471428Y-140341428D01*
X219471428Y-140227142D01*
X219528571Y-140112857D01*
X219642857Y-140055714D01*
X219928571Y-140055714D01*
X220042857Y-139998571D01*
X219871428Y-139255714D02*
X219700000Y-139427142D01*
X220785714Y-140512857D02*
X220671428Y-140455714D01*
X220614285Y-140341428D01*
X220614285Y-139312857D01*
X221242857Y-139712857D02*
X221242857Y-140512857D01*
X221242857Y-139827142D02*
X221300000Y-139770000D01*
X221414285Y-139712857D01*
X221585714Y-139712857D01*
X221700000Y-139770000D01*
X221757142Y-139884285D01*
X221757142Y-140512857D01*
X222328571Y-140512857D02*
X222328571Y-139712857D01*
X222442857Y-139255714D02*
X222271428Y-139427142D01*
X223814285Y-140512857D02*
X223814285Y-139712857D01*
X223814285Y-139827142D02*
X223871428Y-139770000D01*
X223985714Y-139712857D01*
X224157142Y-139712857D01*
X224271428Y-139770000D01*
X224328571Y-139884285D01*
X224328571Y-140512857D01*
X224328571Y-139884285D02*
X224385714Y-139770000D01*
X224500000Y-139712857D01*
X224671428Y-139712857D01*
X224785714Y-139770000D01*
X224842857Y-139884285D01*
X224842857Y-140512857D01*
X225585714Y-140512857D02*
X225471428Y-140455714D01*
X225414285Y-140398571D01*
X225357142Y-140284285D01*
X225357142Y-139941428D01*
X225414285Y-139827142D01*
X225471428Y-139770000D01*
X225585714Y-139712857D01*
X225757142Y-139712857D01*
X225871428Y-139770000D01*
X225928571Y-139827142D01*
X225985714Y-139941428D01*
X225985714Y-140284285D01*
X225928571Y-140398571D01*
X225871428Y-140455714D01*
X225757142Y-140512857D01*
X225585714Y-140512857D01*
X227014285Y-140512857D02*
X227014285Y-139312857D01*
X227014285Y-140455714D02*
X226900000Y-140512857D01*
X226671428Y-140512857D01*
X226557142Y-140455714D01*
X226500000Y-140398571D01*
X226442857Y-140284285D01*
X226442857Y-139941428D01*
X226500000Y-139827142D01*
X226557142Y-139770000D01*
X226671428Y-139712857D01*
X226900000Y-139712857D01*
X227014285Y-139770000D01*
X228100000Y-139712857D02*
X228100000Y-140512857D01*
X227585714Y-139712857D02*
X227585714Y-140341428D01*
X227642857Y-140455714D01*
X227757142Y-140512857D01*
X227928571Y-140512857D01*
X228042857Y-140455714D01*
X228100000Y-140398571D01*
X228842857Y-140512857D02*
X228728571Y-140455714D01*
X228671428Y-140341428D01*
X228671428Y-139312857D01*
X211014285Y-141644857D02*
X211014285Y-142844857D01*
X211014285Y-141702000D02*
X211128571Y-141644857D01*
X211357142Y-141644857D01*
X211471428Y-141702000D01*
X211528571Y-141759142D01*
X211585714Y-141873428D01*
X211585714Y-142216285D01*
X211528571Y-142330571D01*
X211471428Y-142387714D01*
X211357142Y-142444857D01*
X211128571Y-142444857D01*
X211014285Y-142387714D01*
X212100000Y-142444857D02*
X212100000Y-141644857D01*
X212100000Y-141873428D02*
X212157142Y-141759142D01*
X212214285Y-141702000D01*
X212328571Y-141644857D01*
X212442857Y-141644857D01*
X213014285Y-142444857D02*
X212900000Y-142387714D01*
X212842857Y-142330571D01*
X212785714Y-142216285D01*
X212785714Y-141873428D01*
X212842857Y-141759142D01*
X212900000Y-141702000D01*
X213014285Y-141644857D01*
X213185714Y-141644857D01*
X213300000Y-141702000D01*
X213357142Y-141759142D01*
X213414285Y-141873428D01*
X213414285Y-142216285D01*
X213357142Y-142330571D01*
X213300000Y-142387714D01*
X213185714Y-142444857D01*
X213014285Y-142444857D01*
X214842857Y-141644857D02*
X214842857Y-142844857D01*
X214842857Y-141702000D02*
X214957142Y-141644857D01*
X215185714Y-141644857D01*
X215300000Y-141702000D01*
X215357142Y-141759142D01*
X215414285Y-141873428D01*
X215414285Y-142216285D01*
X215357142Y-142330571D01*
X215300000Y-142387714D01*
X215185714Y-142444857D01*
X214957142Y-142444857D01*
X214842857Y-142387714D01*
X216100000Y-142444857D02*
X215985714Y-142387714D01*
X215928571Y-142330571D01*
X215871428Y-142216285D01*
X215871428Y-141873428D01*
X215928571Y-141759142D01*
X215985714Y-141702000D01*
X216100000Y-141644857D01*
X216271428Y-141644857D01*
X216385714Y-141702000D01*
X216442857Y-141759142D01*
X216500000Y-141873428D01*
X216500000Y-142216285D01*
X216442857Y-142330571D01*
X216385714Y-142387714D01*
X216271428Y-142444857D01*
X216100000Y-142444857D01*
X217528571Y-142444857D02*
X217528571Y-141244857D01*
X217528571Y-142387714D02*
X217414285Y-142444857D01*
X217185714Y-142444857D01*
X217071428Y-142387714D01*
X217014285Y-142330571D01*
X216957142Y-142216285D01*
X216957142Y-141873428D01*
X217014285Y-141759142D01*
X217071428Y-141702000D01*
X217185714Y-141644857D01*
X217414285Y-141644857D01*
X217528571Y-141702000D01*
X218100000Y-141644857D02*
X218100000Y-142844857D01*
X218100000Y-141702000D02*
X218214285Y-141644857D01*
X218442857Y-141644857D01*
X218557142Y-141702000D01*
X218614285Y-141759142D01*
X218671428Y-141873428D01*
X218671428Y-142216285D01*
X218614285Y-142330571D01*
X218557142Y-142387714D01*
X218442857Y-142444857D01*
X218214285Y-142444857D01*
X218100000Y-142387714D01*
X219357142Y-142444857D02*
X219242857Y-142387714D01*
X219185714Y-142330571D01*
X219128571Y-142216285D01*
X219128571Y-141873428D01*
X219185714Y-141759142D01*
X219242857Y-141702000D01*
X219357142Y-141644857D01*
X219528571Y-141644857D01*
X219642857Y-141702000D01*
X219700000Y-141759142D01*
X219757142Y-141873428D01*
X219757142Y-142216285D01*
X219700000Y-142330571D01*
X219642857Y-142387714D01*
X219528571Y-142444857D01*
X219357142Y-142444857D01*
X220271428Y-142444857D02*
X220271428Y-141644857D01*
X220271428Y-141873428D02*
X220328571Y-141759142D01*
X220385714Y-141702000D01*
X220500000Y-141644857D01*
X220614285Y-141644857D01*
X221528571Y-141644857D02*
X221528571Y-142444857D01*
X221014285Y-141644857D02*
X221014285Y-142273428D01*
X221071428Y-142387714D01*
X221185714Y-142444857D01*
X221357142Y-142444857D01*
X221471428Y-142387714D01*
X221528571Y-142330571D01*
X222842857Y-141644857D02*
X223300000Y-141644857D01*
X223014285Y-141244857D02*
X223014285Y-142273428D01*
X223071428Y-142387714D01*
X223185714Y-142444857D01*
X223300000Y-142444857D01*
X223585714Y-141644857D02*
X223871428Y-142444857D01*
X224157142Y-141644857D02*
X223871428Y-142444857D01*
X223757142Y-142730571D01*
X223700000Y-142787714D01*
X223585714Y-142844857D01*
X223985714Y-141187714D02*
X223814285Y-141359142D01*
X224614285Y-142444857D02*
X224614285Y-141644857D01*
X224614285Y-141759142D02*
X224671428Y-141702000D01*
X224785714Y-141644857D01*
X224957142Y-141644857D01*
X225071428Y-141702000D01*
X225128571Y-141816285D01*
X225128571Y-142444857D01*
X225128571Y-141816285D02*
X225185714Y-141702000D01*
X225300000Y-141644857D01*
X225471428Y-141644857D01*
X225585714Y-141702000D01*
X225642857Y-141816285D01*
X225642857Y-142444857D01*
X226385714Y-142444857D02*
X226271428Y-142387714D01*
X226214285Y-142330571D01*
X226157142Y-142216285D01*
X226157142Y-141873428D01*
X226214285Y-141759142D01*
X226271428Y-141702000D01*
X226385714Y-141644857D01*
X226557142Y-141644857D01*
X226671428Y-141702000D01*
X226728571Y-141759142D01*
X226785714Y-141873428D01*
X226785714Y-142216285D01*
X226728571Y-142330571D01*
X226671428Y-142387714D01*
X226557142Y-142444857D01*
X226385714Y-142444857D01*
X227185714Y-141644857D02*
X227471428Y-142444857D01*
X227757142Y-141644857D01*
X228100000Y-141644857D02*
X228385714Y-142444857D01*
X228671428Y-141644857D02*
X228385714Y-142444857D01*
X228271428Y-142730571D01*
X228214285Y-142787714D01*
X228100000Y-142844857D01*
X228500000Y-141187714D02*
X228328571Y-141359142D01*
X229642857Y-142387714D02*
X229528571Y-142444857D01*
X229300000Y-142444857D01*
X229185714Y-142387714D01*
X229128571Y-142330571D01*
X229071428Y-142216285D01*
X229071428Y-141873428D01*
X229128571Y-141759142D01*
X229185714Y-141702000D01*
X229300000Y-141644857D01*
X229528571Y-141644857D01*
X229642857Y-141702000D01*
X230157142Y-142444857D02*
X230157142Y-141244857D01*
X230671428Y-142444857D02*
X230671428Y-141816285D01*
X230614285Y-141702000D01*
X230500000Y-141644857D01*
X230328571Y-141644857D01*
X230214285Y-141702000D01*
X230157142Y-141759142D01*
X218271428Y-144376857D02*
X218271428Y-143176857D01*
X218785714Y-144376857D02*
X218785714Y-143748285D01*
X218728571Y-143634000D01*
X218614285Y-143576857D01*
X218442857Y-143576857D01*
X218328571Y-143634000D01*
X218271428Y-143691142D01*
X219814285Y-144319714D02*
X219700000Y-144376857D01*
X219471428Y-144376857D01*
X219357142Y-144319714D01*
X219300000Y-144205428D01*
X219300000Y-143748285D01*
X219357142Y-143634000D01*
X219471428Y-143576857D01*
X219700000Y-143576857D01*
X219814285Y-143634000D01*
X219871428Y-143748285D01*
X219871428Y-143862571D01*
X219300000Y-143976857D01*
X220385714Y-144376857D02*
X220385714Y-143576857D01*
X220385714Y-143805428D02*
X220442857Y-143691142D01*
X220500000Y-143634000D01*
X220614285Y-143576857D01*
X220728571Y-143576857D01*
X222671428Y-144376857D02*
X221985714Y-144376857D01*
X222328571Y-144376857D02*
X222328571Y-143176857D01*
X222214285Y-143348285D01*
X222100000Y-143462571D01*
X221985714Y-143519714D01*
X223185714Y-144262571D02*
X223242857Y-144319714D01*
X223185714Y-144376857D01*
X223128571Y-144319714D01*
X223185714Y-144262571D01*
X223185714Y-144376857D01*
X223985714Y-143176857D02*
X224100000Y-143176857D01*
X224214285Y-143234000D01*
X224271428Y-143291142D01*
X224328571Y-143405428D01*
X224385714Y-143634000D01*
X224385714Y-143919714D01*
X224328571Y-144148285D01*
X224271428Y-144262571D01*
X224214285Y-144319714D01*
X224100000Y-144376857D01*
X223985714Y-144376857D01*
X223871428Y-144319714D01*
X223814285Y-144262571D01*
X223757142Y-144148285D01*
X223700000Y-143919714D01*
X223700000Y-143634000D01*
X223757142Y-143405428D01*
X223814285Y-143291142D01*
X223871428Y-143234000D01*
X223985714Y-143176857D01*
X212071428Y-146308857D02*
X212071428Y-145108857D01*
X212071428Y-145566000D02*
X212185714Y-145508857D01*
X212414285Y-145508857D01*
X212528571Y-145566000D01*
X212585714Y-145623142D01*
X212642857Y-145737428D01*
X212642857Y-146080285D01*
X212585714Y-146194571D01*
X212528571Y-146251714D01*
X212414285Y-146308857D01*
X212185714Y-146308857D01*
X212071428Y-146251714D01*
X213042857Y-145508857D02*
X213328571Y-146308857D01*
X213614285Y-145508857D02*
X213328571Y-146308857D01*
X213214285Y-146594571D01*
X213157142Y-146651714D01*
X213042857Y-146708857D01*
X215671428Y-146308857D02*
X215271428Y-145737428D01*
X214985714Y-146308857D02*
X214985714Y-145108857D01*
X215442857Y-145108857D01*
X215557142Y-145166000D01*
X215614285Y-145223142D01*
X215671428Y-145337428D01*
X215671428Y-145508857D01*
X215614285Y-145623142D01*
X215557142Y-145680285D01*
X215442857Y-145737428D01*
X214985714Y-145737428D01*
X216642857Y-146251714D02*
X216528571Y-146308857D01*
X216300000Y-146308857D01*
X216185714Y-146251714D01*
X216128571Y-146137428D01*
X216128571Y-145680285D01*
X216185714Y-145566000D01*
X216300000Y-145508857D01*
X216528571Y-145508857D01*
X216642857Y-145566000D01*
X216700000Y-145680285D01*
X216700000Y-145794571D01*
X216128571Y-145908857D01*
X217214285Y-145508857D02*
X217214285Y-146308857D01*
X217214285Y-145623142D02*
X217271428Y-145566000D01*
X217385714Y-145508857D01*
X217557142Y-145508857D01*
X217671428Y-145566000D01*
X217728571Y-145680285D01*
X217728571Y-146308857D01*
X218814285Y-146308857D02*
X218814285Y-145680285D01*
X218757142Y-145566000D01*
X218642857Y-145508857D01*
X218414285Y-145508857D01*
X218300000Y-145566000D01*
X218814285Y-146251714D02*
X218700000Y-146308857D01*
X218414285Y-146308857D01*
X218300000Y-146251714D01*
X218242857Y-146137428D01*
X218242857Y-146023142D01*
X218300000Y-145908857D01*
X218414285Y-145851714D01*
X218700000Y-145851714D01*
X218814285Y-145794571D01*
X219214285Y-145508857D02*
X219671428Y-145508857D01*
X219385714Y-145108857D02*
X219385714Y-146137428D01*
X219442857Y-146251714D01*
X219557142Y-146308857D01*
X219671428Y-146308857D01*
X220585714Y-146308857D02*
X220585714Y-145680285D01*
X220528571Y-145566000D01*
X220414285Y-145508857D01*
X220185714Y-145508857D01*
X220071428Y-145566000D01*
X220585714Y-146251714D02*
X220471428Y-146308857D01*
X220185714Y-146308857D01*
X220071428Y-146251714D01*
X220014285Y-146137428D01*
X220014285Y-146023142D01*
X220071428Y-145908857D01*
X220185714Y-145851714D01*
X220471428Y-145851714D01*
X220585714Y-145794571D01*
X221957142Y-145108857D02*
X222757142Y-145108857D01*
X221957142Y-146308857D01*
X222757142Y-146308857D01*
X223671428Y-146251714D02*
X223557142Y-146308857D01*
X223328571Y-146308857D01*
X223214285Y-146251714D01*
X223157142Y-146137428D01*
X223157142Y-145680285D01*
X223214285Y-145566000D01*
X223328571Y-145508857D01*
X223557142Y-145508857D01*
X223671428Y-145566000D01*
X223728571Y-145680285D01*
X223728571Y-145794571D01*
X223157142Y-145908857D01*
X224242857Y-146308857D02*
X224242857Y-145508857D01*
X224242857Y-145623142D02*
X224300000Y-145566000D01*
X224414285Y-145508857D01*
X224585714Y-145508857D01*
X224700000Y-145566000D01*
X224757142Y-145680285D01*
X224757142Y-146308857D01*
X224757142Y-145680285D02*
X224814285Y-145566000D01*
X224928571Y-145508857D01*
X225100000Y-145508857D01*
X225214285Y-145566000D01*
X225271428Y-145680285D01*
X225271428Y-146308857D01*
X226357142Y-146308857D02*
X226357142Y-145680285D01*
X226300000Y-145566000D01*
X226185714Y-145508857D01*
X225957142Y-145508857D01*
X225842857Y-145566000D01*
X226357142Y-146251714D02*
X226242857Y-146308857D01*
X225957142Y-146308857D01*
X225842857Y-146251714D01*
X225785714Y-146137428D01*
X225785714Y-146023142D01*
X225842857Y-145908857D01*
X225957142Y-145851714D01*
X226242857Y-145851714D01*
X226357142Y-145794571D01*
X226928571Y-145508857D02*
X226928571Y-146308857D01*
X226928571Y-145623142D02*
X226985714Y-145566000D01*
X227100000Y-145508857D01*
X227271428Y-145508857D01*
X227385714Y-145566000D01*
X227442857Y-145680285D01*
X227442857Y-146308857D01*
X228185714Y-146308857D02*
X228071428Y-146251714D01*
X228014285Y-146194571D01*
X227957142Y-146080285D01*
X227957142Y-145737428D01*
X228014285Y-145623142D01*
X228071428Y-145566000D01*
X228185714Y-145508857D01*
X228357142Y-145508857D01*
X228471428Y-145566000D01*
X228528571Y-145623142D01*
X228585714Y-145737428D01*
X228585714Y-146080285D01*
X228528571Y-146194571D01*
X228471428Y-146251714D01*
X228357142Y-146308857D01*
X228185714Y-146308857D01*
X228985714Y-145508857D02*
X229271428Y-146308857D01*
X229557142Y-145508857D01*
X230528571Y-146308857D02*
X230528571Y-145680285D01*
X230471428Y-145566000D01*
X230357142Y-145508857D01*
X230128571Y-145508857D01*
X230014285Y-145566000D01*
X230528571Y-146251714D02*
X230414285Y-146308857D01*
X230128571Y-146308857D01*
X230014285Y-146251714D01*
X229957142Y-146137428D01*
X229957142Y-146023142D01*
X230014285Y-145908857D01*
X230128571Y-145851714D01*
X230414285Y-145851714D01*
X230528571Y-145794571D01*
X230357142Y-145051714D02*
X230185714Y-145223142D01*
X218471428Y-148240857D02*
X218471428Y-147040857D01*
X218471428Y-147498000D02*
X218585714Y-147440857D01*
X218814285Y-147440857D01*
X218928571Y-147498000D01*
X218985714Y-147555142D01*
X219042857Y-147669428D01*
X219042857Y-148012285D01*
X218985714Y-148126571D01*
X218928571Y-148183714D01*
X218814285Y-148240857D01*
X218585714Y-148240857D01*
X218471428Y-148183714D01*
X219728571Y-148240857D02*
X219614285Y-148183714D01*
X219557142Y-148126571D01*
X219500000Y-148012285D01*
X219500000Y-147669428D01*
X219557142Y-147555142D01*
X219614285Y-147498000D01*
X219728571Y-147440857D01*
X219900000Y-147440857D01*
X220014285Y-147498000D01*
X220071428Y-147555142D01*
X220128571Y-147669428D01*
X220128571Y-148012285D01*
X220071428Y-148126571D01*
X220014285Y-148183714D01*
X219900000Y-148240857D01*
X219728571Y-148240857D01*
X220471428Y-147440857D02*
X220928571Y-147440857D01*
X220642857Y-147040857D02*
X220642857Y-148069428D01*
X220700000Y-148183714D01*
X220814285Y-148240857D01*
X220928571Y-148240857D01*
X221157142Y-147440857D02*
X221614285Y-147440857D01*
X221328571Y-147040857D02*
X221328571Y-148069428D01*
X221385714Y-148183714D01*
X221500000Y-148240857D01*
X221614285Y-148240857D01*
X222185714Y-148240857D02*
X222071428Y-148183714D01*
X222014285Y-148126571D01*
X221957142Y-148012285D01*
X221957142Y-147669428D01*
X222014285Y-147555142D01*
X222071428Y-147498000D01*
X222185714Y-147440857D01*
X222357142Y-147440857D01*
X222471428Y-147498000D01*
X222528571Y-147555142D01*
X222585714Y-147669428D01*
X222585714Y-148012285D01*
X222528571Y-148126571D01*
X222471428Y-148183714D01*
X222357142Y-148240857D01*
X222185714Y-148240857D01*
X223100000Y-148240857D02*
X223100000Y-147440857D01*
X223100000Y-147555142D02*
X223157142Y-147498000D01*
X223271428Y-147440857D01*
X223442857Y-147440857D01*
X223557142Y-147498000D01*
X223614285Y-147612285D01*
X223614285Y-148240857D01*
X223614285Y-147612285D02*
X223671428Y-147498000D01*
X223785714Y-147440857D01*
X223957142Y-147440857D01*
X224071428Y-147498000D01*
X224128571Y-147612285D01*
X224128571Y-148240857D01*
D10*
G04 #@! TO.C,Q1*
X93504761Y-53647619D02*
X93409523Y-53600000D01*
X93314285Y-53504761D01*
X93171428Y-53361904D01*
X93076190Y-53314285D01*
X92980952Y-53314285D01*
X93028571Y-53552380D02*
X92933333Y-53504761D01*
X92838095Y-53409523D01*
X92790476Y-53219047D01*
X92790476Y-52885714D01*
X92838095Y-52695238D01*
X92933333Y-52600000D01*
X93028571Y-52552380D01*
X93219047Y-52552380D01*
X93314285Y-52600000D01*
X93409523Y-52695238D01*
X93457142Y-52885714D01*
X93457142Y-53219047D01*
X93409523Y-53409523D01*
X93314285Y-53504761D01*
X93219047Y-53552380D01*
X93028571Y-53552380D01*
X94409523Y-53552380D02*
X93838095Y-53552380D01*
X94123809Y-53552380D02*
X94123809Y-52552380D01*
X94028571Y-52695238D01*
X93933333Y-52790476D01*
X93838095Y-52838095D01*
G04 #@! TO.C,BTN3_DOWN1*
X95994285Y-121568571D02*
X96137142Y-121616190D01*
X96184761Y-121663809D01*
X96232380Y-121759047D01*
X96232380Y-121901904D01*
X96184761Y-121997142D01*
X96137142Y-122044761D01*
X96041904Y-122092380D01*
X95660952Y-122092380D01*
X95660952Y-121092380D01*
X95994285Y-121092380D01*
X96089523Y-121140000D01*
X96137142Y-121187619D01*
X96184761Y-121282857D01*
X96184761Y-121378095D01*
X96137142Y-121473333D01*
X96089523Y-121520952D01*
X95994285Y-121568571D01*
X95660952Y-121568571D01*
X96518095Y-121092380D02*
X97089523Y-121092380D01*
X96803809Y-122092380D02*
X96803809Y-121092380D01*
X97422857Y-122092380D02*
X97422857Y-121092380D01*
X97994285Y-122092380D01*
X97994285Y-121092380D01*
X98375238Y-121092380D02*
X98994285Y-121092380D01*
X98660952Y-121473333D01*
X98803809Y-121473333D01*
X98899047Y-121520952D01*
X98946666Y-121568571D01*
X98994285Y-121663809D01*
X98994285Y-121901904D01*
X98946666Y-121997142D01*
X98899047Y-122044761D01*
X98803809Y-122092380D01*
X98518095Y-122092380D01*
X98422857Y-122044761D01*
X98375238Y-121997142D01*
X99184761Y-122187619D02*
X99946666Y-122187619D01*
X100184761Y-122092380D02*
X100184761Y-121092380D01*
X100422857Y-121092380D01*
X100565714Y-121140000D01*
X100660952Y-121235238D01*
X100708571Y-121330476D01*
X100756190Y-121520952D01*
X100756190Y-121663809D01*
X100708571Y-121854285D01*
X100660952Y-121949523D01*
X100565714Y-122044761D01*
X100422857Y-122092380D01*
X100184761Y-122092380D01*
X101375238Y-121092380D02*
X101565714Y-121092380D01*
X101660952Y-121140000D01*
X101756190Y-121235238D01*
X101803809Y-121425714D01*
X101803809Y-121759047D01*
X101756190Y-121949523D01*
X101660952Y-122044761D01*
X101565714Y-122092380D01*
X101375238Y-122092380D01*
X101280000Y-122044761D01*
X101184761Y-121949523D01*
X101137142Y-121759047D01*
X101137142Y-121425714D01*
X101184761Y-121235238D01*
X101280000Y-121140000D01*
X101375238Y-121092380D01*
X102137142Y-121092380D02*
X102375238Y-122092380D01*
X102565714Y-121378095D01*
X102756190Y-122092380D01*
X102994285Y-121092380D01*
X103375238Y-122092380D02*
X103375238Y-121092380D01*
X103946666Y-122092380D01*
X103946666Y-121092380D01*
X104946666Y-122092380D02*
X104375238Y-122092380D01*
X104660952Y-122092380D02*
X104660952Y-121092380D01*
X104565714Y-121235238D01*
X104470476Y-121330476D01*
X104375238Y-121378095D01*
G04 #@! TO.C,D21*
X189654812Y-78203433D02*
X189654812Y-77203433D01*
X189892907Y-77203433D01*
X190035764Y-77251053D01*
X190131002Y-77346291D01*
X190178621Y-77441529D01*
X190226240Y-77632005D01*
X190226240Y-77774862D01*
X190178621Y-77965338D01*
X190131002Y-78060576D01*
X190035764Y-78155814D01*
X189892907Y-78203433D01*
X189654812Y-78203433D01*
X190607193Y-77298672D02*
X190654812Y-77251053D01*
X190750050Y-77203433D01*
X190988145Y-77203433D01*
X191083383Y-77251053D01*
X191131002Y-77298672D01*
X191178621Y-77393910D01*
X191178621Y-77489148D01*
X191131002Y-77632005D01*
X190559574Y-78203433D01*
X191178621Y-78203433D01*
X192131002Y-78203433D02*
X191559574Y-78203433D01*
X191845288Y-78203433D02*
X191845288Y-77203433D01*
X191750050Y-77346291D01*
X191654812Y-77441529D01*
X191559574Y-77489148D01*
G04 #@! TO.C,M1*
X183690476Y-119297380D02*
X183690476Y-118297380D01*
X184023809Y-119011666D01*
X184357142Y-118297380D01*
X184357142Y-119297380D01*
X185357142Y-119297380D02*
X184785714Y-119297380D01*
X185071428Y-119297380D02*
X185071428Y-118297380D01*
X184976190Y-118440238D01*
X184880952Y-118535476D01*
X184785714Y-118583095D01*
G04 #@! TO.C,R14*
X191982142Y-67827380D02*
X191648809Y-67351190D01*
X191410714Y-67827380D02*
X191410714Y-66827380D01*
X191791666Y-66827380D01*
X191886904Y-66875000D01*
X191934523Y-66922619D01*
X191982142Y-67017857D01*
X191982142Y-67160714D01*
X191934523Y-67255952D01*
X191886904Y-67303571D01*
X191791666Y-67351190D01*
X191410714Y-67351190D01*
X192934523Y-67827380D02*
X192363095Y-67827380D01*
X192648809Y-67827380D02*
X192648809Y-66827380D01*
X192553571Y-66970238D01*
X192458333Y-67065476D01*
X192363095Y-67113095D01*
X193791666Y-67160714D02*
X193791666Y-67827380D01*
X193553571Y-66779761D02*
X193315476Y-67494047D01*
X193934523Y-67494047D01*
G04 #@! TO.C,R30*
X196157142Y-98852380D02*
X195823809Y-98376190D01*
X195585714Y-98852380D02*
X195585714Y-97852380D01*
X195966666Y-97852380D01*
X196061904Y-97900000D01*
X196109523Y-97947619D01*
X196157142Y-98042857D01*
X196157142Y-98185714D01*
X196109523Y-98280952D01*
X196061904Y-98328571D01*
X195966666Y-98376190D01*
X195585714Y-98376190D01*
X196490476Y-97852380D02*
X197109523Y-97852380D01*
X196776190Y-98233333D01*
X196919047Y-98233333D01*
X197014285Y-98280952D01*
X197061904Y-98328571D01*
X197109523Y-98423809D01*
X197109523Y-98661904D01*
X197061904Y-98757142D01*
X197014285Y-98804761D01*
X196919047Y-98852380D01*
X196633333Y-98852380D01*
X196538095Y-98804761D01*
X196490476Y-98757142D01*
X197728571Y-97852380D02*
X197823809Y-97852380D01*
X197919047Y-97900000D01*
X197966666Y-97947619D01*
X198014285Y-98042857D01*
X198061904Y-98233333D01*
X198061904Y-98471428D01*
X198014285Y-98661904D01*
X197966666Y-98757142D01*
X197919047Y-98804761D01*
X197823809Y-98852380D01*
X197728571Y-98852380D01*
X197633333Y-98804761D01*
X197585714Y-98757142D01*
X197538095Y-98661904D01*
X197490476Y-98471428D01*
X197490476Y-98233333D01*
X197538095Y-98042857D01*
X197585714Y-97947619D01*
X197633333Y-97900000D01*
X197728571Y-97852380D01*
G04 #@! TO.C,R9*
X265002380Y-103366666D02*
X264526190Y-103700000D01*
X265002380Y-103938095D02*
X264002380Y-103938095D01*
X264002380Y-103557142D01*
X264050000Y-103461904D01*
X264097619Y-103414285D01*
X264192857Y-103366666D01*
X264335714Y-103366666D01*
X264430952Y-103414285D01*
X264478571Y-103461904D01*
X264526190Y-103557142D01*
X264526190Y-103938095D01*
X265002380Y-102890476D02*
X265002380Y-102700000D01*
X264954761Y-102604761D01*
X264907142Y-102557142D01*
X264764285Y-102461904D01*
X264573809Y-102414285D01*
X264192857Y-102414285D01*
X264097619Y-102461904D01*
X264050000Y-102509523D01*
X264002380Y-102604761D01*
X264002380Y-102795238D01*
X264050000Y-102890476D01*
X264097619Y-102938095D01*
X264192857Y-102985714D01*
X264430952Y-102985714D01*
X264526190Y-102938095D01*
X264573809Y-102890476D01*
X264621428Y-102795238D01*
X264621428Y-102604761D01*
X264573809Y-102509523D01*
X264526190Y-102461904D01*
X264430952Y-102414285D01*
G04 #@! TO.C,C13*
X259332142Y-98367857D02*
X259379761Y-98415476D01*
X259427380Y-98558333D01*
X259427380Y-98653571D01*
X259379761Y-98796428D01*
X259284523Y-98891666D01*
X259189285Y-98939285D01*
X258998809Y-98986904D01*
X258855952Y-98986904D01*
X258665476Y-98939285D01*
X258570238Y-98891666D01*
X258475000Y-98796428D01*
X258427380Y-98653571D01*
X258427380Y-98558333D01*
X258475000Y-98415476D01*
X258522619Y-98367857D01*
X259427380Y-97415476D02*
X259427380Y-97986904D01*
X259427380Y-97701190D02*
X258427380Y-97701190D01*
X258570238Y-97796428D01*
X258665476Y-97891666D01*
X258713095Y-97986904D01*
X258427380Y-97082142D02*
X258427380Y-96463095D01*
X258808333Y-96796428D01*
X258808333Y-96653571D01*
X258855952Y-96558333D01*
X258903571Y-96510714D01*
X258998809Y-96463095D01*
X259236904Y-96463095D01*
X259332142Y-96510714D01*
X259379761Y-96558333D01*
X259427380Y-96653571D01*
X259427380Y-96939285D01*
X259379761Y-97034523D01*
X259332142Y-97082142D01*
G04 #@! TO.C,J8*
X253418386Y-82889791D02*
X253923462Y-83394867D01*
X253990806Y-83529554D01*
X253990806Y-83664241D01*
X253923462Y-83798928D01*
X253856119Y-83866271D01*
X254159165Y-82755104D02*
X254058149Y-82788775D01*
X253990806Y-82788775D01*
X253889791Y-82755104D01*
X253856119Y-82721432D01*
X253822447Y-82620417D01*
X253822447Y-82553073D01*
X253856119Y-82452058D01*
X253990806Y-82317371D01*
X254091821Y-82283699D01*
X254159165Y-82283699D01*
X254260180Y-82317371D01*
X254293852Y-82351043D01*
X254327523Y-82452058D01*
X254327523Y-82519401D01*
X254293852Y-82620417D01*
X254159165Y-82755104D01*
X254125493Y-82856119D01*
X254125493Y-82923462D01*
X254159165Y-83024478D01*
X254293852Y-83159165D01*
X254394867Y-83192836D01*
X254462210Y-83192836D01*
X254563226Y-83159165D01*
X254697913Y-83024478D01*
X254731584Y-82923462D01*
X254731584Y-82856119D01*
X254697913Y-82755104D01*
X254563226Y-82620417D01*
X254462210Y-82586745D01*
X254394867Y-82586745D01*
X254293852Y-82620417D01*
G04 #@! TO.C,R25*
X213857142Y-105552380D02*
X213523809Y-105076190D01*
X213285714Y-105552380D02*
X213285714Y-104552380D01*
X213666666Y-104552380D01*
X213761904Y-104600000D01*
X213809523Y-104647619D01*
X213857142Y-104742857D01*
X213857142Y-104885714D01*
X213809523Y-104980952D01*
X213761904Y-105028571D01*
X213666666Y-105076190D01*
X213285714Y-105076190D01*
X214238095Y-104647619D02*
X214285714Y-104600000D01*
X214380952Y-104552380D01*
X214619047Y-104552380D01*
X214714285Y-104600000D01*
X214761904Y-104647619D01*
X214809523Y-104742857D01*
X214809523Y-104838095D01*
X214761904Y-104980952D01*
X214190476Y-105552380D01*
X214809523Y-105552380D01*
X215714285Y-104552380D02*
X215238095Y-104552380D01*
X215190476Y-105028571D01*
X215238095Y-104980952D01*
X215333333Y-104933333D01*
X215571428Y-104933333D01*
X215666666Y-104980952D01*
X215714285Y-105028571D01*
X215761904Y-105123809D01*
X215761904Y-105361904D01*
X215714285Y-105457142D01*
X215666666Y-105504761D01*
X215571428Y-105552380D01*
X215333333Y-105552380D01*
X215238095Y-105504761D01*
X215190476Y-105457142D01*
G04 #@! TO.C,R24*
X253107142Y-87827380D02*
X252773809Y-87351190D01*
X252535714Y-87827380D02*
X252535714Y-86827380D01*
X252916666Y-86827380D01*
X253011904Y-86875000D01*
X253059523Y-86922619D01*
X253107142Y-87017857D01*
X253107142Y-87160714D01*
X253059523Y-87255952D01*
X253011904Y-87303571D01*
X252916666Y-87351190D01*
X252535714Y-87351190D01*
X253488095Y-86922619D02*
X253535714Y-86875000D01*
X253630952Y-86827380D01*
X253869047Y-86827380D01*
X253964285Y-86875000D01*
X254011904Y-86922619D01*
X254059523Y-87017857D01*
X254059523Y-87113095D01*
X254011904Y-87255952D01*
X253440476Y-87827380D01*
X254059523Y-87827380D01*
X254916666Y-87160714D02*
X254916666Y-87827380D01*
X254678571Y-86779761D02*
X254440476Y-87494047D01*
X255059523Y-87494047D01*
G04 #@! TO.C,J4*
X176066666Y-80342380D02*
X176066666Y-81056666D01*
X176019047Y-81199523D01*
X175923809Y-81294761D01*
X175780952Y-81342380D01*
X175685714Y-81342380D01*
X176971428Y-80675714D02*
X176971428Y-81342380D01*
X176733333Y-80294761D02*
X176495238Y-81009047D01*
X177114285Y-81009047D01*
G04 #@! TO.C,R28*
X257807142Y-80952380D02*
X257473809Y-80476190D01*
X257235714Y-80952380D02*
X257235714Y-79952380D01*
X257616666Y-79952380D01*
X257711904Y-80000000D01*
X257759523Y-80047619D01*
X257807142Y-80142857D01*
X257807142Y-80285714D01*
X257759523Y-80380952D01*
X257711904Y-80428571D01*
X257616666Y-80476190D01*
X257235714Y-80476190D01*
X258188095Y-80047619D02*
X258235714Y-80000000D01*
X258330952Y-79952380D01*
X258569047Y-79952380D01*
X258664285Y-80000000D01*
X258711904Y-80047619D01*
X258759523Y-80142857D01*
X258759523Y-80238095D01*
X258711904Y-80380952D01*
X258140476Y-80952380D01*
X258759523Y-80952380D01*
X259330952Y-80380952D02*
X259235714Y-80333333D01*
X259188095Y-80285714D01*
X259140476Y-80190476D01*
X259140476Y-80142857D01*
X259188095Y-80047619D01*
X259235714Y-80000000D01*
X259330952Y-79952380D01*
X259521428Y-79952380D01*
X259616666Y-80000000D01*
X259664285Y-80047619D01*
X259711904Y-80142857D01*
X259711904Y-80190476D01*
X259664285Y-80285714D01*
X259616666Y-80333333D01*
X259521428Y-80380952D01*
X259330952Y-80380952D01*
X259235714Y-80428571D01*
X259188095Y-80476190D01*
X259140476Y-80571428D01*
X259140476Y-80761904D01*
X259188095Y-80857142D01*
X259235714Y-80904761D01*
X259330952Y-80952380D01*
X259521428Y-80952380D01*
X259616666Y-80904761D01*
X259664285Y-80857142D01*
X259711904Y-80761904D01*
X259711904Y-80571428D01*
X259664285Y-80476190D01*
X259616666Y-80428571D01*
X259521428Y-80380952D01*
G04 #@! TO.C,U4*
X230088095Y-57152380D02*
X230088095Y-57961904D01*
X230135714Y-58057142D01*
X230183333Y-58104761D01*
X230278571Y-58152380D01*
X230469047Y-58152380D01*
X230564285Y-58104761D01*
X230611904Y-58057142D01*
X230659523Y-57961904D01*
X230659523Y-57152380D01*
X231564285Y-57485714D02*
X231564285Y-58152380D01*
X231326190Y-57104761D02*
X231088095Y-57819047D01*
X231707142Y-57819047D01*
G04 #@! TO.C,J13*
X182940476Y-129952380D02*
X182940476Y-130666666D01*
X182892857Y-130809523D01*
X182797619Y-130904761D01*
X182654761Y-130952380D01*
X182559523Y-130952380D01*
X183940476Y-130952380D02*
X183369047Y-130952380D01*
X183654761Y-130952380D02*
X183654761Y-129952380D01*
X183559523Y-130095238D01*
X183464285Y-130190476D01*
X183369047Y-130238095D01*
X184273809Y-129952380D02*
X184892857Y-129952380D01*
X184559523Y-130333333D01*
X184702380Y-130333333D01*
X184797619Y-130380952D01*
X184845238Y-130428571D01*
X184892857Y-130523809D01*
X184892857Y-130761904D01*
X184845238Y-130857142D01*
X184797619Y-130904761D01*
X184702380Y-130952380D01*
X184416666Y-130952380D01*
X184321428Y-130904761D01*
X184273809Y-130857142D01*
G04 #@! TO.C,D5*
X139596560Y-129412223D02*
X138730535Y-128912223D01*
X138849582Y-128706027D01*
X138962250Y-128606118D01*
X139092348Y-128571259D01*
X139198636Y-128577638D01*
X139387403Y-128631637D01*
X139511121Y-128703066D01*
X139652269Y-128839543D01*
X139710938Y-128928402D01*
X139745797Y-129058499D01*
X139715608Y-129206027D01*
X139596560Y-129412223D01*
X139468630Y-127633805D02*
X139230535Y-128046198D01*
X139619118Y-128325532D01*
X139601689Y-128260484D01*
X139608068Y-128154195D01*
X139727116Y-127947999D01*
X139815974Y-127889330D01*
X139881023Y-127871900D01*
X139987311Y-127878280D01*
X140193508Y-127997327D01*
X140252177Y-128086186D01*
X140269607Y-128151235D01*
X140263227Y-128257523D01*
X140144179Y-128463719D01*
X140055321Y-128522388D01*
X139990272Y-128539818D01*
X136871156Y-125732757D02*
X136585442Y-126227629D01*
X136728299Y-125980193D02*
X135862273Y-125480193D01*
X135938372Y-125634100D01*
X135973232Y-125764198D01*
X135966852Y-125870486D01*
G04 #@! TO.C,R4*
X90433333Y-52952380D02*
X90100000Y-52476190D01*
X89861904Y-52952380D02*
X89861904Y-51952380D01*
X90242857Y-51952380D01*
X90338095Y-52000000D01*
X90385714Y-52047619D01*
X90433333Y-52142857D01*
X90433333Y-52285714D01*
X90385714Y-52380952D01*
X90338095Y-52428571D01*
X90242857Y-52476190D01*
X89861904Y-52476190D01*
X91290476Y-52285714D02*
X91290476Y-52952380D01*
X91052380Y-51904761D02*
X90814285Y-52619047D01*
X91433333Y-52619047D01*
G04 #@! TO.C,Q6*
X252954761Y-80997619D02*
X252859523Y-80950000D01*
X252764285Y-80854761D01*
X252621428Y-80711904D01*
X252526190Y-80664285D01*
X252430952Y-80664285D01*
X252478571Y-80902380D02*
X252383333Y-80854761D01*
X252288095Y-80759523D01*
X252240476Y-80569047D01*
X252240476Y-80235714D01*
X252288095Y-80045238D01*
X252383333Y-79950000D01*
X252478571Y-79902380D01*
X252669047Y-79902380D01*
X252764285Y-79950000D01*
X252859523Y-80045238D01*
X252907142Y-80235714D01*
X252907142Y-80569047D01*
X252859523Y-80759523D01*
X252764285Y-80854761D01*
X252669047Y-80902380D01*
X252478571Y-80902380D01*
X253764285Y-79902380D02*
X253573809Y-79902380D01*
X253478571Y-79950000D01*
X253430952Y-79997619D01*
X253335714Y-80140476D01*
X253288095Y-80330952D01*
X253288095Y-80711904D01*
X253335714Y-80807142D01*
X253383333Y-80854761D01*
X253478571Y-80902380D01*
X253669047Y-80902380D01*
X253764285Y-80854761D01*
X253811904Y-80807142D01*
X253859523Y-80711904D01*
X253859523Y-80473809D01*
X253811904Y-80378571D01*
X253764285Y-80330952D01*
X253669047Y-80283333D01*
X253478571Y-80283333D01*
X253383333Y-80330952D01*
X253335714Y-80378571D01*
X253288095Y-80473809D01*
G04 #@! TO.C,D13*
X256832380Y-118254285D02*
X255832380Y-118254285D01*
X255832380Y-118016190D01*
X255880000Y-117873333D01*
X255975238Y-117778095D01*
X256070476Y-117730476D01*
X256260952Y-117682857D01*
X256403809Y-117682857D01*
X256594285Y-117730476D01*
X256689523Y-117778095D01*
X256784761Y-117873333D01*
X256832380Y-118016190D01*
X256832380Y-118254285D01*
X256832380Y-116730476D02*
X256832380Y-117301904D01*
X256832380Y-117016190D02*
X255832380Y-117016190D01*
X255975238Y-117111428D01*
X256070476Y-117206666D01*
X256118095Y-117301904D01*
X255832380Y-116397142D02*
X255832380Y-115778095D01*
X256213333Y-116111428D01*
X256213333Y-115968571D01*
X256260952Y-115873333D01*
X256308571Y-115825714D01*
X256403809Y-115778095D01*
X256641904Y-115778095D01*
X256737142Y-115825714D01*
X256784761Y-115873333D01*
X256832380Y-115968571D01*
X256832380Y-116254285D01*
X256784761Y-116349523D01*
X256737142Y-116397142D01*
G04 #@! TO.C,D15*
X175602380Y-118464285D02*
X174602380Y-118464285D01*
X174602380Y-118226190D01*
X174650000Y-118083333D01*
X174745238Y-117988095D01*
X174840476Y-117940476D01*
X175030952Y-117892857D01*
X175173809Y-117892857D01*
X175364285Y-117940476D01*
X175459523Y-117988095D01*
X175554761Y-118083333D01*
X175602380Y-118226190D01*
X175602380Y-118464285D01*
X175602380Y-116940476D02*
X175602380Y-117511904D01*
X175602380Y-117226190D02*
X174602380Y-117226190D01*
X174745238Y-117321428D01*
X174840476Y-117416666D01*
X174888095Y-117511904D01*
X174602380Y-116035714D02*
X174602380Y-116511904D01*
X175078571Y-116559523D01*
X175030952Y-116511904D01*
X174983333Y-116416666D01*
X174983333Y-116178571D01*
X175030952Y-116083333D01*
X175078571Y-116035714D01*
X175173809Y-115988095D01*
X175411904Y-115988095D01*
X175507142Y-116035714D01*
X175554761Y-116083333D01*
X175602380Y-116178571D01*
X175602380Y-116416666D01*
X175554761Y-116511904D01*
X175507142Y-116559523D01*
G04 #@! TO.C,L1*
X256877380Y-98966666D02*
X256877380Y-99442857D01*
X255877380Y-99442857D01*
X256877380Y-98109523D02*
X256877380Y-98680952D01*
X256877380Y-98395238D02*
X255877380Y-98395238D01*
X256020238Y-98490476D01*
X256115476Y-98585714D01*
X256163095Y-98680952D01*
G04 #@! TO.C,C19*
X62502866Y-81005301D02*
X62520295Y-81070349D01*
X62490106Y-81217877D01*
X62442487Y-81300355D01*
X62329819Y-81400264D01*
X62199722Y-81435123D01*
X62093434Y-81428744D01*
X61904667Y-81374745D01*
X61780949Y-81303316D01*
X61639801Y-81166839D01*
X61581132Y-81077981D01*
X61546273Y-80947883D01*
X61576462Y-80800355D01*
X61624081Y-80717877D01*
X61736749Y-80617968D01*
X61801798Y-80600539D01*
X63061535Y-80228133D02*
X62775821Y-80723005D01*
X62918678Y-80475569D02*
X62052652Y-79975569D01*
X62128751Y-80129477D01*
X62163611Y-80259574D01*
X62157231Y-80365862D01*
X63299630Y-79815740D02*
X63394868Y-79650783D01*
X63401248Y-79544495D01*
X63383818Y-79479446D01*
X63307719Y-79325539D01*
X63166572Y-79189062D01*
X62836657Y-78998585D01*
X62730369Y-78992206D01*
X62665320Y-79009636D01*
X62576462Y-79068305D01*
X62481224Y-79233262D01*
X62474844Y-79339550D01*
X62492274Y-79404599D01*
X62550943Y-79493457D01*
X62757139Y-79612505D01*
X62863427Y-79618885D01*
X62928476Y-79601455D01*
X63017335Y-79542786D01*
X63112573Y-79377828D01*
X63118952Y-79271540D01*
X63101523Y-79206491D01*
X63042854Y-79117633D01*
G04 #@! TO.C,C6*
X220633333Y-92357142D02*
X220585714Y-92404761D01*
X220442857Y-92452380D01*
X220347619Y-92452380D01*
X220204761Y-92404761D01*
X220109523Y-92309523D01*
X220061904Y-92214285D01*
X220014285Y-92023809D01*
X220014285Y-91880952D01*
X220061904Y-91690476D01*
X220109523Y-91595238D01*
X220204761Y-91500000D01*
X220347619Y-91452380D01*
X220442857Y-91452380D01*
X220585714Y-91500000D01*
X220633333Y-91547619D01*
X221490476Y-91452380D02*
X221300000Y-91452380D01*
X221204761Y-91500000D01*
X221157142Y-91547619D01*
X221061904Y-91690476D01*
X221014285Y-91880952D01*
X221014285Y-92261904D01*
X221061904Y-92357142D01*
X221109523Y-92404761D01*
X221204761Y-92452380D01*
X221395238Y-92452380D01*
X221490476Y-92404761D01*
X221538095Y-92357142D01*
X221585714Y-92261904D01*
X221585714Y-92023809D01*
X221538095Y-91928571D01*
X221490476Y-91880952D01*
X221395238Y-91833333D01*
X221204761Y-91833333D01*
X221109523Y-91880952D01*
X221061904Y-91928571D01*
X221014285Y-92023809D01*
G04 #@! TO.C,D4*
X149012380Y-105648095D02*
X148012380Y-105648095D01*
X148012380Y-105410000D01*
X148060000Y-105267142D01*
X148155238Y-105171904D01*
X148250476Y-105124285D01*
X148440952Y-105076666D01*
X148583809Y-105076666D01*
X148774285Y-105124285D01*
X148869523Y-105171904D01*
X148964761Y-105267142D01*
X149012380Y-105410000D01*
X149012380Y-105648095D01*
X148345714Y-104219523D02*
X149012380Y-104219523D01*
X147964761Y-104457619D02*
X148679047Y-104695714D01*
X148679047Y-104076666D01*
X144812378Y-103824284D02*
X144812378Y-104395713D01*
X144812378Y-104109999D02*
X143812378Y-104109999D01*
X143955236Y-104205237D01*
X144050474Y-104300475D01*
X144098093Y-104395713D01*
G04 #@! TO.C,D19*
X200099809Y-129070850D02*
X199526233Y-129890002D01*
X199331197Y-129753437D01*
X199241488Y-129632490D01*
X199218100Y-129499849D01*
X199233719Y-129394521D01*
X199303964Y-129211179D01*
X199385904Y-129094158D01*
X199534164Y-128965442D01*
X199627797Y-128914740D01*
X199760438Y-128891352D01*
X199904773Y-128934285D01*
X200099809Y-129070850D01*
X198851577Y-128196829D02*
X199319664Y-128524587D01*
X199085621Y-128360708D02*
X198512044Y-129179860D01*
X198671998Y-129117465D01*
X198804639Y-129094077D01*
X198909967Y-129109696D01*
X198461505Y-127923698D02*
X198305476Y-127814445D01*
X198200148Y-127798826D01*
X198133828Y-127810520D01*
X197973874Y-127872915D01*
X197825614Y-128001631D01*
X197607109Y-128313689D01*
X197591490Y-128419017D01*
X197603184Y-128485337D01*
X197653885Y-128578971D01*
X197809914Y-128688223D01*
X197915242Y-128703842D01*
X197981562Y-128692148D01*
X198075196Y-128641447D01*
X198211762Y-128446411D01*
X198227381Y-128341083D01*
X198215687Y-128274763D01*
X198164985Y-128181129D01*
X198008956Y-128071876D01*
X197903629Y-128056257D01*
X197837308Y-128067951D01*
X197743675Y-128118653D01*
G04 #@! TO.C,D10*
X52002380Y-95914285D02*
X51002380Y-95914285D01*
X51002380Y-95676190D01*
X51050000Y-95533333D01*
X51145238Y-95438095D01*
X51240476Y-95390476D01*
X51430952Y-95342857D01*
X51573809Y-95342857D01*
X51764285Y-95390476D01*
X51859523Y-95438095D01*
X51954761Y-95533333D01*
X52002380Y-95676190D01*
X52002380Y-95914285D01*
X52002380Y-94390476D02*
X52002380Y-94961904D01*
X52002380Y-94676190D02*
X51002380Y-94676190D01*
X51145238Y-94771428D01*
X51240476Y-94866666D01*
X51288095Y-94961904D01*
X51002380Y-93771428D02*
X51002380Y-93676190D01*
X51050000Y-93580952D01*
X51097619Y-93533333D01*
X51192857Y-93485714D01*
X51383333Y-93438095D01*
X51621428Y-93438095D01*
X51811904Y-93485714D01*
X51907142Y-93533333D01*
X51954761Y-93580952D01*
X52002380Y-93676190D01*
X52002380Y-93771428D01*
X51954761Y-93866666D01*
X51907142Y-93914285D01*
X51811904Y-93961904D01*
X51621428Y-94009523D01*
X51383333Y-94009523D01*
X51192857Y-93961904D01*
X51097619Y-93914285D01*
X51050000Y-93866666D01*
X51002380Y-93771428D01*
X56012382Y-95524286D02*
X56012382Y-96095715D01*
X56012382Y-95810001D02*
X55012382Y-95810001D01*
X55155240Y-95905239D01*
X55250478Y-96000477D01*
X55298097Y-96095715D01*
G04 #@! TO.C,C24*
X100717142Y-142697142D02*
X100669523Y-142744761D01*
X100526666Y-142792380D01*
X100431428Y-142792380D01*
X100288571Y-142744761D01*
X100193333Y-142649523D01*
X100145714Y-142554285D01*
X100098095Y-142363809D01*
X100098095Y-142220952D01*
X100145714Y-142030476D01*
X100193333Y-141935238D01*
X100288571Y-141840000D01*
X100431428Y-141792380D01*
X100526666Y-141792380D01*
X100669523Y-141840000D01*
X100717142Y-141887619D01*
X101098095Y-141887619D02*
X101145714Y-141840000D01*
X101240952Y-141792380D01*
X101479047Y-141792380D01*
X101574285Y-141840000D01*
X101621904Y-141887619D01*
X101669523Y-141982857D01*
X101669523Y-142078095D01*
X101621904Y-142220952D01*
X101050476Y-142792380D01*
X101669523Y-142792380D01*
X102526666Y-142125714D02*
X102526666Y-142792380D01*
X102288571Y-141744761D02*
X102050476Y-142459047D01*
X102669523Y-142459047D01*
G04 #@! TO.C,Q5*
X126554761Y-77447619D02*
X126459523Y-77400000D01*
X126364285Y-77304761D01*
X126221428Y-77161904D01*
X126126190Y-77114285D01*
X126030952Y-77114285D01*
X126078571Y-77352380D02*
X125983333Y-77304761D01*
X125888095Y-77209523D01*
X125840476Y-77019047D01*
X125840476Y-76685714D01*
X125888095Y-76495238D01*
X125983333Y-76400000D01*
X126078571Y-76352380D01*
X126269047Y-76352380D01*
X126364285Y-76400000D01*
X126459523Y-76495238D01*
X126507142Y-76685714D01*
X126507142Y-77019047D01*
X126459523Y-77209523D01*
X126364285Y-77304761D01*
X126269047Y-77352380D01*
X126078571Y-77352380D01*
X127411904Y-76352380D02*
X126935714Y-76352380D01*
X126888095Y-76828571D01*
X126935714Y-76780952D01*
X127030952Y-76733333D01*
X127269047Y-76733333D01*
X127364285Y-76780952D01*
X127411904Y-76828571D01*
X127459523Y-76923809D01*
X127459523Y-77161904D01*
X127411904Y-77257142D01*
X127364285Y-77304761D01*
X127269047Y-77352380D01*
X127030952Y-77352380D01*
X126935714Y-77304761D01*
X126888095Y-77257142D01*
G04 #@! TO.C,R17*
X211654880Y-98842857D02*
X211178690Y-99176190D01*
X211654880Y-99414285D02*
X210654880Y-99414285D01*
X210654880Y-99033333D01*
X210702500Y-98938095D01*
X210750119Y-98890476D01*
X210845357Y-98842857D01*
X210988214Y-98842857D01*
X211083452Y-98890476D01*
X211131071Y-98938095D01*
X211178690Y-99033333D01*
X211178690Y-99414285D01*
X211654880Y-97890476D02*
X211654880Y-98461904D01*
X211654880Y-98176190D02*
X210654880Y-98176190D01*
X210797738Y-98271428D01*
X210892976Y-98366666D01*
X210940595Y-98461904D01*
X210654880Y-97557142D02*
X210654880Y-96890476D01*
X211654880Y-97319047D01*
G04 #@! TO.C,D9*
X56156985Y-120386192D02*
X55290959Y-120886192D01*
X55171911Y-120679996D01*
X55141722Y-120532468D01*
X55176582Y-120402371D01*
X55235251Y-120313512D01*
X55376399Y-120177035D01*
X55500116Y-120105606D01*
X55688883Y-120051608D01*
X55795171Y-120045228D01*
X55925269Y-120080087D01*
X56037937Y-120179996D01*
X56156985Y-120386192D01*
X55633175Y-119478928D02*
X55537937Y-119313970D01*
X55449079Y-119255301D01*
X55384030Y-119237871D01*
X55212693Y-119226821D01*
X55023926Y-119280820D01*
X54694012Y-119471296D01*
X54635342Y-119560155D01*
X54617913Y-119625204D01*
X54624292Y-119731492D01*
X54719531Y-119896449D01*
X54808389Y-119955118D01*
X54873438Y-119972548D01*
X54979726Y-119966168D01*
X55185922Y-119847120D01*
X55244591Y-119758262D01*
X55262021Y-119693213D01*
X55255642Y-119586925D01*
X55160403Y-119421968D01*
X55071545Y-119363299D01*
X55006496Y-119345869D01*
X54900208Y-119352249D01*
X59682389Y-118092367D02*
X59968103Y-118587239D01*
X59825246Y-118339803D02*
X58959220Y-118839803D01*
X59130557Y-118850853D01*
X59260655Y-118885713D01*
X59349513Y-118944382D01*
G04 #@! TO.C,C7*
X227583333Y-91007142D02*
X227535714Y-91054761D01*
X227392857Y-91102380D01*
X227297619Y-91102380D01*
X227154761Y-91054761D01*
X227059523Y-90959523D01*
X227011904Y-90864285D01*
X226964285Y-90673809D01*
X226964285Y-90530952D01*
X227011904Y-90340476D01*
X227059523Y-90245238D01*
X227154761Y-90150000D01*
X227297619Y-90102380D01*
X227392857Y-90102380D01*
X227535714Y-90150000D01*
X227583333Y-90197619D01*
X227916666Y-90102380D02*
X228583333Y-90102380D01*
X228154761Y-91102380D01*
G04 #@! TO.C,J2*
X184183411Y-114799862D02*
X184183411Y-115514148D01*
X184135792Y-115657005D01*
X184040554Y-115752243D01*
X183897697Y-115799862D01*
X183802459Y-115799862D01*
X184611983Y-114895101D02*
X184659602Y-114847482D01*
X184754840Y-114799862D01*
X184992935Y-114799862D01*
X185088173Y-114847482D01*
X185135792Y-114895101D01*
X185183411Y-114990339D01*
X185183411Y-115085577D01*
X185135792Y-115228434D01*
X184564364Y-115799862D01*
X185183411Y-115799862D01*
G04 #@! TO.C,C8*
X175232670Y-108351108D02*
X175185051Y-108398727D01*
X175042194Y-108446346D01*
X174946956Y-108446346D01*
X174804098Y-108398727D01*
X174708860Y-108303489D01*
X174661241Y-108208251D01*
X174613622Y-108017775D01*
X174613622Y-107874918D01*
X174661241Y-107684442D01*
X174708860Y-107589204D01*
X174804098Y-107493966D01*
X174946956Y-107446346D01*
X175042194Y-107446346D01*
X175185051Y-107493966D01*
X175232670Y-107541585D01*
X175804098Y-107874918D02*
X175708860Y-107827299D01*
X175661241Y-107779680D01*
X175613622Y-107684442D01*
X175613622Y-107636823D01*
X175661241Y-107541585D01*
X175708860Y-107493966D01*
X175804098Y-107446346D01*
X175994575Y-107446346D01*
X176089813Y-107493966D01*
X176137432Y-107541585D01*
X176185051Y-107636823D01*
X176185051Y-107684442D01*
X176137432Y-107779680D01*
X176089813Y-107827299D01*
X175994575Y-107874918D01*
X175804098Y-107874918D01*
X175708860Y-107922537D01*
X175661241Y-107970156D01*
X175613622Y-108065394D01*
X175613622Y-108255870D01*
X175661241Y-108351108D01*
X175708860Y-108398727D01*
X175804098Y-108446346D01*
X175994575Y-108446346D01*
X176089813Y-108398727D01*
X176137432Y-108351108D01*
X176185051Y-108255870D01*
X176185051Y-108065394D01*
X176137432Y-107970156D01*
X176089813Y-107922537D01*
X175994575Y-107874918D01*
G04 #@! TO.C,U6*
X220038095Y-89252380D02*
X220038095Y-90061904D01*
X220085714Y-90157142D01*
X220133333Y-90204761D01*
X220228571Y-90252380D01*
X220419047Y-90252380D01*
X220514285Y-90204761D01*
X220561904Y-90157142D01*
X220609523Y-90061904D01*
X220609523Y-89252380D01*
X221514285Y-89252380D02*
X221323809Y-89252380D01*
X221228571Y-89300000D01*
X221180952Y-89347619D01*
X221085714Y-89490476D01*
X221038095Y-89680952D01*
X221038095Y-90061904D01*
X221085714Y-90157142D01*
X221133333Y-90204761D01*
X221228571Y-90252380D01*
X221419047Y-90252380D01*
X221514285Y-90204761D01*
X221561904Y-90157142D01*
X221609523Y-90061904D01*
X221609523Y-89823809D01*
X221561904Y-89728571D01*
X221514285Y-89680952D01*
X221419047Y-89633333D01*
X221228571Y-89633333D01*
X221133333Y-89680952D01*
X221085714Y-89728571D01*
X221038095Y-89823809D01*
G04 #@! TO.C,J1*
X190258949Y-133239775D02*
X190668646Y-132654666D01*
X190789593Y-132564958D01*
X190922234Y-132541570D01*
X191066569Y-132584502D01*
X191144583Y-132639128D01*
X190013373Y-131847046D02*
X190481460Y-132174804D01*
X190247417Y-132010925D02*
X189673840Y-132830077D01*
X189833794Y-132767682D01*
X189966435Y-132744294D01*
X190071763Y-132759913D01*
G04 #@! TO.C,C20*
X137197866Y-120705302D02*
X137215295Y-120770350D01*
X137185106Y-120917878D01*
X137137487Y-121000356D01*
X137024819Y-121100265D01*
X136894722Y-121135124D01*
X136788434Y-121128745D01*
X136599667Y-121074746D01*
X136475949Y-121003317D01*
X136334801Y-120866840D01*
X136276132Y-120777982D01*
X136241273Y-120647884D01*
X136271462Y-120500356D01*
X136319081Y-120417878D01*
X136431749Y-120317969D01*
X136496798Y-120300540D01*
X136687274Y-119970625D02*
X136669844Y-119905576D01*
X136676224Y-119799288D01*
X136795271Y-119593092D01*
X136884130Y-119534423D01*
X136949178Y-119516993D01*
X137055467Y-119523373D01*
X137137945Y-119570992D01*
X137237854Y-119683660D01*
X137447011Y-120464245D01*
X137756535Y-119928134D01*
X137200033Y-118892024D02*
X137247652Y-118809545D01*
X137336511Y-118750876D01*
X137401559Y-118733446D01*
X137507848Y-118739826D01*
X137696614Y-118793825D01*
X137902811Y-118912872D01*
X138043959Y-119049350D01*
X138102628Y-119138208D01*
X138120057Y-119203257D01*
X138113678Y-119309545D01*
X138066059Y-119392024D01*
X137977200Y-119450693D01*
X137912151Y-119468122D01*
X137805863Y-119461743D01*
X137617097Y-119407744D01*
X137410900Y-119288696D01*
X137269752Y-119152219D01*
X137211083Y-119063360D01*
X137193653Y-118998312D01*
X137200033Y-118892024D01*
G04 #@! TO.C,C21*
X80775302Y-137132133D02*
X80840350Y-137114704D01*
X80987878Y-137144893D01*
X81070356Y-137192512D01*
X81170265Y-137305180D01*
X81205124Y-137435277D01*
X81198745Y-137541565D01*
X81144746Y-137730332D01*
X81073317Y-137854050D01*
X80936840Y-137995198D01*
X80847982Y-138053867D01*
X80717884Y-138088726D01*
X80570356Y-138058537D01*
X80487878Y-138010918D01*
X80387969Y-137898250D01*
X80370540Y-137833201D01*
X80040625Y-137642725D02*
X79975576Y-137660155D01*
X79869288Y-137653775D01*
X79663092Y-137534728D01*
X79604423Y-137445869D01*
X79586993Y-137380821D01*
X79593373Y-137274532D01*
X79640992Y-137192054D01*
X79753660Y-137092145D01*
X80534245Y-136882988D01*
X79998134Y-136573464D01*
X79173348Y-136097274D02*
X79668220Y-136382988D01*
X79420784Y-136240131D02*
X78920784Y-137106156D01*
X79074691Y-137030057D01*
X79204789Y-136995198D01*
X79311077Y-137001578D01*
G04 #@! TO.C,C17*
X58057142Y-101930857D02*
X58104761Y-101978476D01*
X58152380Y-102121333D01*
X58152380Y-102216571D01*
X58104761Y-102359428D01*
X58009523Y-102454666D01*
X57914285Y-102502285D01*
X57723809Y-102549904D01*
X57580952Y-102549904D01*
X57390476Y-102502285D01*
X57295238Y-102454666D01*
X57200000Y-102359428D01*
X57152380Y-102216571D01*
X57152380Y-102121333D01*
X57200000Y-101978476D01*
X57247619Y-101930857D01*
X58152380Y-100978476D02*
X58152380Y-101549904D01*
X58152380Y-101264190D02*
X57152380Y-101264190D01*
X57295238Y-101359428D01*
X57390476Y-101454666D01*
X57438095Y-101549904D01*
X57152380Y-100645142D02*
X57152380Y-99978476D01*
X58152380Y-100407047D01*
G04 #@! TO.C,D7*
X94471904Y-148812380D02*
X94471904Y-147812380D01*
X94710000Y-147812380D01*
X94852857Y-147860000D01*
X94948095Y-147955238D01*
X94995714Y-148050476D01*
X95043333Y-148240952D01*
X95043333Y-148383809D01*
X94995714Y-148574285D01*
X94948095Y-148669523D01*
X94852857Y-148764761D01*
X94710000Y-148812380D01*
X94471904Y-148812380D01*
X95376666Y-147812380D02*
X96043333Y-147812380D01*
X95614761Y-148812380D01*
X96095715Y-144812378D02*
X95524286Y-144812378D01*
X95810001Y-144812378D02*
X95810001Y-143812378D01*
X95714762Y-143955236D01*
X95619524Y-144050474D01*
X95524286Y-144098093D01*
G04 #@! TO.C,J9*
X205227072Y-72748477D02*
X205732148Y-73253553D01*
X205799492Y-73388240D01*
X205799492Y-73522927D01*
X205732148Y-73657614D01*
X205664805Y-73724957D01*
X206304568Y-73085194D02*
X206439255Y-72950507D01*
X206472927Y-72849492D01*
X206472927Y-72782148D01*
X206439255Y-72613790D01*
X206338240Y-72445431D01*
X206068866Y-72176057D01*
X205967851Y-72142385D01*
X205900507Y-72142385D01*
X205799492Y-72176057D01*
X205664805Y-72310744D01*
X205631133Y-72411759D01*
X205631133Y-72479103D01*
X205664805Y-72580118D01*
X205833164Y-72748477D01*
X205934179Y-72782148D01*
X206001522Y-72782148D01*
X206102538Y-72748477D01*
X206237225Y-72613790D01*
X206270896Y-72512774D01*
X206270896Y-72445431D01*
X206237225Y-72344416D01*
G04 #@! TO.C,D17*
X255477380Y-106464285D02*
X254477380Y-106464285D01*
X254477380Y-106226190D01*
X254525000Y-106083333D01*
X254620238Y-105988095D01*
X254715476Y-105940476D01*
X254905952Y-105892857D01*
X255048809Y-105892857D01*
X255239285Y-105940476D01*
X255334523Y-105988095D01*
X255429761Y-106083333D01*
X255477380Y-106226190D01*
X255477380Y-106464285D01*
X255477380Y-104940476D02*
X255477380Y-105511904D01*
X255477380Y-105226190D02*
X254477380Y-105226190D01*
X254620238Y-105321428D01*
X254715476Y-105416666D01*
X254763095Y-105511904D01*
X254477380Y-104607142D02*
X254477380Y-103940476D01*
X255477380Y-104369047D01*
G04 #@! TO.C,C11*
X121891840Y-136600723D02*
X121874411Y-136665772D01*
X121774502Y-136778440D01*
X121692024Y-136826059D01*
X121544496Y-136856248D01*
X121414398Y-136821388D01*
X121325540Y-136762719D01*
X121189063Y-136621572D01*
X121117634Y-136497854D01*
X121063635Y-136309087D01*
X121057256Y-136202799D01*
X121092115Y-136072701D01*
X121192024Y-135960033D01*
X121274502Y-135912414D01*
X121422030Y-135882225D01*
X121487078Y-135899655D01*
X122764245Y-136207011D02*
X122269374Y-136492725D01*
X122516810Y-136349868D02*
X122016810Y-135483843D01*
X122005760Y-135655180D01*
X121970900Y-135785277D01*
X121912231Y-135874136D01*
X123589032Y-135730821D02*
X123094160Y-136016535D01*
X123341596Y-135873678D02*
X122841596Y-135007652D01*
X122830546Y-135178989D01*
X122795686Y-135309087D01*
X122737017Y-135397945D01*
G04 #@! TO.C,D20*
X203470610Y-131492150D02*
X202897034Y-132311302D01*
X202701998Y-132174737D01*
X202612289Y-132053790D01*
X202588901Y-131921149D01*
X202604520Y-131815821D01*
X202674765Y-131632479D01*
X202756705Y-131515458D01*
X202904965Y-131386742D01*
X202998598Y-131336040D01*
X203131239Y-131312652D01*
X203275574Y-131355585D01*
X203470610Y-131492150D01*
X202171515Y-131687025D02*
X202105195Y-131698719D01*
X201999867Y-131683100D01*
X201804831Y-131546534D01*
X201754130Y-131452900D01*
X201742436Y-131386580D01*
X201758055Y-131281252D01*
X201812681Y-131203238D01*
X201933628Y-131113529D01*
X202729473Y-130973200D01*
X202222378Y-130618129D01*
X201141708Y-131082210D02*
X201063693Y-131027584D01*
X201012992Y-130933950D01*
X201001298Y-130867630D01*
X201016917Y-130762302D01*
X201087163Y-130578960D01*
X201223728Y-130383924D01*
X201371988Y-130255208D01*
X201465622Y-130204507D01*
X201531942Y-130192813D01*
X201637270Y-130208432D01*
X201715284Y-130263058D01*
X201765986Y-130356692D01*
X201777680Y-130423012D01*
X201762061Y-130528340D01*
X201691815Y-130711682D01*
X201555249Y-130906718D01*
X201406990Y-131035434D01*
X201313356Y-131086135D01*
X201247036Y-131097829D01*
X201141708Y-131082210D01*
G04 #@! TO.C,C14*
X259507142Y-107532142D02*
X259459523Y-107579761D01*
X259316666Y-107627380D01*
X259221428Y-107627380D01*
X259078571Y-107579761D01*
X258983333Y-107484523D01*
X258935714Y-107389285D01*
X258888095Y-107198809D01*
X258888095Y-107055952D01*
X258935714Y-106865476D01*
X258983333Y-106770238D01*
X259078571Y-106675000D01*
X259221428Y-106627380D01*
X259316666Y-106627380D01*
X259459523Y-106675000D01*
X259507142Y-106722619D01*
X260459523Y-107627380D02*
X259888095Y-107627380D01*
X260173809Y-107627380D02*
X260173809Y-106627380D01*
X260078571Y-106770238D01*
X259983333Y-106865476D01*
X259888095Y-106913095D01*
X261316666Y-106960714D02*
X261316666Y-107627380D01*
X261078571Y-106579761D02*
X260840476Y-107294047D01*
X261459523Y-107294047D01*
G04 #@! TO.C,R21*
X196232142Y-90702380D02*
X195898809Y-90226190D01*
X195660714Y-90702380D02*
X195660714Y-89702380D01*
X196041666Y-89702380D01*
X196136904Y-89750000D01*
X196184523Y-89797619D01*
X196232142Y-89892857D01*
X196232142Y-90035714D01*
X196184523Y-90130952D01*
X196136904Y-90178571D01*
X196041666Y-90226190D01*
X195660714Y-90226190D01*
X196613095Y-89797619D02*
X196660714Y-89750000D01*
X196755952Y-89702380D01*
X196994047Y-89702380D01*
X197089285Y-89750000D01*
X197136904Y-89797619D01*
X197184523Y-89892857D01*
X197184523Y-89988095D01*
X197136904Y-90130952D01*
X196565476Y-90702380D01*
X197184523Y-90702380D01*
X198136904Y-90702380D02*
X197565476Y-90702380D01*
X197851190Y-90702380D02*
X197851190Y-89702380D01*
X197755952Y-89845238D01*
X197660714Y-89940476D01*
X197565476Y-89988095D01*
G04 #@! TO.C,BTN1_ENTER1*
X96103809Y-78868571D02*
X96246666Y-78916190D01*
X96294285Y-78963809D01*
X96341904Y-79059047D01*
X96341904Y-79201904D01*
X96294285Y-79297142D01*
X96246666Y-79344761D01*
X96151428Y-79392380D01*
X95770476Y-79392380D01*
X95770476Y-78392380D01*
X96103809Y-78392380D01*
X96199047Y-78440000D01*
X96246666Y-78487619D01*
X96294285Y-78582857D01*
X96294285Y-78678095D01*
X96246666Y-78773333D01*
X96199047Y-78820952D01*
X96103809Y-78868571D01*
X95770476Y-78868571D01*
X96627619Y-78392380D02*
X97199047Y-78392380D01*
X96913333Y-79392380D02*
X96913333Y-78392380D01*
X97532380Y-79392380D02*
X97532380Y-78392380D01*
X98103809Y-79392380D01*
X98103809Y-78392380D01*
X99103809Y-79392380D02*
X98532380Y-79392380D01*
X98818095Y-79392380D02*
X98818095Y-78392380D01*
X98722857Y-78535238D01*
X98627619Y-78630476D01*
X98532380Y-78678095D01*
X99294285Y-79487619D02*
X100056190Y-79487619D01*
X100294285Y-78868571D02*
X100627619Y-78868571D01*
X100770476Y-79392380D02*
X100294285Y-79392380D01*
X100294285Y-78392380D01*
X100770476Y-78392380D01*
X101199047Y-79392380D02*
X101199047Y-78392380D01*
X101770476Y-79392380D01*
X101770476Y-78392380D01*
X102103809Y-78392380D02*
X102675238Y-78392380D01*
X102389523Y-79392380D02*
X102389523Y-78392380D01*
X103008571Y-78868571D02*
X103341904Y-78868571D01*
X103484761Y-79392380D02*
X103008571Y-79392380D01*
X103008571Y-78392380D01*
X103484761Y-78392380D01*
X104484761Y-79392380D02*
X104151428Y-78916190D01*
X103913333Y-79392380D02*
X103913333Y-78392380D01*
X104294285Y-78392380D01*
X104389523Y-78440000D01*
X104437142Y-78487619D01*
X104484761Y-78582857D01*
X104484761Y-78725714D01*
X104437142Y-78820952D01*
X104389523Y-78868571D01*
X104294285Y-78916190D01*
X103913333Y-78916190D01*
X105437142Y-79392380D02*
X104865714Y-79392380D01*
X105151428Y-79392380D02*
X105151428Y-78392380D01*
X105056190Y-78535238D01*
X104960952Y-78630476D01*
X104865714Y-78678095D01*
G04 #@! TO.C,R3*
X202323152Y-134625689D02*
X202323071Y-135206953D01*
X202791239Y-134953447D02*
X202217662Y-135772599D01*
X201905604Y-135554093D01*
X201854903Y-135460460D01*
X201843209Y-135394140D01*
X201858828Y-135288812D01*
X201940768Y-135171790D01*
X202034401Y-135121089D01*
X202100722Y-135109395D01*
X202206049Y-135125014D01*
X202518107Y-135343519D01*
X201476525Y-135253649D02*
X200969431Y-134898578D01*
X201460987Y-134777712D01*
X201343965Y-134695772D01*
X201293264Y-134602139D01*
X201281570Y-134535818D01*
X201297189Y-134430491D01*
X201433754Y-134235454D01*
X201527388Y-134184753D01*
X201593708Y-134173059D01*
X201699036Y-134188678D01*
X201933079Y-134352557D01*
X201983781Y-134446191D01*
X201995475Y-134512511D01*
G04 #@! TO.C,J11*
X194140355Y-117635194D02*
X194645431Y-118140270D01*
X194712774Y-118274957D01*
X194712774Y-118409644D01*
X194645431Y-118544331D01*
X194578087Y-118611675D01*
X195554568Y-117635194D02*
X195150507Y-118039255D01*
X195352538Y-117837225D02*
X194645431Y-117130118D01*
X194679103Y-117298477D01*
X194679103Y-117433164D01*
X194645431Y-117534179D01*
X196228003Y-116961759D02*
X195823942Y-117365820D01*
X196025973Y-117163790D02*
X195318866Y-116456683D01*
X195352538Y-116625042D01*
X195352538Y-116759729D01*
X195318866Y-116860744D01*
G04 #@! TO.C,R13*
X264132142Y-98977380D02*
X263798809Y-98501190D01*
X263560714Y-98977380D02*
X263560714Y-97977380D01*
X263941666Y-97977380D01*
X264036904Y-98025000D01*
X264084523Y-98072619D01*
X264132142Y-98167857D01*
X264132142Y-98310714D01*
X264084523Y-98405952D01*
X264036904Y-98453571D01*
X263941666Y-98501190D01*
X263560714Y-98501190D01*
X265084523Y-98977380D02*
X264513095Y-98977380D01*
X264798809Y-98977380D02*
X264798809Y-97977380D01*
X264703571Y-98120238D01*
X264608333Y-98215476D01*
X264513095Y-98263095D01*
X265417857Y-97977380D02*
X266036904Y-97977380D01*
X265703571Y-98358333D01*
X265846428Y-98358333D01*
X265941666Y-98405952D01*
X265989285Y-98453571D01*
X266036904Y-98548809D01*
X266036904Y-98786904D01*
X265989285Y-98882142D01*
X265941666Y-98929761D01*
X265846428Y-98977380D01*
X265560714Y-98977380D01*
X265465476Y-98929761D01*
X265417857Y-98882142D01*
G04 #@! TO.C,R16*
X214124880Y-94942857D02*
X213648690Y-95276190D01*
X214124880Y-95514285D02*
X213124880Y-95514285D01*
X213124880Y-95133333D01*
X213172500Y-95038095D01*
X213220119Y-94990476D01*
X213315357Y-94942857D01*
X213458214Y-94942857D01*
X213553452Y-94990476D01*
X213601071Y-95038095D01*
X213648690Y-95133333D01*
X213648690Y-95514285D01*
X214124880Y-93990476D02*
X214124880Y-94561904D01*
X214124880Y-94276190D02*
X213124880Y-94276190D01*
X213267738Y-94371428D01*
X213362976Y-94466666D01*
X213410595Y-94561904D01*
X213124880Y-93133333D02*
X213124880Y-93323809D01*
X213172500Y-93419047D01*
X213220119Y-93466666D01*
X213362976Y-93561904D01*
X213553452Y-93609523D01*
X213934404Y-93609523D01*
X214029642Y-93561904D01*
X214077261Y-93514285D01*
X214124880Y-93419047D01*
X214124880Y-93228571D01*
X214077261Y-93133333D01*
X214029642Y-93085714D01*
X213934404Y-93038095D01*
X213696309Y-93038095D01*
X213601071Y-93085714D01*
X213553452Y-93133333D01*
X213505833Y-93228571D01*
X213505833Y-93419047D01*
X213553452Y-93514285D01*
X213601071Y-93561904D01*
X213696309Y-93609523D01*
G04 #@! TO.C,D1*
X104171904Y-51812380D02*
X104171904Y-50812380D01*
X104410000Y-50812380D01*
X104552857Y-50860000D01*
X104648095Y-50955238D01*
X104695714Y-51050476D01*
X104743333Y-51240952D01*
X104743333Y-51383809D01*
X104695714Y-51574285D01*
X104648095Y-51669523D01*
X104552857Y-51764761D01*
X104410000Y-51812380D01*
X104171904Y-51812380D01*
X105695714Y-51812380D02*
X105124285Y-51812380D01*
X105410000Y-51812380D02*
X105410000Y-50812380D01*
X105314761Y-50955238D01*
X105219523Y-51050476D01*
X105124285Y-51098095D01*
X104395713Y-56012382D02*
X103824284Y-56012382D01*
X104109999Y-56012382D02*
X104109999Y-55012382D01*
X104014760Y-55155240D01*
X103919522Y-55250478D01*
X103824284Y-55298097D01*
G04 #@! TO.C,R23*
X196157856Y-92402380D02*
X195824523Y-91926190D01*
X195586428Y-92402380D02*
X195586428Y-91402380D01*
X195967380Y-91402380D01*
X196062618Y-91450000D01*
X196110237Y-91497619D01*
X196157856Y-91592857D01*
X196157856Y-91735714D01*
X196110237Y-91830952D01*
X196062618Y-91878571D01*
X195967380Y-91926190D01*
X195586428Y-91926190D01*
X196538809Y-91497619D02*
X196586428Y-91450000D01*
X196681666Y-91402380D01*
X196919761Y-91402380D01*
X197014999Y-91450000D01*
X197062618Y-91497619D01*
X197110237Y-91592857D01*
X197110237Y-91688095D01*
X197062618Y-91830952D01*
X196491190Y-92402380D01*
X197110237Y-92402380D01*
X197443571Y-91402380D02*
X198062618Y-91402380D01*
X197729285Y-91783333D01*
X197872142Y-91783333D01*
X197967380Y-91830952D01*
X198014999Y-91878571D01*
X198062618Y-91973809D01*
X198062618Y-92211904D01*
X198014999Y-92307142D01*
X197967380Y-92354761D01*
X197872142Y-92402380D01*
X197586428Y-92402380D01*
X197491190Y-92354761D01*
X197443571Y-92307142D01*
G04 #@! TO.C,D14*
X253542380Y-121184285D02*
X252542380Y-121184285D01*
X252542380Y-120946190D01*
X252590000Y-120803333D01*
X252685238Y-120708095D01*
X252780476Y-120660476D01*
X252970952Y-120612857D01*
X253113809Y-120612857D01*
X253304285Y-120660476D01*
X253399523Y-120708095D01*
X253494761Y-120803333D01*
X253542380Y-120946190D01*
X253542380Y-121184285D01*
X253542380Y-119660476D02*
X253542380Y-120231904D01*
X253542380Y-119946190D02*
X252542380Y-119946190D01*
X252685238Y-120041428D01*
X252780476Y-120136666D01*
X252828095Y-120231904D01*
X252875714Y-118803333D02*
X253542380Y-118803333D01*
X252494761Y-119041428D02*
X253209047Y-119279523D01*
X253209047Y-118660476D01*
G04 #@! TO.C,U5*
X204838095Y-88852380D02*
X204838095Y-89661904D01*
X204885714Y-89757142D01*
X204933333Y-89804761D01*
X205028571Y-89852380D01*
X205219047Y-89852380D01*
X205314285Y-89804761D01*
X205361904Y-89757142D01*
X205409523Y-89661904D01*
X205409523Y-88852380D01*
X206361904Y-88852380D02*
X205885714Y-88852380D01*
X205838095Y-89328571D01*
X205885714Y-89280952D01*
X205980952Y-89233333D01*
X206219047Y-89233333D01*
X206314285Y-89280952D01*
X206361904Y-89328571D01*
X206409523Y-89423809D01*
X206409523Y-89661904D01*
X206361904Y-89757142D01*
X206314285Y-89804761D01*
X206219047Y-89852380D01*
X205980952Y-89852380D01*
X205885714Y-89804761D01*
X205838095Y-89757142D01*
G04 #@! TO.C,R8*
X222802380Y-131216666D02*
X222326190Y-131550000D01*
X222802380Y-131788095D02*
X221802380Y-131788095D01*
X221802380Y-131407142D01*
X221850000Y-131311904D01*
X221897619Y-131264285D01*
X221992857Y-131216666D01*
X222135714Y-131216666D01*
X222230952Y-131264285D01*
X222278571Y-131311904D01*
X222326190Y-131407142D01*
X222326190Y-131788095D01*
X222230952Y-130645238D02*
X222183333Y-130740476D01*
X222135714Y-130788095D01*
X222040476Y-130835714D01*
X221992857Y-130835714D01*
X221897619Y-130788095D01*
X221850000Y-130740476D01*
X221802380Y-130645238D01*
X221802380Y-130454761D01*
X221850000Y-130359523D01*
X221897619Y-130311904D01*
X221992857Y-130264285D01*
X222040476Y-130264285D01*
X222135714Y-130311904D01*
X222183333Y-130359523D01*
X222230952Y-130454761D01*
X222230952Y-130645238D01*
X222278571Y-130740476D01*
X222326190Y-130788095D01*
X222421428Y-130835714D01*
X222611904Y-130835714D01*
X222707142Y-130788095D01*
X222754761Y-130740476D01*
X222802380Y-130645238D01*
X222802380Y-130454761D01*
X222754761Y-130359523D01*
X222707142Y-130311904D01*
X222611904Y-130264285D01*
X222421428Y-130264285D01*
X222326190Y-130311904D01*
X222278571Y-130359523D01*
X222230952Y-130454761D01*
G04 #@! TO.C,D3*
X145284655Y-80359843D02*
X144418629Y-80859843D01*
X144299581Y-80653647D01*
X144269392Y-80506119D01*
X144304252Y-80376022D01*
X144362921Y-80287163D01*
X144504069Y-80150686D01*
X144627786Y-80079257D01*
X144816553Y-80025259D01*
X144922841Y-80018879D01*
X145052939Y-80053738D01*
X145165607Y-80153647D01*
X145284655Y-80359843D01*
X143966248Y-80076296D02*
X143656724Y-79540185D01*
X144153305Y-79638384D01*
X144081877Y-79514667D01*
X144075497Y-79408378D01*
X144092927Y-79343330D01*
X144151596Y-79254471D01*
X144357793Y-79135424D01*
X144464081Y-79129044D01*
X144529129Y-79146474D01*
X144617988Y-79205143D01*
X144760845Y-79452579D01*
X144767225Y-79558867D01*
X144749795Y-79623916D01*
X140735441Y-80880378D02*
X141021155Y-81375250D01*
X140878298Y-81127814D02*
X140012272Y-81627814D01*
X140183609Y-81638864D01*
X140313707Y-81673724D01*
X140402565Y-81732393D01*
G04 #@! TO.C,D18*
X193129729Y-126102894D02*
X192310577Y-125529318D01*
X192447142Y-125334282D01*
X192568089Y-125244573D01*
X192700730Y-125221185D01*
X192806058Y-125236804D01*
X192989400Y-125307049D01*
X193106421Y-125388989D01*
X193235137Y-125537249D01*
X193285839Y-125630882D01*
X193309227Y-125763523D01*
X193266294Y-125907858D01*
X193129729Y-126102894D01*
X194003750Y-124854662D02*
X193675992Y-125322749D01*
X193839871Y-125088706D02*
X193020719Y-124515129D01*
X193083114Y-124675083D01*
X193106502Y-124807724D01*
X193090883Y-124913052D01*
X193863421Y-124058818D02*
X193769787Y-124109519D01*
X193703467Y-124121213D01*
X193598139Y-124105594D01*
X193559132Y-124078281D01*
X193508431Y-123984647D01*
X193496737Y-123918327D01*
X193512356Y-123812999D01*
X193621608Y-123656970D01*
X193715242Y-123606269D01*
X193781562Y-123594575D01*
X193886890Y-123610194D01*
X193925897Y-123637507D01*
X193976599Y-123731141D01*
X193988293Y-123797461D01*
X193972674Y-123902789D01*
X193863421Y-124058818D01*
X193847802Y-124164145D01*
X193859496Y-124230466D01*
X193910197Y-124324099D01*
X194066226Y-124433352D01*
X194171554Y-124448971D01*
X194237874Y-124437277D01*
X194331508Y-124386576D01*
X194440760Y-124230547D01*
X194456380Y-124125219D01*
X194444685Y-124058899D01*
X194393984Y-123965265D01*
X194237955Y-123856012D01*
X194132628Y-123840393D01*
X194066307Y-123852087D01*
X193972674Y-123902789D01*
G04 #@! TO.C,U3*
X263852380Y-100974404D02*
X264661904Y-100974404D01*
X264757142Y-100926785D01*
X264804761Y-100879166D01*
X264852380Y-100783928D01*
X264852380Y-100593452D01*
X264804761Y-100498214D01*
X264757142Y-100450595D01*
X264661904Y-100402976D01*
X263852380Y-100402976D01*
X263852380Y-100022023D02*
X263852380Y-99402976D01*
X264233333Y-99736309D01*
X264233333Y-99593452D01*
X264280952Y-99498214D01*
X264328571Y-99450595D01*
X264423809Y-99402976D01*
X264661904Y-99402976D01*
X264757142Y-99450595D01*
X264804761Y-99498214D01*
X264852380Y-99593452D01*
X264852380Y-99879166D01*
X264804761Y-99974404D01*
X264757142Y-100022023D01*
G04 #@! TO.C,R7*
X189883333Y-103402380D02*
X189550000Y-102926190D01*
X189311904Y-103402380D02*
X189311904Y-102402380D01*
X189692857Y-102402380D01*
X189788095Y-102450000D01*
X189835714Y-102497619D01*
X189883333Y-102592857D01*
X189883333Y-102735714D01*
X189835714Y-102830952D01*
X189788095Y-102878571D01*
X189692857Y-102926190D01*
X189311904Y-102926190D01*
X190216666Y-102402380D02*
X190883333Y-102402380D01*
X190454761Y-103402380D01*
G04 #@! TO.C,R29*
X175622380Y-114667857D02*
X175146190Y-115001190D01*
X175622380Y-115239285D02*
X174622380Y-115239285D01*
X174622380Y-114858333D01*
X174670000Y-114763095D01*
X174717619Y-114715476D01*
X174812857Y-114667857D01*
X174955714Y-114667857D01*
X175050952Y-114715476D01*
X175098571Y-114763095D01*
X175146190Y-114858333D01*
X175146190Y-115239285D01*
X174717619Y-114286904D02*
X174670000Y-114239285D01*
X174622380Y-114144047D01*
X174622380Y-113905952D01*
X174670000Y-113810714D01*
X174717619Y-113763095D01*
X174812857Y-113715476D01*
X174908095Y-113715476D01*
X175050952Y-113763095D01*
X175622380Y-114334523D01*
X175622380Y-113715476D01*
X175622380Y-113239285D02*
X175622380Y-113048809D01*
X175574761Y-112953571D01*
X175527142Y-112905952D01*
X175384285Y-112810714D01*
X175193809Y-112763095D01*
X174812857Y-112763095D01*
X174717619Y-112810714D01*
X174670000Y-112858333D01*
X174622380Y-112953571D01*
X174622380Y-113144047D01*
X174670000Y-113239285D01*
X174717619Y-113286904D01*
X174812857Y-113334523D01*
X175050952Y-113334523D01*
X175146190Y-113286904D01*
X175193809Y-113239285D01*
X175241428Y-113144047D01*
X175241428Y-112953571D01*
X175193809Y-112858333D01*
X175146190Y-112810714D01*
X175050952Y-112763095D01*
G04 #@! TO.C,D6*
X119560155Y-145284655D02*
X119060155Y-144418629D01*
X119266351Y-144299581D01*
X119413879Y-144269392D01*
X119543976Y-144304252D01*
X119632835Y-144362921D01*
X119769312Y-144504069D01*
X119840741Y-144627786D01*
X119894739Y-144816553D01*
X119901119Y-144922841D01*
X119866260Y-145052939D01*
X119766351Y-145165607D01*
X119560155Y-145284655D01*
X120297334Y-143704343D02*
X120132377Y-143799581D01*
X120073708Y-143888440D01*
X120056278Y-143953489D01*
X120045228Y-144124826D01*
X120099227Y-144313592D01*
X120289703Y-144643507D01*
X120378561Y-144702176D01*
X120443610Y-144719606D01*
X120549898Y-144713226D01*
X120714855Y-144617988D01*
X120773524Y-144529129D01*
X120790954Y-144464081D01*
X120784574Y-144357793D01*
X120665527Y-144151596D01*
X120576668Y-144092927D01*
X120511620Y-144075497D01*
X120405331Y-144081877D01*
X120240374Y-144177115D01*
X120181705Y-144265973D01*
X120164275Y-144331022D01*
X120170655Y-144437310D01*
X119039620Y-140735441D02*
X118544748Y-141021155D01*
X118792184Y-140878298D02*
X118292184Y-140012272D01*
X118281134Y-140183609D01*
X118246274Y-140313707D01*
X118187605Y-140402565D01*
G04 #@! TO.C,C16*
X120605302Y-62672133D02*
X120670350Y-62654704D01*
X120817878Y-62684893D01*
X120900356Y-62732512D01*
X121000265Y-62845180D01*
X121035124Y-62975277D01*
X121028745Y-63081565D01*
X120974746Y-63270332D01*
X120903317Y-63394050D01*
X120766840Y-63535198D01*
X120677982Y-63593867D01*
X120547884Y-63628726D01*
X120400356Y-63598537D01*
X120317878Y-63550918D01*
X120217969Y-63438250D01*
X120200540Y-63373201D01*
X119828134Y-62113464D02*
X120323006Y-62399178D01*
X120075570Y-62256321D02*
X119575570Y-63122347D01*
X119729478Y-63046248D01*
X119859575Y-63011388D01*
X119965863Y-63017768D01*
X118585827Y-62550918D02*
X118750784Y-62646156D01*
X118857072Y-62652536D01*
X118922121Y-62635106D01*
X119076028Y-62559007D01*
X119212506Y-62417860D01*
X119402982Y-62087945D01*
X119409362Y-61981657D01*
X119391932Y-61916608D01*
X119333263Y-61827750D01*
X119168306Y-61732512D01*
X119062017Y-61726132D01*
X118996969Y-61743562D01*
X118908110Y-61802231D01*
X118789063Y-62008427D01*
X118782683Y-62114716D01*
X118800113Y-62179764D01*
X118858782Y-62268623D01*
X119023739Y-62363861D01*
X119130027Y-62370241D01*
X119195076Y-62352811D01*
X119283934Y-62294142D01*
G04 #@! TO.C,R12*
X238788392Y-142227380D02*
X238455059Y-141751190D01*
X238216964Y-142227380D02*
X238216964Y-141227380D01*
X238597916Y-141227380D01*
X238693154Y-141275000D01*
X238740773Y-141322619D01*
X238788392Y-141417857D01*
X238788392Y-141560714D01*
X238740773Y-141655952D01*
X238693154Y-141703571D01*
X238597916Y-141751190D01*
X238216964Y-141751190D01*
X239740773Y-142227380D02*
X239169345Y-142227380D01*
X239455059Y-142227380D02*
X239455059Y-141227380D01*
X239359821Y-141370238D01*
X239264583Y-141465476D01*
X239169345Y-141513095D01*
X240121726Y-141322619D02*
X240169345Y-141275000D01*
X240264583Y-141227380D01*
X240502678Y-141227380D01*
X240597916Y-141275000D01*
X240645535Y-141322619D01*
X240693154Y-141417857D01*
X240693154Y-141513095D01*
X240645535Y-141655952D01*
X240074107Y-142227380D01*
X240693154Y-142227380D01*
G04 #@! TO.C,C1*
X226483333Y-134257142D02*
X226435714Y-134304761D01*
X226292857Y-134352380D01*
X226197619Y-134352380D01*
X226054761Y-134304761D01*
X225959523Y-134209523D01*
X225911904Y-134114285D01*
X225864285Y-133923809D01*
X225864285Y-133780952D01*
X225911904Y-133590476D01*
X225959523Y-133495238D01*
X226054761Y-133400000D01*
X226197619Y-133352380D01*
X226292857Y-133352380D01*
X226435714Y-133400000D01*
X226483333Y-133447619D01*
X227435714Y-134352380D02*
X226864285Y-134352380D01*
X227150000Y-134352380D02*
X227150000Y-133352380D01*
X227054761Y-133495238D01*
X226959523Y-133590476D01*
X226864285Y-133638095D01*
G04 #@! TO.C,R22*
X196107856Y-95552380D02*
X195774523Y-95076190D01*
X195536428Y-95552380D02*
X195536428Y-94552380D01*
X195917380Y-94552380D01*
X196012618Y-94600000D01*
X196060237Y-94647619D01*
X196107856Y-94742857D01*
X196107856Y-94885714D01*
X196060237Y-94980952D01*
X196012618Y-95028571D01*
X195917380Y-95076190D01*
X195536428Y-95076190D01*
X196488809Y-94647619D02*
X196536428Y-94600000D01*
X196631666Y-94552380D01*
X196869761Y-94552380D01*
X196964999Y-94600000D01*
X197012618Y-94647619D01*
X197060237Y-94742857D01*
X197060237Y-94838095D01*
X197012618Y-94980952D01*
X196441190Y-95552380D01*
X197060237Y-95552380D01*
X197441190Y-94647619D02*
X197488809Y-94600000D01*
X197584047Y-94552380D01*
X197822142Y-94552380D01*
X197917380Y-94600000D01*
X197964999Y-94647619D01*
X198012618Y-94742857D01*
X198012618Y-94838095D01*
X197964999Y-94980952D01*
X197393571Y-95552380D01*
X198012618Y-95552380D01*
G04 #@! TO.C,C9*
X177976955Y-111846132D02*
X177929336Y-111893751D01*
X177786479Y-111941370D01*
X177691241Y-111941370D01*
X177548383Y-111893751D01*
X177453145Y-111798513D01*
X177405526Y-111703275D01*
X177357907Y-111512799D01*
X177357907Y-111369942D01*
X177405526Y-111179466D01*
X177453145Y-111084228D01*
X177548383Y-110988990D01*
X177691241Y-110941370D01*
X177786479Y-110941370D01*
X177929336Y-110988990D01*
X177976955Y-111036609D01*
X178453145Y-111941370D02*
X178643622Y-111941370D01*
X178738860Y-111893751D01*
X178786479Y-111846132D01*
X178881717Y-111703275D01*
X178929336Y-111512799D01*
X178929336Y-111131847D01*
X178881717Y-111036609D01*
X178834098Y-110988990D01*
X178738860Y-110941370D01*
X178548383Y-110941370D01*
X178453145Y-110988990D01*
X178405526Y-111036609D01*
X178357907Y-111131847D01*
X178357907Y-111369942D01*
X178405526Y-111465180D01*
X178453145Y-111512799D01*
X178548383Y-111560418D01*
X178738860Y-111560418D01*
X178834098Y-111512799D01*
X178881717Y-111465180D01*
X178929336Y-111369942D01*
G04 #@! TO.C,R18*
X210959642Y-91032380D02*
X210626309Y-90556190D01*
X210388214Y-91032380D02*
X210388214Y-90032380D01*
X210769166Y-90032380D01*
X210864404Y-90080000D01*
X210912023Y-90127619D01*
X210959642Y-90222857D01*
X210959642Y-90365714D01*
X210912023Y-90460952D01*
X210864404Y-90508571D01*
X210769166Y-90556190D01*
X210388214Y-90556190D01*
X211912023Y-91032380D02*
X211340595Y-91032380D01*
X211626309Y-91032380D02*
X211626309Y-90032380D01*
X211531071Y-90175238D01*
X211435833Y-90270476D01*
X211340595Y-90318095D01*
X212483452Y-90460952D02*
X212388214Y-90413333D01*
X212340595Y-90365714D01*
X212292976Y-90270476D01*
X212292976Y-90222857D01*
X212340595Y-90127619D01*
X212388214Y-90080000D01*
X212483452Y-90032380D01*
X212673928Y-90032380D01*
X212769166Y-90080000D01*
X212816785Y-90127619D01*
X212864404Y-90222857D01*
X212864404Y-90270476D01*
X212816785Y-90365714D01*
X212769166Y-90413333D01*
X212673928Y-90460952D01*
X212483452Y-90460952D01*
X212388214Y-90508571D01*
X212340595Y-90556190D01*
X212292976Y-90651428D01*
X212292976Y-90841904D01*
X212340595Y-90937142D01*
X212388214Y-90984761D01*
X212483452Y-91032380D01*
X212673928Y-91032380D01*
X212769166Y-90984761D01*
X212816785Y-90937142D01*
X212864404Y-90841904D01*
X212864404Y-90651428D01*
X212816785Y-90556190D01*
X212769166Y-90508571D01*
X212673928Y-90460952D01*
G04 #@! TO.C,U1*
X172288095Y-91852380D02*
X172288095Y-92661904D01*
X172335714Y-92757142D01*
X172383333Y-92804761D01*
X172478571Y-92852380D01*
X172669047Y-92852380D01*
X172764285Y-92804761D01*
X172811904Y-92757142D01*
X172859523Y-92661904D01*
X172859523Y-91852380D01*
X173859523Y-92852380D02*
X173288095Y-92852380D01*
X173573809Y-92852380D02*
X173573809Y-91852380D01*
X173478571Y-91995238D01*
X173383333Y-92090476D01*
X173288095Y-92138095D01*
X173666666Y-105161904D02*
X173666666Y-104685714D01*
X173952380Y-105257142D02*
X172952380Y-104923809D01*
X173952380Y-104590476D01*
X173285714Y-104257142D02*
X173952380Y-104257142D01*
X173380952Y-104257142D02*
X173333333Y-104209523D01*
X173285714Y-104114285D01*
X173285714Y-103971428D01*
X173333333Y-103876190D01*
X173428571Y-103828571D01*
X173952380Y-103828571D01*
X173285714Y-103495238D02*
X173285714Y-103114285D01*
X172952380Y-103352380D02*
X173809523Y-103352380D01*
X173904761Y-103304761D01*
X173952380Y-103209523D01*
X173952380Y-103114285D01*
X173904761Y-102400000D02*
X173952380Y-102495238D01*
X173952380Y-102685714D01*
X173904761Y-102780952D01*
X173809523Y-102828571D01*
X173428571Y-102828571D01*
X173333333Y-102780952D01*
X173285714Y-102685714D01*
X173285714Y-102495238D01*
X173333333Y-102400000D01*
X173428571Y-102352380D01*
X173523809Y-102352380D01*
X173619047Y-102828571D01*
X173285714Y-101923809D02*
X173952380Y-101923809D01*
X173380952Y-101923809D02*
X173333333Y-101876190D01*
X173285714Y-101780952D01*
X173285714Y-101638095D01*
X173333333Y-101542857D01*
X173428571Y-101495238D01*
X173952380Y-101495238D01*
X173285714Y-101019047D02*
X173952380Y-101019047D01*
X173380952Y-101019047D02*
X173333333Y-100971428D01*
X173285714Y-100876190D01*
X173285714Y-100733333D01*
X173333333Y-100638095D01*
X173428571Y-100590476D01*
X173952380Y-100590476D01*
X173952380Y-99685714D02*
X173428571Y-99685714D01*
X173333333Y-99733333D01*
X173285714Y-99828571D01*
X173285714Y-100019047D01*
X173333333Y-100114285D01*
X173904761Y-99685714D02*
X173952380Y-99780952D01*
X173952380Y-100019047D01*
X173904761Y-100114285D01*
X173809523Y-100161904D01*
X173714285Y-100161904D01*
X173619047Y-100114285D01*
X173571428Y-100019047D01*
X173571428Y-99780952D01*
X173523809Y-99685714D01*
X173666666Y-98495238D02*
X173666666Y-98019047D01*
X173952380Y-98590476D02*
X172952380Y-98257142D01*
X173952380Y-97923809D01*
X173952380Y-97590476D02*
X173285714Y-97590476D01*
X173476190Y-97590476D02*
X173380952Y-97542857D01*
X173333333Y-97495238D01*
X173285714Y-97400000D01*
X173285714Y-97304761D01*
X173904761Y-96590476D02*
X173952380Y-96685714D01*
X173952380Y-96876190D01*
X173904761Y-96971428D01*
X173809523Y-97019047D01*
X173428571Y-97019047D01*
X173333333Y-96971428D01*
X173285714Y-96876190D01*
X173285714Y-96685714D01*
X173333333Y-96590476D01*
X173428571Y-96542857D01*
X173523809Y-96542857D01*
X173619047Y-97019047D01*
X173952380Y-95685714D02*
X173428571Y-95685714D01*
X173333333Y-95733333D01*
X173285714Y-95828571D01*
X173285714Y-96019047D01*
X173333333Y-96114285D01*
X173904761Y-95685714D02*
X173952380Y-95780952D01*
X173952380Y-96019047D01*
X173904761Y-96114285D01*
X173809523Y-96161904D01*
X173714285Y-96161904D01*
X173619047Y-96114285D01*
X173571428Y-96019047D01*
X173571428Y-95780952D01*
X173523809Y-95685714D01*
G04 #@! TO.C,C22*
X142477142Y-98967857D02*
X142524761Y-99015476D01*
X142572380Y-99158333D01*
X142572380Y-99253571D01*
X142524761Y-99396428D01*
X142429523Y-99491666D01*
X142334285Y-99539285D01*
X142143809Y-99586904D01*
X142000952Y-99586904D01*
X141810476Y-99539285D01*
X141715238Y-99491666D01*
X141620000Y-99396428D01*
X141572380Y-99253571D01*
X141572380Y-99158333D01*
X141620000Y-99015476D01*
X141667619Y-98967857D01*
X141667619Y-98586904D02*
X141620000Y-98539285D01*
X141572380Y-98444047D01*
X141572380Y-98205952D01*
X141620000Y-98110714D01*
X141667619Y-98063095D01*
X141762857Y-98015476D01*
X141858095Y-98015476D01*
X142000952Y-98063095D01*
X142572380Y-98634523D01*
X142572380Y-98015476D01*
X141667619Y-97634523D02*
X141620000Y-97586904D01*
X141572380Y-97491666D01*
X141572380Y-97253571D01*
X141620000Y-97158333D01*
X141667619Y-97110714D01*
X141762857Y-97063095D01*
X141858095Y-97063095D01*
X142000952Y-97110714D01*
X142572380Y-97682142D01*
X142572380Y-97063095D01*
G04 #@! TO.C,R20*
X196282142Y-93952380D02*
X195948809Y-93476190D01*
X195710714Y-93952380D02*
X195710714Y-92952380D01*
X196091666Y-92952380D01*
X196186904Y-93000000D01*
X196234523Y-93047619D01*
X196282142Y-93142857D01*
X196282142Y-93285714D01*
X196234523Y-93380952D01*
X196186904Y-93428571D01*
X196091666Y-93476190D01*
X195710714Y-93476190D01*
X196663095Y-93047619D02*
X196710714Y-93000000D01*
X196805952Y-92952380D01*
X197044047Y-92952380D01*
X197139285Y-93000000D01*
X197186904Y-93047619D01*
X197234523Y-93142857D01*
X197234523Y-93238095D01*
X197186904Y-93380952D01*
X196615476Y-93952380D01*
X197234523Y-93952380D01*
X197853571Y-92952380D02*
X197948809Y-92952380D01*
X198044047Y-93000000D01*
X198091666Y-93047619D01*
X198139285Y-93142857D01*
X198186904Y-93333333D01*
X198186904Y-93571428D01*
X198139285Y-93761904D01*
X198091666Y-93857142D01*
X198044047Y-93904761D01*
X197948809Y-93952380D01*
X197853571Y-93952380D01*
X197758333Y-93904761D01*
X197710714Y-93857142D01*
X197663095Y-93761904D01*
X197615476Y-93571428D01*
X197615476Y-93333333D01*
X197663095Y-93142857D01*
X197710714Y-93047619D01*
X197758333Y-93000000D01*
X197853571Y-92952380D01*
G04 #@! TO.C,C23*
X97687142Y-57997142D02*
X97639523Y-58044761D01*
X97496666Y-58092380D01*
X97401428Y-58092380D01*
X97258571Y-58044761D01*
X97163333Y-57949523D01*
X97115714Y-57854285D01*
X97068095Y-57663809D01*
X97068095Y-57520952D01*
X97115714Y-57330476D01*
X97163333Y-57235238D01*
X97258571Y-57140000D01*
X97401428Y-57092380D01*
X97496666Y-57092380D01*
X97639523Y-57140000D01*
X97687142Y-57187619D01*
X98068095Y-57187619D02*
X98115714Y-57140000D01*
X98210952Y-57092380D01*
X98449047Y-57092380D01*
X98544285Y-57140000D01*
X98591904Y-57187619D01*
X98639523Y-57282857D01*
X98639523Y-57378095D01*
X98591904Y-57520952D01*
X98020476Y-58092380D01*
X98639523Y-58092380D01*
X98972857Y-57092380D02*
X99591904Y-57092380D01*
X99258571Y-57473333D01*
X99401428Y-57473333D01*
X99496666Y-57520952D01*
X99544285Y-57568571D01*
X99591904Y-57663809D01*
X99591904Y-57901904D01*
X99544285Y-57997142D01*
X99496666Y-58044761D01*
X99401428Y-58092380D01*
X99115714Y-58092380D01*
X99020476Y-58044761D01*
X98972857Y-57997142D01*
G04 #@! TO.C,C18*
X65070723Y-123168159D02*
X65135772Y-123185588D01*
X65248440Y-123285497D01*
X65296059Y-123367975D01*
X65326248Y-123515503D01*
X65291388Y-123645601D01*
X65232719Y-123734459D01*
X65091572Y-123870936D01*
X64967854Y-123942365D01*
X64779087Y-123996364D01*
X64672799Y-124002743D01*
X64542701Y-123967884D01*
X64430033Y-123867975D01*
X64382414Y-123785497D01*
X64352225Y-123637969D01*
X64369655Y-123572921D01*
X64677011Y-122295754D02*
X64962725Y-122790625D01*
X64819868Y-122543189D02*
X63953843Y-123043189D01*
X64125180Y-123054239D01*
X64255277Y-123089099D01*
X64344136Y-123147768D01*
X63896425Y-122086596D02*
X63902805Y-122192884D01*
X63885375Y-122257933D01*
X63826706Y-122346791D01*
X63785467Y-122370601D01*
X63679178Y-122376981D01*
X63614130Y-122359551D01*
X63525271Y-122300882D01*
X63430033Y-122135925D01*
X63423653Y-122029637D01*
X63441083Y-121964588D01*
X63499752Y-121875729D01*
X63540992Y-121851920D01*
X63647280Y-121845540D01*
X63712329Y-121862970D01*
X63801187Y-121921639D01*
X63896425Y-122086596D01*
X63985283Y-122145265D01*
X64050332Y-122162695D01*
X64156620Y-122156315D01*
X64321578Y-122061077D01*
X64380247Y-121972219D01*
X64397676Y-121907170D01*
X64391297Y-121800882D01*
X64296059Y-121635925D01*
X64207200Y-121577256D01*
X64142151Y-121559826D01*
X64035863Y-121566206D01*
X63870906Y-121661444D01*
X63812237Y-121750302D01*
X63794807Y-121815351D01*
X63801187Y-121921639D01*
G04 #@! TO.C,C5*
X222433333Y-97257142D02*
X222385714Y-97304761D01*
X222242857Y-97352380D01*
X222147619Y-97352380D01*
X222004761Y-97304761D01*
X221909523Y-97209523D01*
X221861904Y-97114285D01*
X221814285Y-96923809D01*
X221814285Y-96780952D01*
X221861904Y-96590476D01*
X221909523Y-96495238D01*
X222004761Y-96400000D01*
X222147619Y-96352380D01*
X222242857Y-96352380D01*
X222385714Y-96400000D01*
X222433333Y-96447619D01*
X223338095Y-96352380D02*
X222861904Y-96352380D01*
X222814285Y-96828571D01*
X222861904Y-96780952D01*
X222957142Y-96733333D01*
X223195238Y-96733333D01*
X223290476Y-96780952D01*
X223338095Y-96828571D01*
X223385714Y-96923809D01*
X223385714Y-97161904D01*
X223338095Y-97257142D01*
X223290476Y-97304761D01*
X223195238Y-97352380D01*
X222957142Y-97352380D01*
X222861904Y-97304761D01*
X222814285Y-97257142D01*
G04 #@! TO.C,R2*
X198940028Y-132439918D02*
X198939947Y-133021182D01*
X199408115Y-132767676D02*
X198834538Y-133586828D01*
X198522480Y-133368322D01*
X198471779Y-133274689D01*
X198460085Y-133208369D01*
X198475704Y-133103041D01*
X198557644Y-132986019D01*
X198651277Y-132935318D01*
X198717598Y-132923624D01*
X198822925Y-132939243D01*
X199134983Y-133157748D01*
X198109020Y-132962550D02*
X198042699Y-132974244D01*
X197937372Y-132958625D01*
X197742336Y-132822059D01*
X197691634Y-132728426D01*
X197679940Y-132662105D01*
X197695559Y-132556778D01*
X197750186Y-132478763D01*
X197871132Y-132389055D01*
X198666977Y-132248726D01*
X198159883Y-131893655D01*
G04 #@! TO.C,BT1*
X238414285Y-139828571D02*
X238557142Y-139876190D01*
X238604761Y-139923809D01*
X238652380Y-140019047D01*
X238652380Y-140161904D01*
X238604761Y-140257142D01*
X238557142Y-140304761D01*
X238461904Y-140352380D01*
X238080952Y-140352380D01*
X238080952Y-139352380D01*
X238414285Y-139352380D01*
X238509523Y-139400000D01*
X238557142Y-139447619D01*
X238604761Y-139542857D01*
X238604761Y-139638095D01*
X238557142Y-139733333D01*
X238509523Y-139780952D01*
X238414285Y-139828571D01*
X238080952Y-139828571D01*
X238938095Y-139352380D02*
X239509523Y-139352380D01*
X239223809Y-140352380D02*
X239223809Y-139352380D01*
X240366666Y-140352380D02*
X239795238Y-140352380D01*
X240080952Y-140352380D02*
X240080952Y-139352380D01*
X239985714Y-139495238D01*
X239890476Y-139590476D01*
X239795238Y-139638095D01*
G04 #@! TO.C,Q2*
X217104761Y-101297619D02*
X217009523Y-101250000D01*
X216914285Y-101154761D01*
X216771428Y-101011904D01*
X216676190Y-100964285D01*
X216580952Y-100964285D01*
X216628571Y-101202380D02*
X216533333Y-101154761D01*
X216438095Y-101059523D01*
X216390476Y-100869047D01*
X216390476Y-100535714D01*
X216438095Y-100345238D01*
X216533333Y-100250000D01*
X216628571Y-100202380D01*
X216819047Y-100202380D01*
X216914285Y-100250000D01*
X217009523Y-100345238D01*
X217057142Y-100535714D01*
X217057142Y-100869047D01*
X217009523Y-101059523D01*
X216914285Y-101154761D01*
X216819047Y-101202380D01*
X216628571Y-101202380D01*
X217438095Y-100297619D02*
X217485714Y-100250000D01*
X217580952Y-100202380D01*
X217819047Y-100202380D01*
X217914285Y-100250000D01*
X217961904Y-100297619D01*
X218009523Y-100392857D01*
X218009523Y-100488095D01*
X217961904Y-100630952D01*
X217390476Y-101202380D01*
X218009523Y-101202380D01*
G04 #@! TO.C,D24*
X193820421Y-128885648D02*
X193246845Y-129704800D01*
X193051809Y-129568235D01*
X192962100Y-129447288D01*
X192938712Y-129314647D01*
X192954331Y-129209319D01*
X193024576Y-129025977D01*
X193106516Y-128908956D01*
X193254776Y-128780240D01*
X193348409Y-128729538D01*
X193481050Y-128706150D01*
X193625385Y-128749083D01*
X193820421Y-128885648D01*
X192521326Y-129080523D02*
X192455006Y-129092217D01*
X192349678Y-129076598D01*
X192154642Y-128940032D01*
X192103941Y-128846398D01*
X192092247Y-128780078D01*
X192107866Y-128674750D01*
X192162492Y-128596736D01*
X192283439Y-128507027D01*
X193079284Y-128366698D01*
X192572189Y-128011627D01*
X191487675Y-128066092D02*
X191870059Y-127519990D01*
X191464206Y-128514715D02*
X192068939Y-128066173D01*
X191561845Y-127711101D01*
G04 #@! TO.C,SW1*
X209203347Y-135679470D02*
X209306879Y-135570122D01*
X209407502Y-135354334D01*
X209404594Y-135247895D01*
X209381561Y-135184612D01*
X209315371Y-135101205D01*
X209229056Y-135060956D01*
X209122616Y-135063864D01*
X209059334Y-135086897D01*
X208975927Y-135153087D01*
X208852271Y-135305593D01*
X208768864Y-135371783D01*
X208705582Y-135394816D01*
X208599142Y-135397724D01*
X208512827Y-135357475D01*
X208446637Y-135274068D01*
X208423604Y-135210786D01*
X208420696Y-135104346D01*
X208521319Y-134888558D01*
X208624851Y-134779211D01*
X208722566Y-134456983D02*
X209729497Y-134663814D01*
X209162633Y-134189314D01*
X209890495Y-134318554D01*
X209084810Y-133680148D01*
X210373487Y-133282774D02*
X210131991Y-133800664D01*
X210252739Y-133541719D02*
X209346431Y-133119100D01*
X209435654Y-133265789D01*
X209481720Y-133392354D01*
X209484628Y-133498794D01*
G04 #@! TO.C,Q7*
X256522619Y-91670238D02*
X256475000Y-91765476D01*
X256379761Y-91860714D01*
X256236904Y-92003571D01*
X256189285Y-92098809D01*
X256189285Y-92194047D01*
X256427380Y-92146428D02*
X256379761Y-92241666D01*
X256284523Y-92336904D01*
X256094047Y-92384523D01*
X255760714Y-92384523D01*
X255570238Y-92336904D01*
X255475000Y-92241666D01*
X255427380Y-92146428D01*
X255427380Y-91955952D01*
X255475000Y-91860714D01*
X255570238Y-91765476D01*
X255760714Y-91717857D01*
X256094047Y-91717857D01*
X256284523Y-91765476D01*
X256379761Y-91860714D01*
X256427380Y-91955952D01*
X256427380Y-92146428D01*
X255427380Y-91384523D02*
X255427380Y-90717857D01*
X256427380Y-91146428D01*
G04 #@! TO.C,R10*
X263252380Y-109517857D02*
X262776190Y-109851190D01*
X263252380Y-110089285D02*
X262252380Y-110089285D01*
X262252380Y-109708333D01*
X262300000Y-109613095D01*
X262347619Y-109565476D01*
X262442857Y-109517857D01*
X262585714Y-109517857D01*
X262680952Y-109565476D01*
X262728571Y-109613095D01*
X262776190Y-109708333D01*
X262776190Y-110089285D01*
X263252380Y-108565476D02*
X263252380Y-109136904D01*
X263252380Y-108851190D02*
X262252380Y-108851190D01*
X262395238Y-108946428D01*
X262490476Y-109041666D01*
X262538095Y-109136904D01*
X262252380Y-107946428D02*
X262252380Y-107851190D01*
X262300000Y-107755952D01*
X262347619Y-107708333D01*
X262442857Y-107660714D01*
X262633333Y-107613095D01*
X262871428Y-107613095D01*
X263061904Y-107660714D01*
X263157142Y-107708333D01*
X263204761Y-107755952D01*
X263252380Y-107851190D01*
X263252380Y-107946428D01*
X263204761Y-108041666D01*
X263157142Y-108089285D01*
X263061904Y-108136904D01*
X262871428Y-108184523D01*
X262633333Y-108184523D01*
X262442857Y-108136904D01*
X262347619Y-108089285D01*
X262300000Y-108041666D01*
X262252380Y-107946428D01*
G04 #@! TO.C,R5*
X181689267Y-108862614D02*
X181355934Y-108386424D01*
X181117838Y-108862614D02*
X181117838Y-107862614D01*
X181498791Y-107862614D01*
X181594029Y-107910234D01*
X181641648Y-107957853D01*
X181689267Y-108053091D01*
X181689267Y-108195948D01*
X181641648Y-108291186D01*
X181594029Y-108338805D01*
X181498791Y-108386424D01*
X181117838Y-108386424D01*
X182594029Y-107862614D02*
X182117838Y-107862614D01*
X182070219Y-108338805D01*
X182117838Y-108291186D01*
X182213076Y-108243567D01*
X182451172Y-108243567D01*
X182546410Y-108291186D01*
X182594029Y-108338805D01*
X182641648Y-108434043D01*
X182641648Y-108672138D01*
X182594029Y-108767376D01*
X182546410Y-108814995D01*
X182451172Y-108862614D01*
X182213076Y-108862614D01*
X182117838Y-108814995D01*
X182070219Y-108767376D01*
G04 #@! TO.C,C4*
X203757142Y-100916666D02*
X203804761Y-100964285D01*
X203852380Y-101107142D01*
X203852380Y-101202380D01*
X203804761Y-101345238D01*
X203709523Y-101440476D01*
X203614285Y-101488095D01*
X203423809Y-101535714D01*
X203280952Y-101535714D01*
X203090476Y-101488095D01*
X202995238Y-101440476D01*
X202900000Y-101345238D01*
X202852380Y-101202380D01*
X202852380Y-101107142D01*
X202900000Y-100964285D01*
X202947619Y-100916666D01*
X203185714Y-100059523D02*
X203852380Y-100059523D01*
X202804761Y-100297619D02*
X203519047Y-100535714D01*
X203519047Y-99916666D01*
G04 #@! TO.C,R19*
X196207142Y-97152380D02*
X195873809Y-96676190D01*
X195635714Y-97152380D02*
X195635714Y-96152380D01*
X196016666Y-96152380D01*
X196111904Y-96200000D01*
X196159523Y-96247619D01*
X196207142Y-96342857D01*
X196207142Y-96485714D01*
X196159523Y-96580952D01*
X196111904Y-96628571D01*
X196016666Y-96676190D01*
X195635714Y-96676190D01*
X197159523Y-97152380D02*
X196588095Y-97152380D01*
X196873809Y-97152380D02*
X196873809Y-96152380D01*
X196778571Y-96295238D01*
X196683333Y-96390476D01*
X196588095Y-96438095D01*
X197635714Y-97152380D02*
X197826190Y-97152380D01*
X197921428Y-97104761D01*
X197969047Y-97057142D01*
X198064285Y-96914285D01*
X198111904Y-96723809D01*
X198111904Y-96342857D01*
X198064285Y-96247619D01*
X198016666Y-96200000D01*
X197921428Y-96152380D01*
X197730952Y-96152380D01*
X197635714Y-96200000D01*
X197588095Y-96247619D01*
X197540476Y-96342857D01*
X197540476Y-96580952D01*
X197588095Y-96676190D01*
X197635714Y-96723809D01*
X197730952Y-96771428D01*
X197921428Y-96771428D01*
X198016666Y-96723809D01*
X198064285Y-96676190D01*
X198111904Y-96580952D01*
G04 #@! TO.C,C10*
X228707142Y-122832857D02*
X228754761Y-122880476D01*
X228802380Y-123023333D01*
X228802380Y-123118571D01*
X228754761Y-123261428D01*
X228659523Y-123356666D01*
X228564285Y-123404285D01*
X228373809Y-123451904D01*
X228230952Y-123451904D01*
X228040476Y-123404285D01*
X227945238Y-123356666D01*
X227850000Y-123261428D01*
X227802380Y-123118571D01*
X227802380Y-123023333D01*
X227850000Y-122880476D01*
X227897619Y-122832857D01*
X228802380Y-121880476D02*
X228802380Y-122451904D01*
X228802380Y-122166190D02*
X227802380Y-122166190D01*
X227945238Y-122261428D01*
X228040476Y-122356666D01*
X228088095Y-122451904D01*
X227802380Y-121261428D02*
X227802380Y-121166190D01*
X227850000Y-121070952D01*
X227897619Y-121023333D01*
X227992857Y-120975714D01*
X228183333Y-120928095D01*
X228421428Y-120928095D01*
X228611904Y-120975714D01*
X228707142Y-121023333D01*
X228754761Y-121070952D01*
X228802380Y-121166190D01*
X228802380Y-121261428D01*
X228754761Y-121356666D01*
X228707142Y-121404285D01*
X228611904Y-121451904D01*
X228421428Y-121499523D01*
X228183333Y-121499523D01*
X227992857Y-121451904D01*
X227897619Y-121404285D01*
X227850000Y-121356666D01*
X227802380Y-121261428D01*
G04 #@! TO.C,R1*
X190033333Y-98802380D02*
X189700000Y-98326190D01*
X189461904Y-98802380D02*
X189461904Y-97802380D01*
X189842857Y-97802380D01*
X189938095Y-97850000D01*
X189985714Y-97897619D01*
X190033333Y-97992857D01*
X190033333Y-98135714D01*
X189985714Y-98230952D01*
X189938095Y-98278571D01*
X189842857Y-98326190D01*
X189461904Y-98326190D01*
X190985714Y-98802380D02*
X190414285Y-98802380D01*
X190700000Y-98802380D02*
X190700000Y-97802380D01*
X190604761Y-97945238D01*
X190509523Y-98040476D01*
X190414285Y-98088095D01*
G04 #@! TO.C,C3*
X208807142Y-102766666D02*
X208854761Y-102814285D01*
X208902380Y-102957142D01*
X208902380Y-103052380D01*
X208854761Y-103195238D01*
X208759523Y-103290476D01*
X208664285Y-103338095D01*
X208473809Y-103385714D01*
X208330952Y-103385714D01*
X208140476Y-103338095D01*
X208045238Y-103290476D01*
X207950000Y-103195238D01*
X207902380Y-103052380D01*
X207902380Y-102957142D01*
X207950000Y-102814285D01*
X207997619Y-102766666D01*
X207902380Y-102433333D02*
X207902380Y-101814285D01*
X208283333Y-102147619D01*
X208283333Y-102004761D01*
X208330952Y-101909523D01*
X208378571Y-101861904D01*
X208473809Y-101814285D01*
X208711904Y-101814285D01*
X208807142Y-101861904D01*
X208854761Y-101909523D01*
X208902380Y-102004761D01*
X208902380Y-102290476D01*
X208854761Y-102385714D01*
X208807142Y-102433333D01*
G04 #@! TO.C,C2*
X185083333Y-109857142D02*
X185035714Y-109904761D01*
X184892857Y-109952380D01*
X184797619Y-109952380D01*
X184654761Y-109904761D01*
X184559523Y-109809523D01*
X184511904Y-109714285D01*
X184464285Y-109523809D01*
X184464285Y-109380952D01*
X184511904Y-109190476D01*
X184559523Y-109095238D01*
X184654761Y-109000000D01*
X184797619Y-108952380D01*
X184892857Y-108952380D01*
X185035714Y-109000000D01*
X185083333Y-109047619D01*
X185464285Y-109047619D02*
X185511904Y-109000000D01*
X185607142Y-108952380D01*
X185845238Y-108952380D01*
X185940476Y-109000000D01*
X185988095Y-109047619D01*
X186035714Y-109142857D01*
X186035714Y-109238095D01*
X185988095Y-109380952D01*
X185416666Y-109952380D01*
X186035714Y-109952380D01*
G04 #@! TO.C,D2*
X129412224Y-60323438D02*
X128912224Y-61189463D01*
X128706028Y-61070416D01*
X128606119Y-60957748D01*
X128571260Y-60827650D01*
X128577639Y-60721362D01*
X128631638Y-60532595D01*
X128703067Y-60408877D01*
X128839544Y-60267729D01*
X128928403Y-60209060D01*
X129058500Y-60174201D01*
X129206028Y-60204390D01*
X129412224Y-60323438D01*
X128135057Y-60630794D02*
X128070008Y-60648224D01*
X127963720Y-60641844D01*
X127757524Y-60522796D01*
X127698855Y-60433938D01*
X127681425Y-60368889D01*
X127687805Y-60262601D01*
X127735424Y-60180123D01*
X127848091Y-60080214D01*
X128628677Y-59871057D01*
X128092566Y-59561533D01*
X125732757Y-63048841D02*
X126227629Y-63334555D01*
X125980193Y-63191698D02*
X125480193Y-64057724D01*
X125634100Y-63981625D01*
X125764198Y-63946765D01*
X125870486Y-63953145D01*
G04 #@! TO.C,BTN5_LEFT1*
X64546666Y-90758571D02*
X64689523Y-90806190D01*
X64737142Y-90853809D01*
X64784761Y-90949047D01*
X64784761Y-91091904D01*
X64737142Y-91187142D01*
X64689523Y-91234761D01*
X64594285Y-91282380D01*
X64213333Y-91282380D01*
X64213333Y-90282380D01*
X64546666Y-90282380D01*
X64641904Y-90330000D01*
X64689523Y-90377619D01*
X64737142Y-90472857D01*
X64737142Y-90568095D01*
X64689523Y-90663333D01*
X64641904Y-90710952D01*
X64546666Y-90758571D01*
X64213333Y-90758571D01*
X65070476Y-90282380D02*
X65641904Y-90282380D01*
X65356190Y-91282380D02*
X65356190Y-90282380D01*
X65975238Y-91282380D02*
X65975238Y-90282380D01*
X66546666Y-91282380D01*
X66546666Y-90282380D01*
X67499047Y-90282380D02*
X67022857Y-90282380D01*
X66975238Y-90758571D01*
X67022857Y-90710952D01*
X67118095Y-90663333D01*
X67356190Y-90663333D01*
X67451428Y-90710952D01*
X67499047Y-90758571D01*
X67546666Y-90853809D01*
X67546666Y-91091904D01*
X67499047Y-91187142D01*
X67451428Y-91234761D01*
X67356190Y-91282380D01*
X67118095Y-91282380D01*
X67022857Y-91234761D01*
X66975238Y-91187142D01*
X67737142Y-91377619D02*
X68499047Y-91377619D01*
X69213333Y-91282380D02*
X68737142Y-91282380D01*
X68737142Y-90282380D01*
X69546666Y-90758571D02*
X69880000Y-90758571D01*
X70022857Y-91282380D02*
X69546666Y-91282380D01*
X69546666Y-90282380D01*
X70022857Y-90282380D01*
X70784761Y-90758571D02*
X70451428Y-90758571D01*
X70451428Y-91282380D02*
X70451428Y-90282380D01*
X70927619Y-90282380D01*
X71165714Y-90282380D02*
X71737142Y-90282380D01*
X71451428Y-91282380D02*
X71451428Y-90282380D01*
X72594285Y-91282380D02*
X72022857Y-91282380D01*
X72308571Y-91282380D02*
X72308571Y-90282380D01*
X72213333Y-90425238D01*
X72118095Y-90520476D01*
X72022857Y-90568095D01*
G04 #@! TO.C,C26*
X227157142Y-89107142D02*
X227109523Y-89154761D01*
X226966666Y-89202380D01*
X226871428Y-89202380D01*
X226728571Y-89154761D01*
X226633333Y-89059523D01*
X226585714Y-88964285D01*
X226538095Y-88773809D01*
X226538095Y-88630952D01*
X226585714Y-88440476D01*
X226633333Y-88345238D01*
X226728571Y-88250000D01*
X226871428Y-88202380D01*
X226966666Y-88202380D01*
X227109523Y-88250000D01*
X227157142Y-88297619D01*
X227538095Y-88297619D02*
X227585714Y-88250000D01*
X227680952Y-88202380D01*
X227919047Y-88202380D01*
X228014285Y-88250000D01*
X228061904Y-88297619D01*
X228109523Y-88392857D01*
X228109523Y-88488095D01*
X228061904Y-88630952D01*
X227490476Y-89202380D01*
X228109523Y-89202380D01*
X228966666Y-88202380D02*
X228776190Y-88202380D01*
X228680952Y-88250000D01*
X228633333Y-88297619D01*
X228538095Y-88440476D01*
X228490476Y-88630952D01*
X228490476Y-89011904D01*
X228538095Y-89107142D01*
X228585714Y-89154761D01*
X228680952Y-89202380D01*
X228871428Y-89202380D01*
X228966666Y-89154761D01*
X229014285Y-89107142D01*
X229061904Y-89011904D01*
X229061904Y-88773809D01*
X229014285Y-88678571D01*
X228966666Y-88630952D01*
X228871428Y-88583333D01*
X228680952Y-88583333D01*
X228585714Y-88630952D01*
X228538095Y-88678571D01*
X228490476Y-88773809D01*
G04 #@! TO.C,R6*
X219722380Y-121256666D02*
X219246190Y-121590000D01*
X219722380Y-121828095D02*
X218722380Y-121828095D01*
X218722380Y-121447142D01*
X218770000Y-121351904D01*
X218817619Y-121304285D01*
X218912857Y-121256666D01*
X219055714Y-121256666D01*
X219150952Y-121304285D01*
X219198571Y-121351904D01*
X219246190Y-121447142D01*
X219246190Y-121828095D01*
X218722380Y-120399523D02*
X218722380Y-120590000D01*
X218770000Y-120685238D01*
X218817619Y-120732857D01*
X218960476Y-120828095D01*
X219150952Y-120875714D01*
X219531904Y-120875714D01*
X219627142Y-120828095D01*
X219674761Y-120780476D01*
X219722380Y-120685238D01*
X219722380Y-120494761D01*
X219674761Y-120399523D01*
X219627142Y-120351904D01*
X219531904Y-120304285D01*
X219293809Y-120304285D01*
X219198571Y-120351904D01*
X219150952Y-120399523D01*
X219103333Y-120494761D01*
X219103333Y-120685238D01*
X219150952Y-120780476D01*
X219198571Y-120828095D01*
X219293809Y-120875714D01*
G04 #@! TO.C,BTN2_UP1*
X96929523Y-60038571D02*
X97072380Y-60086190D01*
X97120000Y-60133809D01*
X97167619Y-60229047D01*
X97167619Y-60371904D01*
X97120000Y-60467142D01*
X97072380Y-60514761D01*
X96977142Y-60562380D01*
X96596190Y-60562380D01*
X96596190Y-59562380D01*
X96929523Y-59562380D01*
X97024761Y-59610000D01*
X97072380Y-59657619D01*
X97120000Y-59752857D01*
X97120000Y-59848095D01*
X97072380Y-59943333D01*
X97024761Y-59990952D01*
X96929523Y-60038571D01*
X96596190Y-60038571D01*
X97453333Y-59562380D02*
X98024761Y-59562380D01*
X97739047Y-60562380D02*
X97739047Y-59562380D01*
X98358095Y-60562380D02*
X98358095Y-59562380D01*
X98929523Y-60562380D01*
X98929523Y-59562380D01*
X99358095Y-59657619D02*
X99405714Y-59610000D01*
X99500952Y-59562380D01*
X99739047Y-59562380D01*
X99834285Y-59610000D01*
X99881904Y-59657619D01*
X99929523Y-59752857D01*
X99929523Y-59848095D01*
X99881904Y-59990952D01*
X99310476Y-60562380D01*
X99929523Y-60562380D01*
X100120000Y-60657619D02*
X100881904Y-60657619D01*
X101120000Y-59562380D02*
X101120000Y-60371904D01*
X101167619Y-60467142D01*
X101215238Y-60514761D01*
X101310476Y-60562380D01*
X101500952Y-60562380D01*
X101596190Y-60514761D01*
X101643809Y-60467142D01*
X101691428Y-60371904D01*
X101691428Y-59562380D01*
X102167619Y-60562380D02*
X102167619Y-59562380D01*
X102548571Y-59562380D01*
X102643809Y-59610000D01*
X102691428Y-59657619D01*
X102739047Y-59752857D01*
X102739047Y-59895714D01*
X102691428Y-59990952D01*
X102643809Y-60038571D01*
X102548571Y-60086190D01*
X102167619Y-60086190D01*
X103691428Y-60562380D02*
X103120000Y-60562380D01*
X103405714Y-60562380D02*
X103405714Y-59562380D01*
X103310476Y-59705238D01*
X103215238Y-59800476D01*
X103120000Y-59848095D01*
G04 #@! TO.C,Q3*
X190472619Y-71945238D02*
X190425000Y-72040476D01*
X190329761Y-72135714D01*
X190186904Y-72278571D01*
X190139285Y-72373809D01*
X190139285Y-72469047D01*
X190377380Y-72421428D02*
X190329761Y-72516666D01*
X190234523Y-72611904D01*
X190044047Y-72659523D01*
X189710714Y-72659523D01*
X189520238Y-72611904D01*
X189425000Y-72516666D01*
X189377380Y-72421428D01*
X189377380Y-72230952D01*
X189425000Y-72135714D01*
X189520238Y-72040476D01*
X189710714Y-71992857D01*
X190044047Y-71992857D01*
X190234523Y-72040476D01*
X190329761Y-72135714D01*
X190377380Y-72230952D01*
X190377380Y-72421428D01*
X189377380Y-71659523D02*
X189377380Y-71040476D01*
X189758333Y-71373809D01*
X189758333Y-71230952D01*
X189805952Y-71135714D01*
X189853571Y-71088095D01*
X189948809Y-71040476D01*
X190186904Y-71040476D01*
X190282142Y-71088095D01*
X190329761Y-71135714D01*
X190377380Y-71230952D01*
X190377380Y-71516666D01*
X190329761Y-71611904D01*
X190282142Y-71659523D01*
G04 #@! TO.C,BZ1*
X195541547Y-69028571D02*
X195684404Y-69076190D01*
X195732023Y-69123809D01*
X195779642Y-69219047D01*
X195779642Y-69361904D01*
X195732023Y-69457142D01*
X195684404Y-69504761D01*
X195589166Y-69552380D01*
X195208214Y-69552380D01*
X195208214Y-68552380D01*
X195541547Y-68552380D01*
X195636785Y-68600000D01*
X195684404Y-68647619D01*
X195732023Y-68742857D01*
X195732023Y-68838095D01*
X195684404Y-68933333D01*
X195636785Y-68980952D01*
X195541547Y-69028571D01*
X195208214Y-69028571D01*
X196112976Y-68552380D02*
X196779642Y-68552380D01*
X196112976Y-69552380D01*
X196779642Y-69552380D01*
X197684404Y-69552380D02*
X197112976Y-69552380D01*
X197398690Y-69552380D02*
X197398690Y-68552380D01*
X197303452Y-68695238D01*
X197208214Y-68790476D01*
X197112976Y-68838095D01*
G04 #@! TO.C,R26*
X129007142Y-80052380D02*
X128673809Y-79576190D01*
X128435714Y-80052380D02*
X128435714Y-79052380D01*
X128816666Y-79052380D01*
X128911904Y-79100000D01*
X128959523Y-79147619D01*
X129007142Y-79242857D01*
X129007142Y-79385714D01*
X128959523Y-79480952D01*
X128911904Y-79528571D01*
X128816666Y-79576190D01*
X128435714Y-79576190D01*
X129388095Y-79147619D02*
X129435714Y-79100000D01*
X129530952Y-79052380D01*
X129769047Y-79052380D01*
X129864285Y-79100000D01*
X129911904Y-79147619D01*
X129959523Y-79242857D01*
X129959523Y-79338095D01*
X129911904Y-79480952D01*
X129340476Y-80052380D01*
X129959523Y-80052380D01*
X130816666Y-79052380D02*
X130626190Y-79052380D01*
X130530952Y-79100000D01*
X130483333Y-79147619D01*
X130388095Y-79290476D01*
X130340476Y-79480952D01*
X130340476Y-79861904D01*
X130388095Y-79957142D01*
X130435714Y-80004761D01*
X130530952Y-80052380D01*
X130721428Y-80052380D01*
X130816666Y-80004761D01*
X130864285Y-79957142D01*
X130911904Y-79861904D01*
X130911904Y-79623809D01*
X130864285Y-79528571D01*
X130816666Y-79480952D01*
X130721428Y-79433333D01*
X130530952Y-79433333D01*
X130435714Y-79480952D01*
X130388095Y-79528571D01*
X130340476Y-79623809D01*
G04 #@! TO.C,U2*
X227552380Y-129211904D02*
X228361904Y-129211904D01*
X228457142Y-129164285D01*
X228504761Y-129116666D01*
X228552380Y-129021428D01*
X228552380Y-128830952D01*
X228504761Y-128735714D01*
X228457142Y-128688095D01*
X228361904Y-128640476D01*
X227552380Y-128640476D01*
X227647619Y-128211904D02*
X227600000Y-128164285D01*
X227552380Y-128069047D01*
X227552380Y-127830952D01*
X227600000Y-127735714D01*
X227647619Y-127688095D01*
X227742857Y-127640476D01*
X227838095Y-127640476D01*
X227980952Y-127688095D01*
X228552380Y-128259523D01*
X228552380Y-127640476D01*
G04 #@! TO.C,J3*
X260666666Y-77452380D02*
X260666666Y-78166666D01*
X260619047Y-78309523D01*
X260523809Y-78404761D01*
X260380952Y-78452380D01*
X260285714Y-78452380D01*
X261047619Y-77452380D02*
X261666666Y-77452380D01*
X261333333Y-77833333D01*
X261476190Y-77833333D01*
X261571428Y-77880952D01*
X261619047Y-77928571D01*
X261666666Y-78023809D01*
X261666666Y-78261904D01*
X261619047Y-78357142D01*
X261571428Y-78404761D01*
X261476190Y-78452380D01*
X261190476Y-78452380D01*
X261095238Y-78404761D01*
X261047619Y-78357142D01*
G04 #@! TO.C,R15*
X190807142Y-121152380D02*
X190473809Y-120676190D01*
X190235714Y-121152380D02*
X190235714Y-120152380D01*
X190616666Y-120152380D01*
X190711904Y-120200000D01*
X190759523Y-120247619D01*
X190807142Y-120342857D01*
X190807142Y-120485714D01*
X190759523Y-120580952D01*
X190711904Y-120628571D01*
X190616666Y-120676190D01*
X190235714Y-120676190D01*
X191759523Y-121152380D02*
X191188095Y-121152380D01*
X191473809Y-121152380D02*
X191473809Y-120152380D01*
X191378571Y-120295238D01*
X191283333Y-120390476D01*
X191188095Y-120438095D01*
X192664285Y-120152380D02*
X192188095Y-120152380D01*
X192140476Y-120628571D01*
X192188095Y-120580952D01*
X192283333Y-120533333D01*
X192521428Y-120533333D01*
X192616666Y-120580952D01*
X192664285Y-120628571D01*
X192711904Y-120723809D01*
X192711904Y-120961904D01*
X192664285Y-121057142D01*
X192616666Y-121104761D01*
X192521428Y-121152380D01*
X192283333Y-121152380D01*
X192188095Y-121104761D01*
X192140476Y-121057142D01*
G04 #@! TO.C,D11*
X60534630Y-72577792D02*
X59668605Y-72077792D01*
X59787652Y-71871596D01*
X59900320Y-71771687D01*
X60030418Y-71736828D01*
X60136706Y-71743208D01*
X60325473Y-71797206D01*
X60449191Y-71868635D01*
X60590338Y-72005112D01*
X60649007Y-72093971D01*
X60683867Y-72224068D01*
X60653678Y-72371596D01*
X60534630Y-72577792D01*
X61296535Y-71258134D02*
X61010821Y-71753006D01*
X61153678Y-71505570D02*
X60287652Y-71005570D01*
X60363751Y-71159478D01*
X60398611Y-71289575D01*
X60392231Y-71395863D01*
X61772725Y-70433348D02*
X61487011Y-70928220D01*
X61629868Y-70680784D02*
X60763843Y-70180784D01*
X60839942Y-70334691D01*
X60874801Y-70464789D01*
X60868421Y-70571077D01*
X64118102Y-74144750D02*
X63832388Y-74639622D01*
X63975245Y-74392186D02*
X63109219Y-73892186D01*
X63185318Y-74046093D01*
X63220178Y-74176191D01*
X63213798Y-74282479D01*
G04 #@! TO.C,D16*
X234716964Y-145227380D02*
X234716964Y-144227380D01*
X234955059Y-144227380D01*
X235097916Y-144275000D01*
X235193154Y-144370238D01*
X235240773Y-144465476D01*
X235288392Y-144655952D01*
X235288392Y-144798809D01*
X235240773Y-144989285D01*
X235193154Y-145084523D01*
X235097916Y-145179761D01*
X234955059Y-145227380D01*
X234716964Y-145227380D01*
X236240773Y-145227380D02*
X235669345Y-145227380D01*
X235955059Y-145227380D02*
X235955059Y-144227380D01*
X235859821Y-144370238D01*
X235764583Y-144465476D01*
X235669345Y-144513095D01*
X237097916Y-144227380D02*
X236907440Y-144227380D01*
X236812202Y-144275000D01*
X236764583Y-144322619D01*
X236669345Y-144465476D01*
X236621726Y-144655952D01*
X236621726Y-145036904D01*
X236669345Y-145132142D01*
X236716964Y-145179761D01*
X236812202Y-145227380D01*
X237002678Y-145227380D01*
X237097916Y-145179761D01*
X237145535Y-145132142D01*
X237193154Y-145036904D01*
X237193154Y-144798809D01*
X237145535Y-144703571D01*
X237097916Y-144655952D01*
X237002678Y-144608333D01*
X236812202Y-144608333D01*
X236716964Y-144655952D01*
X236669345Y-144703571D01*
X236621726Y-144798809D01*
G04 #@! TO.C,C25*
X179352142Y-119462857D02*
X179399761Y-119510476D01*
X179447380Y-119653333D01*
X179447380Y-119748571D01*
X179399761Y-119891428D01*
X179304523Y-119986666D01*
X179209285Y-120034285D01*
X179018809Y-120081904D01*
X178875952Y-120081904D01*
X178685476Y-120034285D01*
X178590238Y-119986666D01*
X178495000Y-119891428D01*
X178447380Y-119748571D01*
X178447380Y-119653333D01*
X178495000Y-119510476D01*
X178542619Y-119462857D01*
X178542619Y-119081904D02*
X178495000Y-119034285D01*
X178447380Y-118939047D01*
X178447380Y-118700952D01*
X178495000Y-118605714D01*
X178542619Y-118558095D01*
X178637857Y-118510476D01*
X178733095Y-118510476D01*
X178875952Y-118558095D01*
X179447380Y-119129523D01*
X179447380Y-118510476D01*
X178447380Y-117605714D02*
X178447380Y-118081904D01*
X178923571Y-118129523D01*
X178875952Y-118081904D01*
X178828333Y-117986666D01*
X178828333Y-117748571D01*
X178875952Y-117653333D01*
X178923571Y-117605714D01*
X179018809Y-117558095D01*
X179256904Y-117558095D01*
X179352142Y-117605714D01*
X179399761Y-117653333D01*
X179447380Y-117748571D01*
X179447380Y-117986666D01*
X179399761Y-118081904D01*
X179352142Y-118129523D01*
G04 #@! TO.C,BTN4_RIGHT1*
X126700476Y-90578571D02*
X126843333Y-90626190D01*
X126890952Y-90673809D01*
X126938571Y-90769047D01*
X126938571Y-90911904D01*
X126890952Y-91007142D01*
X126843333Y-91054761D01*
X126748095Y-91102380D01*
X126367142Y-91102380D01*
X126367142Y-90102380D01*
X126700476Y-90102380D01*
X126795714Y-90150000D01*
X126843333Y-90197619D01*
X126890952Y-90292857D01*
X126890952Y-90388095D01*
X126843333Y-90483333D01*
X126795714Y-90530952D01*
X126700476Y-90578571D01*
X126367142Y-90578571D01*
X127224285Y-90102380D02*
X127795714Y-90102380D01*
X127510000Y-91102380D02*
X127510000Y-90102380D01*
X128129047Y-91102380D02*
X128129047Y-90102380D01*
X128700476Y-91102380D01*
X128700476Y-90102380D01*
X129605238Y-90435714D02*
X129605238Y-91102380D01*
X129367142Y-90054761D02*
X129129047Y-90769047D01*
X129748095Y-90769047D01*
X129890952Y-91197619D02*
X130652857Y-91197619D01*
X131462380Y-91102380D02*
X131129047Y-90626190D01*
X130890952Y-91102380D02*
X130890952Y-90102380D01*
X131271904Y-90102380D01*
X131367142Y-90150000D01*
X131414761Y-90197619D01*
X131462380Y-90292857D01*
X131462380Y-90435714D01*
X131414761Y-90530952D01*
X131367142Y-90578571D01*
X131271904Y-90626190D01*
X130890952Y-90626190D01*
X131890952Y-91102380D02*
X131890952Y-90102380D01*
X132890952Y-90150000D02*
X132795714Y-90102380D01*
X132652857Y-90102380D01*
X132509999Y-90150000D01*
X132414761Y-90245238D01*
X132367142Y-90340476D01*
X132319523Y-90530952D01*
X132319523Y-90673809D01*
X132367142Y-90864285D01*
X132414761Y-90959523D01*
X132509999Y-91054761D01*
X132652857Y-91102380D01*
X132748095Y-91102380D01*
X132890952Y-91054761D01*
X132938571Y-91007142D01*
X132938571Y-90673809D01*
X132748095Y-90673809D01*
X133367142Y-91102380D02*
X133367142Y-90102380D01*
X133367142Y-90578571D02*
X133938571Y-90578571D01*
X133938571Y-91102380D02*
X133938571Y-90102380D01*
X134271904Y-90102380D02*
X134843333Y-90102380D01*
X134557619Y-91102380D02*
X134557619Y-90102380D01*
X135700476Y-91102380D02*
X135129047Y-91102380D01*
X135414761Y-91102380D02*
X135414761Y-90102380D01*
X135319523Y-90245238D01*
X135224285Y-90340476D01*
X135129047Y-90388095D01*
G04 #@! TO.C,D12*
X79624588Y-56648916D02*
X79124588Y-55782890D01*
X79330784Y-55663843D01*
X79478312Y-55633653D01*
X79608409Y-55668513D01*
X79697268Y-55727182D01*
X79833745Y-55868330D01*
X79905174Y-55992048D01*
X79959172Y-56180814D01*
X79965552Y-56287103D01*
X79930693Y-56417200D01*
X79830784Y-56529868D01*
X79624588Y-56648916D01*
X80944245Y-55887011D02*
X80449374Y-56172725D01*
X80696810Y-56029868D02*
X80196810Y-55163843D01*
X80185760Y-55335180D01*
X80150900Y-55465277D01*
X80092231Y-55554136D01*
X80821779Y-54912988D02*
X80839209Y-54847939D01*
X80897878Y-54759081D01*
X81104074Y-54640033D01*
X81210362Y-54633653D01*
X81275411Y-54651083D01*
X81364270Y-54709752D01*
X81411889Y-54792231D01*
X81442078Y-54939758D01*
X81232921Y-55720344D01*
X81769032Y-55410821D01*
X81827630Y-59682389D02*
X81332758Y-59968103D01*
X81580194Y-59825246D02*
X81080194Y-58959220D01*
X81069144Y-59130557D01*
X81034284Y-59260655D01*
X80975615Y-59349513D01*
G04 #@! TO.C,D22*
X181397975Y-119991785D02*
X180397975Y-119991785D01*
X180397975Y-119753690D01*
X180445595Y-119610833D01*
X180540833Y-119515595D01*
X180636071Y-119467976D01*
X180826547Y-119420357D01*
X180969404Y-119420357D01*
X181159880Y-119467976D01*
X181255118Y-119515595D01*
X181350356Y-119610833D01*
X181397975Y-119753690D01*
X181397975Y-119991785D01*
X180493214Y-119039404D02*
X180445595Y-118991785D01*
X180397975Y-118896547D01*
X180397975Y-118658452D01*
X180445595Y-118563214D01*
X180493214Y-118515595D01*
X180588452Y-118467976D01*
X180683690Y-118467976D01*
X180826547Y-118515595D01*
X181397975Y-119087023D01*
X181397975Y-118467976D01*
X180493214Y-118087023D02*
X180445595Y-118039404D01*
X180397975Y-117944166D01*
X180397975Y-117706071D01*
X180445595Y-117610833D01*
X180493214Y-117563214D01*
X180588452Y-117515595D01*
X180683690Y-117515595D01*
X180826547Y-117563214D01*
X181397975Y-118134642D01*
X181397975Y-117515595D01*
G04 #@! TO.C,C12*
X77261840Y-64760722D02*
X77244411Y-64825771D01*
X77144502Y-64938439D01*
X77062024Y-64986058D01*
X76914496Y-65016247D01*
X76784398Y-64981387D01*
X76695540Y-64922718D01*
X76559063Y-64781571D01*
X76487634Y-64657853D01*
X76433635Y-64469086D01*
X76427256Y-64362798D01*
X76462115Y-64232700D01*
X76562024Y-64120032D01*
X76644502Y-64072413D01*
X76792030Y-64042224D01*
X76857078Y-64059654D01*
X78134245Y-64367010D02*
X77639374Y-64652724D01*
X77886810Y-64509867D02*
X77386810Y-63643842D01*
X77375760Y-63815179D01*
X77340900Y-63945276D01*
X77282231Y-64034135D01*
X78011779Y-63392987D02*
X78029209Y-63327938D01*
X78087878Y-63239080D01*
X78294074Y-63120032D01*
X78400362Y-63113652D01*
X78465411Y-63131082D01*
X78554270Y-63189751D01*
X78601889Y-63272230D01*
X78632078Y-63419757D01*
X78422921Y-64200343D01*
X78959032Y-63890820D01*
G04 #@! TO.C,R27*
X126382142Y-83967380D02*
X126048809Y-83491190D01*
X125810714Y-83967380D02*
X125810714Y-82967380D01*
X126191666Y-82967380D01*
X126286904Y-83015000D01*
X126334523Y-83062619D01*
X126382142Y-83157857D01*
X126382142Y-83300714D01*
X126334523Y-83395952D01*
X126286904Y-83443571D01*
X126191666Y-83491190D01*
X125810714Y-83491190D01*
X126763095Y-83062619D02*
X126810714Y-83015000D01*
X126905952Y-82967380D01*
X127144047Y-82967380D01*
X127239285Y-83015000D01*
X127286904Y-83062619D01*
X127334523Y-83157857D01*
X127334523Y-83253095D01*
X127286904Y-83395952D01*
X126715476Y-83967380D01*
X127334523Y-83967380D01*
X127667857Y-82967380D02*
X128334523Y-82967380D01*
X127905952Y-83967380D01*
G04 #@! TO.C,Q4*
X188235951Y-121735119D02*
X188140713Y-121687500D01*
X188045475Y-121592261D01*
X187902618Y-121449404D01*
X187807380Y-121401785D01*
X187712142Y-121401785D01*
X187759761Y-121639880D02*
X187664523Y-121592261D01*
X187569285Y-121497023D01*
X187521666Y-121306547D01*
X187521666Y-120973214D01*
X187569285Y-120782738D01*
X187664523Y-120687500D01*
X187759761Y-120639880D01*
X187950237Y-120639880D01*
X188045475Y-120687500D01*
X188140713Y-120782738D01*
X188188332Y-120973214D01*
X188188332Y-121306547D01*
X188140713Y-121497023D01*
X188045475Y-121592261D01*
X187950237Y-121639880D01*
X187759761Y-121639880D01*
X189045475Y-120973214D02*
X189045475Y-121639880D01*
X188807380Y-120592261D02*
X188569285Y-121306547D01*
X189188332Y-121306547D01*
G04 #@! TO.C,C15*
X136480723Y-77738159D02*
X136545772Y-77755588D01*
X136658440Y-77855497D01*
X136706059Y-77937975D01*
X136736248Y-78085503D01*
X136701388Y-78215601D01*
X136642719Y-78304459D01*
X136501572Y-78440936D01*
X136377854Y-78512365D01*
X136189087Y-78566364D01*
X136082799Y-78572743D01*
X135952701Y-78537884D01*
X135840033Y-78437975D01*
X135792414Y-78355497D01*
X135762225Y-78207969D01*
X135779655Y-78142921D01*
X136087011Y-76865754D02*
X136372725Y-77360625D01*
X136229868Y-77113189D02*
X135363843Y-77613189D01*
X135535180Y-77624239D01*
X135665277Y-77659099D01*
X135754136Y-77717768D01*
X134768605Y-76582207D02*
X135006700Y-76994600D01*
X135442902Y-76797744D01*
X135377854Y-76780314D01*
X135288995Y-76721645D01*
X135169948Y-76515448D01*
X135163568Y-76409160D01*
X135180998Y-76344112D01*
X135239667Y-76255253D01*
X135445863Y-76136206D01*
X135552151Y-76129826D01*
X135617200Y-76147256D01*
X135706059Y-76205925D01*
X135825106Y-76412121D01*
X135831486Y-76518409D01*
X135814056Y-76583458D01*
G04 #@! TO.C,D8*
X72238573Y-139551108D02*
X71738573Y-140417133D01*
X71532377Y-140298086D01*
X71432468Y-140185418D01*
X71397609Y-140055320D01*
X71403988Y-139949032D01*
X71457987Y-139760265D01*
X71529416Y-139636547D01*
X71665893Y-139495399D01*
X71754752Y-139436730D01*
X71884849Y-139401871D01*
X72032377Y-139432060D01*
X72238573Y-139551108D01*
X70963116Y-139474551D02*
X71021785Y-139563409D01*
X71039214Y-139628458D01*
X71032835Y-139734746D01*
X71009025Y-139775985D01*
X70920167Y-139834655D01*
X70855118Y-139852084D01*
X70748830Y-139845705D01*
X70583873Y-139750466D01*
X70525204Y-139661608D01*
X70507774Y-139596559D01*
X70514154Y-139490271D01*
X70537963Y-139449032D01*
X70626821Y-139390363D01*
X70691870Y-139372933D01*
X70798158Y-139379313D01*
X70963116Y-139474551D01*
X71069404Y-139480931D01*
X71134453Y-139463501D01*
X71223311Y-139404832D01*
X71318549Y-139239874D01*
X71324929Y-139133586D01*
X71307499Y-139068538D01*
X71248830Y-138979679D01*
X71083873Y-138884441D01*
X70977585Y-138878061D01*
X70912536Y-138895491D01*
X70823677Y-138954160D01*
X70728439Y-139119117D01*
X70722060Y-139225406D01*
X70739489Y-139290454D01*
X70798158Y-139379313D01*
X73025399Y-138307274D02*
X72525399Y-139173299D01*
X72319203Y-139054252D01*
X72219294Y-138941584D01*
X72184435Y-138811486D01*
X72190814Y-138705198D01*
X72244813Y-138516431D01*
X72316242Y-138392713D01*
X72452719Y-138251565D01*
X72541578Y-138192896D01*
X72671675Y-138158037D01*
X72819203Y-138188226D01*
X73025399Y-138307274D01*
X71749942Y-138230717D02*
X71808611Y-138319575D01*
X71826040Y-138384624D01*
X71819661Y-138490912D01*
X71795851Y-138532151D01*
X71706993Y-138590821D01*
X71641944Y-138608250D01*
X71535656Y-138601871D01*
X71370699Y-138506632D01*
X71312030Y-138417774D01*
X71294600Y-138352725D01*
X71300980Y-138246437D01*
X71324789Y-138205198D01*
X71413647Y-138146529D01*
X71478696Y-138129099D01*
X71584984Y-138135479D01*
X71749942Y-138230717D01*
X71856230Y-138237097D01*
X71921279Y-138219667D01*
X72010137Y-138160998D01*
X72105375Y-137996040D01*
X72111755Y-137889752D01*
X72094325Y-137824704D01*
X72035656Y-137735845D01*
X71870699Y-137640607D01*
X71764411Y-137634227D01*
X71699362Y-137651657D01*
X71610503Y-137710326D01*
X71515265Y-137875283D01*
X71508886Y-137981572D01*
X71526315Y-138046620D01*
X71584984Y-138135479D01*
G04 #@! TO.C,R11*
X254057142Y-73289880D02*
X253723809Y-72813690D01*
X253485714Y-73289880D02*
X253485714Y-72289880D01*
X253866666Y-72289880D01*
X253961904Y-72337500D01*
X254009523Y-72385119D01*
X254057142Y-72480357D01*
X254057142Y-72623214D01*
X254009523Y-72718452D01*
X253961904Y-72766071D01*
X253866666Y-72813690D01*
X253485714Y-72813690D01*
X255009523Y-73289880D02*
X254438095Y-73289880D01*
X254723809Y-73289880D02*
X254723809Y-72289880D01*
X254628571Y-72432738D01*
X254533333Y-72527976D01*
X254438095Y-72575595D01*
X255961904Y-73289880D02*
X255390476Y-73289880D01*
X255676190Y-73289880D02*
X255676190Y-72289880D01*
X255580952Y-72432738D01*
X255485714Y-72527976D01*
X255390476Y-72575595D01*
D11*
G04 #@! TO.C,Q1*
X93950000Y-57110000D02*
X93300000Y-57110000D01*
X93950000Y-57110000D02*
X94600000Y-57110000D01*
X93950000Y-53990000D02*
X92275000Y-53990000D01*
X93950000Y-53990000D02*
X94600000Y-53990000D01*
G04 #@! TO.C,D21*
X188700000Y-74700000D02*
X188700000Y-76700000D01*
X188700000Y-74700000D02*
X192600000Y-74700000D01*
X188700000Y-76700000D02*
X192600000Y-76700000D01*
G04 #@! TO.C,M1*
X183170000Y-122445000D02*
X185830000Y-122445000D01*
X183170000Y-119845000D02*
X184500000Y-119845000D01*
X183170000Y-122445000D02*
X183170000Y-125045000D01*
X183170000Y-125045000D02*
X185830000Y-125045000D01*
X183170000Y-121175000D02*
X183170000Y-119845000D01*
X185830000Y-122445000D02*
X185830000Y-125045000D01*
G04 #@! TO.C,R14*
X192937258Y-69547500D02*
X192462742Y-69547500D01*
X192937258Y-68502500D02*
X192462742Y-68502500D01*
G04 #@! TO.C,R30*
X200037258Y-98922500D02*
X199562742Y-98922500D01*
X200037258Y-97877500D02*
X199562742Y-97877500D01*
G04 #@! TO.C,R9*
X263902500Y-105987258D02*
X263902500Y-105512742D01*
X264947500Y-105987258D02*
X264947500Y-105512742D01*
G04 #@! TO.C,C13*
X258165000Y-100588748D02*
X258165000Y-101111252D01*
X259635000Y-100588748D02*
X259635000Y-101111252D01*
G04 #@! TO.C,J8*
X255957574Y-86838478D02*
X264980256Y-95861160D01*
X255957574Y-86838478D02*
X257838478Y-84957574D01*
X256000000Y-83119096D02*
X256940452Y-84059548D01*
X257838478Y-84957574D02*
X266861160Y-93980256D01*
X264980256Y-95861160D02*
X266861160Y-93980256D01*
X255059548Y-84059548D02*
X256000000Y-83119096D01*
G04 #@! TO.C,R25*
X214162742Y-102947500D02*
X214637258Y-102947500D01*
X214162742Y-103992500D02*
X214637258Y-103992500D01*
G04 #@! TO.C,R24*
X253937258Y-89272500D02*
X253462742Y-89272500D01*
X253937258Y-88227500D02*
X253462742Y-88227500D01*
G04 #@! TO.C,J4*
X175070000Y-84930000D02*
X177730000Y-84930000D01*
X175070000Y-84930000D02*
X175070000Y-90070000D01*
X177730000Y-84930000D02*
X177730000Y-90070000D01*
X176400000Y-82330000D02*
X177730000Y-82330000D01*
X177730000Y-82330000D02*
X177730000Y-83660000D01*
X175070000Y-90070000D02*
X177730000Y-90070000D01*
G04 #@! TO.C,R28*
X255837258Y-79877500D02*
X255362742Y-79877500D01*
X255837258Y-80922500D02*
X255362742Y-80922500D01*
G04 #@! TO.C,U4*
X208900000Y-84500000D02*
X228900000Y-84500000D01*
X228900000Y-84500000D02*
X228900000Y-58500000D01*
X228900000Y-58500000D02*
X208900000Y-58500000D01*
X208900000Y-58500000D02*
X208900000Y-84500000D01*
X229400000Y-87500000D02*
X208400000Y-87500000D01*
X208400000Y-87500000D02*
X208400000Y-51500000D01*
X208400000Y-51500000D02*
X229400000Y-51500000D01*
X229400000Y-51500000D02*
X229400000Y-87500000D01*
G04 #@! TO.C,J13*
X190305000Y-129205000D02*
X188975000Y-129205000D01*
X190305000Y-127875000D02*
X190305000Y-129205000D01*
X187705000Y-126545000D02*
X182565000Y-126545000D01*
X187705000Y-126545000D02*
X187705000Y-129205000D01*
X182565000Y-126545000D02*
X182565000Y-129205000D01*
X187705000Y-129205000D02*
X182565000Y-129205000D01*
G04 #@! TO.C,D5*
X144003738Y-121174006D02*
X143007809Y-120599006D01*
X135590598Y-124745992D02*
X139240598Y-118424006D01*
X140353738Y-127495992D02*
X144003738Y-121174006D01*
G04 #@! TO.C,R4*
X90067500Y-54502742D02*
X90067500Y-54977258D01*
X91112500Y-54502742D02*
X91112500Y-54977258D01*
G04 #@! TO.C,Q6*
X255360000Y-77587500D02*
X255360000Y-78237500D01*
X255360000Y-77587500D02*
X255360000Y-76937500D01*
X252240000Y-77587500D02*
X252240000Y-79262500D01*
X252240000Y-77587500D02*
X252240000Y-76937500D01*
G04 #@! TO.C,D13*
X254145000Y-118485000D02*
X255615000Y-118485000D01*
X254145000Y-116200000D02*
X254145000Y-118485000D01*
X255615000Y-118485000D02*
X255615000Y-116200000D01*
G04 #@! TO.C,D15*
X177335000Y-118000000D02*
X177335000Y-115715000D01*
X175865000Y-115715000D02*
X175865000Y-118000000D01*
X177335000Y-115715000D02*
X175865000Y-115715000D01*
G04 #@! TO.C,L1*
X257275000Y-103275000D02*
X253775000Y-103275000D01*
X253775000Y-103275000D02*
X253775000Y-99775000D01*
X253775000Y-99775000D02*
X257275000Y-99775000D01*
X257275000Y-99775000D02*
X257275000Y-103275000D01*
X256315569Y-101484431D02*
G75*
G03*
X256315569Y-101484431I-790569J0D01*
G01*
G04 #@! TO.C,C19*
X63818617Y-77043254D02*
X63678037Y-77286746D01*
X64701963Y-77553254D02*
X64561383Y-77796746D01*
G04 #@! TO.C,C6*
X221110000Y-94710580D02*
X221110000Y-94429420D01*
X220090000Y-94710580D02*
X220090000Y-94429420D01*
G04 #@! TO.C,D4*
X148710000Y-103610000D02*
X148710000Y-96310000D01*
X143210000Y-103610000D02*
X143210000Y-96310000D01*
X148710000Y-96310000D02*
X147560000Y-96310000D01*
G04 #@! TO.C,D19*
X197403806Y-128711964D02*
X196428726Y-130104523D01*
X196428726Y-130104523D02*
X198517564Y-131567142D01*
X197403806Y-128711964D02*
X199492644Y-130174584D01*
G04 #@! TO.C,D10*
X51210000Y-103610000D02*
X52360000Y-103610000D01*
X51210000Y-96310000D02*
X51210000Y-103610000D01*
X56710000Y-96310000D02*
X56710000Y-103610000D01*
G04 #@! TO.C,C24*
X98169420Y-141730000D02*
X98450580Y-141730000D01*
X98169420Y-142750000D02*
X98450580Y-142750000D01*
G04 #@! TO.C,R17*
X211699758Y-95477500D02*
X211225242Y-95477500D01*
X211699758Y-96522500D02*
X211225242Y-96522500D01*
G04 #@! TO.C,D9*
X55916261Y-121174007D02*
X59566261Y-127495993D01*
X59566261Y-127495993D02*
X60562190Y-126920993D01*
X60679401Y-118424007D02*
X64329401Y-124745993D01*
G04 #@! TO.C,C7*
X224658748Y-89795000D02*
X225181252Y-89795000D01*
X224658748Y-91265000D02*
X225181252Y-91265000D01*
G04 #@! TO.C,J2*
X185846745Y-112577482D02*
X185846745Y-111247482D01*
X183756745Y-112577482D02*
X183186745Y-112577482D01*
X185846745Y-112577482D02*
X185276745Y-112577482D01*
X184516745Y-113972482D02*
X183186745Y-113972482D01*
X185846745Y-111247482D02*
X184824275Y-111247482D01*
X183186745Y-113972482D02*
X183186745Y-113212482D01*
X183186745Y-112577482D02*
X183186745Y-111247482D01*
X184209215Y-111247482D02*
X183186745Y-111247482D01*
G04 #@! TO.C,C8*
X178667950Y-108652961D02*
X178145446Y-108652961D01*
X178667950Y-107182961D02*
X178145446Y-107182961D01*
G04 #@! TO.C,U6*
X214490000Y-92850000D02*
X214490000Y-90900000D01*
X214490000Y-92850000D02*
X214490000Y-94800000D01*
X219610000Y-92850000D02*
X219610000Y-89400000D01*
X219610000Y-92850000D02*
X219610000Y-94800000D01*
G04 #@! TO.C,J1*
X188563375Y-138251509D02*
X196263405Y-143643127D01*
X199590148Y-138892045D02*
X198442995Y-140530349D01*
X189653171Y-136695120D02*
X188563375Y-138251509D01*
X191890119Y-133500427D02*
X190742966Y-135138731D01*
X197353200Y-142086738D02*
X196263405Y-143643127D01*
G04 #@! TO.C,C20*
X136003883Y-122937916D02*
X136144463Y-122694424D01*
X135120537Y-122427916D02*
X135261117Y-122184424D01*
G04 #@! TO.C,C21*
X77013254Y-136041383D02*
X77256746Y-136181963D01*
X77523254Y-135158037D02*
X77766746Y-135298617D01*
G04 #@! TO.C,C17*
X57190000Y-98099420D02*
X57190000Y-98380580D01*
X58210000Y-98099420D02*
X58210000Y-98380580D01*
G04 #@! TO.C,D7*
X96310000Y-148710000D02*
X103610000Y-148710000D01*
X96310000Y-143210000D02*
X103610000Y-143210000D01*
X103610000Y-148710000D02*
X103610000Y-147560000D01*
G04 #@! TO.C,J9*
X195730942Y-79388154D02*
X197611846Y-81269058D01*
X201161522Y-73957574D02*
X203042426Y-75838478D01*
X203000000Y-72119096D02*
X203940452Y-73059548D01*
X202059548Y-73059548D02*
X203000000Y-72119096D01*
X201161522Y-73957574D02*
X195730942Y-79388154D01*
X203042426Y-75838478D02*
X197611846Y-81269058D01*
G04 #@! TO.C,D17*
X255850000Y-108725000D02*
X257850000Y-108725000D01*
X257850000Y-108725000D02*
X257850000Y-104825000D01*
X255850000Y-108725000D02*
X255850000Y-104825000D01*
G04 #@! TO.C,C11*
X119293254Y-137098617D02*
X119536746Y-136958037D01*
X119803254Y-137981963D02*
X120046746Y-137841383D01*
G04 #@! TO.C,D20*
X202605421Y-132354174D02*
X200516583Y-130891555D01*
X201630341Y-133746733D02*
X199541503Y-132284113D01*
X201630341Y-133746733D02*
X202605421Y-132354174D01*
G04 #@! TO.C,C14*
X259838748Y-104490000D02*
X260361252Y-104490000D01*
X259838748Y-105960000D02*
X260361252Y-105960000D01*
G04 #@! TO.C,R21*
X199562742Y-90822500D02*
X200037258Y-90822500D01*
X199562742Y-89777500D02*
X200037258Y-89777500D01*
G04 #@! TO.C,R3*
X200288776Y-133442161D02*
X200540486Y-133618411D01*
X199852858Y-134064717D02*
X200104568Y-134240967D01*
G04 #@! TO.C,J11*
X202042426Y-123161522D02*
X196611846Y-117730942D01*
X200161522Y-125042426D02*
X194730942Y-119611846D01*
X196611846Y-117730942D02*
X194730942Y-119611846D01*
X202042426Y-123161522D02*
X200161522Y-125042426D01*
X203880904Y-125000000D02*
X202940452Y-125940452D01*
X202940452Y-124059548D02*
X203880904Y-125000000D01*
G04 #@! TO.C,R13*
X261462742Y-97952500D02*
X261937258Y-97952500D01*
X261462742Y-98997500D02*
X261937258Y-98997500D01*
G04 #@! TO.C,R16*
X211674758Y-94822500D02*
X211200242Y-94822500D01*
X211674758Y-93777500D02*
X211200242Y-93777500D01*
G04 #@! TO.C,D1*
X103610000Y-56710000D02*
X96310000Y-56710000D01*
X96310000Y-51210000D02*
X96310000Y-52360000D01*
X103610000Y-51210000D02*
X96310000Y-51210000D01*
G04 #@! TO.C,R23*
X200037258Y-91427500D02*
X199562742Y-91427500D01*
X200037258Y-92472500D02*
X199562742Y-92472500D01*
G04 #@! TO.C,D14*
X252465000Y-116200000D02*
X252465000Y-118485000D01*
X253935000Y-118485000D02*
X253935000Y-116200000D01*
X252465000Y-118485000D02*
X253935000Y-118485000D01*
G04 #@! TO.C,U5*
X205637500Y-90315000D02*
X207587500Y-90315000D01*
X205637500Y-99185000D02*
X209087500Y-99185000D01*
X205637500Y-90315000D02*
X203687500Y-90315000D01*
X205637500Y-99185000D02*
X203687500Y-99185000D01*
G04 #@! TO.C,R8*
X223377500Y-131302742D02*
X223377500Y-131777258D01*
X224422500Y-131302742D02*
X224422500Y-131777258D01*
G04 #@! TO.C,D3*
X139240598Y-81495993D02*
X135590598Y-75174007D01*
X140353738Y-72424007D02*
X139357809Y-72999007D01*
X144003738Y-78745993D02*
X140353738Y-72424007D01*
G04 #@! TO.C,D18*
X192788757Y-127409216D02*
X194251377Y-125320378D01*
X194181316Y-128384296D02*
X195643935Y-126295458D01*
X192788757Y-127409216D02*
X194181316Y-128384296D01*
G04 #@! TO.C,U3*
X263385000Y-101787500D02*
X263385000Y-100987500D01*
X260265000Y-101787500D02*
X260265000Y-100987500D01*
X260265000Y-101787500D02*
X260265000Y-103587500D01*
X263385000Y-101787500D02*
X263385000Y-102587500D01*
G04 #@! TO.C,R7*
X189812742Y-101972500D02*
X190287258Y-101972500D01*
X189812742Y-100927500D02*
X190287258Y-100927500D01*
G04 #@! TO.C,R29*
X176077500Y-114262258D02*
X176077500Y-113787742D01*
X177122500Y-114262258D02*
X177122500Y-113787742D01*
G04 #@! TO.C,D6*
X121174007Y-144003738D02*
X127495993Y-140353738D01*
X127495993Y-140353738D02*
X126920993Y-139357809D01*
X118424007Y-139240598D02*
X124745993Y-135590598D01*
G04 #@! TO.C,C16*
X122336746Y-64721963D02*
X122093254Y-64581383D01*
X122846746Y-63838617D02*
X122603254Y-63698037D01*
G04 #@! TO.C,R12*
X239062742Y-142777500D02*
X239537258Y-142777500D01*
X239062742Y-143822500D02*
X239537258Y-143822500D01*
G04 #@! TO.C,C1*
X225715000Y-131178748D02*
X225715000Y-131701252D01*
X227185000Y-131178748D02*
X227185000Y-131701252D01*
G04 #@! TO.C,R22*
X200037258Y-95672500D02*
X199562742Y-95672500D01*
X200037258Y-94627500D02*
X199562742Y-94627500D01*
G04 #@! TO.C,C9*
X178697278Y-109341338D02*
X178416118Y-109341338D01*
X178697278Y-110361338D02*
X178416118Y-110361338D01*
G04 #@! TO.C,R18*
X211674758Y-91677500D02*
X211200242Y-91677500D01*
X211674758Y-92722500D02*
X211200242Y-92722500D01*
G04 #@! TO.C,U1*
X176150000Y-106500000D02*
X187350000Y-106500000D01*
X187350000Y-106500000D02*
X187350000Y-93300000D01*
X187350000Y-93300000D02*
X176150000Y-93300000D01*
X176150000Y-93300000D02*
X176150000Y-106500000D01*
X176150000Y-106500000D02*
X170750000Y-106500000D01*
X170750000Y-106500000D02*
X170750000Y-93300000D01*
X170750000Y-93300000D02*
X176150000Y-93300000D01*
X176150000Y-93300000D02*
X176150000Y-106500000D01*
G04 #@! TO.C,C22*
X141660000Y-101790580D02*
X141660000Y-101509420D01*
X142680000Y-101790580D02*
X142680000Y-101509420D01*
G04 #@! TO.C,R20*
X200037258Y-93027500D02*
X199562742Y-93027500D01*
X200037258Y-94072500D02*
X199562742Y-94072500D01*
G04 #@! TO.C,C23*
X101810580Y-58090000D02*
X101529420Y-58090000D01*
X101810580Y-57070000D02*
X101529420Y-57070000D01*
G04 #@! TO.C,C18*
X62921383Y-119353254D02*
X63061963Y-119596746D01*
X62038037Y-119863254D02*
X62178617Y-120106746D01*
G04 #@! TO.C,C5*
X223255000Y-94641252D02*
X223255000Y-94118748D01*
X221785000Y-94641252D02*
X221785000Y-94118748D01*
G04 #@! TO.C,R2*
X197259799Y-131199173D02*
X197008089Y-131022923D01*
X196823881Y-131821729D02*
X196572171Y-131645479D01*
D12*
G04 #@! TO.C,BT1*
X250770000Y-61630000D02*
X250770000Y-138630000D01*
D11*
X242520000Y-129880000D02*
X238770000Y-129880000D01*
D12*
X230770000Y-138630000D02*
X230770000Y-61630000D01*
D11*
X240645000Y-128005000D02*
X240645000Y-131755000D01*
D12*
X250770000Y-138630000D02*
X230770000Y-138630000D01*
X250770000Y-61630000D02*
X230770000Y-61630000D01*
D11*
X241770000Y-65880000D02*
X239770000Y-65880000D01*
G04 #@! TO.C,Q2*
X212740000Y-100650000D02*
X212740000Y-102325000D01*
X215860000Y-100650000D02*
X215860000Y-100000000D01*
X212740000Y-100650000D02*
X212740000Y-100000000D01*
X215860000Y-100650000D02*
X215860000Y-101300000D01*
G04 #@! TO.C,D24*
X197989763Y-127230054D02*
X195752815Y-130424747D01*
X197989763Y-127230054D02*
X196351459Y-126082901D01*
X196351459Y-126082901D02*
X194114511Y-129277594D01*
G04 #@! TO.C,SW1*
X200512265Y-145498957D02*
X203004612Y-146661158D01*
X203004612Y-146661158D02*
X202053721Y-148700350D01*
X202053721Y-148700350D02*
X199561373Y-147538149D01*
X199561373Y-147538149D02*
X200512265Y-145498957D01*
X209417785Y-127584111D02*
X211230400Y-128429347D01*
X211230400Y-128429347D02*
X207004218Y-137492425D01*
X207004218Y-137492425D02*
X205191602Y-136647189D01*
X205191602Y-136647189D02*
X209417785Y-127584111D01*
X198699650Y-144653721D02*
X205043804Y-147612049D01*
X205043804Y-147612049D02*
X209269987Y-138548971D01*
X209269987Y-138548971D02*
X202925833Y-135590643D01*
X202925833Y-135590643D02*
X198699650Y-144653721D01*
G04 #@! TO.C,Q7*
X255135000Y-91575000D02*
X255135000Y-89900000D01*
X252015000Y-91575000D02*
X252015000Y-92225000D01*
X255135000Y-91575000D02*
X255135000Y-92225000D01*
X252015000Y-91575000D02*
X252015000Y-90925000D01*
G04 #@! TO.C,R10*
X263297500Y-105512742D02*
X263297500Y-105987258D01*
X262252500Y-105512742D02*
X262252500Y-105987258D01*
G04 #@! TO.C,R5*
X181635346Y-110348837D02*
X182109862Y-110348837D01*
X181635346Y-109303837D02*
X182109862Y-109303837D01*
G04 #@! TO.C,C4*
X206027366Y-100290000D02*
X205746206Y-100290000D01*
X206027366Y-101310000D02*
X205746206Y-101310000D01*
G04 #@! TO.C,TP1*
X73700000Y-76000000D02*
G75*
G03*
X73700000Y-76000000I-1200000J0D01*
G01*
G04 #@! TO.C,R19*
X200036544Y-97272500D02*
X199562028Y-97272500D01*
X200036544Y-96227500D02*
X199562028Y-96227500D01*
G04 #@! TO.C,C10*
X229185000Y-125228748D02*
X229185000Y-125751252D01*
X227715000Y-125228748D02*
X227715000Y-125751252D01*
G04 #@! TO.C,R1*
X190287258Y-99377500D02*
X189812742Y-99377500D01*
X190287258Y-100422500D02*
X189812742Y-100422500D01*
G04 #@! TO.C,C3*
X206198038Y-102015000D02*
X205675534Y-102015000D01*
X206198038Y-103485000D02*
X205675534Y-103485000D01*
G04 #@! TO.C,C2*
X185500493Y-107112482D02*
X186022997Y-107112482D01*
X185500493Y-108582482D02*
X186022997Y-108582482D01*
G04 #@! TO.C,D2*
X124745993Y-64329401D02*
X118424007Y-60679401D01*
X127495993Y-59566261D02*
X121174007Y-55916261D01*
X121174007Y-55916261D02*
X120599007Y-56912190D01*
G04 #@! TO.C,C26*
X224609420Y-89160000D02*
X224890580Y-89160000D01*
X224609420Y-88140000D02*
X224890580Y-88140000D01*
G04 #@! TO.C,R6*
X220177500Y-121327258D02*
X220177500Y-120852742D01*
X221222500Y-121327258D02*
X221222500Y-120852742D01*
G04 #@! TO.C,Q3*
X191040000Y-72000000D02*
X191040000Y-72650000D01*
X194160000Y-72000000D02*
X194160000Y-70325000D01*
X194160000Y-72000000D02*
X194160000Y-72650000D01*
X191040000Y-72000000D02*
X191040000Y-71350000D01*
G04 #@! TO.C,BZ1*
X195850000Y-62750000D02*
X195850000Y-61250000D01*
X195100000Y-62000000D02*
X196600000Y-62000000D01*
D13*
X207780000Y-64500000D02*
G75*
G03*
X207780000Y-64500000I-5680000J0D01*
G01*
D11*
G04 #@! TO.C,R26*
X129703641Y-77920000D02*
X129396359Y-77920000D01*
X129703641Y-78680000D02*
X129396359Y-78680000D01*
G04 #@! TO.C,U2*
X221960000Y-125190000D02*
X221960000Y-128715000D01*
X227140000Y-125190000D02*
X227140000Y-127070000D01*
X227140000Y-125190000D02*
X227140000Y-123310000D01*
X221960000Y-125190000D02*
X221960000Y-123310000D01*
G04 #@! TO.C,J3*
X259422620Y-73207500D02*
X259422620Y-78347500D01*
X259422620Y-70607500D02*
X259422620Y-71937500D01*
X258092620Y-70607500D02*
X259422620Y-70607500D01*
X256762620Y-73207500D02*
X256762620Y-78347500D01*
X256762620Y-73207500D02*
X259422620Y-73207500D01*
X256762620Y-78347500D02*
X259422620Y-78347500D01*
G04 #@! TO.C,R15*
X191843690Y-124084758D02*
X191843690Y-123610242D01*
X190798690Y-124084758D02*
X190798690Y-123610242D01*
G04 #@! TO.C,D11*
X64329401Y-75174007D02*
X60679401Y-81495993D01*
X59566261Y-72424007D02*
X55916261Y-78745993D01*
X55916261Y-78745993D02*
X56912190Y-79320993D01*
G04 #@! TO.C,D16*
X237410000Y-142540000D02*
X235125000Y-142540000D01*
X237410000Y-144010000D02*
X237410000Y-142540000D01*
X235125000Y-144010000D02*
X237410000Y-144010000D01*
G04 #@! TO.C,C25*
X179581190Y-121756920D02*
X179581190Y-122038080D01*
X178561190Y-121756920D02*
X178561190Y-122038080D01*
G04 #@! TO.C,D12*
X78745992Y-55916261D02*
X72424006Y-59566261D01*
X81495992Y-60679401D02*
X75174006Y-64329401D01*
X72424006Y-59566261D02*
X72999006Y-60562190D01*
G04 #@! TO.C,D22*
X182221190Y-120527500D02*
X180221190Y-120527500D01*
X180221190Y-120527500D02*
X180221190Y-124427500D01*
X182221190Y-120527500D02*
X182221190Y-124427500D01*
G04 #@! TO.C,C12*
X80236746Y-62028037D02*
X79993254Y-62168617D01*
X80746746Y-62911383D02*
X80503254Y-63051963D01*
G04 #@! TO.C,R27*
X127006359Y-82465000D02*
X127313641Y-82465000D01*
X127006359Y-81705000D02*
X127313641Y-81705000D01*
G04 #@! TO.C,Q4*
X188391190Y-125267500D02*
X187741190Y-125267500D01*
X188391190Y-122147500D02*
X189041190Y-122147500D01*
X188391190Y-122147500D02*
X187741190Y-122147500D01*
X188391190Y-125267500D02*
X190066190Y-125267500D01*
G04 #@! TO.C,C15*
X137861963Y-80026746D02*
X137721383Y-79783254D01*
X136978617Y-80536746D02*
X136838037Y-80293254D01*
G04 #@! TO.C,D8*
X72424007Y-140353738D02*
X78745993Y-144003738D01*
X75174007Y-135590598D02*
X81495993Y-139240598D01*
X78745993Y-144003738D02*
X79320993Y-143007809D01*
G04 #@! TO.C,R11*
X254837258Y-74960000D02*
X254362742Y-74960000D01*
X254837258Y-73915000D02*
X254362742Y-73915000D01*
G04 #@! TD*
M02*
