G04 #@! TF.GenerationSoftware,KiCad,Pcbnew,6.0.11-2627ca5db0~126~ubuntu20.04.1*
G04 #@! TF.CreationDate,2023-02-06T20:23:24+01:00*
G04 #@! TF.ProjectId,Semafor,53656d61-666f-4722-9e6b-696361645f70,rev?*
G04 #@! TF.SameCoordinates,Original*
G04 #@! TF.FileFunction,Legend,Top*
G04 #@! TF.FilePolarity,Positive*
%FSLAX46Y46*%
G04 Gerber Fmt 4.6, Leading zero omitted, Abs format (unit mm)*
G04 Created by KiCad (PCBNEW 6.0.11-2627ca5db0~126~ubuntu20.04.1) date 2023-02-06 20:23:24*
%MOMM*%
%LPD*%
G01*
G04 APERTURE LIST*
%ADD10C,0.500000*%
%ADD11C,0.300000*%
%ADD12C,0.150000*%
%ADD13C,0.120000*%
%ADD14C,0.050000*%
G04 APERTURE END LIST*
D10*
X-110300000Y71750000D02*
X-89600000Y71750000D01*
X-89600000Y71750000D02*
X-89600000Y51200000D01*
X-89600000Y51200000D02*
X-110300000Y51200000D01*
X-110300000Y51200000D02*
X-110300000Y71750000D01*
X-110450000Y148700000D02*
X-89750000Y148700000D01*
X-89750000Y148700000D02*
X-89750000Y128150000D01*
X-89750000Y128150000D02*
X-110450000Y128150000D01*
X-110450000Y128150000D02*
X-110450000Y148700000D01*
X-71850000Y110300000D02*
X-51150000Y110300000D01*
X-51150000Y110300000D02*
X-51150000Y89750000D01*
X-51150000Y89750000D02*
X-71850000Y89750000D01*
X-71850000Y89750000D02*
X-71850000Y110300000D01*
X-125212500Y125000000D02*
X-74912500Y125000000D01*
X-74912500Y125000000D02*
X-74912500Y74925000D01*
X-74912500Y74925000D02*
X-125212500Y74925000D01*
X-125212500Y74925000D02*
X-125212500Y125000000D01*
X-149000000Y110200000D02*
X-128300000Y110200000D01*
X-128300000Y110200000D02*
X-128300000Y89650000D01*
X-128300000Y89650000D02*
X-149000000Y89650000D01*
X-149000000Y89650000D02*
X-149000000Y110200000D01*
D11*
X-81807142Y66065714D02*
X-81378571Y65922857D01*
X-80664285Y65922857D01*
X-80378571Y66065714D01*
X-80235714Y66208571D01*
X-80092857Y66494285D01*
X-80092857Y66780000D01*
X-80235714Y67065714D01*
X-80378571Y67208571D01*
X-80664285Y67351428D01*
X-81235714Y67494285D01*
X-81521428Y67637142D01*
X-81664285Y67780000D01*
X-81807142Y68065714D01*
X-81807142Y68351428D01*
X-81664285Y68637142D01*
X-81521428Y68780000D01*
X-81235714Y68922857D01*
X-80521428Y68922857D01*
X-80092857Y68780000D01*
X-77664285Y66065714D02*
X-77950000Y65922857D01*
X-78521428Y65922857D01*
X-78807142Y66065714D01*
X-78950000Y66351428D01*
X-78950000Y67494285D01*
X-78807142Y67780000D01*
X-78521428Y67922857D01*
X-77950000Y67922857D01*
X-77664285Y67780000D01*
X-77521428Y67494285D01*
X-77521428Y67208571D01*
X-78950000Y66922857D01*
X-76235714Y65922857D02*
X-76235714Y67922857D01*
X-76235714Y67637142D02*
X-76092857Y67780000D01*
X-75807142Y67922857D01*
X-75378571Y67922857D01*
X-75092857Y67780000D01*
X-74950000Y67494285D01*
X-74950000Y65922857D01*
X-74950000Y67494285D02*
X-74807142Y67780000D01*
X-74521428Y67922857D01*
X-74092857Y67922857D01*
X-73807142Y67780000D01*
X-73664285Y67494285D01*
X-73664285Y65922857D01*
X-70950000Y65922857D02*
X-70950000Y67494285D01*
X-71092857Y67780000D01*
X-71378571Y67922857D01*
X-71950000Y67922857D01*
X-72235714Y67780000D01*
X-70950000Y66065714D02*
X-71235714Y65922857D01*
X-71950000Y65922857D01*
X-72235714Y66065714D01*
X-72378571Y66351428D01*
X-72378571Y66637142D01*
X-72235714Y66922857D01*
X-71950000Y67065714D01*
X-71235714Y67065714D01*
X-70950000Y67208571D01*
X-69950000Y67922857D02*
X-68807142Y67922857D01*
X-69521428Y65922857D02*
X-69521428Y68494285D01*
X-69378571Y68780000D01*
X-69092857Y68922857D01*
X-68807142Y68922857D01*
X-67378571Y65922857D02*
X-67664285Y66065714D01*
X-67807142Y66208571D01*
X-67950000Y66494285D01*
X-67950000Y67351428D01*
X-67807142Y67637142D01*
X-67664285Y67780000D01*
X-67378571Y67922857D01*
X-66950000Y67922857D01*
X-66664285Y67780000D01*
X-66521428Y67637142D01*
X-66378571Y67351428D01*
X-66378571Y66494285D01*
X-66521428Y66208571D01*
X-66664285Y66065714D01*
X-66950000Y65922857D01*
X-67378571Y65922857D01*
X-65092857Y65922857D02*
X-65092857Y67922857D01*
X-65092857Y67351428D02*
X-64950000Y67637142D01*
X-64807142Y67780000D01*
X-64521428Y67922857D01*
X-64235714Y67922857D01*
X-60378571Y68922857D02*
X-60092857Y68922857D01*
X-59807142Y68780000D01*
X-59664285Y68637142D01*
X-59521428Y68351428D01*
X-59378571Y67780000D01*
X-59378571Y67065714D01*
X-59521428Y66494285D01*
X-59664285Y66208571D01*
X-59807142Y66065714D01*
X-60092857Y65922857D01*
X-60378571Y65922857D01*
X-60664285Y66065714D01*
X-60807142Y66208571D01*
X-60950000Y66494285D01*
X-61092857Y67065714D01*
X-61092857Y67780000D01*
X-60950000Y68351428D01*
X-60807142Y68637142D01*
X-60664285Y68780000D01*
X-60378571Y68922857D01*
X-58092857Y66208571D02*
X-57950000Y66065714D01*
X-58092857Y65922857D01*
X-58235714Y66065714D01*
X-58092857Y66208571D01*
X-58092857Y65922857D01*
X-56092857Y68922857D02*
X-55807142Y68922857D01*
X-55521428Y68780000D01*
X-55378571Y68637142D01*
X-55235714Y68351428D01*
X-55092857Y67780000D01*
X-55092857Y67065714D01*
X-55235714Y66494285D01*
X-55378571Y66208571D01*
X-55521428Y66065714D01*
X-55807142Y65922857D01*
X-56092857Y65922857D01*
X-56378571Y66065714D01*
X-56521428Y66208571D01*
X-56664285Y66494285D01*
X-56807142Y67065714D01*
X-56807142Y67780000D01*
X-56664285Y68351428D01*
X-56521428Y68637142D01*
X-56378571Y68780000D01*
X-56092857Y68922857D01*
X-71378571Y61092857D02*
X-71378571Y64092857D01*
X-71378571Y62950000D02*
X-71092857Y63092857D01*
X-70521428Y63092857D01*
X-70235714Y62950000D01*
X-70092857Y62807142D01*
X-69950000Y62521428D01*
X-69950000Y61664285D01*
X-70092857Y61378571D01*
X-70235714Y61235714D01*
X-70521428Y61092857D01*
X-71092857Y61092857D01*
X-71378571Y61235714D01*
X-68950000Y63092857D02*
X-68235714Y61092857D01*
X-67521428Y63092857D02*
X-68235714Y61092857D01*
X-68521428Y60378571D01*
X-68664285Y60235714D01*
X-68950000Y60092857D01*
X-86164285Y56262857D02*
X-87164285Y57691428D01*
X-87878571Y56262857D02*
X-87878571Y59262857D01*
X-86735714Y59262857D01*
X-86450000Y59120000D01*
X-86307142Y58977142D01*
X-86164285Y58691428D01*
X-86164285Y58262857D01*
X-86307142Y57977142D01*
X-86450000Y57834285D01*
X-86735714Y57691428D01*
X-87878571Y57691428D01*
X-83735714Y56405714D02*
X-84021428Y56262857D01*
X-84592857Y56262857D01*
X-84878571Y56405714D01*
X-85021428Y56691428D01*
X-85021428Y57834285D01*
X-84878571Y58120000D01*
X-84592857Y58262857D01*
X-84021428Y58262857D01*
X-83735714Y58120000D01*
X-83592857Y57834285D01*
X-83592857Y57548571D01*
X-85021428Y57262857D01*
X-82307142Y58262857D02*
X-82307142Y56262857D01*
X-82307142Y57977142D02*
X-82164285Y58120000D01*
X-81878571Y58262857D01*
X-81450000Y58262857D01*
X-81164285Y58120000D01*
X-81021428Y57834285D01*
X-81021428Y56262857D01*
X-78307142Y56262857D02*
X-78307142Y57834285D01*
X-78450000Y58120000D01*
X-78735714Y58262857D01*
X-79307142Y58262857D01*
X-79592857Y58120000D01*
X-78307142Y56405714D02*
X-78592857Y56262857D01*
X-79307142Y56262857D01*
X-79592857Y56405714D01*
X-79735714Y56691428D01*
X-79735714Y56977142D01*
X-79592857Y57262857D01*
X-79307142Y57405714D01*
X-78592857Y57405714D01*
X-78307142Y57548571D01*
X-77307142Y58262857D02*
X-76164285Y58262857D01*
X-76878571Y59262857D02*
X-76878571Y56691428D01*
X-76735714Y56405714D01*
X-76450000Y56262857D01*
X-76164285Y56262857D01*
X-73878571Y56262857D02*
X-73878571Y57834285D01*
X-74021428Y58120000D01*
X-74307142Y58262857D01*
X-74878571Y58262857D01*
X-75164285Y58120000D01*
X-73878571Y56405714D02*
X-74164285Y56262857D01*
X-74878571Y56262857D01*
X-75164285Y56405714D01*
X-75307142Y56691428D01*
X-75307142Y56977142D01*
X-75164285Y57262857D01*
X-74878571Y57405714D01*
X-74164285Y57405714D01*
X-73878571Y57548571D01*
X-70450000Y59262857D02*
X-68450000Y59262857D01*
X-70450000Y56262857D01*
X-68450000Y56262857D01*
X-66164285Y56405714D02*
X-66450000Y56262857D01*
X-67021428Y56262857D01*
X-67307142Y56405714D01*
X-67450000Y56691428D01*
X-67450000Y57834285D01*
X-67307142Y58120000D01*
X-67021428Y58262857D01*
X-66450000Y58262857D01*
X-66164285Y58120000D01*
X-66021428Y57834285D01*
X-66021428Y57548571D01*
X-67450000Y57262857D01*
X-64735714Y56262857D02*
X-64735714Y58262857D01*
X-64735714Y57977142D02*
X-64592857Y58120000D01*
X-64307142Y58262857D01*
X-63878571Y58262857D01*
X-63592857Y58120000D01*
X-63450000Y57834285D01*
X-63450000Y56262857D01*
X-63450000Y57834285D02*
X-63307142Y58120000D01*
X-63021428Y58262857D01*
X-62592857Y58262857D01*
X-62307142Y58120000D01*
X-62164285Y57834285D01*
X-62164285Y56262857D01*
X-59450000Y56262857D02*
X-59450000Y57834285D01*
X-59592857Y58120000D01*
X-59878571Y58262857D01*
X-60450000Y58262857D01*
X-60735714Y58120000D01*
X-59450000Y56405714D02*
X-59735714Y56262857D01*
X-60450000Y56262857D01*
X-60735714Y56405714D01*
X-60878571Y56691428D01*
X-60878571Y56977142D01*
X-60735714Y57262857D01*
X-60450000Y57405714D01*
X-59735714Y57405714D01*
X-59450000Y57548571D01*
X-58021428Y58262857D02*
X-58021428Y56262857D01*
X-58021428Y57977142D02*
X-57878571Y58120000D01*
X-57592857Y58262857D01*
X-57164285Y58262857D01*
X-56878571Y58120000D01*
X-56735714Y57834285D01*
X-56735714Y56262857D01*
X-54878571Y56262857D02*
X-55164285Y56405714D01*
X-55307142Y56548571D01*
X-55450000Y56834285D01*
X-55450000Y57691428D01*
X-55307142Y57977142D01*
X-55164285Y58120000D01*
X-54878571Y58262857D01*
X-54450000Y58262857D01*
X-54164285Y58120000D01*
X-54021428Y57977142D01*
X-53878571Y57691428D01*
X-53878571Y56834285D01*
X-54021428Y56548571D01*
X-54164285Y56405714D01*
X-54450000Y56262857D01*
X-54878571Y56262857D01*
X-52878571Y58262857D02*
X-52164285Y56262857D01*
X-51450000Y58262857D01*
X-49021428Y56262857D02*
X-49021428Y57834285D01*
X-49164285Y58120000D01*
X-49450000Y58262857D01*
X-50021428Y58262857D01*
X-50307142Y58120000D01*
X-49021428Y56405714D02*
X-49307142Y56262857D01*
X-50021428Y56262857D01*
X-50307142Y56405714D01*
X-50450000Y56691428D01*
X-50450000Y56977142D01*
X-50307142Y57262857D01*
X-50021428Y57405714D01*
X-49307142Y57405714D01*
X-49021428Y57548571D01*
X-49450000Y59405714D02*
X-49878571Y58977142D01*
D12*
G04 #@! TO.C,BTN3_DOWN1*
X-103985714Y73521428D02*
X-103842857Y73473809D01*
X-103795238Y73426190D01*
X-103747619Y73330952D01*
X-103747619Y73188095D01*
X-103795238Y73092857D01*
X-103842857Y73045238D01*
X-103938095Y72997619D01*
X-104319047Y72997619D01*
X-104319047Y73997619D01*
X-103985714Y73997619D01*
X-103890476Y73950000D01*
X-103842857Y73902380D01*
X-103795238Y73807142D01*
X-103795238Y73711904D01*
X-103842857Y73616666D01*
X-103890476Y73569047D01*
X-103985714Y73521428D01*
X-104319047Y73521428D01*
X-103461904Y73997619D02*
X-102890476Y73997619D01*
X-103176190Y72997619D02*
X-103176190Y73997619D01*
X-102557142Y72997619D02*
X-102557142Y73997619D01*
X-101985714Y72997619D01*
X-101985714Y73997619D01*
X-101604761Y73997619D02*
X-100985714Y73997619D01*
X-101319047Y73616666D01*
X-101176190Y73616666D01*
X-101080952Y73569047D01*
X-101033333Y73521428D01*
X-100985714Y73426190D01*
X-100985714Y73188095D01*
X-101033333Y73092857D01*
X-101080952Y73045238D01*
X-101176190Y72997619D01*
X-101461904Y72997619D01*
X-101557142Y73045238D01*
X-101604761Y73092857D01*
X-100795238Y72902380D02*
X-100033333Y72902380D01*
X-99795238Y72997619D02*
X-99795238Y73997619D01*
X-99557142Y73997619D01*
X-99414285Y73950000D01*
X-99319047Y73854761D01*
X-99271428Y73759523D01*
X-99223809Y73569047D01*
X-99223809Y73426190D01*
X-99271428Y73235714D01*
X-99319047Y73140476D01*
X-99414285Y73045238D01*
X-99557142Y72997619D01*
X-99795238Y72997619D01*
X-98604761Y73997619D02*
X-98414285Y73997619D01*
X-98319047Y73950000D01*
X-98223809Y73854761D01*
X-98176190Y73664285D01*
X-98176190Y73330952D01*
X-98223809Y73140476D01*
X-98319047Y73045238D01*
X-98414285Y72997619D01*
X-98604761Y72997619D01*
X-98700000Y73045238D01*
X-98795238Y73140476D01*
X-98842857Y73330952D01*
X-98842857Y73664285D01*
X-98795238Y73854761D01*
X-98700000Y73950000D01*
X-98604761Y73997619D01*
X-97842857Y73997619D02*
X-97604761Y72997619D01*
X-97414285Y73711904D01*
X-97223809Y72997619D01*
X-96985714Y73997619D01*
X-96604761Y72997619D02*
X-96604761Y73997619D01*
X-96033333Y72997619D01*
X-96033333Y73997619D01*
X-95033333Y72997619D02*
X-95604761Y72997619D01*
X-95319047Y72997619D02*
X-95319047Y73997619D01*
X-95414285Y73854761D01*
X-95509523Y73759523D01*
X-95604761Y73711904D01*
G04 #@! TO.C,D5*
X-39628828Y58647776D02*
X-40494853Y59147776D01*
X-40375806Y59353972D01*
X-40263138Y59453881D01*
X-40133040Y59488740D01*
X-40026752Y59482361D01*
X-39837985Y59428362D01*
X-39714267Y59356933D01*
X-39573119Y59220456D01*
X-39514450Y59131597D01*
X-39479591Y59001500D01*
X-39509780Y58853972D01*
X-39628828Y58647776D01*
X-39756758Y60426194D02*
X-39994853Y60013801D01*
X-39606270Y59734467D01*
X-39623699Y59799515D01*
X-39617320Y59905804D01*
X-39498272Y60112000D01*
X-39409414Y60170669D01*
X-39344365Y60188099D01*
X-39238077Y60181719D01*
X-39031880Y60062672D01*
X-38973211Y59973813D01*
X-38955781Y59908764D01*
X-38962161Y59802476D01*
X-39081209Y59596280D01*
X-39170067Y59537611D01*
X-39235116Y59520181D01*
X-42354231Y62327243D02*
X-42639945Y61832371D01*
X-42497088Y62079807D02*
X-43363114Y62579807D01*
X-43287015Y62425900D01*
X-43252155Y62295802D01*
X-43258535Y62189514D01*
G04 #@! TO.C,SW6*
X-140500238Y73991666D02*
X-140452619Y74134523D01*
X-140452619Y74372619D01*
X-140500238Y74467857D01*
X-140547857Y74515476D01*
X-140643095Y74563095D01*
X-140738333Y74563095D01*
X-140833571Y74515476D01*
X-140881190Y74467857D01*
X-140928809Y74372619D01*
X-140976428Y74182142D01*
X-141024047Y74086904D01*
X-141071666Y74039285D01*
X-141166904Y73991666D01*
X-141262142Y73991666D01*
X-141357380Y74039285D01*
X-141405000Y74086904D01*
X-141452619Y74182142D01*
X-141452619Y74420238D01*
X-141405000Y74563095D01*
X-141452619Y74896428D02*
X-140452619Y75134523D01*
X-141166904Y75325000D01*
X-140452619Y75515476D01*
X-141452619Y75753571D01*
X-141452619Y76563095D02*
X-141452619Y76372619D01*
X-141405000Y76277380D01*
X-141357380Y76229761D01*
X-141214523Y76134523D01*
X-141024047Y76086904D01*
X-140643095Y76086904D01*
X-140547857Y76134523D01*
X-140500238Y76182142D01*
X-140452619Y76277380D01*
X-140452619Y76467857D01*
X-140500238Y76563095D01*
X-140547857Y76610714D01*
X-140643095Y76658333D01*
X-140881190Y76658333D01*
X-140976428Y76610714D01*
X-141024047Y76563095D01*
X-141071666Y76467857D01*
X-141071666Y76277380D01*
X-141024047Y76182142D01*
X-140976428Y76134523D01*
X-140881190Y76086904D01*
G04 #@! TO.C,BZ1*
X-107480952Y159466428D02*
X-107338095Y159418809D01*
X-107290476Y159371190D01*
X-107242857Y159275952D01*
X-107242857Y159133095D01*
X-107290476Y159037857D01*
X-107338095Y158990238D01*
X-107433333Y158942619D01*
X-107814285Y158942619D01*
X-107814285Y159942619D01*
X-107480952Y159942619D01*
X-107385714Y159895000D01*
X-107338095Y159847380D01*
X-107290476Y159752142D01*
X-107290476Y159656904D01*
X-107338095Y159561666D01*
X-107385714Y159514047D01*
X-107480952Y159466428D01*
X-107814285Y159466428D01*
X-106909523Y159942619D02*
X-106242857Y159942619D01*
X-106909523Y158942619D01*
X-106242857Y158942619D01*
X-105338095Y158942619D02*
X-105909523Y158942619D01*
X-105623809Y158942619D02*
X-105623809Y159942619D01*
X-105719047Y159799761D01*
X-105814285Y159704523D01*
X-105909523Y159656904D01*
G04 #@! TO.C,D4*
X-26997619Y94411905D02*
X-27997619Y94411905D01*
X-27997619Y94650001D01*
X-27950000Y94792858D01*
X-27854761Y94888096D01*
X-27759523Y94935715D01*
X-27569047Y94983334D01*
X-27426190Y94983334D01*
X-27235714Y94935715D01*
X-27140476Y94888096D01*
X-27045238Y94792858D01*
X-26997619Y94650001D01*
X-26997619Y94411905D01*
X-27664285Y95840477D02*
X-26997619Y95840477D01*
X-28045238Y95602381D02*
X-27330952Y95364286D01*
X-27330952Y95983334D01*
X-31197621Y96235716D02*
X-31197621Y95664287D01*
X-31197621Y95950002D02*
X-32197621Y95950002D01*
X-32054763Y95854763D01*
X-31959525Y95759525D01*
X-31911906Y95664287D01*
G04 #@! TO.C,D10*
X-172097619Y104035714D02*
X-173097619Y104035714D01*
X-173097619Y104273809D01*
X-173050000Y104416666D01*
X-172954761Y104511904D01*
X-172859523Y104559523D01*
X-172669047Y104607142D01*
X-172526190Y104607142D01*
X-172335714Y104559523D01*
X-172240476Y104511904D01*
X-172145238Y104416666D01*
X-172097619Y104273809D01*
X-172097619Y104035714D01*
X-172097619Y105559523D02*
X-172097619Y104988095D01*
X-172097619Y105273809D02*
X-173097619Y105273809D01*
X-172954761Y105178571D01*
X-172859523Y105083333D01*
X-172811904Y104988095D01*
X-173097619Y106178571D02*
X-173097619Y106273809D01*
X-173050000Y106369047D01*
X-173002380Y106416666D01*
X-172907142Y106464285D01*
X-172716666Y106511904D01*
X-172478571Y106511904D01*
X-172288095Y106464285D01*
X-172192857Y106416666D01*
X-172145238Y106369047D01*
X-172097619Y106273809D01*
X-172097619Y106178571D01*
X-172145238Y106083333D01*
X-172192857Y106035714D01*
X-172288095Y105988095D01*
X-172478571Y105940476D01*
X-172716666Y105940476D01*
X-172907142Y105988095D01*
X-173002380Y106035714D01*
X-173050000Y106083333D01*
X-173097619Y106178571D01*
X-167997617Y104535713D02*
X-167997617Y103964284D01*
X-167997617Y104249999D02*
X-168997617Y104249999D01*
X-168854759Y104154760D01*
X-168759521Y104059522D01*
X-168711902Y103964284D01*
G04 #@! TO.C,J2*
X-105183333Y24697619D02*
X-105183333Y23983333D01*
X-105230952Y23840476D01*
X-105326190Y23745238D01*
X-105469047Y23697619D01*
X-105564285Y23697619D01*
X-104754761Y24602380D02*
X-104707142Y24650000D01*
X-104611904Y24697619D01*
X-104373809Y24697619D01*
X-104278571Y24650000D01*
X-104230952Y24602380D01*
X-104183333Y24507142D01*
X-104183333Y24411904D01*
X-104230952Y24269047D01*
X-104802380Y23697619D01*
X-104183333Y23697619D01*
G04 #@! TO.C,C24*
X-102392857Y34872857D02*
X-102440476Y34825238D01*
X-102583333Y34777619D01*
X-102678571Y34777619D01*
X-102821428Y34825238D01*
X-102916666Y34920476D01*
X-102964285Y35015714D01*
X-103011904Y35206190D01*
X-103011904Y35349047D01*
X-102964285Y35539523D01*
X-102916666Y35634761D01*
X-102821428Y35730000D01*
X-102678571Y35777619D01*
X-102583333Y35777619D01*
X-102440476Y35730000D01*
X-102392857Y35682380D01*
X-102011904Y35682380D02*
X-101964285Y35730000D01*
X-101869047Y35777619D01*
X-101630952Y35777619D01*
X-101535714Y35730000D01*
X-101488095Y35682380D01*
X-101440476Y35587142D01*
X-101440476Y35491904D01*
X-101488095Y35349047D01*
X-102059523Y34777619D01*
X-101440476Y34777619D01*
X-100583333Y35444285D02*
X-100583333Y34777619D01*
X-100821428Y35825238D02*
X-101059523Y35110952D01*
X-100440476Y35110952D01*
G04 #@! TO.C,C20*
X-44838049Y65608527D02*
X-44820620Y65543479D01*
X-44850809Y65395951D01*
X-44898428Y65313473D01*
X-45011096Y65213564D01*
X-45141193Y65178705D01*
X-45247481Y65185084D01*
X-45436248Y65239083D01*
X-45559966Y65310512D01*
X-45701114Y65446989D01*
X-45759783Y65535847D01*
X-45794642Y65665945D01*
X-45764453Y65813473D01*
X-45716834Y65895951D01*
X-45604166Y65995860D01*
X-45539117Y66013289D01*
X-45348641Y66343204D02*
X-45366071Y66408253D01*
X-45359691Y66514541D01*
X-45240644Y66720737D01*
X-45151785Y66779406D01*
X-45086737Y66796836D01*
X-44980448Y66790456D01*
X-44897970Y66742837D01*
X-44798061Y66630169D01*
X-44588904Y65849584D01*
X-44279380Y66385695D01*
X-44835882Y67421805D02*
X-44788263Y67504284D01*
X-44699404Y67562953D01*
X-44634356Y67580383D01*
X-44528067Y67574003D01*
X-44339301Y67520004D01*
X-44133104Y67400957D01*
X-43991956Y67264479D01*
X-43933287Y67175621D01*
X-43915858Y67110572D01*
X-43922237Y67004284D01*
X-43969856Y66921805D01*
X-44058715Y66863136D01*
X-44123764Y66845707D01*
X-44230052Y66852086D01*
X-44418818Y66906085D01*
X-44625015Y67025133D01*
X-44766163Y67161610D01*
X-44824832Y67250469D01*
X-44842262Y67315517D01*
X-44835882Y67421805D01*
G04 #@! TO.C,C21*
X-133140963Y44827197D02*
X-133123534Y44762149D01*
X-133153723Y44614621D01*
X-133201342Y44532143D01*
X-133314010Y44432234D01*
X-133444107Y44397375D01*
X-133550395Y44403754D01*
X-133739162Y44457753D01*
X-133862880Y44529182D01*
X-134004028Y44665659D01*
X-134062697Y44754517D01*
X-134097556Y44884615D01*
X-134067367Y45032143D01*
X-134019748Y45114621D01*
X-133907080Y45214530D01*
X-133842031Y45231959D01*
X-133651555Y45561874D02*
X-133668985Y45626923D01*
X-133662605Y45733211D01*
X-133543558Y45939407D01*
X-133454699Y45998076D01*
X-133389651Y46015506D01*
X-133283362Y46009126D01*
X-133200884Y45961507D01*
X-133100975Y45848839D01*
X-132891818Y45068254D01*
X-132582294Y45604365D01*
X-132106104Y46429151D02*
X-132391818Y45934279D01*
X-132248961Y46181715D02*
X-133114986Y46681715D01*
X-133038887Y46527808D01*
X-133004028Y46397710D01*
X-133010408Y46291422D01*
G04 #@! TO.C,C17*
X-165992857Y98892857D02*
X-166040476Y98845238D01*
X-166183333Y98797619D01*
X-166278571Y98797619D01*
X-166421428Y98845238D01*
X-166516666Y98940476D01*
X-166564285Y99035714D01*
X-166611904Y99226190D01*
X-166611904Y99369047D01*
X-166564285Y99559523D01*
X-166516666Y99654761D01*
X-166421428Y99750000D01*
X-166278571Y99797619D01*
X-166183333Y99797619D01*
X-166040476Y99750000D01*
X-165992857Y99702380D01*
X-165040476Y98797619D02*
X-165611904Y98797619D01*
X-165326190Y98797619D02*
X-165326190Y99797619D01*
X-165421428Y99654761D01*
X-165516666Y99559523D01*
X-165611904Y99511904D01*
X-164707142Y99797619D02*
X-164040476Y99797619D01*
X-164469047Y98797619D01*
G04 #@! TO.C,D7*
X-105738095Y27047619D02*
X-105738095Y28047619D01*
X-105500000Y28047619D01*
X-105357142Y28000000D01*
X-105261904Y27904761D01*
X-105214285Y27809523D01*
X-105166666Y27619047D01*
X-105166666Y27476190D01*
X-105214285Y27285714D01*
X-105261904Y27190476D01*
X-105357142Y27095238D01*
X-105500000Y27047619D01*
X-105738095Y27047619D01*
X-104833333Y28047619D02*
X-104166666Y28047619D01*
X-104595238Y27047619D01*
X-104938094Y31247621D02*
X-104938094Y32247621D01*
X-104699999Y32247621D01*
X-104557141Y32200002D01*
X-104461903Y32104763D01*
X-104414284Y32009525D01*
X-104366665Y31819049D01*
X-104366665Y31676192D01*
X-104414284Y31485716D01*
X-104461903Y31390478D01*
X-104557141Y31295240D01*
X-104699999Y31247621D01*
X-104938094Y31247621D01*
X-104033332Y32247621D02*
X-103366665Y32247621D01*
X-103795237Y31247621D01*
G04 #@! TO.C,C18*
X-156715659Y65640447D02*
X-156733088Y65575398D01*
X-156832997Y65462730D01*
X-156915475Y65415111D01*
X-157063003Y65384922D01*
X-157193101Y65419782D01*
X-157281959Y65478451D01*
X-157418436Y65619598D01*
X-157489865Y65743316D01*
X-157543864Y65932083D01*
X-157550243Y66038371D01*
X-157515384Y66168469D01*
X-157415475Y66281137D01*
X-157332997Y66328756D01*
X-157185469Y66358945D01*
X-157120421Y66341515D01*
X-155843254Y66034159D02*
X-156338125Y65748445D01*
X-156090689Y65891302D02*
X-156590689Y66757327D01*
X-156601739Y66585990D01*
X-156636599Y66455893D01*
X-156695268Y66367034D01*
X-155634096Y66814745D02*
X-155740384Y66808365D01*
X-155805433Y66825795D01*
X-155894291Y66884464D01*
X-155918101Y66925703D01*
X-155924481Y67031992D01*
X-155907051Y67097040D01*
X-155848382Y67185899D01*
X-155683425Y67281137D01*
X-155577137Y67287517D01*
X-155512088Y67270087D01*
X-155423229Y67211418D01*
X-155399420Y67170178D01*
X-155393040Y67063890D01*
X-155410470Y66998841D01*
X-155469139Y66909983D01*
X-155634096Y66814745D01*
X-155692765Y66725887D01*
X-155710195Y66660838D01*
X-155703815Y66554550D01*
X-155608577Y66389592D01*
X-155519719Y66330923D01*
X-155454670Y66313494D01*
X-155348382Y66319873D01*
X-155183425Y66415111D01*
X-155124756Y66503970D01*
X-155107326Y66569019D01*
X-155113706Y66675307D01*
X-155208944Y66840264D01*
X-155297802Y66898933D01*
X-155362851Y66916363D01*
X-155469139Y66909983D01*
G04 #@! TO.C,C11*
X-69443159Y42557692D02*
X-69460588Y42492643D01*
X-69560497Y42379975D01*
X-69642975Y42332356D01*
X-69790503Y42302167D01*
X-69920601Y42337027D01*
X-70009459Y42395696D01*
X-70145936Y42536843D01*
X-70217365Y42660561D01*
X-70271364Y42849328D01*
X-70277743Y42955616D01*
X-70242884Y43085714D01*
X-70142975Y43198382D01*
X-70060497Y43246001D01*
X-69912969Y43276190D01*
X-69847921Y43258760D01*
X-68570754Y42951404D02*
X-69065625Y42665690D01*
X-68818189Y42808547D02*
X-69318189Y43674572D01*
X-69329239Y43503235D01*
X-69364099Y43373138D01*
X-69422768Y43284279D01*
X-67745967Y43427594D02*
X-68240839Y43141880D01*
X-67993403Y43284737D02*
X-68493403Y44150763D01*
X-68504453Y43979426D01*
X-68539313Y43849328D01*
X-68597982Y43760470D01*
G04 #@! TO.C,BTN1_ENTER1*
X-84776190Y126521428D02*
X-84633333Y126473809D01*
X-84585714Y126426190D01*
X-84538095Y126330952D01*
X-84538095Y126188095D01*
X-84585714Y126092857D01*
X-84633333Y126045238D01*
X-84728571Y125997619D01*
X-85109523Y125997619D01*
X-85109523Y126997619D01*
X-84776190Y126997619D01*
X-84680952Y126950000D01*
X-84633333Y126902380D01*
X-84585714Y126807142D01*
X-84585714Y126711904D01*
X-84633333Y126616666D01*
X-84680952Y126569047D01*
X-84776190Y126521428D01*
X-85109523Y126521428D01*
X-84252380Y126997619D02*
X-83680952Y126997619D01*
X-83966666Y125997619D02*
X-83966666Y126997619D01*
X-83347619Y125997619D02*
X-83347619Y126997619D01*
X-82776190Y125997619D01*
X-82776190Y126997619D01*
X-81776190Y125997619D02*
X-82347619Y125997619D01*
X-82061904Y125997619D02*
X-82061904Y126997619D01*
X-82157142Y126854761D01*
X-82252380Y126759523D01*
X-82347619Y126711904D01*
X-81585714Y125902380D02*
X-80823809Y125902380D01*
X-80585714Y126521428D02*
X-80252380Y126521428D01*
X-80109523Y125997619D02*
X-80585714Y125997619D01*
X-80585714Y126997619D01*
X-80109523Y126997619D01*
X-79680952Y125997619D02*
X-79680952Y126997619D01*
X-79109523Y125997619D01*
X-79109523Y126997619D01*
X-78776190Y126997619D02*
X-78204761Y126997619D01*
X-78490476Y125997619D02*
X-78490476Y126997619D01*
X-77871428Y126521428D02*
X-77538095Y126521428D01*
X-77395238Y125997619D02*
X-77871428Y125997619D01*
X-77871428Y126997619D01*
X-77395238Y126997619D01*
X-76395238Y125997619D02*
X-76728571Y126473809D01*
X-76966666Y125997619D02*
X-76966666Y126997619D01*
X-76585714Y126997619D01*
X-76490476Y126950000D01*
X-76442857Y126902380D01*
X-76395238Y126807142D01*
X-76395238Y126664285D01*
X-76442857Y126569047D01*
X-76490476Y126521428D01*
X-76585714Y126473809D01*
X-76966666Y126473809D01*
X-75442857Y125997619D02*
X-76014285Y125997619D01*
X-75728571Y125997619D02*
X-75728571Y126997619D01*
X-75823809Y126854761D01*
X-75919047Y126759523D01*
X-76014285Y126711904D01*
G04 #@! TO.C,D1*
X-95838095Y172247619D02*
X-95838095Y173247619D01*
X-95600000Y173247619D01*
X-95457142Y173200000D01*
X-95361904Y173104761D01*
X-95314285Y173009523D01*
X-95266666Y172819047D01*
X-95266666Y172676190D01*
X-95314285Y172485714D01*
X-95361904Y172390476D01*
X-95457142Y172295238D01*
X-95600000Y172247619D01*
X-95838095Y172247619D01*
X-94314285Y172247619D02*
X-94885714Y172247619D01*
X-94600000Y172247619D02*
X-94600000Y173247619D01*
X-94695238Y173104761D01*
X-94790476Y173009523D01*
X-94885714Y172961904D01*
X-95614286Y168047617D02*
X-96185715Y168047617D01*
X-95900001Y168047617D02*
X-95900001Y169047617D01*
X-95995239Y168904759D01*
X-96090477Y168809521D01*
X-96185715Y168761902D01*
G04 #@! TO.C,D3*
X-33940732Y131700155D02*
X-34806758Y131200155D01*
X-34925806Y131406351D01*
X-34955995Y131553879D01*
X-34921135Y131683976D01*
X-34862466Y131772835D01*
X-34721318Y131909312D01*
X-34597601Y131980741D01*
X-34408834Y132034739D01*
X-34302546Y132041119D01*
X-34172448Y132006260D01*
X-34059780Y131906351D01*
X-33940732Y131700155D01*
X-35259139Y131983702D02*
X-35568663Y132519813D01*
X-35072082Y132421614D01*
X-35143510Y132545331D01*
X-35149890Y132651620D01*
X-35132460Y132716668D01*
X-35073791Y132805527D01*
X-34867594Y132924574D01*
X-34761306Y132930954D01*
X-34696258Y132913524D01*
X-34607399Y132854855D01*
X-34464542Y132607419D01*
X-34458162Y132501131D01*
X-34475592Y132436082D01*
X-38489946Y131179620D02*
X-38204232Y130684748D01*
X-38347089Y130932184D02*
X-39213115Y130432184D01*
X-39041778Y130421134D01*
X-38911680Y130386274D01*
X-38822822Y130327605D01*
G04 #@! TO.C,D9*
X-164637622Y67673807D02*
X-165503648Y67173807D01*
X-165622696Y67380003D01*
X-165652885Y67527531D01*
X-165618025Y67657628D01*
X-165559356Y67746487D01*
X-165418208Y67882964D01*
X-165294491Y67954393D01*
X-165105724Y68008391D01*
X-164999436Y68014771D01*
X-164869338Y67979912D01*
X-164756670Y67880003D01*
X-164637622Y67673807D01*
X-165161432Y68581071D02*
X-165256670Y68746029D01*
X-165345528Y68804698D01*
X-165410577Y68822128D01*
X-165581914Y68833178D01*
X-165770681Y68779179D01*
X-166100595Y68588703D01*
X-166159265Y68499844D01*
X-166176694Y68434795D01*
X-166170315Y68328507D01*
X-166075076Y68163550D01*
X-165986218Y68104881D01*
X-165921169Y68087451D01*
X-165814881Y68093831D01*
X-165608685Y68212879D01*
X-165550016Y68301737D01*
X-165532586Y68366786D01*
X-165538965Y68473074D01*
X-165634204Y68638031D01*
X-165723062Y68696700D01*
X-165788111Y68714130D01*
X-165894399Y68707750D01*
X-161112218Y69967632D02*
X-160826504Y69472760D01*
X-160969361Y69720196D02*
X-161835387Y69220196D01*
X-161664050Y69209146D01*
X-161533952Y69174286D01*
X-161445094Y69115617D01*
G04 #@! TO.C,D6*
X-68449843Y33990734D02*
X-68949843Y34856760D01*
X-68743647Y34975808D01*
X-68596119Y35005997D01*
X-68466022Y34971137D01*
X-68377163Y34912468D01*
X-68240686Y34771320D01*
X-68169257Y34647603D01*
X-68115259Y34458836D01*
X-68108879Y34352548D01*
X-68143738Y34222450D01*
X-68243647Y34109782D01*
X-68449843Y33990734D01*
X-67712664Y35571046D02*
X-67877621Y35475808D01*
X-67936290Y35386949D01*
X-67953720Y35321900D01*
X-67964770Y35150563D01*
X-67910771Y34961797D01*
X-67720295Y34631882D01*
X-67631437Y34573213D01*
X-67566388Y34555783D01*
X-67460100Y34562163D01*
X-67295143Y34657401D01*
X-67236474Y34746260D01*
X-67219044Y34811308D01*
X-67225424Y34917596D01*
X-67344471Y35123793D01*
X-67433330Y35182462D01*
X-67498378Y35199892D01*
X-67604667Y35193512D01*
X-67769624Y35098274D01*
X-67828293Y35009416D01*
X-67845723Y34944367D01*
X-67839343Y34838079D01*
X-68970378Y38539948D02*
X-69465250Y38254234D01*
X-69217814Y38397091D02*
X-69717814Y39263117D01*
X-69728864Y39091780D01*
X-69763724Y38961682D01*
X-69822393Y38872824D01*
G04 #@! TO.C,C16*
X-67962133Y156314698D02*
X-67944704Y156249650D01*
X-67974893Y156102122D01*
X-68022512Y156019644D01*
X-68135180Y155919735D01*
X-68265277Y155884876D01*
X-68371565Y155891255D01*
X-68560332Y155945254D01*
X-68684050Y156016683D01*
X-68825198Y156153160D01*
X-68883867Y156242018D01*
X-68918726Y156372116D01*
X-68888537Y156519644D01*
X-68840918Y156602122D01*
X-68728250Y156702031D01*
X-68663201Y156719460D01*
X-67403464Y157091866D02*
X-67689178Y156596994D01*
X-67546321Y156844430D02*
X-68412347Y157344430D01*
X-68336248Y157190522D01*
X-68301388Y157060425D01*
X-68307768Y156954137D01*
X-67840918Y158334173D02*
X-67936156Y158169216D01*
X-67942536Y158062928D01*
X-67925106Y157997879D01*
X-67849007Y157843972D01*
X-67707860Y157707494D01*
X-67377945Y157517018D01*
X-67271657Y157510638D01*
X-67206608Y157528068D01*
X-67117750Y157586737D01*
X-67022512Y157751694D01*
X-67016132Y157857983D01*
X-67033562Y157923031D01*
X-67092231Y158011890D01*
X-67298427Y158130937D01*
X-67404716Y158137317D01*
X-67469764Y158119887D01*
X-67558623Y158061218D01*
X-67653861Y157896261D01*
X-67660241Y157789973D01*
X-67642811Y157724924D01*
X-67584142Y157636066D01*
G04 #@! TO.C,C22*
X-35342857Y100792857D02*
X-35390476Y100745238D01*
X-35533333Y100697619D01*
X-35628571Y100697619D01*
X-35771428Y100745238D01*
X-35866666Y100840476D01*
X-35914285Y100935714D01*
X-35961904Y101126190D01*
X-35961904Y101269047D01*
X-35914285Y101459523D01*
X-35866666Y101554761D01*
X-35771428Y101650000D01*
X-35628571Y101697619D01*
X-35533333Y101697619D01*
X-35390476Y101650000D01*
X-35342857Y101602380D01*
X-34961904Y101602380D02*
X-34914285Y101650000D01*
X-34819047Y101697619D01*
X-34580952Y101697619D01*
X-34485714Y101650000D01*
X-34438095Y101602380D01*
X-34390476Y101507142D01*
X-34390476Y101411904D01*
X-34438095Y101269047D01*
X-35009523Y100697619D01*
X-34390476Y100697619D01*
X-34009523Y101602380D02*
X-33961904Y101650000D01*
X-33866666Y101697619D01*
X-33628571Y101697619D01*
X-33533333Y101650000D01*
X-33485714Y101602380D01*
X-33438095Y101507142D01*
X-33438095Y101411904D01*
X-33485714Y101269047D01*
X-34057142Y100697619D01*
X-33438095Y100697619D01*
G04 #@! TO.C,C23*
X-95642857Y166092857D02*
X-95690476Y166045238D01*
X-95833333Y165997619D01*
X-95928571Y165997619D01*
X-96071428Y166045238D01*
X-96166666Y166140476D01*
X-96214285Y166235714D01*
X-96261904Y166426190D01*
X-96261904Y166569047D01*
X-96214285Y166759523D01*
X-96166666Y166854761D01*
X-96071428Y166950000D01*
X-95928571Y166997619D01*
X-95833333Y166997619D01*
X-95690476Y166950000D01*
X-95642857Y166902380D01*
X-95261904Y166902380D02*
X-95214285Y166950000D01*
X-95119047Y166997619D01*
X-94880952Y166997619D01*
X-94785714Y166950000D01*
X-94738095Y166902380D01*
X-94690476Y166807142D01*
X-94690476Y166711904D01*
X-94738095Y166569047D01*
X-95309523Y165997619D01*
X-94690476Y165997619D01*
X-94357142Y166997619D02*
X-93738095Y166997619D01*
X-94071428Y166616666D01*
X-93928571Y166616666D01*
X-93833333Y166569047D01*
X-93785714Y166521428D01*
X-93738095Y166426190D01*
X-93738095Y166188095D01*
X-93785714Y166092857D01*
X-93833333Y166045238D01*
X-93928571Y165997619D01*
X-94214285Y165997619D01*
X-94309523Y166045238D01*
X-94357142Y166092857D01*
G04 #@! TO.C,D11*
X-160015369Y139122207D02*
X-160881394Y139622207D01*
X-160762347Y139828403D01*
X-160649679Y139928312D01*
X-160519581Y139963171D01*
X-160413293Y139956791D01*
X-160224526Y139902793D01*
X-160100808Y139831364D01*
X-159959661Y139694887D01*
X-159900992Y139606028D01*
X-159866132Y139475931D01*
X-159896321Y139328403D01*
X-160015369Y139122207D01*
X-159253464Y140441865D02*
X-159539178Y139946993D01*
X-159396321Y140194429D02*
X-160262347Y140694429D01*
X-160186248Y140540521D01*
X-160151388Y140410424D01*
X-160157768Y140304136D01*
X-158777274Y141266651D02*
X-159062988Y140771779D01*
X-158920131Y141019215D02*
X-159786156Y141519215D01*
X-159710057Y141365308D01*
X-159675198Y141235210D01*
X-159681578Y141128922D01*
X-156676505Y137915249D02*
X-156962219Y137420377D01*
X-156819362Y137667813D02*
X-157685388Y138167813D01*
X-157609289Y138013906D01*
X-157574429Y137883808D01*
X-157580809Y137777520D01*
G04 #@! TO.C,D2*
X-58597774Y160521169D02*
X-59097774Y159655144D01*
X-59303970Y159774191D01*
X-59403879Y159886859D01*
X-59438738Y160016957D01*
X-59432359Y160123245D01*
X-59378360Y160312012D01*
X-59306931Y160435730D01*
X-59170454Y160576878D01*
X-59081595Y160635547D01*
X-58951498Y160670406D01*
X-58803970Y160640217D01*
X-58597774Y160521169D01*
X-59874941Y160213813D02*
X-59939990Y160196383D01*
X-60046278Y160202763D01*
X-60252474Y160321811D01*
X-60311143Y160410669D01*
X-60328573Y160475718D01*
X-60322193Y160582006D01*
X-60274574Y160664484D01*
X-60161907Y160764393D01*
X-59381321Y160973550D01*
X-59917432Y161283074D01*
X-62277241Y157795766D02*
X-61782369Y157510052D01*
X-62029805Y157652909D02*
X-62529805Y156786883D01*
X-62375898Y156862982D01*
X-62245800Y156897842D01*
X-62139512Y156891462D01*
G04 #@! TO.C,BTN5_LEFT1*
X-141983333Y111521428D02*
X-141840476Y111473809D01*
X-141792857Y111426190D01*
X-141745238Y111330952D01*
X-141745238Y111188095D01*
X-141792857Y111092857D01*
X-141840476Y111045238D01*
X-141935714Y110997619D01*
X-142316666Y110997619D01*
X-142316666Y111997619D01*
X-141983333Y111997619D01*
X-141888095Y111950000D01*
X-141840476Y111902380D01*
X-141792857Y111807142D01*
X-141792857Y111711904D01*
X-141840476Y111616666D01*
X-141888095Y111569047D01*
X-141983333Y111521428D01*
X-142316666Y111521428D01*
X-141459523Y111997619D02*
X-140888095Y111997619D01*
X-141173809Y110997619D02*
X-141173809Y111997619D01*
X-140554761Y110997619D02*
X-140554761Y111997619D01*
X-139983333Y110997619D01*
X-139983333Y111997619D01*
X-139030952Y111997619D02*
X-139507142Y111997619D01*
X-139554761Y111521428D01*
X-139507142Y111569047D01*
X-139411904Y111616666D01*
X-139173809Y111616666D01*
X-139078571Y111569047D01*
X-139030952Y111521428D01*
X-138983333Y111426190D01*
X-138983333Y111188095D01*
X-139030952Y111092857D01*
X-139078571Y111045238D01*
X-139173809Y110997619D01*
X-139411904Y110997619D01*
X-139507142Y111045238D01*
X-139554761Y111092857D01*
X-138792857Y110902380D02*
X-138030952Y110902380D01*
X-137316666Y110997619D02*
X-137792857Y110997619D01*
X-137792857Y111997619D01*
X-136983333Y111521428D02*
X-136650000Y111521428D01*
X-136507142Y110997619D02*
X-136983333Y110997619D01*
X-136983333Y111997619D01*
X-136507142Y111997619D01*
X-135745238Y111521428D02*
X-136078571Y111521428D01*
X-136078571Y110997619D02*
X-136078571Y111997619D01*
X-135602380Y111997619D01*
X-135364285Y111997619D02*
X-134792857Y111997619D01*
X-135078571Y110997619D02*
X-135078571Y111997619D01*
X-133935714Y110997619D02*
X-134507142Y110997619D01*
X-134221428Y110997619D02*
X-134221428Y111997619D01*
X-134316666Y111854761D01*
X-134411904Y111759523D01*
X-134507142Y111711904D01*
G04 #@! TO.C,C19*
X-158037133Y131014698D02*
X-158019704Y130949650D01*
X-158049893Y130802122D01*
X-158097512Y130719644D01*
X-158210180Y130619735D01*
X-158340277Y130584876D01*
X-158446565Y130591255D01*
X-158635332Y130645254D01*
X-158759050Y130716683D01*
X-158900198Y130853160D01*
X-158958867Y130942018D01*
X-158993726Y131072116D01*
X-158963537Y131219644D01*
X-158915918Y131302122D01*
X-158803250Y131402031D01*
X-158738201Y131419460D01*
X-157478464Y131791866D02*
X-157764178Y131296994D01*
X-157621321Y131544430D02*
X-158487347Y132044430D01*
X-158411248Y131890522D01*
X-158376388Y131760425D01*
X-158382768Y131654137D01*
X-157240369Y132204259D02*
X-157145131Y132369216D01*
X-157138751Y132475504D01*
X-157156181Y132540553D01*
X-157232280Y132694460D01*
X-157373427Y132830937D01*
X-157703342Y133021414D01*
X-157809630Y133027793D01*
X-157874679Y133010363D01*
X-157963537Y132951694D01*
X-158058775Y132786737D01*
X-158065155Y132680449D01*
X-158047725Y132615400D01*
X-157989056Y132526542D01*
X-157782860Y132407494D01*
X-157676572Y132401114D01*
X-157611523Y132418544D01*
X-157522664Y132477213D01*
X-157427426Y132642171D01*
X-157421047Y132748459D01*
X-157438476Y132813508D01*
X-157497145Y132902366D01*
G04 #@! TO.C,BTN2_UP1*
X-102690476Y150321428D02*
X-102547619Y150273809D01*
X-102500000Y150226190D01*
X-102452380Y150130952D01*
X-102452380Y149988095D01*
X-102500000Y149892857D01*
X-102547619Y149845238D01*
X-102642857Y149797619D01*
X-103023809Y149797619D01*
X-103023809Y150797619D01*
X-102690476Y150797619D01*
X-102595238Y150750000D01*
X-102547619Y150702380D01*
X-102500000Y150607142D01*
X-102500000Y150511904D01*
X-102547619Y150416666D01*
X-102595238Y150369047D01*
X-102690476Y150321428D01*
X-103023809Y150321428D01*
X-102166666Y150797619D02*
X-101595238Y150797619D01*
X-101880952Y149797619D02*
X-101880952Y150797619D01*
X-101261904Y149797619D02*
X-101261904Y150797619D01*
X-100690476Y149797619D01*
X-100690476Y150797619D01*
X-100261904Y150702380D02*
X-100214285Y150750000D01*
X-100119047Y150797619D01*
X-99880952Y150797619D01*
X-99785714Y150750000D01*
X-99738095Y150702380D01*
X-99690476Y150607142D01*
X-99690476Y150511904D01*
X-99738095Y150369047D01*
X-100309523Y149797619D01*
X-99690476Y149797619D01*
X-99500000Y149702380D02*
X-98738095Y149702380D01*
X-98500000Y150797619D02*
X-98500000Y149988095D01*
X-98452380Y149892857D01*
X-98404761Y149845238D01*
X-98309523Y149797619D01*
X-98119047Y149797619D01*
X-98023809Y149845238D01*
X-97976190Y149892857D01*
X-97928571Y149988095D01*
X-97928571Y150797619D01*
X-97452380Y149797619D02*
X-97452380Y150797619D01*
X-97071428Y150797619D01*
X-96976190Y150750000D01*
X-96928571Y150702380D01*
X-96880952Y150607142D01*
X-96880952Y150464285D01*
X-96928571Y150369047D01*
X-96976190Y150321428D01*
X-97071428Y150273809D01*
X-97452380Y150273809D01*
X-95928571Y149797619D02*
X-96500000Y149797619D01*
X-96214285Y149797619D02*
X-96214285Y150797619D01*
X-96309523Y150654761D01*
X-96404761Y150559523D01*
X-96500000Y150511904D01*
G04 #@! TO.C,BTN4_RIGHT1*
X-65809523Y111721428D02*
X-65666666Y111673809D01*
X-65619047Y111626190D01*
X-65571428Y111530952D01*
X-65571428Y111388095D01*
X-65619047Y111292857D01*
X-65666666Y111245238D01*
X-65761904Y111197619D01*
X-66142857Y111197619D01*
X-66142857Y112197619D01*
X-65809523Y112197619D01*
X-65714285Y112150000D01*
X-65666666Y112102380D01*
X-65619047Y112007142D01*
X-65619047Y111911904D01*
X-65666666Y111816666D01*
X-65714285Y111769047D01*
X-65809523Y111721428D01*
X-66142857Y111721428D01*
X-65285714Y112197619D02*
X-64714285Y112197619D01*
X-65000000Y111197619D02*
X-65000000Y112197619D01*
X-64380952Y111197619D02*
X-64380952Y112197619D01*
X-63809523Y111197619D01*
X-63809523Y112197619D01*
X-62904761Y111864285D02*
X-62904761Y111197619D01*
X-63142857Y112245238D02*
X-63380952Y111530952D01*
X-62761904Y111530952D01*
X-62619047Y111102380D02*
X-61857142Y111102380D01*
X-61047619Y111197619D02*
X-61380952Y111673809D01*
X-61619047Y111197619D02*
X-61619047Y112197619D01*
X-61238095Y112197619D01*
X-61142857Y112150000D01*
X-61095238Y112102380D01*
X-61047619Y112007142D01*
X-61047619Y111864285D01*
X-61095238Y111769047D01*
X-61142857Y111721428D01*
X-61238095Y111673809D01*
X-61619047Y111673809D01*
X-60619047Y111197619D02*
X-60619047Y112197619D01*
X-59619047Y112150000D02*
X-59714285Y112197619D01*
X-59857142Y112197619D01*
X-60000000Y112150000D01*
X-60095238Y112054761D01*
X-60142857Y111959523D01*
X-60190476Y111769047D01*
X-60190476Y111626190D01*
X-60142857Y111435714D01*
X-60095238Y111340476D01*
X-60000000Y111245238D01*
X-59857142Y111197619D01*
X-59761904Y111197619D01*
X-59619047Y111245238D01*
X-59571428Y111292857D01*
X-59571428Y111626190D01*
X-59761904Y111626190D01*
X-59142857Y111197619D02*
X-59142857Y112197619D01*
X-59142857Y111721428D02*
X-58571428Y111721428D01*
X-58571428Y111197619D02*
X-58571428Y112197619D01*
X-58238095Y112197619D02*
X-57666666Y112197619D01*
X-57952380Y111197619D02*
X-57952380Y112197619D01*
X-56809523Y111197619D02*
X-57380952Y111197619D01*
X-57095238Y111197619D02*
X-57095238Y112197619D01*
X-57190476Y112054761D01*
X-57285714Y111959523D01*
X-57380952Y111911904D01*
G04 #@! TO.C,D12*
X-132275412Y163951083D02*
X-132775412Y164817109D01*
X-132569216Y164936156D01*
X-132421688Y164966346D01*
X-132291591Y164931486D01*
X-132202732Y164872817D01*
X-132066255Y164731669D01*
X-131994826Y164607951D01*
X-131940828Y164419185D01*
X-131934448Y164312896D01*
X-131969307Y164182799D01*
X-132069216Y164070131D01*
X-132275412Y163951083D01*
X-130955755Y164712988D02*
X-131450626Y164427274D01*
X-131203190Y164570131D02*
X-131703190Y165436156D01*
X-131714240Y165264819D01*
X-131749100Y165134722D01*
X-131807769Y165045863D01*
X-131078221Y165687011D02*
X-131060791Y165752060D01*
X-131002122Y165840918D01*
X-130795926Y165959966D01*
X-130689638Y165966346D01*
X-130624589Y165948916D01*
X-130535730Y165890247D01*
X-130488111Y165807768D01*
X-130457922Y165660241D01*
X-130667079Y164879655D01*
X-130130968Y165189178D01*
X-130182367Y161162218D02*
X-130677239Y160876504D01*
X-130429803Y161019361D02*
X-130929803Y161885387D01*
X-130940853Y161714050D01*
X-130975713Y161583952D01*
X-131034382Y161495094D01*
G04 #@! TO.C,C12*
X-131313159Y156430860D02*
X-131330588Y156365811D01*
X-131430497Y156253143D01*
X-131512975Y156205524D01*
X-131660503Y156175335D01*
X-131790601Y156210195D01*
X-131879459Y156268864D01*
X-132015936Y156410011D01*
X-132087365Y156533729D01*
X-132141364Y156722496D01*
X-132147743Y156828784D01*
X-132112884Y156958882D01*
X-132012975Y157071550D01*
X-131930497Y157119169D01*
X-131782969Y157149358D01*
X-131717921Y157131928D01*
X-130440754Y156824572D02*
X-130935625Y156538858D01*
X-130688189Y156681715D02*
X-131188189Y157547740D01*
X-131199239Y157376403D01*
X-131234099Y157246306D01*
X-131292768Y157157447D01*
X-130563220Y157798595D02*
X-130545790Y157863644D01*
X-130487121Y157952502D01*
X-130280925Y158071550D01*
X-130174637Y158077930D01*
X-130109588Y158060500D01*
X-130020729Y158001831D01*
X-129973110Y157919352D01*
X-129942921Y157771825D01*
X-130152078Y156991239D01*
X-129615967Y157300762D01*
G04 #@! TO.C,C15*
X-44578159Y132869276D02*
X-44595588Y132804227D01*
X-44695497Y132691559D01*
X-44777975Y132643940D01*
X-44925503Y132613751D01*
X-45055601Y132648611D01*
X-45144459Y132707280D01*
X-45280936Y132848427D01*
X-45352365Y132972145D01*
X-45406364Y133160912D01*
X-45412743Y133267200D01*
X-45377884Y133397298D01*
X-45277975Y133509966D01*
X-45195497Y133557585D01*
X-45047969Y133587774D01*
X-44982921Y133570344D01*
X-43705754Y133262988D02*
X-44200625Y132977274D01*
X-43953189Y133120131D02*
X-44453189Y133986156D01*
X-44464239Y133814819D01*
X-44499099Y133684722D01*
X-44557768Y133595863D01*
X-43422207Y134581394D02*
X-43834600Y134343299D01*
X-43637744Y133907097D01*
X-43620314Y133972145D01*
X-43561645Y134061004D01*
X-43355448Y134180051D01*
X-43249160Y134186431D01*
X-43184112Y134169001D01*
X-43095253Y134110332D01*
X-42976206Y133904136D01*
X-42969826Y133797848D01*
X-42987256Y133732799D01*
X-43045925Y133643940D01*
X-43252121Y133524893D01*
X-43358409Y133518513D01*
X-43423458Y133535943D01*
G04 #@! TO.C,D8*
X-139771425Y39724280D02*
X-140271425Y38858255D01*
X-140477621Y38977302D01*
X-140577530Y39089970D01*
X-140612389Y39220068D01*
X-140606010Y39326356D01*
X-140552011Y39515123D01*
X-140480582Y39638841D01*
X-140344105Y39779989D01*
X-140255246Y39838658D01*
X-140125149Y39873517D01*
X-139977621Y39843328D01*
X-139771425Y39724280D01*
X-141046882Y39800837D02*
X-140988213Y39711979D01*
X-140970784Y39646930D01*
X-140977163Y39540642D01*
X-141000973Y39499403D01*
X-141089831Y39440733D01*
X-141154880Y39423304D01*
X-141261168Y39429683D01*
X-141426125Y39524922D01*
X-141484794Y39613780D01*
X-141502224Y39678829D01*
X-141495844Y39785117D01*
X-141472035Y39826356D01*
X-141383177Y39885025D01*
X-141318128Y39902455D01*
X-141211840Y39896075D01*
X-141046882Y39800837D01*
X-140940594Y39794457D01*
X-140875545Y39811887D01*
X-140786687Y39870556D01*
X-140691449Y40035514D01*
X-140685069Y40141802D01*
X-140702499Y40206850D01*
X-140761168Y40295709D01*
X-140926125Y40390947D01*
X-141032413Y40397327D01*
X-141097462Y40379897D01*
X-141186321Y40321228D01*
X-141281559Y40156271D01*
X-141287938Y40049982D01*
X-141270509Y39984934D01*
X-141211840Y39896075D01*
X-136978604Y42961589D02*
X-137478604Y42095564D01*
X-137684800Y42214611D01*
X-137784709Y42327279D01*
X-137819568Y42457377D01*
X-137813189Y42563665D01*
X-137759190Y42752432D01*
X-137687761Y42876150D01*
X-137551284Y43017298D01*
X-137462425Y43075967D01*
X-137332328Y43110826D01*
X-137184800Y43080637D01*
X-136978604Y42961589D01*
X-138254061Y43038146D02*
X-138195392Y42949288D01*
X-138177963Y42884239D01*
X-138184342Y42777951D01*
X-138208152Y42736712D01*
X-138297010Y42678042D01*
X-138362059Y42660613D01*
X-138468347Y42666992D01*
X-138633304Y42762231D01*
X-138691973Y42851089D01*
X-138709403Y42916138D01*
X-138703023Y43022426D01*
X-138679214Y43063665D01*
X-138590356Y43122334D01*
X-138525307Y43139764D01*
X-138419019Y43133384D01*
X-138254061Y43038146D01*
X-138147773Y43031766D01*
X-138082724Y43049196D01*
X-137993866Y43107865D01*
X-137898628Y43272823D01*
X-137892248Y43379111D01*
X-137909678Y43444159D01*
X-137968347Y43533018D01*
X-138133304Y43628256D01*
X-138239592Y43634636D01*
X-138304641Y43617206D01*
X-138393500Y43558537D01*
X-138488738Y43393580D01*
X-138495117Y43287291D01*
X-138477688Y43222243D01*
X-138419019Y43133384D01*
D13*
G04 #@! TO.C,D5*
X-35221651Y66885994D02*
X-36217580Y67460994D01*
X-43634791Y63314008D02*
X-39984791Y69635994D01*
X-38871651Y60564008D02*
X-35221651Y66885994D01*
G04 #@! TO.C,SW6*
X-142345000Y75325000D02*
X-142345000Y73995000D01*
X-142345000Y73995000D02*
X-143675000Y73995000D01*
X-150085000Y76655000D02*
X-150085000Y73995000D01*
X-144945000Y73995000D02*
X-150085000Y73995000D01*
X-144945000Y76655000D02*
X-150085000Y76655000D01*
X-144945000Y76655000D02*
X-144945000Y73995000D01*
D14*
G04 #@! TO.C,BZ1*
X-100920000Y158895000D02*
G75*
G03*
X-100920000Y158895000I-5680000J0D01*
G01*
D13*
G04 #@! TO.C,D4*
X-27300000Y96450001D02*
X-27300000Y103750001D01*
X-32800000Y96450001D02*
X-32800000Y103750001D01*
X-27300000Y103750001D02*
X-28450000Y103750001D01*
G04 #@! TO.C,D10*
X-172800000Y96450000D02*
X-171650000Y96450000D01*
X-172800000Y103750000D02*
X-172800000Y96450000D01*
X-167300000Y103750000D02*
X-167300000Y96450000D01*
G04 #@! TO.C,J2*
X-93970000Y25800000D02*
X-93970000Y13800000D01*
X-106030000Y25800000D02*
X-106030000Y13800000D01*
X-106030000Y13800000D02*
X-93970000Y13800000D01*
G04 #@! TO.C,C24*
X-101890580Y34310000D02*
X-101609420Y34310000D01*
X-101890580Y33290000D02*
X-101609420Y33290000D01*
G04 #@! TO.C,C20*
X-43216117Y65252084D02*
X-43075537Y65495576D01*
X-44099463Y65762084D02*
X-43958883Y66005576D01*
G04 #@! TO.C,C21*
X-134805576Y43241117D02*
X-134562084Y43100537D01*
X-134295576Y44124463D02*
X-134052084Y43983883D01*
G04 #@! TO.C,C17*
X-166660000Y101890580D02*
X-166660000Y101609420D01*
X-165640000Y101890580D02*
X-165640000Y101609420D01*
G04 #@! TO.C,D7*
X-103700000Y27350000D02*
X-96400000Y27350000D01*
X-103700000Y32850000D02*
X-96400000Y32850000D01*
X-96400000Y27350000D02*
X-96400000Y28500000D01*
G04 #@! TO.C,C18*
X-157678617Y68876746D02*
X-157538037Y68633254D01*
X-158561963Y68366746D02*
X-158421383Y68123254D01*
G04 #@! TO.C,C11*
X-68726746Y42321383D02*
X-68483254Y42461963D01*
X-68216746Y41438037D02*
X-67973254Y41578617D01*
G04 #@! TO.C,D1*
X-96400000Y167350000D02*
X-103700000Y167350000D01*
X-103700000Y172850000D02*
X-103700000Y171700000D01*
X-96400000Y172850000D02*
X-103700000Y172850000D01*
G04 #@! TO.C,D3*
X-39984791Y130564007D02*
X-43634791Y136885993D01*
X-38871651Y139635993D02*
X-39867580Y139060993D01*
X-35221651Y133314007D02*
X-38871651Y139635993D01*
G04 #@! TO.C,D9*
X-164878348Y66885993D02*
X-161228348Y60564007D01*
X-161228348Y60564007D02*
X-160232419Y61139007D01*
X-160115208Y69635993D02*
X-156465208Y63314007D01*
G04 #@! TO.C,D6*
X-66835993Y35271652D02*
X-60514007Y38921652D01*
X-60514007Y38921652D02*
X-61089007Y39917581D01*
X-69585993Y40034792D02*
X-63264007Y43684792D01*
G04 #@! TO.C,C16*
X-65583254Y156038037D02*
X-65826746Y156178617D01*
X-65073254Y156921383D02*
X-65316746Y157061963D01*
G04 #@! TO.C,C22*
X-34410000Y98309420D02*
X-34410000Y98590580D01*
X-33390000Y98309420D02*
X-33390000Y98590580D01*
G04 #@! TO.C,C23*
X-98259420Y165790000D02*
X-98540580Y165790000D01*
X-98259420Y166810000D02*
X-98540580Y166810000D01*
G04 #@! TO.C,D11*
X-156465208Y136885993D02*
X-160115208Y130564007D01*
X-161228348Y139635993D02*
X-164878348Y133314007D01*
X-164878348Y133314007D02*
X-163882419Y132739007D01*
G04 #@! TO.C,D2*
X-63264007Y156515208D02*
X-69585993Y160165208D01*
X-60514007Y161278348D02*
X-66835993Y164928348D01*
X-66835993Y164928348D02*
X-67410993Y163932419D01*
G04 #@! TO.C,C19*
X-156721383Y134976746D02*
X-156861963Y134733254D01*
X-155838037Y134466746D02*
X-155978617Y134223254D01*
G04 #@! TO.C,D12*
X-133264007Y164928348D02*
X-139585993Y161278348D01*
X-130514007Y160165208D02*
X-136835993Y156515208D01*
X-139585993Y161278348D02*
X-139010993Y160282419D01*
G04 #@! TO.C,C12*
X-131783254Y158811963D02*
X-132026746Y158671383D01*
X-131273254Y157928617D02*
X-131516746Y157788037D01*
G04 #@! TO.C,C15*
X-41538037Y131933254D02*
X-41678617Y132176746D01*
X-42421383Y131423254D02*
X-42561963Y131666746D01*
G04 #@! TO.C,D8*
X-139585993Y38921652D02*
X-133264007Y35271652D01*
X-136835993Y43684792D02*
X-130514007Y40034792D01*
X-133264007Y35271652D02*
X-132689007Y36267581D01*
G04 #@! TD*
M02*
