G04 #@! TF.GenerationSoftware,KiCad,Pcbnew,6.0.11-2627ca5db0~126~ubuntu20.04.1*
G04 #@! TF.CreationDate,2023-02-06T20:23:24+01:00*
G04 #@! TF.ProjectId,Semafor,53656d61-666f-4722-9e6b-696361645f70,rev?*
G04 #@! TF.SameCoordinates,Original*
G04 #@! TF.FileFunction,Paste,Top*
G04 #@! TF.FilePolarity,Positive*
%FSLAX46Y46*%
G04 Gerber Fmt 4.6, Leading zero omitted, Abs format (unit mm)*
G04 Created by KiCad (PCBNEW 6.0.11-2627ca5db0~126~ubuntu20.04.1) date 2023-02-06 20:23:24*
%MOMM*%
%LPD*%
G01*
G04 APERTURE LIST*
G04 Aperture macros list*
%AMRoundRect*
0 Rectangle with rounded corners*
0 $1 Rounding radius*
0 $2 $3 $4 $5 $6 $7 $8 $9 X,Y pos of 4 corners*
0 Add a 4 corners polygon primitive as box body*
4,1,4,$2,$3,$4,$5,$6,$7,$8,$9,$2,$3,0*
0 Add four circle primitives for the rounded corners*
1,1,$1+$1,$2,$3*
1,1,$1+$1,$4,$5*
1,1,$1+$1,$6,$7*
1,1,$1+$1,$8,$9*
0 Add four rect primitives between the rounded corners*
20,1,$1+$1,$2,$3,$4,$5,0*
20,1,$1+$1,$4,$5,$6,$7,0*
20,1,$1+$1,$6,$7,$8,$9,0*
20,1,$1+$1,$8,$9,$2,$3,0*%
%AMRotRect*
0 Rectangle, with rotation*
0 The origin of the aperture is its center*
0 $1 length*
0 $2 width*
0 $3 Rotation angle, in degrees counterclockwise*
0 Add horizontal line*
21,1,$1,$2,0,0,$3*%
G04 Aperture macros list end*
%ADD10RoundRect,6.000000X-4.000000X-4.000000X4.000000X-4.000000X4.000000X4.000000X-4.000000X4.000000X0*%
%ADD11RotRect,1.500000X1.000000X60.000000*%
%ADD12R,1.000000X1.500000*%
%ADD13R,1.900000X8.000000*%
%ADD14R,2.000000X7.500000*%
%ADD15RoundRect,0.225000X-0.225000X-0.250000X0.225000X-0.250000X0.225000X0.250000X-0.225000X0.250000X0*%
%ADD16RoundRect,0.225000X0.104006X-0.319856X0.329006X0.069856X-0.104006X0.319856X-0.329006X-0.069856X0*%
%ADD17RoundRect,0.225000X-0.319856X-0.104006X0.069856X-0.329006X0.319856X0.104006X-0.069856X0.329006X0*%
%ADD18RoundRect,0.225000X-0.250000X0.225000X-0.250000X-0.225000X0.250000X-0.225000X0.250000X0.225000X0*%
%ADD19R,1.500000X1.000000*%
%ADD20RoundRect,0.225000X-0.329006X0.069856X-0.104006X-0.319856X0.329006X-0.069856X0.104006X0.319856X0*%
%ADD21RoundRect,0.225000X-0.069856X-0.329006X0.319856X-0.104006X0.069856X0.329006X-0.319856X0.104006X0*%
%ADD22RoundRect,15.000000X-10.000000X-10.000000X10.000000X-10.000000X10.000000X10.000000X-10.000000X10.000000X0*%
%ADD23RotRect,1.500000X1.000000X120.000000*%
%ADD24RotRect,1.500000X1.000000X300.000000*%
%ADD25RotRect,1.500000X1.000000X30.000000*%
%ADD26RoundRect,0.225000X0.319856X0.104006X-0.069856X0.329006X-0.319856X-0.104006X0.069856X-0.329006X0*%
%ADD27RoundRect,0.225000X0.250000X-0.225000X0.250000X0.225000X-0.250000X0.225000X-0.250000X-0.225000X0*%
%ADD28RoundRect,0.225000X0.225000X0.250000X-0.225000X0.250000X-0.225000X-0.250000X0.225000X-0.250000X0*%
%ADD29RotRect,1.500000X1.000000X240.000000*%
%ADD30RotRect,1.500000X1.000000X150.000000*%
%ADD31RoundRect,0.225000X-0.104006X0.319856X-0.329006X-0.069856X0.104006X-0.319856X0.329006X0.069856X0*%
%ADD32RotRect,1.500000X1.000000X210.000000*%
%ADD33RoundRect,0.225000X0.069856X0.329006X-0.319856X0.104006X-0.069856X-0.329006X0.319856X-0.104006X0*%
%ADD34RoundRect,0.225000X0.329006X-0.069856X0.104006X0.319856X-0.329006X0.069856X-0.104006X-0.319856X0*%
%ADD35RotRect,1.500000X1.000000X330.000000*%
G04 APERTURE END LIST*
D10*
G04 #@! TO.C,BTN3_DOWN1*
X-100000000Y61500000D03*
G04 #@! TD*
D11*
G04 #@! TO.C,D5*
X-42038862Y63778239D03*
X-39267580Y62178239D03*
X-36817580Y66421763D03*
X-39588862Y68021763D03*
G04 #@! TD*
D12*
G04 #@! TO.C,D4*
X-31650000Y97650001D03*
X-28450000Y97650001D03*
X-28450000Y102550001D03*
X-31650000Y102550001D03*
G04 #@! TD*
G04 #@! TO.C,D10*
X-168450000Y102550000D03*
X-171650000Y102550000D03*
X-171650000Y97650000D03*
X-168450000Y97650000D03*
G04 #@! TD*
D13*
G04 #@! TO.C,J2*
X-96190000Y18700000D03*
D14*
X-98700000Y18950000D03*
X-101300000Y18950000D03*
D13*
X-103810000Y18700000D03*
G04 #@! TD*
D15*
G04 #@! TO.C,C24*
X-102525000Y33800000D03*
X-100975000Y33800000D03*
G04 #@! TD*
D16*
G04 #@! TO.C,C20*
X-43975000Y64957660D03*
X-43200000Y66300000D03*
G04 #@! TD*
D17*
G04 #@! TO.C,C21*
X-135100000Y44000000D03*
X-133757660Y43225000D03*
G04 #@! TD*
D18*
G04 #@! TO.C,C17*
X-166150000Y102525000D03*
X-166150000Y100975000D03*
G04 #@! TD*
D19*
G04 #@! TO.C,D7*
X-102500000Y31700000D03*
X-102500000Y28500000D03*
X-97600000Y28500000D03*
X-97600000Y31700000D03*
G04 #@! TD*
D20*
G04 #@! TO.C,C18*
X-158437500Y69171170D03*
X-157662500Y67828830D03*
G04 #@! TD*
D21*
G04 #@! TO.C,C11*
X-69021170Y41562500D03*
X-67678830Y42337500D03*
G04 #@! TD*
D22*
G04 #@! TO.C,BTN1_ENTER1*
X-100000000Y100000000D03*
G04 #@! TD*
D19*
G04 #@! TO.C,D1*
X-97600000Y168500000D03*
X-97600000Y171700000D03*
X-102500000Y171700000D03*
X-102500000Y168500000D03*
G04 #@! TD*
D23*
G04 #@! TO.C,D3*
X-39588862Y132178238D03*
X-36817580Y133778238D03*
X-39267580Y138021762D03*
X-42038862Y136421762D03*
G04 #@! TD*
D24*
G04 #@! TO.C,D9*
X-160511137Y68021762D03*
X-163282419Y66421762D03*
X-160832419Y62178238D03*
X-158061137Y63778238D03*
G04 #@! TD*
D25*
G04 #@! TO.C,D6*
X-67971762Y39638863D03*
X-66371762Y36867581D03*
X-62128238Y39317581D03*
X-63728238Y42088863D03*
G04 #@! TD*
D26*
G04 #@! TO.C,C16*
X-64778830Y156162500D03*
X-66121170Y156937500D03*
G04 #@! TD*
D27*
G04 #@! TO.C,C22*
X-33900000Y97675000D03*
X-33900000Y99225000D03*
G04 #@! TD*
D28*
G04 #@! TO.C,C23*
X-97625000Y166300000D03*
X-99175000Y166300000D03*
G04 #@! TD*
D29*
G04 #@! TO.C,D11*
X-158061137Y136421762D03*
X-160832419Y138021762D03*
X-163282419Y133778238D03*
X-160511137Y132178238D03*
G04 #@! TD*
D30*
G04 #@! TO.C,D2*
X-63728238Y158111137D03*
X-62128238Y160882419D03*
X-66371762Y163332419D03*
X-67971762Y160561137D03*
G04 #@! TD*
D10*
G04 #@! TO.C,BTN5_LEFT1*
X-138500000Y100000000D03*
G04 #@! TD*
D31*
G04 #@! TO.C,C19*
X-155962500Y135271170D03*
X-156737500Y133928830D03*
G04 #@! TD*
D10*
G04 #@! TO.C,BTN2_UP1*
X-100000000Y138500000D03*
G04 #@! TD*
G04 #@! TO.C,BTN4_RIGHT1*
X-61500000Y100000000D03*
G04 #@! TD*
D32*
G04 #@! TO.C,D12*
X-132128238Y160561137D03*
X-133728238Y163332419D03*
X-137971762Y160882419D03*
X-136371762Y158111137D03*
G04 #@! TD*
D33*
G04 #@! TO.C,C12*
X-130978830Y158687500D03*
X-132321170Y157912500D03*
G04 #@! TD*
D34*
G04 #@! TO.C,C15*
X-41662500Y131128830D03*
X-42437500Y132471170D03*
G04 #@! TD*
D35*
G04 #@! TO.C,D8*
X-136371762Y42088863D03*
X-137971762Y39317581D03*
X-133728238Y36867581D03*
X-132128238Y39638863D03*
G04 #@! TD*
M02*
