G04 #@! TF.GenerationSoftware,KiCad,Pcbnew,6.0.11-2627ca5db0~126~ubuntu20.04.1*
G04 #@! TF.CreationDate,2023-04-28T08:06:44+02:00*
G04 #@! TF.ProjectId,Semafor_top,53656d61-666f-4725-9f74-6f702e6b6963,rev?*
G04 #@! TF.SameCoordinates,Original*
G04 #@! TF.FileFunction,Legend,Top*
G04 #@! TF.FilePolarity,Positive*
%FSLAX46Y46*%
G04 Gerber Fmt 4.6, Leading zero omitted, Abs format (unit mm)*
G04 Created by KiCad (PCBNEW 6.0.11-2627ca5db0~126~ubuntu20.04.1) date 2023-04-28 08:06:44*
%MOMM*%
%LPD*%
G01*
G04 APERTURE LIST*
%ADD10C,0.150000*%
%ADD11C,0.120000*%
G04 APERTURE END LIST*
D10*
X160171428Y-119591071D02*
X160171428Y-120805357D01*
X160242857Y-120948214D01*
X160314285Y-121019642D01*
X160457142Y-121091071D01*
X160742857Y-121091071D01*
X160885714Y-121019642D01*
X160957142Y-120948214D01*
X161028571Y-120805357D01*
X161028571Y-119591071D01*
X161742857Y-120091071D02*
X161742857Y-121091071D01*
X161742857Y-120233928D02*
X161814285Y-120162500D01*
X161957142Y-120091071D01*
X162171428Y-120091071D01*
X162314285Y-120162500D01*
X162385714Y-120305357D01*
X162385714Y-121091071D01*
X163100000Y-121091071D02*
X163100000Y-120091071D01*
X163100000Y-119591071D02*
X163028571Y-119662500D01*
X163100000Y-119733928D01*
X163171428Y-119662500D01*
X163100000Y-119591071D01*
X163100000Y-119733928D01*
X163671428Y-120091071D02*
X164028571Y-121091071D01*
X164385714Y-120091071D01*
X165528571Y-121019642D02*
X165385714Y-121091071D01*
X165100000Y-121091071D01*
X164957142Y-121019642D01*
X164885714Y-120876785D01*
X164885714Y-120305357D01*
X164957142Y-120162500D01*
X165100000Y-120091071D01*
X165385714Y-120091071D01*
X165528571Y-120162500D01*
X165600000Y-120305357D01*
X165600000Y-120448214D01*
X164885714Y-120591071D01*
X166242857Y-121091071D02*
X166242857Y-120091071D01*
X166242857Y-120376785D02*
X166314285Y-120233928D01*
X166385714Y-120162500D01*
X166528571Y-120091071D01*
X166671428Y-120091071D01*
X167028571Y-120091071D02*
X167814285Y-120091071D01*
X167028571Y-121091071D01*
X167814285Y-121091071D01*
X169028571Y-121091071D02*
X169028571Y-120305357D01*
X168957142Y-120162500D01*
X168814285Y-120091071D01*
X168528571Y-120091071D01*
X168385714Y-120162500D01*
X169028571Y-121019642D02*
X168885714Y-121091071D01*
X168528571Y-121091071D01*
X168385714Y-121019642D01*
X168314285Y-120876785D01*
X168314285Y-120733928D01*
X168385714Y-120591071D01*
X168528571Y-120519642D01*
X168885714Y-120519642D01*
X169028571Y-120448214D01*
X168814285Y-119519642D02*
X168600000Y-119733928D01*
X169957142Y-121091071D02*
X169814285Y-121019642D01*
X169742857Y-120876785D01*
X169742857Y-119591071D01*
X170528571Y-120091071D02*
X170528571Y-121091071D01*
X170528571Y-120233928D02*
X170600000Y-120162500D01*
X170742857Y-120091071D01*
X170957142Y-120091071D01*
X171100000Y-120162500D01*
X171171428Y-120305357D01*
X171171428Y-121091071D01*
X171885714Y-121091071D02*
X171885714Y-120091071D01*
X172028571Y-119519642D02*
X171814285Y-119733928D01*
X173742857Y-121091071D02*
X173742857Y-120091071D01*
X173742857Y-120233928D02*
X173814285Y-120162500D01*
X173957142Y-120091071D01*
X174171428Y-120091071D01*
X174314285Y-120162500D01*
X174385714Y-120305357D01*
X174385714Y-121091071D01*
X174385714Y-120305357D02*
X174457142Y-120162500D01*
X174600000Y-120091071D01*
X174814285Y-120091071D01*
X174957142Y-120162500D01*
X175028571Y-120305357D01*
X175028571Y-121091071D01*
X175957142Y-121091071D02*
X175814285Y-121019642D01*
X175742857Y-120948214D01*
X175671428Y-120805357D01*
X175671428Y-120376785D01*
X175742857Y-120233928D01*
X175814285Y-120162500D01*
X175957142Y-120091071D01*
X176171428Y-120091071D01*
X176314285Y-120162500D01*
X176385714Y-120233928D01*
X176457142Y-120376785D01*
X176457142Y-120805357D01*
X176385714Y-120948214D01*
X176314285Y-121019642D01*
X176171428Y-121091071D01*
X175957142Y-121091071D01*
X177742857Y-121091071D02*
X177742857Y-119591071D01*
X177742857Y-121019642D02*
X177600000Y-121091071D01*
X177314285Y-121091071D01*
X177171428Y-121019642D01*
X177100000Y-120948214D01*
X177028571Y-120805357D01*
X177028571Y-120376785D01*
X177100000Y-120233928D01*
X177171428Y-120162500D01*
X177314285Y-120091071D01*
X177600000Y-120091071D01*
X177742857Y-120162500D01*
X179100000Y-120091071D02*
X179100000Y-121091071D01*
X178457142Y-120091071D02*
X178457142Y-120876785D01*
X178528571Y-121019642D01*
X178671428Y-121091071D01*
X178885714Y-121091071D01*
X179028571Y-121019642D01*
X179100000Y-120948214D01*
X180028571Y-121091071D02*
X179885714Y-121019642D01*
X179814285Y-120876785D01*
X179814285Y-119591071D01*
X157742857Y-122506071D02*
X157742857Y-124006071D01*
X157742857Y-122577500D02*
X157885714Y-122506071D01*
X158171428Y-122506071D01*
X158314285Y-122577500D01*
X158385714Y-122648928D01*
X158457142Y-122791785D01*
X158457142Y-123220357D01*
X158385714Y-123363214D01*
X158314285Y-123434642D01*
X158171428Y-123506071D01*
X157885714Y-123506071D01*
X157742857Y-123434642D01*
X159100000Y-123506071D02*
X159100000Y-122506071D01*
X159100000Y-122791785D02*
X159171428Y-122648928D01*
X159242857Y-122577500D01*
X159385714Y-122506071D01*
X159528571Y-122506071D01*
X160242857Y-123506071D02*
X160100000Y-123434642D01*
X160028571Y-123363214D01*
X159957142Y-123220357D01*
X159957142Y-122791785D01*
X160028571Y-122648928D01*
X160100000Y-122577500D01*
X160242857Y-122506071D01*
X160457142Y-122506071D01*
X160600000Y-122577500D01*
X160671428Y-122648928D01*
X160742857Y-122791785D01*
X160742857Y-123220357D01*
X160671428Y-123363214D01*
X160600000Y-123434642D01*
X160457142Y-123506071D01*
X160242857Y-123506071D01*
X162528571Y-122506071D02*
X162528571Y-124006071D01*
X162528571Y-122577500D02*
X162671428Y-122506071D01*
X162957142Y-122506071D01*
X163100000Y-122577500D01*
X163171428Y-122648928D01*
X163242857Y-122791785D01*
X163242857Y-123220357D01*
X163171428Y-123363214D01*
X163100000Y-123434642D01*
X162957142Y-123506071D01*
X162671428Y-123506071D01*
X162528571Y-123434642D01*
X164100000Y-123506071D02*
X163957142Y-123434642D01*
X163885714Y-123363214D01*
X163814285Y-123220357D01*
X163814285Y-122791785D01*
X163885714Y-122648928D01*
X163957142Y-122577500D01*
X164100000Y-122506071D01*
X164314285Y-122506071D01*
X164457142Y-122577500D01*
X164528571Y-122648928D01*
X164600000Y-122791785D01*
X164600000Y-123220357D01*
X164528571Y-123363214D01*
X164457142Y-123434642D01*
X164314285Y-123506071D01*
X164100000Y-123506071D01*
X165885714Y-123506071D02*
X165885714Y-122006071D01*
X165885714Y-123434642D02*
X165742857Y-123506071D01*
X165457142Y-123506071D01*
X165314285Y-123434642D01*
X165242857Y-123363214D01*
X165171428Y-123220357D01*
X165171428Y-122791785D01*
X165242857Y-122648928D01*
X165314285Y-122577500D01*
X165457142Y-122506071D01*
X165742857Y-122506071D01*
X165885714Y-122577500D01*
X166600000Y-122506071D02*
X166600000Y-124006071D01*
X166600000Y-122577500D02*
X166742857Y-122506071D01*
X167028571Y-122506071D01*
X167171428Y-122577500D01*
X167242857Y-122648928D01*
X167314285Y-122791785D01*
X167314285Y-123220357D01*
X167242857Y-123363214D01*
X167171428Y-123434642D01*
X167028571Y-123506071D01*
X166742857Y-123506071D01*
X166600000Y-123434642D01*
X168171428Y-123506071D02*
X168028571Y-123434642D01*
X167957142Y-123363214D01*
X167885714Y-123220357D01*
X167885714Y-122791785D01*
X167957142Y-122648928D01*
X168028571Y-122577500D01*
X168171428Y-122506071D01*
X168385714Y-122506071D01*
X168528571Y-122577500D01*
X168600000Y-122648928D01*
X168671428Y-122791785D01*
X168671428Y-123220357D01*
X168600000Y-123363214D01*
X168528571Y-123434642D01*
X168385714Y-123506071D01*
X168171428Y-123506071D01*
X169314285Y-123506071D02*
X169314285Y-122506071D01*
X169314285Y-122791785D02*
X169385714Y-122648928D01*
X169457142Y-122577500D01*
X169600000Y-122506071D01*
X169742857Y-122506071D01*
X170885714Y-122506071D02*
X170885714Y-123506071D01*
X170242857Y-122506071D02*
X170242857Y-123291785D01*
X170314285Y-123434642D01*
X170457142Y-123506071D01*
X170671428Y-123506071D01*
X170814285Y-123434642D01*
X170885714Y-123363214D01*
X172528571Y-122506071D02*
X173100000Y-122506071D01*
X172742857Y-122006071D02*
X172742857Y-123291785D01*
X172814285Y-123434642D01*
X172957142Y-123506071D01*
X173100000Y-123506071D01*
X173457142Y-122506071D02*
X173814285Y-123506071D01*
X174171428Y-122506071D02*
X173814285Y-123506071D01*
X173671428Y-123863214D01*
X173600000Y-123934642D01*
X173457142Y-124006071D01*
X173957142Y-121934642D02*
X173742857Y-122148928D01*
X174742857Y-123506071D02*
X174742857Y-122506071D01*
X174742857Y-122648928D02*
X174814285Y-122577500D01*
X174957142Y-122506071D01*
X175171428Y-122506071D01*
X175314285Y-122577500D01*
X175385714Y-122720357D01*
X175385714Y-123506071D01*
X175385714Y-122720357D02*
X175457142Y-122577500D01*
X175600000Y-122506071D01*
X175814285Y-122506071D01*
X175957142Y-122577500D01*
X176028571Y-122720357D01*
X176028571Y-123506071D01*
X176957142Y-123506071D02*
X176814285Y-123434642D01*
X176742857Y-123363214D01*
X176671428Y-123220357D01*
X176671428Y-122791785D01*
X176742857Y-122648928D01*
X176814285Y-122577500D01*
X176957142Y-122506071D01*
X177171428Y-122506071D01*
X177314285Y-122577500D01*
X177385714Y-122648928D01*
X177457142Y-122791785D01*
X177457142Y-123220357D01*
X177385714Y-123363214D01*
X177314285Y-123434642D01*
X177171428Y-123506071D01*
X176957142Y-123506071D01*
X177957142Y-122506071D02*
X178314285Y-123506071D01*
X178671428Y-122506071D01*
X179100000Y-122506071D02*
X179457142Y-123506071D01*
X179814285Y-122506071D02*
X179457142Y-123506071D01*
X179314285Y-123863214D01*
X179242857Y-123934642D01*
X179100000Y-124006071D01*
X179600000Y-121934642D02*
X179385714Y-122148928D01*
X181028571Y-123434642D02*
X180885714Y-123506071D01*
X180600000Y-123506071D01*
X180457142Y-123434642D01*
X180385714Y-123363214D01*
X180314285Y-123220357D01*
X180314285Y-122791785D01*
X180385714Y-122648928D01*
X180457142Y-122577500D01*
X180600000Y-122506071D01*
X180885714Y-122506071D01*
X181028571Y-122577500D01*
X181671428Y-123506071D02*
X181671428Y-122006071D01*
X182314285Y-123506071D02*
X182314285Y-122720357D01*
X182242857Y-122577500D01*
X182100000Y-122506071D01*
X181885714Y-122506071D01*
X181742857Y-122577500D01*
X181671428Y-122648928D01*
X166814285Y-125921071D02*
X166814285Y-124421071D01*
X167457142Y-125921071D02*
X167457142Y-125135357D01*
X167385714Y-124992500D01*
X167242857Y-124921071D01*
X167028571Y-124921071D01*
X166885714Y-124992500D01*
X166814285Y-125063928D01*
X168742857Y-125849642D02*
X168600000Y-125921071D01*
X168314285Y-125921071D01*
X168171428Y-125849642D01*
X168100000Y-125706785D01*
X168100000Y-125135357D01*
X168171428Y-124992500D01*
X168314285Y-124921071D01*
X168600000Y-124921071D01*
X168742857Y-124992500D01*
X168814285Y-125135357D01*
X168814285Y-125278214D01*
X168100000Y-125421071D01*
X169457142Y-125921071D02*
X169457142Y-124921071D01*
X169457142Y-125206785D02*
X169528571Y-125063928D01*
X169600000Y-124992500D01*
X169742857Y-124921071D01*
X169885714Y-124921071D01*
X172314285Y-125921071D02*
X171457142Y-125921071D01*
X171885714Y-125921071D02*
X171885714Y-124421071D01*
X171742857Y-124635357D01*
X171600000Y-124778214D01*
X171457142Y-124849642D01*
X172957142Y-125778214D02*
X173028571Y-125849642D01*
X172957142Y-125921071D01*
X172885714Y-125849642D01*
X172957142Y-125778214D01*
X172957142Y-125921071D01*
X173957142Y-124421071D02*
X174100000Y-124421071D01*
X174242857Y-124492500D01*
X174314285Y-124563928D01*
X174385714Y-124706785D01*
X174457142Y-124992500D01*
X174457142Y-125349642D01*
X174385714Y-125635357D01*
X174314285Y-125778214D01*
X174242857Y-125849642D01*
X174100000Y-125921071D01*
X173957142Y-125921071D01*
X173814285Y-125849642D01*
X173742857Y-125778214D01*
X173671428Y-125635357D01*
X173600000Y-125349642D01*
X173600000Y-124992500D01*
X173671428Y-124706785D01*
X173742857Y-124563928D01*
X173814285Y-124492500D01*
X173957142Y-124421071D01*
X159064285Y-128336071D02*
X159064285Y-126836071D01*
X159064285Y-127407500D02*
X159207142Y-127336071D01*
X159492857Y-127336071D01*
X159635714Y-127407500D01*
X159707142Y-127478928D01*
X159778571Y-127621785D01*
X159778571Y-128050357D01*
X159707142Y-128193214D01*
X159635714Y-128264642D01*
X159492857Y-128336071D01*
X159207142Y-128336071D01*
X159064285Y-128264642D01*
X160278571Y-127336071D02*
X160635714Y-128336071D01*
X160992857Y-127336071D02*
X160635714Y-128336071D01*
X160492857Y-128693214D01*
X160421428Y-128764642D01*
X160278571Y-128836071D01*
X163564285Y-128336071D02*
X163064285Y-127621785D01*
X162707142Y-128336071D02*
X162707142Y-126836071D01*
X163278571Y-126836071D01*
X163421428Y-126907500D01*
X163492857Y-126978928D01*
X163564285Y-127121785D01*
X163564285Y-127336071D01*
X163492857Y-127478928D01*
X163421428Y-127550357D01*
X163278571Y-127621785D01*
X162707142Y-127621785D01*
X164778571Y-128264642D02*
X164635714Y-128336071D01*
X164350000Y-128336071D01*
X164207142Y-128264642D01*
X164135714Y-128121785D01*
X164135714Y-127550357D01*
X164207142Y-127407500D01*
X164350000Y-127336071D01*
X164635714Y-127336071D01*
X164778571Y-127407500D01*
X164850000Y-127550357D01*
X164850000Y-127693214D01*
X164135714Y-127836071D01*
X165492857Y-127336071D02*
X165492857Y-128336071D01*
X165492857Y-127478928D02*
X165564285Y-127407500D01*
X165707142Y-127336071D01*
X165921428Y-127336071D01*
X166064285Y-127407500D01*
X166135714Y-127550357D01*
X166135714Y-128336071D01*
X167492857Y-128336071D02*
X167492857Y-127550357D01*
X167421428Y-127407500D01*
X167278571Y-127336071D01*
X166992857Y-127336071D01*
X166850000Y-127407500D01*
X167492857Y-128264642D02*
X167350000Y-128336071D01*
X166992857Y-128336071D01*
X166850000Y-128264642D01*
X166778571Y-128121785D01*
X166778571Y-127978928D01*
X166850000Y-127836071D01*
X166992857Y-127764642D01*
X167350000Y-127764642D01*
X167492857Y-127693214D01*
X167992857Y-127336071D02*
X168564285Y-127336071D01*
X168207142Y-126836071D02*
X168207142Y-128121785D01*
X168278571Y-128264642D01*
X168421428Y-128336071D01*
X168564285Y-128336071D01*
X169707142Y-128336071D02*
X169707142Y-127550357D01*
X169635714Y-127407500D01*
X169492857Y-127336071D01*
X169207142Y-127336071D01*
X169064285Y-127407500D01*
X169707142Y-128264642D02*
X169564285Y-128336071D01*
X169207142Y-128336071D01*
X169064285Y-128264642D01*
X168992857Y-128121785D01*
X168992857Y-127978928D01*
X169064285Y-127836071D01*
X169207142Y-127764642D01*
X169564285Y-127764642D01*
X169707142Y-127693214D01*
X171421428Y-126836071D02*
X172421428Y-126836071D01*
X171421428Y-128336071D01*
X172421428Y-128336071D01*
X173564285Y-128264642D02*
X173421428Y-128336071D01*
X173135714Y-128336071D01*
X172992857Y-128264642D01*
X172921428Y-128121785D01*
X172921428Y-127550357D01*
X172992857Y-127407500D01*
X173135714Y-127336071D01*
X173421428Y-127336071D01*
X173564285Y-127407500D01*
X173635714Y-127550357D01*
X173635714Y-127693214D01*
X172921428Y-127836071D01*
X174278571Y-128336071D02*
X174278571Y-127336071D01*
X174278571Y-127478928D02*
X174350000Y-127407500D01*
X174492857Y-127336071D01*
X174707142Y-127336071D01*
X174850000Y-127407500D01*
X174921428Y-127550357D01*
X174921428Y-128336071D01*
X174921428Y-127550357D02*
X174992857Y-127407500D01*
X175135714Y-127336071D01*
X175350000Y-127336071D01*
X175492857Y-127407500D01*
X175564285Y-127550357D01*
X175564285Y-128336071D01*
X176921428Y-128336071D02*
X176921428Y-127550357D01*
X176850000Y-127407500D01*
X176707142Y-127336071D01*
X176421428Y-127336071D01*
X176278571Y-127407500D01*
X176921428Y-128264642D02*
X176778571Y-128336071D01*
X176421428Y-128336071D01*
X176278571Y-128264642D01*
X176207142Y-128121785D01*
X176207142Y-127978928D01*
X176278571Y-127836071D01*
X176421428Y-127764642D01*
X176778571Y-127764642D01*
X176921428Y-127693214D01*
X177635714Y-127336071D02*
X177635714Y-128336071D01*
X177635714Y-127478928D02*
X177707142Y-127407500D01*
X177850000Y-127336071D01*
X178064285Y-127336071D01*
X178207142Y-127407500D01*
X178278571Y-127550357D01*
X178278571Y-128336071D01*
X179207142Y-128336071D02*
X179064285Y-128264642D01*
X178992857Y-128193214D01*
X178921428Y-128050357D01*
X178921428Y-127621785D01*
X178992857Y-127478928D01*
X179064285Y-127407500D01*
X179207142Y-127336071D01*
X179421428Y-127336071D01*
X179564285Y-127407500D01*
X179635714Y-127478928D01*
X179707142Y-127621785D01*
X179707142Y-128050357D01*
X179635714Y-128193214D01*
X179564285Y-128264642D01*
X179421428Y-128336071D01*
X179207142Y-128336071D01*
X180207142Y-127336071D02*
X180564285Y-128336071D01*
X180921428Y-127336071D01*
X182135714Y-128336071D02*
X182135714Y-127550357D01*
X182064285Y-127407500D01*
X181921428Y-127336071D01*
X181635714Y-127336071D01*
X181492857Y-127407500D01*
X182135714Y-128264642D02*
X181992857Y-128336071D01*
X181635714Y-128336071D01*
X181492857Y-128264642D01*
X181421428Y-128121785D01*
X181421428Y-127978928D01*
X181492857Y-127836071D01*
X181635714Y-127764642D01*
X181992857Y-127764642D01*
X182135714Y-127693214D01*
X181921428Y-126764642D02*
X181707142Y-126978928D01*
X168957142Y-129751071D02*
X169528571Y-129751071D01*
X169171428Y-129251071D02*
X169171428Y-130536785D01*
X169242857Y-130679642D01*
X169385714Y-130751071D01*
X169528571Y-130751071D01*
X170242857Y-130751071D02*
X170100000Y-130679642D01*
X170028571Y-130608214D01*
X169957142Y-130465357D01*
X169957142Y-130036785D01*
X170028571Y-129893928D01*
X170100000Y-129822500D01*
X170242857Y-129751071D01*
X170457142Y-129751071D01*
X170600000Y-129822500D01*
X170671428Y-129893928D01*
X170742857Y-130036785D01*
X170742857Y-130465357D01*
X170671428Y-130608214D01*
X170600000Y-130679642D01*
X170457142Y-130751071D01*
X170242857Y-130751071D01*
X171385714Y-129751071D02*
X171385714Y-131251071D01*
X171385714Y-129822500D02*
X171528571Y-129751071D01*
X171814285Y-129751071D01*
X171957142Y-129822500D01*
X172028571Y-129893928D01*
X172100000Y-130036785D01*
X172100000Y-130465357D01*
X172028571Y-130608214D01*
X171957142Y-130679642D01*
X171814285Y-130751071D01*
X171528571Y-130751071D01*
X171385714Y-130679642D01*
G04 #@! TO.C,D4*
X198012380Y-104648095D02*
X197012380Y-104648095D01*
X197012380Y-104410000D01*
X197060000Y-104267142D01*
X197155238Y-104171904D01*
X197250476Y-104124285D01*
X197440952Y-104076666D01*
X197583809Y-104076666D01*
X197774285Y-104124285D01*
X197869523Y-104171904D01*
X197964761Y-104267142D01*
X198012380Y-104410000D01*
X198012380Y-104648095D01*
X197345714Y-103219523D02*
X198012380Y-103219523D01*
X196964761Y-103457619D02*
X197679047Y-103695714D01*
X197679047Y-103076666D01*
X193812378Y-102824284D02*
X193812378Y-103395713D01*
X193812378Y-103109999D02*
X192812378Y-103109999D01*
X192955236Y-103205237D01*
X193050474Y-103300475D01*
X193098093Y-103395713D01*
G04 #@! TO.C,R27*
X175382142Y-82967380D02*
X175048809Y-82491190D01*
X174810714Y-82967380D02*
X174810714Y-81967380D01*
X175191666Y-81967380D01*
X175286904Y-82015000D01*
X175334523Y-82062619D01*
X175382142Y-82157857D01*
X175382142Y-82300714D01*
X175334523Y-82395952D01*
X175286904Y-82443571D01*
X175191666Y-82491190D01*
X174810714Y-82491190D01*
X175763095Y-82062619D02*
X175810714Y-82015000D01*
X175905952Y-81967380D01*
X176144047Y-81967380D01*
X176239285Y-82015000D01*
X176286904Y-82062619D01*
X176334523Y-82157857D01*
X176334523Y-82253095D01*
X176286904Y-82395952D01*
X175715476Y-82967380D01*
X176334523Y-82967380D01*
X176667857Y-81967380D02*
X177334523Y-81967380D01*
X176905952Y-82967380D01*
G04 #@! TO.C,R4*
X139433333Y-51952380D02*
X139100000Y-51476190D01*
X138861904Y-51952380D02*
X138861904Y-50952380D01*
X139242857Y-50952380D01*
X139338095Y-51000000D01*
X139385714Y-51047619D01*
X139433333Y-51142857D01*
X139433333Y-51285714D01*
X139385714Y-51380952D01*
X139338095Y-51428571D01*
X139242857Y-51476190D01*
X138861904Y-51476190D01*
X140290476Y-51285714D02*
X140290476Y-51952380D01*
X140052380Y-50904761D02*
X139814285Y-51619047D01*
X140433333Y-51619047D01*
G04 #@! TO.C,D12*
X128624588Y-55648916D02*
X128124588Y-54782890D01*
X128330784Y-54663843D01*
X128478312Y-54633653D01*
X128608409Y-54668513D01*
X128697268Y-54727182D01*
X128833745Y-54868330D01*
X128905174Y-54992048D01*
X128959172Y-55180814D01*
X128965552Y-55287103D01*
X128930693Y-55417200D01*
X128830784Y-55529868D01*
X128624588Y-55648916D01*
X129944245Y-54887011D02*
X129449374Y-55172725D01*
X129696810Y-55029868D02*
X129196810Y-54163843D01*
X129185760Y-54335180D01*
X129150900Y-54465277D01*
X129092231Y-54554136D01*
X129821779Y-53912988D02*
X129839209Y-53847939D01*
X129897878Y-53759081D01*
X130104074Y-53640033D01*
X130210362Y-53633653D01*
X130275411Y-53651083D01*
X130364270Y-53709752D01*
X130411889Y-53792231D01*
X130442078Y-53939758D01*
X130232921Y-54720344D01*
X130769032Y-54410821D01*
X130827630Y-58682389D02*
X130332758Y-58968103D01*
X130580194Y-58825246D02*
X130080194Y-57959220D01*
X130069144Y-58130557D01*
X130034284Y-58260655D01*
X129975615Y-58349513D01*
G04 #@! TO.C,R26*
X178007142Y-79052380D02*
X177673809Y-78576190D01*
X177435714Y-79052380D02*
X177435714Y-78052380D01*
X177816666Y-78052380D01*
X177911904Y-78100000D01*
X177959523Y-78147619D01*
X178007142Y-78242857D01*
X178007142Y-78385714D01*
X177959523Y-78480952D01*
X177911904Y-78528571D01*
X177816666Y-78576190D01*
X177435714Y-78576190D01*
X178388095Y-78147619D02*
X178435714Y-78100000D01*
X178530952Y-78052380D01*
X178769047Y-78052380D01*
X178864285Y-78100000D01*
X178911904Y-78147619D01*
X178959523Y-78242857D01*
X178959523Y-78338095D01*
X178911904Y-78480952D01*
X178340476Y-79052380D01*
X178959523Y-79052380D01*
X179816666Y-78052380D02*
X179626190Y-78052380D01*
X179530952Y-78100000D01*
X179483333Y-78147619D01*
X179388095Y-78290476D01*
X179340476Y-78480952D01*
X179340476Y-78861904D01*
X179388095Y-78957142D01*
X179435714Y-79004761D01*
X179530952Y-79052380D01*
X179721428Y-79052380D01*
X179816666Y-79004761D01*
X179864285Y-78957142D01*
X179911904Y-78861904D01*
X179911904Y-78623809D01*
X179864285Y-78528571D01*
X179816666Y-78480952D01*
X179721428Y-78433333D01*
X179530952Y-78433333D01*
X179435714Y-78480952D01*
X179388095Y-78528571D01*
X179340476Y-78623809D01*
G04 #@! TO.C,D7*
X143471904Y-147812380D02*
X143471904Y-146812380D01*
X143710000Y-146812380D01*
X143852857Y-146860000D01*
X143948095Y-146955238D01*
X143995714Y-147050476D01*
X144043333Y-147240952D01*
X144043333Y-147383809D01*
X143995714Y-147574285D01*
X143948095Y-147669523D01*
X143852857Y-147764761D01*
X143710000Y-147812380D01*
X143471904Y-147812380D01*
X144376666Y-146812380D02*
X145043333Y-146812380D01*
X144614761Y-147812380D01*
X145095715Y-143812378D02*
X144524286Y-143812378D01*
X144810001Y-143812378D02*
X144810001Y-142812378D01*
X144714762Y-142955236D01*
X144619524Y-143050474D01*
X144524286Y-143098093D01*
G04 #@! TO.C,C24*
X149717142Y-141697142D02*
X149669523Y-141744761D01*
X149526666Y-141792380D01*
X149431428Y-141792380D01*
X149288571Y-141744761D01*
X149193333Y-141649523D01*
X149145714Y-141554285D01*
X149098095Y-141363809D01*
X149098095Y-141220952D01*
X149145714Y-141030476D01*
X149193333Y-140935238D01*
X149288571Y-140840000D01*
X149431428Y-140792380D01*
X149526666Y-140792380D01*
X149669523Y-140840000D01*
X149717142Y-140887619D01*
X150098095Y-140887619D02*
X150145714Y-140840000D01*
X150240952Y-140792380D01*
X150479047Y-140792380D01*
X150574285Y-140840000D01*
X150621904Y-140887619D01*
X150669523Y-140982857D01*
X150669523Y-141078095D01*
X150621904Y-141220952D01*
X150050476Y-141792380D01*
X150669523Y-141792380D01*
X151526666Y-141125714D02*
X151526666Y-141792380D01*
X151288571Y-140744761D02*
X151050476Y-141459047D01*
X151669523Y-141459047D01*
G04 #@! TO.C,BTN5_LEFT1*
X113546666Y-89758571D02*
X113689523Y-89806190D01*
X113737142Y-89853809D01*
X113784761Y-89949047D01*
X113784761Y-90091904D01*
X113737142Y-90187142D01*
X113689523Y-90234761D01*
X113594285Y-90282380D01*
X113213333Y-90282380D01*
X113213333Y-89282380D01*
X113546666Y-89282380D01*
X113641904Y-89330000D01*
X113689523Y-89377619D01*
X113737142Y-89472857D01*
X113737142Y-89568095D01*
X113689523Y-89663333D01*
X113641904Y-89710952D01*
X113546666Y-89758571D01*
X113213333Y-89758571D01*
X114070476Y-89282380D02*
X114641904Y-89282380D01*
X114356190Y-90282380D02*
X114356190Y-89282380D01*
X114975238Y-90282380D02*
X114975238Y-89282380D01*
X115546666Y-90282380D01*
X115546666Y-89282380D01*
X116499047Y-89282380D02*
X116022857Y-89282380D01*
X115975238Y-89758571D01*
X116022857Y-89710952D01*
X116118095Y-89663333D01*
X116356190Y-89663333D01*
X116451428Y-89710952D01*
X116499047Y-89758571D01*
X116546666Y-89853809D01*
X116546666Y-90091904D01*
X116499047Y-90187142D01*
X116451428Y-90234761D01*
X116356190Y-90282380D01*
X116118095Y-90282380D01*
X116022857Y-90234761D01*
X115975238Y-90187142D01*
X116737142Y-90377619D02*
X117499047Y-90377619D01*
X118213333Y-90282380D02*
X117737142Y-90282380D01*
X117737142Y-89282380D01*
X118546666Y-89758571D02*
X118880000Y-89758571D01*
X119022857Y-90282380D02*
X118546666Y-90282380D01*
X118546666Y-89282380D01*
X119022857Y-89282380D01*
X119784761Y-89758571D02*
X119451428Y-89758571D01*
X119451428Y-90282380D02*
X119451428Y-89282380D01*
X119927619Y-89282380D01*
X120165714Y-89282380D02*
X120737142Y-89282380D01*
X120451428Y-90282380D02*
X120451428Y-89282380D01*
X121594285Y-90282380D02*
X121022857Y-90282380D01*
X121308571Y-90282380D02*
X121308571Y-89282380D01*
X121213333Y-89425238D01*
X121118095Y-89520476D01*
X121022857Y-89568095D01*
G04 #@! TO.C,BTN2_UP1*
X145929523Y-59038571D02*
X146072380Y-59086190D01*
X146120000Y-59133809D01*
X146167619Y-59229047D01*
X146167619Y-59371904D01*
X146120000Y-59467142D01*
X146072380Y-59514761D01*
X145977142Y-59562380D01*
X145596190Y-59562380D01*
X145596190Y-58562380D01*
X145929523Y-58562380D01*
X146024761Y-58610000D01*
X146072380Y-58657619D01*
X146120000Y-58752857D01*
X146120000Y-58848095D01*
X146072380Y-58943333D01*
X146024761Y-58990952D01*
X145929523Y-59038571D01*
X145596190Y-59038571D01*
X146453333Y-58562380D02*
X147024761Y-58562380D01*
X146739047Y-59562380D02*
X146739047Y-58562380D01*
X147358095Y-59562380D02*
X147358095Y-58562380D01*
X147929523Y-59562380D01*
X147929523Y-58562380D01*
X148358095Y-58657619D02*
X148405714Y-58610000D01*
X148500952Y-58562380D01*
X148739047Y-58562380D01*
X148834285Y-58610000D01*
X148881904Y-58657619D01*
X148929523Y-58752857D01*
X148929523Y-58848095D01*
X148881904Y-58990952D01*
X148310476Y-59562380D01*
X148929523Y-59562380D01*
X149120000Y-59657619D02*
X149881904Y-59657619D01*
X150120000Y-58562380D02*
X150120000Y-59371904D01*
X150167619Y-59467142D01*
X150215238Y-59514761D01*
X150310476Y-59562380D01*
X150500952Y-59562380D01*
X150596190Y-59514761D01*
X150643809Y-59467142D01*
X150691428Y-59371904D01*
X150691428Y-58562380D01*
X151167619Y-59562380D02*
X151167619Y-58562380D01*
X151548571Y-58562380D01*
X151643809Y-58610000D01*
X151691428Y-58657619D01*
X151739047Y-58752857D01*
X151739047Y-58895714D01*
X151691428Y-58990952D01*
X151643809Y-59038571D01*
X151548571Y-59086190D01*
X151167619Y-59086190D01*
X152691428Y-59562380D02*
X152120000Y-59562380D01*
X152405714Y-59562380D02*
X152405714Y-58562380D01*
X152310476Y-58705238D01*
X152215238Y-58800476D01*
X152120000Y-58848095D01*
G04 #@! TO.C,D8*
X121238573Y-138551108D02*
X120738573Y-139417133D01*
X120532377Y-139298086D01*
X120432468Y-139185418D01*
X120397609Y-139055320D01*
X120403988Y-138949032D01*
X120457987Y-138760265D01*
X120529416Y-138636547D01*
X120665893Y-138495399D01*
X120754752Y-138436730D01*
X120884849Y-138401871D01*
X121032377Y-138432060D01*
X121238573Y-138551108D01*
X119963116Y-138474551D02*
X120021785Y-138563409D01*
X120039214Y-138628458D01*
X120032835Y-138734746D01*
X120009025Y-138775985D01*
X119920167Y-138834655D01*
X119855118Y-138852084D01*
X119748830Y-138845705D01*
X119583873Y-138750466D01*
X119525204Y-138661608D01*
X119507774Y-138596559D01*
X119514154Y-138490271D01*
X119537963Y-138449032D01*
X119626821Y-138390363D01*
X119691870Y-138372933D01*
X119798158Y-138379313D01*
X119963116Y-138474551D01*
X120069404Y-138480931D01*
X120134453Y-138463501D01*
X120223311Y-138404832D01*
X120318549Y-138239874D01*
X120324929Y-138133586D01*
X120307499Y-138068538D01*
X120248830Y-137979679D01*
X120083873Y-137884441D01*
X119977585Y-137878061D01*
X119912536Y-137895491D01*
X119823677Y-137954160D01*
X119728439Y-138119117D01*
X119722060Y-138225406D01*
X119739489Y-138290454D01*
X119798158Y-138379313D01*
X122025399Y-137307274D02*
X121525399Y-138173299D01*
X121319203Y-138054252D01*
X121219294Y-137941584D01*
X121184435Y-137811486D01*
X121190814Y-137705198D01*
X121244813Y-137516431D01*
X121316242Y-137392713D01*
X121452719Y-137251565D01*
X121541578Y-137192896D01*
X121671675Y-137158037D01*
X121819203Y-137188226D01*
X122025399Y-137307274D01*
X120749942Y-137230717D02*
X120808611Y-137319575D01*
X120826040Y-137384624D01*
X120819661Y-137490912D01*
X120795851Y-137532151D01*
X120706993Y-137590821D01*
X120641944Y-137608250D01*
X120535656Y-137601871D01*
X120370699Y-137506632D01*
X120312030Y-137417774D01*
X120294600Y-137352725D01*
X120300980Y-137246437D01*
X120324789Y-137205198D01*
X120413647Y-137146529D01*
X120478696Y-137129099D01*
X120584984Y-137135479D01*
X120749942Y-137230717D01*
X120856230Y-137237097D01*
X120921279Y-137219667D01*
X121010137Y-137160998D01*
X121105375Y-136996040D01*
X121111755Y-136889752D01*
X121094325Y-136824704D01*
X121035656Y-136735845D01*
X120870699Y-136640607D01*
X120764411Y-136634227D01*
X120699362Y-136651657D01*
X120610503Y-136710326D01*
X120515265Y-136875283D01*
X120508886Y-136981572D01*
X120526315Y-137046620D01*
X120584984Y-137135479D01*
G04 #@! TO.C,C20*
X186197866Y-119705302D02*
X186215295Y-119770350D01*
X186185106Y-119917878D01*
X186137487Y-120000356D01*
X186024819Y-120100265D01*
X185894722Y-120135124D01*
X185788434Y-120128745D01*
X185599667Y-120074746D01*
X185475949Y-120003317D01*
X185334801Y-119866840D01*
X185276132Y-119777982D01*
X185241273Y-119647884D01*
X185271462Y-119500356D01*
X185319081Y-119417878D01*
X185431749Y-119317969D01*
X185496798Y-119300540D01*
X185687274Y-118970625D02*
X185669844Y-118905576D01*
X185676224Y-118799288D01*
X185795271Y-118593092D01*
X185884130Y-118534423D01*
X185949178Y-118516993D01*
X186055467Y-118523373D01*
X186137945Y-118570992D01*
X186237854Y-118683660D01*
X186447011Y-119464245D01*
X186756535Y-118928134D01*
X186200033Y-117892024D02*
X186247652Y-117809545D01*
X186336511Y-117750876D01*
X186401559Y-117733446D01*
X186507848Y-117739826D01*
X186696614Y-117793825D01*
X186902811Y-117912872D01*
X187043959Y-118049350D01*
X187102628Y-118138208D01*
X187120057Y-118203257D01*
X187113678Y-118309545D01*
X187066059Y-118392024D01*
X186977200Y-118450693D01*
X186912151Y-118468122D01*
X186805863Y-118461743D01*
X186617097Y-118407744D01*
X186410900Y-118288696D01*
X186269752Y-118152219D01*
X186211083Y-118063360D01*
X186193653Y-117998312D01*
X186200033Y-117892024D01*
G04 #@! TO.C,BTN3_DOWN1*
X144994285Y-120568571D02*
X145137142Y-120616190D01*
X145184761Y-120663809D01*
X145232380Y-120759047D01*
X145232380Y-120901904D01*
X145184761Y-120997142D01*
X145137142Y-121044761D01*
X145041904Y-121092380D01*
X144660952Y-121092380D01*
X144660952Y-120092380D01*
X144994285Y-120092380D01*
X145089523Y-120140000D01*
X145137142Y-120187619D01*
X145184761Y-120282857D01*
X145184761Y-120378095D01*
X145137142Y-120473333D01*
X145089523Y-120520952D01*
X144994285Y-120568571D01*
X144660952Y-120568571D01*
X145518095Y-120092380D02*
X146089523Y-120092380D01*
X145803809Y-121092380D02*
X145803809Y-120092380D01*
X146422857Y-121092380D02*
X146422857Y-120092380D01*
X146994285Y-121092380D01*
X146994285Y-120092380D01*
X147375238Y-120092380D02*
X147994285Y-120092380D01*
X147660952Y-120473333D01*
X147803809Y-120473333D01*
X147899047Y-120520952D01*
X147946666Y-120568571D01*
X147994285Y-120663809D01*
X147994285Y-120901904D01*
X147946666Y-120997142D01*
X147899047Y-121044761D01*
X147803809Y-121092380D01*
X147518095Y-121092380D01*
X147422857Y-121044761D01*
X147375238Y-120997142D01*
X148184761Y-121187619D02*
X148946666Y-121187619D01*
X149184761Y-121092380D02*
X149184761Y-120092380D01*
X149422857Y-120092380D01*
X149565714Y-120140000D01*
X149660952Y-120235238D01*
X149708571Y-120330476D01*
X149756190Y-120520952D01*
X149756190Y-120663809D01*
X149708571Y-120854285D01*
X149660952Y-120949523D01*
X149565714Y-121044761D01*
X149422857Y-121092380D01*
X149184761Y-121092380D01*
X150375238Y-120092380D02*
X150565714Y-120092380D01*
X150660952Y-120140000D01*
X150756190Y-120235238D01*
X150803809Y-120425714D01*
X150803809Y-120759047D01*
X150756190Y-120949523D01*
X150660952Y-121044761D01*
X150565714Y-121092380D01*
X150375238Y-121092380D01*
X150280000Y-121044761D01*
X150184761Y-120949523D01*
X150137142Y-120759047D01*
X150137142Y-120425714D01*
X150184761Y-120235238D01*
X150280000Y-120140000D01*
X150375238Y-120092380D01*
X151137142Y-120092380D02*
X151375238Y-121092380D01*
X151565714Y-120378095D01*
X151756190Y-121092380D01*
X151994285Y-120092380D01*
X152375238Y-121092380D02*
X152375238Y-120092380D01*
X152946666Y-121092380D01*
X152946666Y-120092380D01*
X153946666Y-121092380D02*
X153375238Y-121092380D01*
X153660952Y-121092380D02*
X153660952Y-120092380D01*
X153565714Y-120235238D01*
X153470476Y-120330476D01*
X153375238Y-120378095D01*
G04 #@! TO.C,C18*
X114070723Y-122168159D02*
X114135772Y-122185588D01*
X114248440Y-122285497D01*
X114296059Y-122367975D01*
X114326248Y-122515503D01*
X114291388Y-122645601D01*
X114232719Y-122734459D01*
X114091572Y-122870936D01*
X113967854Y-122942365D01*
X113779087Y-122996364D01*
X113672799Y-123002743D01*
X113542701Y-122967884D01*
X113430033Y-122867975D01*
X113382414Y-122785497D01*
X113352225Y-122637969D01*
X113369655Y-122572921D01*
X113677011Y-121295754D02*
X113962725Y-121790625D01*
X113819868Y-121543189D02*
X112953843Y-122043189D01*
X113125180Y-122054239D01*
X113255277Y-122089099D01*
X113344136Y-122147768D01*
X112896425Y-121086596D02*
X112902805Y-121192884D01*
X112885375Y-121257933D01*
X112826706Y-121346791D01*
X112785467Y-121370601D01*
X112679178Y-121376981D01*
X112614130Y-121359551D01*
X112525271Y-121300882D01*
X112430033Y-121135925D01*
X112423653Y-121029637D01*
X112441083Y-120964588D01*
X112499752Y-120875729D01*
X112540992Y-120851920D01*
X112647280Y-120845540D01*
X112712329Y-120862970D01*
X112801187Y-120921639D01*
X112896425Y-121086596D01*
X112985283Y-121145265D01*
X113050332Y-121162695D01*
X113156620Y-121156315D01*
X113321578Y-121061077D01*
X113380247Y-120972219D01*
X113397676Y-120907170D01*
X113391297Y-120800882D01*
X113296059Y-120635925D01*
X113207200Y-120577256D01*
X113142151Y-120559826D01*
X113035863Y-120566206D01*
X112870906Y-120661444D01*
X112812237Y-120750302D01*
X112794807Y-120815351D01*
X112801187Y-120921639D01*
G04 #@! TO.C,C21*
X129775302Y-136132133D02*
X129840350Y-136114704D01*
X129987878Y-136144893D01*
X130070356Y-136192512D01*
X130170265Y-136305180D01*
X130205124Y-136435277D01*
X130198745Y-136541565D01*
X130144746Y-136730332D01*
X130073317Y-136854050D01*
X129936840Y-136995198D01*
X129847982Y-137053867D01*
X129717884Y-137088726D01*
X129570356Y-137058537D01*
X129487878Y-137010918D01*
X129387969Y-136898250D01*
X129370540Y-136833201D01*
X129040625Y-136642725D02*
X128975576Y-136660155D01*
X128869288Y-136653775D01*
X128663092Y-136534728D01*
X128604423Y-136445869D01*
X128586993Y-136380821D01*
X128593373Y-136274532D01*
X128640992Y-136192054D01*
X128753660Y-136092145D01*
X129534245Y-135882988D01*
X128998134Y-135573464D01*
X128173348Y-135097274D02*
X128668220Y-135382988D01*
X128420784Y-135240131D02*
X127920784Y-136106156D01*
X128074691Y-136030057D01*
X128204789Y-135995198D01*
X128311077Y-136001578D01*
G04 #@! TO.C,C19*
X111502866Y-80005301D02*
X111520295Y-80070349D01*
X111490106Y-80217877D01*
X111442487Y-80300355D01*
X111329819Y-80400264D01*
X111199722Y-80435123D01*
X111093434Y-80428744D01*
X110904667Y-80374745D01*
X110780949Y-80303316D01*
X110639801Y-80166839D01*
X110581132Y-80077981D01*
X110546273Y-79947883D01*
X110576462Y-79800355D01*
X110624081Y-79717877D01*
X110736749Y-79617968D01*
X110801798Y-79600539D01*
X112061535Y-79228133D02*
X111775821Y-79723005D01*
X111918678Y-79475569D02*
X111052652Y-78975569D01*
X111128751Y-79129477D01*
X111163611Y-79259574D01*
X111157231Y-79365862D01*
X112299630Y-78815740D02*
X112394868Y-78650783D01*
X112401248Y-78544495D01*
X112383818Y-78479446D01*
X112307719Y-78325539D01*
X112166572Y-78189062D01*
X111836657Y-77998585D01*
X111730369Y-77992206D01*
X111665320Y-78009636D01*
X111576462Y-78068305D01*
X111481224Y-78233262D01*
X111474844Y-78339550D01*
X111492274Y-78404599D01*
X111550943Y-78493457D01*
X111757139Y-78612505D01*
X111863427Y-78618885D01*
X111928476Y-78601455D01*
X112017335Y-78542786D01*
X112112573Y-78377828D01*
X112118952Y-78271540D01*
X112101523Y-78206491D01*
X112042854Y-78117633D01*
G04 #@! TO.C,C15*
X185480723Y-76738159D02*
X185545772Y-76755588D01*
X185658440Y-76855497D01*
X185706059Y-76937975D01*
X185736248Y-77085503D01*
X185701388Y-77215601D01*
X185642719Y-77304459D01*
X185501572Y-77440936D01*
X185377854Y-77512365D01*
X185189087Y-77566364D01*
X185082799Y-77572743D01*
X184952701Y-77537884D01*
X184840033Y-77437975D01*
X184792414Y-77355497D01*
X184762225Y-77207969D01*
X184779655Y-77142921D01*
X185087011Y-75865754D02*
X185372725Y-76360625D01*
X185229868Y-76113189D02*
X184363843Y-76613189D01*
X184535180Y-76624239D01*
X184665277Y-76659099D01*
X184754136Y-76717768D01*
X183768605Y-75582207D02*
X184006700Y-75994600D01*
X184442902Y-75797744D01*
X184377854Y-75780314D01*
X184288995Y-75721645D01*
X184169948Y-75515448D01*
X184163568Y-75409160D01*
X184180998Y-75344112D01*
X184239667Y-75255253D01*
X184445863Y-75136206D01*
X184552151Y-75129826D01*
X184617200Y-75147256D01*
X184706059Y-75205925D01*
X184825106Y-75412121D01*
X184831486Y-75518409D01*
X184814056Y-75583458D01*
G04 #@! TO.C,C23*
X146687142Y-56997142D02*
X146639523Y-57044761D01*
X146496666Y-57092380D01*
X146401428Y-57092380D01*
X146258571Y-57044761D01*
X146163333Y-56949523D01*
X146115714Y-56854285D01*
X146068095Y-56663809D01*
X146068095Y-56520952D01*
X146115714Y-56330476D01*
X146163333Y-56235238D01*
X146258571Y-56140000D01*
X146401428Y-56092380D01*
X146496666Y-56092380D01*
X146639523Y-56140000D01*
X146687142Y-56187619D01*
X147068095Y-56187619D02*
X147115714Y-56140000D01*
X147210952Y-56092380D01*
X147449047Y-56092380D01*
X147544285Y-56140000D01*
X147591904Y-56187619D01*
X147639523Y-56282857D01*
X147639523Y-56378095D01*
X147591904Y-56520952D01*
X147020476Y-57092380D01*
X147639523Y-57092380D01*
X147972857Y-56092380D02*
X148591904Y-56092380D01*
X148258571Y-56473333D01*
X148401428Y-56473333D01*
X148496666Y-56520952D01*
X148544285Y-56568571D01*
X148591904Y-56663809D01*
X148591904Y-56901904D01*
X148544285Y-56997142D01*
X148496666Y-57044761D01*
X148401428Y-57092380D01*
X148115714Y-57092380D01*
X148020476Y-57044761D01*
X147972857Y-56997142D01*
G04 #@! TO.C,D6*
X168560155Y-144284655D02*
X168060155Y-143418629D01*
X168266351Y-143299581D01*
X168413879Y-143269392D01*
X168543976Y-143304252D01*
X168632835Y-143362921D01*
X168769312Y-143504069D01*
X168840741Y-143627786D01*
X168894739Y-143816553D01*
X168901119Y-143922841D01*
X168866260Y-144052939D01*
X168766351Y-144165607D01*
X168560155Y-144284655D01*
X169297334Y-142704343D02*
X169132377Y-142799581D01*
X169073708Y-142888440D01*
X169056278Y-142953489D01*
X169045228Y-143124826D01*
X169099227Y-143313592D01*
X169289703Y-143643507D01*
X169378561Y-143702176D01*
X169443610Y-143719606D01*
X169549898Y-143713226D01*
X169714855Y-143617988D01*
X169773524Y-143529129D01*
X169790954Y-143464081D01*
X169784574Y-143357793D01*
X169665527Y-143151596D01*
X169576668Y-143092927D01*
X169511620Y-143075497D01*
X169405331Y-143081877D01*
X169240374Y-143177115D01*
X169181705Y-143265973D01*
X169164275Y-143331022D01*
X169170655Y-143437310D01*
X168039620Y-139735441D02*
X167544748Y-140021155D01*
X167792184Y-139878298D02*
X167292184Y-139012272D01*
X167281134Y-139183609D01*
X167246274Y-139313707D01*
X167187605Y-139402565D01*
G04 #@! TO.C,C11*
X170891840Y-135600723D02*
X170874411Y-135665772D01*
X170774502Y-135778440D01*
X170692024Y-135826059D01*
X170544496Y-135856248D01*
X170414398Y-135821388D01*
X170325540Y-135762719D01*
X170189063Y-135621572D01*
X170117634Y-135497854D01*
X170063635Y-135309087D01*
X170057256Y-135202799D01*
X170092115Y-135072701D01*
X170192024Y-134960033D01*
X170274502Y-134912414D01*
X170422030Y-134882225D01*
X170487078Y-134899655D01*
X171764245Y-135207011D02*
X171269374Y-135492725D01*
X171516810Y-135349868D02*
X171016810Y-134483843D01*
X171005760Y-134655180D01*
X170970900Y-134785277D01*
X170912231Y-134874136D01*
X172589032Y-134730821D02*
X172094160Y-135016535D01*
X172341596Y-134873678D02*
X171841596Y-134007652D01*
X171830546Y-134178989D01*
X171795686Y-134309087D01*
X171737017Y-134397945D01*
G04 #@! TO.C,D5*
X188596560Y-128412223D02*
X187730535Y-127912223D01*
X187849582Y-127706027D01*
X187962250Y-127606118D01*
X188092348Y-127571259D01*
X188198636Y-127577638D01*
X188387403Y-127631637D01*
X188511121Y-127703066D01*
X188652269Y-127839543D01*
X188710938Y-127928402D01*
X188745797Y-128058499D01*
X188715608Y-128206027D01*
X188596560Y-128412223D01*
X188468630Y-126633805D02*
X188230535Y-127046198D01*
X188619118Y-127325532D01*
X188601689Y-127260484D01*
X188608068Y-127154195D01*
X188727116Y-126947999D01*
X188815974Y-126889330D01*
X188881023Y-126871900D01*
X188987311Y-126878280D01*
X189193508Y-126997327D01*
X189252177Y-127086186D01*
X189269607Y-127151235D01*
X189263227Y-127257523D01*
X189144179Y-127463719D01*
X189055321Y-127522388D01*
X188990272Y-127539818D01*
X185871156Y-124732757D02*
X185585442Y-125227629D01*
X185728299Y-124980193D02*
X184862273Y-124480193D01*
X184938372Y-124634100D01*
X184973232Y-124764198D01*
X184966852Y-124870486D01*
G04 #@! TO.C,C17*
X107057142Y-100930857D02*
X107104761Y-100978476D01*
X107152380Y-101121333D01*
X107152380Y-101216571D01*
X107104761Y-101359428D01*
X107009523Y-101454666D01*
X106914285Y-101502285D01*
X106723809Y-101549904D01*
X106580952Y-101549904D01*
X106390476Y-101502285D01*
X106295238Y-101454666D01*
X106200000Y-101359428D01*
X106152380Y-101216571D01*
X106152380Y-101121333D01*
X106200000Y-100978476D01*
X106247619Y-100930857D01*
X107152380Y-99978476D02*
X107152380Y-100549904D01*
X107152380Y-100264190D02*
X106152380Y-100264190D01*
X106295238Y-100359428D01*
X106390476Y-100454666D01*
X106438095Y-100549904D01*
X106152380Y-99645142D02*
X106152380Y-98978476D01*
X107152380Y-99407047D01*
G04 #@! TO.C,C16*
X169605302Y-61672133D02*
X169670350Y-61654704D01*
X169817878Y-61684893D01*
X169900356Y-61732512D01*
X170000265Y-61845180D01*
X170035124Y-61975277D01*
X170028745Y-62081565D01*
X169974746Y-62270332D01*
X169903317Y-62394050D01*
X169766840Y-62535198D01*
X169677982Y-62593867D01*
X169547884Y-62628726D01*
X169400356Y-62598537D01*
X169317878Y-62550918D01*
X169217969Y-62438250D01*
X169200540Y-62373201D01*
X168828134Y-61113464D02*
X169323006Y-61399178D01*
X169075570Y-61256321D02*
X168575570Y-62122347D01*
X168729478Y-62046248D01*
X168859575Y-62011388D01*
X168965863Y-62017768D01*
X167585827Y-61550918D02*
X167750784Y-61646156D01*
X167857072Y-61652536D01*
X167922121Y-61635106D01*
X168076028Y-61559007D01*
X168212506Y-61417860D01*
X168402982Y-61087945D01*
X168409362Y-60981657D01*
X168391932Y-60916608D01*
X168333263Y-60827750D01*
X168168306Y-60732512D01*
X168062017Y-60726132D01*
X167996969Y-60743562D01*
X167908110Y-60802231D01*
X167789063Y-61008427D01*
X167782683Y-61114716D01*
X167800113Y-61179764D01*
X167858782Y-61268623D01*
X168023739Y-61363861D01*
X168130027Y-61370241D01*
X168195076Y-61352811D01*
X168283934Y-61294142D01*
G04 #@! TO.C,BTN4_RIGHT1*
X175700476Y-89578571D02*
X175843333Y-89626190D01*
X175890952Y-89673809D01*
X175938571Y-89769047D01*
X175938571Y-89911904D01*
X175890952Y-90007142D01*
X175843333Y-90054761D01*
X175748095Y-90102380D01*
X175367142Y-90102380D01*
X175367142Y-89102380D01*
X175700476Y-89102380D01*
X175795714Y-89150000D01*
X175843333Y-89197619D01*
X175890952Y-89292857D01*
X175890952Y-89388095D01*
X175843333Y-89483333D01*
X175795714Y-89530952D01*
X175700476Y-89578571D01*
X175367142Y-89578571D01*
X176224285Y-89102380D02*
X176795714Y-89102380D01*
X176510000Y-90102380D02*
X176510000Y-89102380D01*
X177129047Y-90102380D02*
X177129047Y-89102380D01*
X177700476Y-90102380D01*
X177700476Y-89102380D01*
X178605238Y-89435714D02*
X178605238Y-90102380D01*
X178367142Y-89054761D02*
X178129047Y-89769047D01*
X178748095Y-89769047D01*
X178890952Y-90197619D02*
X179652857Y-90197619D01*
X180462380Y-90102380D02*
X180129047Y-89626190D01*
X179890952Y-90102380D02*
X179890952Y-89102380D01*
X180271904Y-89102380D01*
X180367142Y-89150000D01*
X180414761Y-89197619D01*
X180462380Y-89292857D01*
X180462380Y-89435714D01*
X180414761Y-89530952D01*
X180367142Y-89578571D01*
X180271904Y-89626190D01*
X179890952Y-89626190D01*
X180890952Y-90102380D02*
X180890952Y-89102380D01*
X181890952Y-89150000D02*
X181795714Y-89102380D01*
X181652857Y-89102380D01*
X181510000Y-89150000D01*
X181414761Y-89245238D01*
X181367142Y-89340476D01*
X181319523Y-89530952D01*
X181319523Y-89673809D01*
X181367142Y-89864285D01*
X181414761Y-89959523D01*
X181510000Y-90054761D01*
X181652857Y-90102380D01*
X181748095Y-90102380D01*
X181890952Y-90054761D01*
X181938571Y-90007142D01*
X181938571Y-89673809D01*
X181748095Y-89673809D01*
X182367142Y-90102380D02*
X182367142Y-89102380D01*
X182367142Y-89578571D02*
X182938571Y-89578571D01*
X182938571Y-90102380D02*
X182938571Y-89102380D01*
X183271904Y-89102380D02*
X183843333Y-89102380D01*
X183557619Y-90102380D02*
X183557619Y-89102380D01*
X184700476Y-90102380D02*
X184129047Y-90102380D01*
X184414761Y-90102380D02*
X184414761Y-89102380D01*
X184319523Y-89245238D01*
X184224285Y-89340476D01*
X184129047Y-89388095D01*
G04 #@! TO.C,C22*
X191477142Y-97967857D02*
X191524761Y-98015476D01*
X191572380Y-98158333D01*
X191572380Y-98253571D01*
X191524761Y-98396428D01*
X191429523Y-98491666D01*
X191334285Y-98539285D01*
X191143809Y-98586904D01*
X191000952Y-98586904D01*
X190810476Y-98539285D01*
X190715238Y-98491666D01*
X190620000Y-98396428D01*
X190572380Y-98253571D01*
X190572380Y-98158333D01*
X190620000Y-98015476D01*
X190667619Y-97967857D01*
X190667619Y-97586904D02*
X190620000Y-97539285D01*
X190572380Y-97444047D01*
X190572380Y-97205952D01*
X190620000Y-97110714D01*
X190667619Y-97063095D01*
X190762857Y-97015476D01*
X190858095Y-97015476D01*
X191000952Y-97063095D01*
X191572380Y-97634523D01*
X191572380Y-97015476D01*
X190667619Y-96634523D02*
X190620000Y-96586904D01*
X190572380Y-96491666D01*
X190572380Y-96253571D01*
X190620000Y-96158333D01*
X190667619Y-96110714D01*
X190762857Y-96063095D01*
X190858095Y-96063095D01*
X191000952Y-96110714D01*
X191572380Y-96682142D01*
X191572380Y-96063095D01*
G04 #@! TO.C,Q1*
X142504761Y-52647619D02*
X142409523Y-52600000D01*
X142314285Y-52504761D01*
X142171428Y-52361904D01*
X142076190Y-52314285D01*
X141980952Y-52314285D01*
X142028571Y-52552380D02*
X141933333Y-52504761D01*
X141838095Y-52409523D01*
X141790476Y-52219047D01*
X141790476Y-51885714D01*
X141838095Y-51695238D01*
X141933333Y-51600000D01*
X142028571Y-51552380D01*
X142219047Y-51552380D01*
X142314285Y-51600000D01*
X142409523Y-51695238D01*
X142457142Y-51885714D01*
X142457142Y-52219047D01*
X142409523Y-52409523D01*
X142314285Y-52504761D01*
X142219047Y-52552380D01*
X142028571Y-52552380D01*
X143409523Y-52552380D02*
X142838095Y-52552380D01*
X143123809Y-52552380D02*
X143123809Y-51552380D01*
X143028571Y-51695238D01*
X142933333Y-51790476D01*
X142838095Y-51838095D01*
G04 #@! TO.C,D2*
X178412224Y-59323438D02*
X177912224Y-60189463D01*
X177706028Y-60070416D01*
X177606119Y-59957748D01*
X177571260Y-59827650D01*
X177577639Y-59721362D01*
X177631638Y-59532595D01*
X177703067Y-59408877D01*
X177839544Y-59267729D01*
X177928403Y-59209060D01*
X178058500Y-59174201D01*
X178206028Y-59204390D01*
X178412224Y-59323438D01*
X177135057Y-59630794D02*
X177070008Y-59648224D01*
X176963720Y-59641844D01*
X176757524Y-59522796D01*
X176698855Y-59433938D01*
X176681425Y-59368889D01*
X176687805Y-59262601D01*
X176735424Y-59180123D01*
X176848091Y-59080214D01*
X177628677Y-58871057D01*
X177092566Y-58561533D01*
X174732757Y-62048841D02*
X175227629Y-62334555D01*
X174980193Y-62191698D02*
X174480193Y-63057724D01*
X174634100Y-62981625D01*
X174764198Y-62946765D01*
X174870486Y-62953145D01*
G04 #@! TO.C,BTN1_ENTER1*
X145103809Y-77868571D02*
X145246666Y-77916190D01*
X145294285Y-77963809D01*
X145341904Y-78059047D01*
X145341904Y-78201904D01*
X145294285Y-78297142D01*
X145246666Y-78344761D01*
X145151428Y-78392380D01*
X144770476Y-78392380D01*
X144770476Y-77392380D01*
X145103809Y-77392380D01*
X145199047Y-77440000D01*
X145246666Y-77487619D01*
X145294285Y-77582857D01*
X145294285Y-77678095D01*
X145246666Y-77773333D01*
X145199047Y-77820952D01*
X145103809Y-77868571D01*
X144770476Y-77868571D01*
X145627619Y-77392380D02*
X146199047Y-77392380D01*
X145913333Y-78392380D02*
X145913333Y-77392380D01*
X146532380Y-78392380D02*
X146532380Y-77392380D01*
X147103809Y-78392380D01*
X147103809Y-77392380D01*
X148103809Y-78392380D02*
X147532380Y-78392380D01*
X147818095Y-78392380D02*
X147818095Y-77392380D01*
X147722857Y-77535238D01*
X147627619Y-77630476D01*
X147532380Y-77678095D01*
X148294285Y-78487619D02*
X149056190Y-78487619D01*
X149294285Y-77868571D02*
X149627619Y-77868571D01*
X149770476Y-78392380D02*
X149294285Y-78392380D01*
X149294285Y-77392380D01*
X149770476Y-77392380D01*
X150199047Y-78392380D02*
X150199047Y-77392380D01*
X150770476Y-78392380D01*
X150770476Y-77392380D01*
X151103809Y-77392380D02*
X151675238Y-77392380D01*
X151389523Y-78392380D02*
X151389523Y-77392380D01*
X152008571Y-77868571D02*
X152341904Y-77868571D01*
X152484761Y-78392380D02*
X152008571Y-78392380D01*
X152008571Y-77392380D01*
X152484761Y-77392380D01*
X153484761Y-78392380D02*
X153151428Y-77916190D01*
X152913333Y-78392380D02*
X152913333Y-77392380D01*
X153294285Y-77392380D01*
X153389523Y-77440000D01*
X153437142Y-77487619D01*
X153484761Y-77582857D01*
X153484761Y-77725714D01*
X153437142Y-77820952D01*
X153389523Y-77868571D01*
X153294285Y-77916190D01*
X152913333Y-77916190D01*
X154437142Y-78392380D02*
X153865714Y-78392380D01*
X154151428Y-78392380D02*
X154151428Y-77392380D01*
X154056190Y-77535238D01*
X153960952Y-77630476D01*
X153865714Y-77678095D01*
G04 #@! TO.C,D10*
X101002380Y-94914285D02*
X100002380Y-94914285D01*
X100002380Y-94676190D01*
X100050000Y-94533333D01*
X100145238Y-94438095D01*
X100240476Y-94390476D01*
X100430952Y-94342857D01*
X100573809Y-94342857D01*
X100764285Y-94390476D01*
X100859523Y-94438095D01*
X100954761Y-94533333D01*
X101002380Y-94676190D01*
X101002380Y-94914285D01*
X101002380Y-93390476D02*
X101002380Y-93961904D01*
X101002380Y-93676190D02*
X100002380Y-93676190D01*
X100145238Y-93771428D01*
X100240476Y-93866666D01*
X100288095Y-93961904D01*
X100002380Y-92771428D02*
X100002380Y-92676190D01*
X100050000Y-92580952D01*
X100097619Y-92533333D01*
X100192857Y-92485714D01*
X100383333Y-92438095D01*
X100621428Y-92438095D01*
X100811904Y-92485714D01*
X100907142Y-92533333D01*
X100954761Y-92580952D01*
X101002380Y-92676190D01*
X101002380Y-92771428D01*
X100954761Y-92866666D01*
X100907142Y-92914285D01*
X100811904Y-92961904D01*
X100621428Y-93009523D01*
X100383333Y-93009523D01*
X100192857Y-92961904D01*
X100097619Y-92914285D01*
X100050000Y-92866666D01*
X100002380Y-92771428D01*
X105012382Y-94524286D02*
X105012382Y-95095715D01*
X105012382Y-94810001D02*
X104012382Y-94810001D01*
X104155240Y-94905239D01*
X104250478Y-95000477D01*
X104298097Y-95095715D01*
G04 #@! TO.C,D3*
X194284655Y-79359843D02*
X193418629Y-79859843D01*
X193299581Y-79653647D01*
X193269392Y-79506119D01*
X193304252Y-79376022D01*
X193362921Y-79287163D01*
X193504069Y-79150686D01*
X193627786Y-79079257D01*
X193816553Y-79025259D01*
X193922841Y-79018879D01*
X194052939Y-79053738D01*
X194165607Y-79153647D01*
X194284655Y-79359843D01*
X192966248Y-79076296D02*
X192656724Y-78540185D01*
X193153305Y-78638384D01*
X193081877Y-78514667D01*
X193075497Y-78408378D01*
X193092927Y-78343330D01*
X193151596Y-78254471D01*
X193357793Y-78135424D01*
X193464081Y-78129044D01*
X193529129Y-78146474D01*
X193617988Y-78205143D01*
X193760845Y-78452579D01*
X193767225Y-78558867D01*
X193749795Y-78623916D01*
X189735441Y-79880378D02*
X190021155Y-80375250D01*
X189878298Y-80127814D02*
X189012272Y-80627814D01*
X189183609Y-80638864D01*
X189313707Y-80673724D01*
X189402565Y-80732393D01*
G04 #@! TO.C,C12*
X126261840Y-63760722D02*
X126244411Y-63825771D01*
X126144502Y-63938439D01*
X126062024Y-63986058D01*
X125914496Y-64016247D01*
X125784398Y-63981387D01*
X125695540Y-63922718D01*
X125559063Y-63781571D01*
X125487634Y-63657853D01*
X125433635Y-63469086D01*
X125427256Y-63362798D01*
X125462115Y-63232700D01*
X125562024Y-63120032D01*
X125644502Y-63072413D01*
X125792030Y-63042224D01*
X125857078Y-63059654D01*
X127134245Y-63367010D02*
X126639374Y-63652724D01*
X126886810Y-63509867D02*
X126386810Y-62643842D01*
X126375760Y-62815179D01*
X126340900Y-62945276D01*
X126282231Y-63034135D01*
X127011779Y-62392987D02*
X127029209Y-62327938D01*
X127087878Y-62239080D01*
X127294074Y-62120032D01*
X127400362Y-62113652D01*
X127465411Y-62131082D01*
X127554270Y-62189751D01*
X127601889Y-62272230D01*
X127632078Y-62419757D01*
X127422921Y-63200343D01*
X127959032Y-62890820D01*
G04 #@! TO.C,Q5*
X175554761Y-76447619D02*
X175459523Y-76400000D01*
X175364285Y-76304761D01*
X175221428Y-76161904D01*
X175126190Y-76114285D01*
X175030952Y-76114285D01*
X175078571Y-76352380D02*
X174983333Y-76304761D01*
X174888095Y-76209523D01*
X174840476Y-76019047D01*
X174840476Y-75685714D01*
X174888095Y-75495238D01*
X174983333Y-75400000D01*
X175078571Y-75352380D01*
X175269047Y-75352380D01*
X175364285Y-75400000D01*
X175459523Y-75495238D01*
X175507142Y-75685714D01*
X175507142Y-76019047D01*
X175459523Y-76209523D01*
X175364285Y-76304761D01*
X175269047Y-76352380D01*
X175078571Y-76352380D01*
X176411904Y-75352380D02*
X175935714Y-75352380D01*
X175888095Y-75828571D01*
X175935714Y-75780952D01*
X176030952Y-75733333D01*
X176269047Y-75733333D01*
X176364285Y-75780952D01*
X176411904Y-75828571D01*
X176459523Y-75923809D01*
X176459523Y-76161904D01*
X176411904Y-76257142D01*
X176364285Y-76304761D01*
X176269047Y-76352380D01*
X176030952Y-76352380D01*
X175935714Y-76304761D01*
X175888095Y-76257142D01*
G04 #@! TO.C,D1*
X153171904Y-50812380D02*
X153171904Y-49812380D01*
X153410000Y-49812380D01*
X153552857Y-49860000D01*
X153648095Y-49955238D01*
X153695714Y-50050476D01*
X153743333Y-50240952D01*
X153743333Y-50383809D01*
X153695714Y-50574285D01*
X153648095Y-50669523D01*
X153552857Y-50764761D01*
X153410000Y-50812380D01*
X153171904Y-50812380D01*
X154695714Y-50812380D02*
X154124285Y-50812380D01*
X154410000Y-50812380D02*
X154410000Y-49812380D01*
X154314761Y-49955238D01*
X154219523Y-50050476D01*
X154124285Y-50098095D01*
X153395713Y-55012382D02*
X152824284Y-55012382D01*
X153109999Y-55012382D02*
X153109999Y-54012382D01*
X153014760Y-54155240D01*
X152919522Y-54250478D01*
X152824284Y-54298097D01*
G04 #@! TO.C,D9*
X105156985Y-119386192D02*
X104290959Y-119886192D01*
X104171911Y-119679996D01*
X104141722Y-119532468D01*
X104176582Y-119402371D01*
X104235251Y-119313512D01*
X104376399Y-119177035D01*
X104500116Y-119105606D01*
X104688883Y-119051608D01*
X104795171Y-119045228D01*
X104925269Y-119080087D01*
X105037937Y-119179996D01*
X105156985Y-119386192D01*
X104633175Y-118478928D02*
X104537937Y-118313970D01*
X104449079Y-118255301D01*
X104384030Y-118237871D01*
X104212693Y-118226821D01*
X104023926Y-118280820D01*
X103694012Y-118471296D01*
X103635342Y-118560155D01*
X103617913Y-118625204D01*
X103624292Y-118731492D01*
X103719531Y-118896449D01*
X103808389Y-118955118D01*
X103873438Y-118972548D01*
X103979726Y-118966168D01*
X104185922Y-118847120D01*
X104244591Y-118758262D01*
X104262021Y-118693213D01*
X104255642Y-118586925D01*
X104160403Y-118421968D01*
X104071545Y-118363299D01*
X104006496Y-118345869D01*
X103900208Y-118352249D01*
X108682389Y-117092367D02*
X108968103Y-117587239D01*
X108825246Y-117339803D02*
X107959220Y-117839803D01*
X108130557Y-117850853D01*
X108260655Y-117885713D01*
X108349513Y-117944382D01*
G04 #@! TO.C,D11*
X109534630Y-71577792D02*
X108668605Y-71077792D01*
X108787652Y-70871596D01*
X108900320Y-70771687D01*
X109030418Y-70736828D01*
X109136706Y-70743208D01*
X109325473Y-70797206D01*
X109449191Y-70868635D01*
X109590338Y-71005112D01*
X109649007Y-71093971D01*
X109683867Y-71224068D01*
X109653678Y-71371596D01*
X109534630Y-71577792D01*
X110296535Y-70258134D02*
X110010821Y-70753006D01*
X110153678Y-70505570D02*
X109287652Y-70005570D01*
X109363751Y-70159478D01*
X109398611Y-70289575D01*
X109392231Y-70395863D01*
X110772725Y-69433348D02*
X110487011Y-69928220D01*
X110629868Y-69680784D02*
X109763843Y-69180784D01*
X109839942Y-69334691D01*
X109874801Y-69464789D01*
X109868421Y-69571077D01*
X113118102Y-73144750D02*
X112832388Y-73639622D01*
X112975245Y-73392186D02*
X112109219Y-72892186D01*
X112185318Y-73046093D01*
X112220178Y-73176191D01*
X112213798Y-73282479D01*
D11*
G04 #@! TO.C,D4*
X197710000Y-95310000D02*
X196560000Y-95310000D01*
X192210000Y-102610000D02*
X192210000Y-95310000D01*
X197710000Y-102610000D02*
X197710000Y-95310000D01*
G04 #@! TO.C,R27*
X176006359Y-80705000D02*
X176313641Y-80705000D01*
X176006359Y-81465000D02*
X176313641Y-81465000D01*
G04 #@! TO.C,R4*
X140112500Y-53502742D02*
X140112500Y-53977258D01*
X139067500Y-53502742D02*
X139067500Y-53977258D01*
G04 #@! TO.C,D12*
X121424006Y-58566261D02*
X121999006Y-59562190D01*
X130495992Y-59679401D02*
X124174006Y-63329401D01*
X127745992Y-54916261D02*
X121424006Y-58566261D01*
G04 #@! TO.C,R26*
X178703641Y-76920000D02*
X178396359Y-76920000D01*
X178703641Y-77680000D02*
X178396359Y-77680000D01*
G04 #@! TO.C,D7*
X145310000Y-147710000D02*
X152610000Y-147710000D01*
X152610000Y-147710000D02*
X152610000Y-146560000D01*
X145310000Y-142210000D02*
X152610000Y-142210000D01*
G04 #@! TO.C,C24*
X147169420Y-141750000D02*
X147450580Y-141750000D01*
X147169420Y-140730000D02*
X147450580Y-140730000D01*
G04 #@! TO.C,D8*
X127745993Y-143003738D02*
X128320993Y-142007809D01*
X121424007Y-139353738D02*
X127745993Y-143003738D01*
X124174007Y-134590598D02*
X130495993Y-138240598D01*
G04 #@! TO.C,C20*
X185003883Y-121937916D02*
X185144463Y-121694424D01*
X184120537Y-121427916D02*
X184261117Y-121184424D01*
G04 #@! TO.C,C18*
X111921383Y-118353254D02*
X112061963Y-118596746D01*
X111038037Y-118863254D02*
X111178617Y-119106746D01*
G04 #@! TO.C,C21*
X126013254Y-135041383D02*
X126256746Y-135181963D01*
X126523254Y-134158037D02*
X126766746Y-134298617D01*
G04 #@! TO.C,C19*
X112818617Y-76043254D02*
X112678037Y-76286746D01*
X113701963Y-76553254D02*
X113561383Y-76796746D01*
G04 #@! TO.C,C15*
X186861963Y-79026746D02*
X186721383Y-78783254D01*
X185978617Y-79536746D02*
X185838037Y-79293254D01*
G04 #@! TO.C,TP1*
X122700000Y-75000000D02*
G75*
G03*
X122700000Y-75000000I-1200000J0D01*
G01*
G04 #@! TO.C,C23*
X150810580Y-57090000D02*
X150529420Y-57090000D01*
X150810580Y-56070000D02*
X150529420Y-56070000D01*
G04 #@! TO.C,D6*
X176495993Y-139353738D02*
X175920993Y-138357809D01*
X167424007Y-138240598D02*
X173745993Y-134590598D01*
X170174007Y-143003738D02*
X176495993Y-139353738D01*
G04 #@! TO.C,C11*
X168293254Y-136098617D02*
X168536746Y-135958037D01*
X168803254Y-136981963D02*
X169046746Y-136841383D01*
G04 #@! TO.C,D5*
X189353738Y-126495992D02*
X193003738Y-120174006D01*
X193003738Y-120174006D02*
X192007809Y-119599006D01*
X184590598Y-123745992D02*
X188240598Y-117424006D01*
G04 #@! TO.C,C17*
X106190000Y-97099420D02*
X106190000Y-97380580D01*
X107210000Y-97099420D02*
X107210000Y-97380580D01*
G04 #@! TO.C,C16*
X171336746Y-63721963D02*
X171093254Y-63581383D01*
X171846746Y-62838617D02*
X171603254Y-62698037D01*
G04 #@! TO.C,C22*
X190660000Y-100790580D02*
X190660000Y-100509420D01*
X191680000Y-100790580D02*
X191680000Y-100509420D01*
G04 #@! TO.C,Q1*
X142950000Y-56110000D02*
X142300000Y-56110000D01*
X142950000Y-52990000D02*
X141275000Y-52990000D01*
X142950000Y-56110000D02*
X143600000Y-56110000D01*
X142950000Y-52990000D02*
X143600000Y-52990000D01*
G04 #@! TO.C,D2*
X176495993Y-58566261D02*
X170174007Y-54916261D01*
X173745993Y-63329401D02*
X167424007Y-59679401D01*
X170174007Y-54916261D02*
X169599007Y-55912190D01*
G04 #@! TO.C,D10*
X105710000Y-95310000D02*
X105710000Y-102610000D01*
X100210000Y-102610000D02*
X101360000Y-102610000D01*
X100210000Y-95310000D02*
X100210000Y-102610000D01*
G04 #@! TO.C,D3*
X189353738Y-71424007D02*
X188357809Y-71999007D01*
X193003738Y-77745993D02*
X189353738Y-71424007D01*
X188240598Y-80495993D02*
X184590598Y-74174007D01*
G04 #@! TO.C,C12*
X129746746Y-61911383D02*
X129503254Y-62051963D01*
X129236746Y-61028037D02*
X128993254Y-61168617D01*
G04 #@! TO.C,D1*
X145310000Y-50210000D02*
X145310000Y-51360000D01*
X152610000Y-50210000D02*
X145310000Y-50210000D01*
X152610000Y-55710000D02*
X145310000Y-55710000D01*
G04 #@! TO.C,D9*
X109679401Y-117424007D02*
X113329401Y-123745993D01*
X104916261Y-120174007D02*
X108566261Y-126495993D01*
X108566261Y-126495993D02*
X109562190Y-125920993D01*
G04 #@! TO.C,D11*
X108566261Y-71424007D02*
X104916261Y-77745993D01*
X104916261Y-77745993D02*
X105912190Y-78320993D01*
X113329401Y-74174007D02*
X109679401Y-80495993D01*
G04 #@! TD*
M02*
