G04 #@! TF.GenerationSoftware,KiCad,Pcbnew,6.0.11-2627ca5db0~126~ubuntu20.04.1*
G04 #@! TF.CreationDate,2023-04-28T08:06:44+02:00*
G04 #@! TF.ProjectId,Semafor_top,53656d61-666f-4725-9f74-6f702e6b6963,rev?*
G04 #@! TF.SameCoordinates,Original*
G04 #@! TF.FileFunction,Profile,NP*
%FSLAX46Y46*%
G04 Gerber Fmt 4.6, Leading zero omitted, Abs format (unit mm)*
G04 Created by KiCad (PCBNEW 6.0.11-2627ca5db0~126~ubuntu20.04.1) date 2023-04-28 08:06:44*
%MOMM*%
%LPD*%
G01*
G04 APERTURE LIST*
G04 #@! TA.AperFunction,Profile*
%ADD10C,0.100000*%
G04 #@! TD*
G04 APERTURE END LIST*
D10*
X184492662Y-66148179D02*
X184498164Y-66074180D01*
X117492662Y-132148179D02*
X117498164Y-132074180D01*
X184492662Y-132148179D02*
X184498164Y-132074180D01*
X117498164Y-66074180D02*
X117500000Y-66000000D01*
X198755432Y-94060679D02*
G75*
G03*
X199000000Y-98999999I-49755434J-4939335D01*
G01*
X198755432Y-94060679D02*
X198938820Y-96527314D01*
X184499997Y-66000000D02*
G75*
G03*
X184492662Y-66148179I-1499949J-24D01*
G01*
X184500000Y-132000000D02*
X184500000Y-132000000D01*
X199000000Y-98999999D02*
X199000000Y-98999999D01*
X132398409Y-63564289D02*
X132400000Y-63500000D01*
X132393641Y-63628422D02*
X132398409Y-63564289D01*
X117500000Y-66000000D02*
X117500000Y-66000000D01*
X184498164Y-132074180D02*
X184500000Y-132000000D01*
X198938820Y-96527314D02*
X199000000Y-98999999D01*
X117499997Y-132000000D02*
G75*
G03*
X117492662Y-132148179I-1499949J-24D01*
G01*
X132400000Y-63500000D02*
X132400000Y-63500000D01*
X132399998Y-63500000D02*
G75*
G03*
X132393641Y-63628422I-1299950J-24D01*
G01*
X184498164Y-66074180D02*
X184500000Y-66000000D01*
X184500000Y-66000000D02*
X184500000Y-66000000D01*
X117500000Y-132000000D02*
X117500000Y-132000000D01*
X117499997Y-66000000D02*
G75*
G03*
X117492662Y-66148179I-1499949J-24D01*
G01*
X184499997Y-132000000D02*
G75*
G03*
X184492662Y-132148179I-1499949J-24D01*
G01*
X117492662Y-66148179D02*
X117498164Y-66074180D01*
X117498164Y-132074180D02*
X117500000Y-132000000D01*
M02*
