G04 #@! TF.GenerationSoftware,KiCad,Pcbnew,6.0.11-2627ca5db0~126~ubuntu20.04.1*
G04 #@! TF.CreationDate,2023-04-28T08:06:44+02:00*
G04 #@! TF.ProjectId,Semafor_top,53656d61-666f-4725-9f74-6f702e6b6963,rev?*
G04 #@! TF.SameCoordinates,Original*
G04 #@! TF.FileFunction,Soldermask,Top*
G04 #@! TF.FilePolarity,Negative*
%FSLAX46Y46*%
G04 Gerber Fmt 4.6, Leading zero omitted, Abs format (unit mm)*
G04 Created by KiCad (PCBNEW 6.0.11-2627ca5db0~126~ubuntu20.04.1) date 2023-04-28 08:06:44*
%MOMM*%
%LPD*%
G01*
G04 APERTURE LIST*
G04 Aperture macros list*
%AMRoundRect*
0 Rectangle with rounded corners*
0 $1 Rounding radius*
0 $2 $3 $4 $5 $6 $7 $8 $9 X,Y pos of 4 corners*
0 Add a 4 corners polygon primitive as box body*
4,1,4,$2,$3,$4,$5,$6,$7,$8,$9,$2,$3,0*
0 Add four circle primitives for the rounded corners*
1,1,$1+$1,$2,$3*
1,1,$1+$1,$4,$5*
1,1,$1+$1,$6,$7*
1,1,$1+$1,$8,$9*
0 Add four rect primitives between the rounded corners*
20,1,$1+$1,$2,$3,$4,$5,0*
20,1,$1+$1,$4,$5,$6,$7,0*
20,1,$1+$1,$6,$7,$8,$9,0*
20,1,$1+$1,$8,$9,$2,$3,0*%
%AMHorizOval*
0 Thick line with rounded ends*
0 $1 width*
0 $2 $3 position (X,Y) of the first rounded end (center of the circle)*
0 $4 $5 position (X,Y) of the second rounded end (center of the circle)*
0 Add line between two ends*
20,1,$1,$2,$3,$4,$5,0*
0 Add two circle primitives to create the rounded ends*
1,1,$1,$2,$3*
1,1,$1,$4,$5*%
%AMRotRect*
0 Rectangle, with rotation*
0 The origin of the aperture is its center*
0 $1 length*
0 $2 width*
0 $3 Rotation angle, in degrees counterclockwise*
0 Add horizontal line*
21,1,$1,$2,0,0,$3*%
G04 Aperture macros list end*
%ADD10R,1.000000X1.500000*%
%ADD11RoundRect,0.135000X-0.135000X-0.185000X0.135000X-0.185000X0.135000X0.185000X-0.135000X0.185000X0*%
%ADD12RoundRect,0.200000X-0.275000X0.200000X-0.275000X-0.200000X0.275000X-0.200000X0.275000X0.200000X0*%
%ADD13RotRect,1.500000X1.000000X210.000000*%
%ADD14RoundRect,0.135000X0.135000X0.185000X-0.135000X0.185000X-0.135000X-0.185000X0.135000X-0.185000X0*%
%ADD15R,1.500000X1.000000*%
%ADD16RoundRect,0.225000X-0.225000X-0.250000X0.225000X-0.250000X0.225000X0.250000X-0.225000X0.250000X0*%
%ADD17RoundRect,4.800000X-3.200000X-3.200000X3.200000X-3.200000X3.200000X3.200000X-3.200000X3.200000X0*%
%ADD18RotRect,1.500000X1.000000X330.000000*%
%ADD19RoundRect,0.225000X0.104006X-0.319856X0.329006X0.069856X-0.104006X0.319856X-0.329006X-0.069856X0*%
%ADD20RoundRect,0.225000X-0.329006X0.069856X-0.104006X-0.319856X0.329006X-0.069856X0.104006X0.319856X0*%
%ADD21RoundRect,0.225000X-0.319856X-0.104006X0.069856X-0.329006X0.319856X0.104006X-0.069856X0.329006X0*%
%ADD22RoundRect,0.225000X-0.104006X0.319856X-0.329006X-0.069856X0.104006X-0.319856X0.329006X0.069856X0*%
%ADD23RoundRect,0.225000X0.329006X-0.069856X0.104006X0.319856X-0.329006X0.069856X-0.104006X-0.319856X0*%
%ADD24C,2.000000*%
%ADD25RoundRect,0.225000X0.225000X0.250000X-0.225000X0.250000X-0.225000X-0.250000X0.225000X-0.250000X0*%
%ADD26RotRect,1.500000X1.000000X30.000000*%
%ADD27RoundRect,0.225000X-0.069856X-0.329006X0.319856X-0.104006X0.069856X0.329006X-0.319856X0.104006X0*%
%ADD28RotRect,1.500000X1.000000X60.000000*%
%ADD29RoundRect,0.225000X-0.250000X0.225000X-0.250000X-0.225000X0.250000X-0.225000X0.250000X0.225000X0*%
%ADD30RoundRect,0.225000X0.319856X0.104006X-0.069856X0.329006X-0.319856X-0.104006X0.069856X-0.329006X0*%
%ADD31RoundRect,0.225000X0.250000X-0.225000X0.250000X0.225000X-0.250000X0.225000X-0.250000X-0.225000X0*%
%ADD32RoundRect,0.150000X-0.587500X-0.150000X0.587500X-0.150000X0.587500X0.150000X-0.587500X0.150000X0*%
%ADD33RotRect,1.500000X1.000000X150.000000*%
%ADD34RoundRect,12.000000X-8.000000X-8.000000X8.000000X-8.000000X8.000000X8.000000X-8.000000X8.000000X0*%
%ADD35RotRect,1.500000X1.000000X120.000000*%
%ADD36RoundRect,0.225000X0.069856X0.329006X-0.319856X0.104006X-0.069856X-0.329006X0.319856X-0.104006X0*%
%ADD37R,2.100000X1.000000*%
%ADD38RotRect,1.500000X1.000000X300.000000*%
%ADD39RotRect,1.500000X1.000000X240.000000*%
%ADD40RotRect,1.700000X1.700000X45.000000*%
%ADD41HorizOval,1.700000X0.000000X0.000000X0.000000X0.000000X0*%
%ADD42RotRect,1.700000X1.700000X225.000000*%
%ADD43HorizOval,1.700000X0.000000X0.000000X0.000000X0.000000X0*%
%ADD44RotRect,1.700000X1.700000X135.000000*%
%ADD45HorizOval,1.700000X0.000000X0.000000X0.000000X0.000000X0*%
G04 APERTURE END LIST*
D10*
G04 #@! TO.C,D4*
X193360000Y-101410000D03*
X196560000Y-101410000D03*
X196560000Y-96510000D03*
X193360000Y-96510000D03*
G04 #@! TD*
D11*
G04 #@! TO.C,R27*
X175650000Y-81085000D03*
X176670000Y-81085000D03*
G04 #@! TD*
D12*
G04 #@! TO.C,R4*
X139590000Y-52915000D03*
X139590000Y-54565000D03*
G04 #@! TD*
D13*
G04 #@! TO.C,D12*
X128881761Y-59283472D03*
X127281761Y-56512190D03*
X123038237Y-58962190D03*
X124638237Y-61733472D03*
G04 #@! TD*
D14*
G04 #@! TO.C,R26*
X179060000Y-77300000D03*
X178040000Y-77300000D03*
G04 #@! TD*
D15*
G04 #@! TO.C,D7*
X146510000Y-143360000D03*
X146510000Y-146560000D03*
X151410000Y-146560000D03*
X151410000Y-143360000D03*
G04 #@! TD*
D16*
G04 #@! TO.C,C24*
X146535000Y-141240000D03*
X148085000Y-141240000D03*
G04 #@! TD*
D17*
G04 #@! TO.C,BTN5_LEFT1*
X118000000Y-99000000D03*
G04 #@! TD*
G04 #@! TO.C,BTN2_UP1*
X149000000Y-68000000D03*
G04 #@! TD*
D18*
G04 #@! TO.C,D8*
X124638238Y-136186527D03*
X123038238Y-138957809D03*
X127281762Y-141407809D03*
X128881762Y-138636527D03*
G04 #@! TD*
D19*
G04 #@! TO.C,C20*
X184245000Y-122232340D03*
X185020000Y-120890000D03*
G04 #@! TD*
D17*
G04 #@! TO.C,BTN3_DOWN1*
X149000000Y-130000000D03*
G04 #@! TD*
D20*
G04 #@! TO.C,C18*
X111162500Y-118058830D03*
X111937500Y-119401170D03*
G04 #@! TD*
D21*
G04 #@! TO.C,C21*
X125718830Y-134282500D03*
X127061170Y-135057500D03*
G04 #@! TD*
D22*
G04 #@! TO.C,C19*
X113577500Y-75748830D03*
X112802500Y-77091170D03*
G04 #@! TD*
D23*
G04 #@! TO.C,C15*
X186737500Y-79831170D03*
X185962500Y-78488830D03*
G04 #@! TD*
D24*
G04 #@! TO.C,TP1*
X121500000Y-75000000D03*
G04 #@! TD*
D25*
G04 #@! TO.C,C23*
X151445000Y-56580000D03*
X149895000Y-56580000D03*
G04 #@! TD*
D26*
G04 #@! TO.C,D6*
X169038238Y-138636527D03*
X170638238Y-141407809D03*
X174881762Y-138957809D03*
X173281762Y-136186527D03*
G04 #@! TD*
D27*
G04 #@! TO.C,C11*
X167998830Y-136857500D03*
X169341170Y-136082500D03*
G04 #@! TD*
D28*
G04 #@! TO.C,D5*
X186186527Y-123281761D03*
X188957809Y-124881761D03*
X191407809Y-120638237D03*
X188636527Y-119038237D03*
G04 #@! TD*
D29*
G04 #@! TO.C,C17*
X106700000Y-96465000D03*
X106700000Y-98015000D03*
G04 #@! TD*
D30*
G04 #@! TO.C,C16*
X172141170Y-63597500D03*
X170798830Y-62822500D03*
G04 #@! TD*
D17*
G04 #@! TO.C,BTN4_RIGHT1*
X180000000Y-99000000D03*
G04 #@! TD*
D31*
G04 #@! TO.C,C22*
X191170000Y-101425000D03*
X191170000Y-99875000D03*
G04 #@! TD*
D32*
G04 #@! TO.C,Q1*
X142012500Y-53600000D03*
X142012500Y-55500000D03*
X143887500Y-54550000D03*
G04 #@! TD*
D33*
G04 #@! TO.C,D2*
X173281762Y-61733472D03*
X174881762Y-58962190D03*
X170638238Y-56512190D03*
X169038238Y-59283472D03*
G04 #@! TD*
D34*
G04 #@! TO.C,BTN1_ENTER1*
X149000000Y-99000000D03*
G04 #@! TD*
D10*
G04 #@! TO.C,D10*
X104560000Y-96510000D03*
X101360000Y-96510000D03*
X101360000Y-101410000D03*
X104560000Y-101410000D03*
G04 #@! TD*
D35*
G04 #@! TO.C,D3*
X188636527Y-78881762D03*
X191407809Y-77281762D03*
X188957809Y-73038238D03*
X186186527Y-74638238D03*
G04 #@! TD*
D36*
G04 #@! TO.C,C12*
X130041170Y-61152500D03*
X128698830Y-61927500D03*
G04 #@! TD*
D37*
G04 #@! TO.C,Q5*
X175630000Y-77290000D03*
X175630000Y-79790000D03*
G04 #@! TD*
D15*
G04 #@! TO.C,D1*
X151410000Y-54560000D03*
X151410000Y-51360000D03*
X146510000Y-51360000D03*
X146510000Y-54560000D03*
G04 #@! TD*
D38*
G04 #@! TO.C,D9*
X109283472Y-119038238D03*
X106512190Y-120638238D03*
X108962190Y-124881762D03*
X111733472Y-123281762D03*
G04 #@! TD*
D39*
G04 #@! TO.C,D11*
X111733472Y-74638238D03*
X108962190Y-73038238D03*
X106512190Y-77281762D03*
X109283472Y-78881762D03*
G04 #@! TD*
D40*
G04 #@! TO.C,J7*
X131000000Y-124000000D03*
D41*
X129203949Y-122203949D03*
X127407898Y-120407898D03*
X125611846Y-118611846D03*
G04 #@! TD*
D42*
G04 #@! TO.C,J6*
X185000000Y-84000000D03*
D43*
X186796051Y-85796051D03*
X188592102Y-87592102D03*
X190388154Y-89388154D03*
X192184205Y-91184205D03*
X193980256Y-92980256D03*
G04 #@! TD*
D44*
G04 #@! TO.C,J5*
X132000000Y-73000000D03*
D45*
X130203949Y-74796051D03*
X128407898Y-76592102D03*
X126611846Y-78388154D03*
G04 #@! TD*
M02*
