G04 #@! TF.GenerationSoftware,KiCad,Pcbnew,6.0.11-2627ca5db0~126~ubuntu20.04.1*
G04 #@! TF.CreationDate,2023-04-28T08:08:20+02:00*
G04 #@! TF.ProjectId,Semafor_bottom,53656d61-666f-4725-9f62-6f74746f6d2e,rev?*
G04 #@! TF.SameCoordinates,Original*
G04 #@! TF.FileFunction,Profile,NP*
%FSLAX46Y46*%
G04 Gerber Fmt 4.6, Leading zero omitted, Abs format (unit mm)*
G04 Created by KiCad (PCBNEW 6.0.11-2627ca5db0~126~ubuntu20.04.1) date 2023-04-28 08:08:20*
%MOMM*%
%LPD*%
G01*
G04 APERTURE LIST*
G04 #@! TA.AperFunction,Profile*
%ADD10C,0.100000*%
G04 #@! TD*
G04 APERTURE END LIST*
D10*
X182999997Y-66000000D02*
G75*
G03*
X182992662Y-66148179I-1499949J-24D01*
G01*
X182999997Y-132000000D02*
G75*
G03*
X182992662Y-132148179I-1499949J-24D01*
G01*
X197500000Y-98999999D02*
X197500000Y-98999999D01*
X115992662Y-66148179D02*
X115998164Y-66074180D01*
X116000000Y-66000000D02*
X116000000Y-66000000D01*
X182998164Y-132074180D02*
X183000000Y-132000000D01*
X115999997Y-66000000D02*
G75*
G03*
X115992662Y-66148179I-1499949J-24D01*
G01*
X115998164Y-66074180D02*
X116000000Y-66000000D01*
X183000000Y-132000000D02*
X183000000Y-132000000D01*
X197255432Y-94060679D02*
X197438820Y-96527314D01*
X116000000Y-132000000D02*
X116000000Y-132000000D01*
X115999997Y-132000000D02*
G75*
G03*
X115992662Y-132148179I-1499949J-24D01*
G01*
X197255432Y-94060679D02*
G75*
G03*
X197500000Y-98999999I-49755434J-4939335D01*
G01*
X115998164Y-132074180D02*
X116000000Y-132000000D01*
X182992662Y-66148179D02*
X182998164Y-66074180D01*
X182998164Y-66074180D02*
X183000000Y-66000000D01*
X182992662Y-132148179D02*
X182998164Y-132074180D01*
X183000000Y-66000000D02*
X183000000Y-66000000D01*
X197438820Y-96527314D02*
X197500000Y-98999999D01*
X115992662Y-132148179D02*
X115998164Y-132074180D01*
M02*
