G04 #@! TF.GenerationSoftware,KiCad,Pcbnew,6.0.11-2627ca5db0~126~ubuntu20.04.1*
G04 #@! TF.CreationDate,2023-04-28T08:08:20+02:00*
G04 #@! TF.ProjectId,Semafor_bottom,53656d61-666f-4725-9f62-6f74746f6d2e,rev?*
G04 #@! TF.SameCoordinates,Original*
G04 #@! TF.FileFunction,Legend,Bot*
G04 #@! TF.FilePolarity,Positive*
%FSLAX46Y46*%
G04 Gerber Fmt 4.6, Leading zero omitted, Abs format (unit mm)*
G04 Created by KiCad (PCBNEW 6.0.11-2627ca5db0~126~ubuntu20.04.1) date 2023-04-28 08:08:20*
%MOMM*%
%LPD*%
G01*
G04 APERTURE LIST*
%ADD10C,0.150000*%
%ADD11C,0.120000*%
G04 APERTURE END LIST*
D10*
X157828571Y-93591071D02*
X157828571Y-94805357D01*
X157757142Y-94948214D01*
X157685714Y-95019642D01*
X157542857Y-95091071D01*
X157257142Y-95091071D01*
X157114285Y-95019642D01*
X157042857Y-94948214D01*
X156971428Y-94805357D01*
X156971428Y-93591071D01*
X156257142Y-94091071D02*
X156257142Y-95091071D01*
X156257142Y-94233928D02*
X156185714Y-94162500D01*
X156042857Y-94091071D01*
X155828571Y-94091071D01*
X155685714Y-94162500D01*
X155614285Y-94305357D01*
X155614285Y-95091071D01*
X154900000Y-95091071D02*
X154900000Y-94091071D01*
X154900000Y-93591071D02*
X154971428Y-93662500D01*
X154900000Y-93733928D01*
X154828571Y-93662500D01*
X154900000Y-93591071D01*
X154900000Y-93733928D01*
X154328571Y-94091071D02*
X153971428Y-95091071D01*
X153614285Y-94091071D01*
X152471428Y-95019642D02*
X152614285Y-95091071D01*
X152900000Y-95091071D01*
X153042857Y-95019642D01*
X153114285Y-94876785D01*
X153114285Y-94305357D01*
X153042857Y-94162500D01*
X152900000Y-94091071D01*
X152614285Y-94091071D01*
X152471428Y-94162500D01*
X152400000Y-94305357D01*
X152400000Y-94448214D01*
X153114285Y-94591071D01*
X151757142Y-95091071D02*
X151757142Y-94091071D01*
X151757142Y-94376785D02*
X151685714Y-94233928D01*
X151614285Y-94162500D01*
X151471428Y-94091071D01*
X151328571Y-94091071D01*
X150971428Y-94091071D02*
X150185714Y-94091071D01*
X150971428Y-95091071D01*
X150185714Y-95091071D01*
X148971428Y-95091071D02*
X148971428Y-94305357D01*
X149042857Y-94162500D01*
X149185714Y-94091071D01*
X149471428Y-94091071D01*
X149614285Y-94162500D01*
X148971428Y-95019642D02*
X149114285Y-95091071D01*
X149471428Y-95091071D01*
X149614285Y-95019642D01*
X149685714Y-94876785D01*
X149685714Y-94733928D01*
X149614285Y-94591071D01*
X149471428Y-94519642D01*
X149114285Y-94519642D01*
X148971428Y-94448214D01*
X149185714Y-93519642D02*
X149400000Y-93733928D01*
X148042857Y-95091071D02*
X148185714Y-95019642D01*
X148257142Y-94876785D01*
X148257142Y-93591071D01*
X147471428Y-94091071D02*
X147471428Y-95091071D01*
X147471428Y-94233928D02*
X147400000Y-94162500D01*
X147257142Y-94091071D01*
X147042857Y-94091071D01*
X146900000Y-94162500D01*
X146828571Y-94305357D01*
X146828571Y-95091071D01*
X146114285Y-95091071D02*
X146114285Y-94091071D01*
X145971428Y-93519642D02*
X146185714Y-93733928D01*
X144257142Y-95091071D02*
X144257142Y-94091071D01*
X144257142Y-94233928D02*
X144185714Y-94162500D01*
X144042857Y-94091071D01*
X143828571Y-94091071D01*
X143685714Y-94162500D01*
X143614285Y-94305357D01*
X143614285Y-95091071D01*
X143614285Y-94305357D02*
X143542857Y-94162500D01*
X143400000Y-94091071D01*
X143185714Y-94091071D01*
X143042857Y-94162500D01*
X142971428Y-94305357D01*
X142971428Y-95091071D01*
X142042857Y-95091071D02*
X142185714Y-95019642D01*
X142257142Y-94948214D01*
X142328571Y-94805357D01*
X142328571Y-94376785D01*
X142257142Y-94233928D01*
X142185714Y-94162500D01*
X142042857Y-94091071D01*
X141828571Y-94091071D01*
X141685714Y-94162500D01*
X141614285Y-94233928D01*
X141542857Y-94376785D01*
X141542857Y-94805357D01*
X141614285Y-94948214D01*
X141685714Y-95019642D01*
X141828571Y-95091071D01*
X142042857Y-95091071D01*
X140257142Y-95091071D02*
X140257142Y-93591071D01*
X140257142Y-95019642D02*
X140400000Y-95091071D01*
X140685714Y-95091071D01*
X140828571Y-95019642D01*
X140900000Y-94948214D01*
X140971428Y-94805357D01*
X140971428Y-94376785D01*
X140900000Y-94233928D01*
X140828571Y-94162500D01*
X140685714Y-94091071D01*
X140400000Y-94091071D01*
X140257142Y-94162500D01*
X138900000Y-94091071D02*
X138900000Y-95091071D01*
X139542857Y-94091071D02*
X139542857Y-94876785D01*
X139471428Y-95019642D01*
X139328571Y-95091071D01*
X139114285Y-95091071D01*
X138971428Y-95019642D01*
X138900000Y-94948214D01*
X137971428Y-95091071D02*
X138114285Y-95019642D01*
X138185714Y-94876785D01*
X138185714Y-93591071D01*
X160257142Y-96506071D02*
X160257142Y-98006071D01*
X160257142Y-96577500D02*
X160114285Y-96506071D01*
X159828571Y-96506071D01*
X159685714Y-96577500D01*
X159614285Y-96648928D01*
X159542857Y-96791785D01*
X159542857Y-97220357D01*
X159614285Y-97363214D01*
X159685714Y-97434642D01*
X159828571Y-97506071D01*
X160114285Y-97506071D01*
X160257142Y-97434642D01*
X158900000Y-97506071D02*
X158900000Y-96506071D01*
X158900000Y-96791785D02*
X158828571Y-96648928D01*
X158757142Y-96577500D01*
X158614285Y-96506071D01*
X158471428Y-96506071D01*
X157757142Y-97506071D02*
X157900000Y-97434642D01*
X157971428Y-97363214D01*
X158042857Y-97220357D01*
X158042857Y-96791785D01*
X157971428Y-96648928D01*
X157900000Y-96577500D01*
X157757142Y-96506071D01*
X157542857Y-96506071D01*
X157400000Y-96577500D01*
X157328571Y-96648928D01*
X157257142Y-96791785D01*
X157257142Y-97220357D01*
X157328571Y-97363214D01*
X157400000Y-97434642D01*
X157542857Y-97506071D01*
X157757142Y-97506071D01*
X155471428Y-96506071D02*
X155471428Y-98006071D01*
X155471428Y-96577500D02*
X155328571Y-96506071D01*
X155042857Y-96506071D01*
X154900000Y-96577500D01*
X154828571Y-96648928D01*
X154757142Y-96791785D01*
X154757142Y-97220357D01*
X154828571Y-97363214D01*
X154900000Y-97434642D01*
X155042857Y-97506071D01*
X155328571Y-97506071D01*
X155471428Y-97434642D01*
X153900000Y-97506071D02*
X154042857Y-97434642D01*
X154114285Y-97363214D01*
X154185714Y-97220357D01*
X154185714Y-96791785D01*
X154114285Y-96648928D01*
X154042857Y-96577500D01*
X153900000Y-96506071D01*
X153685714Y-96506071D01*
X153542857Y-96577500D01*
X153471428Y-96648928D01*
X153400000Y-96791785D01*
X153400000Y-97220357D01*
X153471428Y-97363214D01*
X153542857Y-97434642D01*
X153685714Y-97506071D01*
X153900000Y-97506071D01*
X152114285Y-97506071D02*
X152114285Y-96006071D01*
X152114285Y-97434642D02*
X152257142Y-97506071D01*
X152542857Y-97506071D01*
X152685714Y-97434642D01*
X152757142Y-97363214D01*
X152828571Y-97220357D01*
X152828571Y-96791785D01*
X152757142Y-96648928D01*
X152685714Y-96577500D01*
X152542857Y-96506071D01*
X152257142Y-96506071D01*
X152114285Y-96577500D01*
X151400000Y-96506071D02*
X151400000Y-98006071D01*
X151400000Y-96577500D02*
X151257142Y-96506071D01*
X150971428Y-96506071D01*
X150828571Y-96577500D01*
X150757142Y-96648928D01*
X150685714Y-96791785D01*
X150685714Y-97220357D01*
X150757142Y-97363214D01*
X150828571Y-97434642D01*
X150971428Y-97506071D01*
X151257142Y-97506071D01*
X151400000Y-97434642D01*
X149828571Y-97506071D02*
X149971428Y-97434642D01*
X150042857Y-97363214D01*
X150114285Y-97220357D01*
X150114285Y-96791785D01*
X150042857Y-96648928D01*
X149971428Y-96577500D01*
X149828571Y-96506071D01*
X149614285Y-96506071D01*
X149471428Y-96577500D01*
X149400000Y-96648928D01*
X149328571Y-96791785D01*
X149328571Y-97220357D01*
X149400000Y-97363214D01*
X149471428Y-97434642D01*
X149614285Y-97506071D01*
X149828571Y-97506071D01*
X148685714Y-97506071D02*
X148685714Y-96506071D01*
X148685714Y-96791785D02*
X148614285Y-96648928D01*
X148542857Y-96577500D01*
X148400000Y-96506071D01*
X148257142Y-96506071D01*
X147114285Y-96506071D02*
X147114285Y-97506071D01*
X147757142Y-96506071D02*
X147757142Y-97291785D01*
X147685714Y-97434642D01*
X147542857Y-97506071D01*
X147328571Y-97506071D01*
X147185714Y-97434642D01*
X147114285Y-97363214D01*
X145471428Y-96506071D02*
X144900000Y-96506071D01*
X145257142Y-96006071D02*
X145257142Y-97291785D01*
X145185714Y-97434642D01*
X145042857Y-97506071D01*
X144900000Y-97506071D01*
X144542857Y-96506071D02*
X144185714Y-97506071D01*
X143828571Y-96506071D02*
X144185714Y-97506071D01*
X144328571Y-97863214D01*
X144400000Y-97934642D01*
X144542857Y-98006071D01*
X144042857Y-95934642D02*
X144257142Y-96148928D01*
X143257142Y-97506071D02*
X143257142Y-96506071D01*
X143257142Y-96648928D02*
X143185714Y-96577500D01*
X143042857Y-96506071D01*
X142828571Y-96506071D01*
X142685714Y-96577500D01*
X142614285Y-96720357D01*
X142614285Y-97506071D01*
X142614285Y-96720357D02*
X142542857Y-96577500D01*
X142400000Y-96506071D01*
X142185714Y-96506071D01*
X142042857Y-96577500D01*
X141971428Y-96720357D01*
X141971428Y-97506071D01*
X141042857Y-97506071D02*
X141185714Y-97434642D01*
X141257142Y-97363214D01*
X141328571Y-97220357D01*
X141328571Y-96791785D01*
X141257142Y-96648928D01*
X141185714Y-96577500D01*
X141042857Y-96506071D01*
X140828571Y-96506071D01*
X140685714Y-96577500D01*
X140614285Y-96648928D01*
X140542857Y-96791785D01*
X140542857Y-97220357D01*
X140614285Y-97363214D01*
X140685714Y-97434642D01*
X140828571Y-97506071D01*
X141042857Y-97506071D01*
X140042857Y-96506071D02*
X139685714Y-97506071D01*
X139328571Y-96506071D01*
X138900000Y-96506071D02*
X138542857Y-97506071D01*
X138185714Y-96506071D02*
X138542857Y-97506071D01*
X138685714Y-97863214D01*
X138757142Y-97934642D01*
X138900000Y-98006071D01*
X138400000Y-95934642D02*
X138614285Y-96148928D01*
X136971428Y-97434642D02*
X137114285Y-97506071D01*
X137400000Y-97506071D01*
X137542857Y-97434642D01*
X137614285Y-97363214D01*
X137685714Y-97220357D01*
X137685714Y-96791785D01*
X137614285Y-96648928D01*
X137542857Y-96577500D01*
X137400000Y-96506071D01*
X137114285Y-96506071D01*
X136971428Y-96577500D01*
X136328571Y-97506071D02*
X136328571Y-96006071D01*
X135685714Y-97506071D02*
X135685714Y-96720357D01*
X135757142Y-96577500D01*
X135900000Y-96506071D01*
X136114285Y-96506071D01*
X136257142Y-96577500D01*
X136328571Y-96648928D01*
X151185714Y-99921071D02*
X151185714Y-98421071D01*
X150542857Y-99921071D02*
X150542857Y-99135357D01*
X150614285Y-98992500D01*
X150757142Y-98921071D01*
X150971428Y-98921071D01*
X151114285Y-98992500D01*
X151185714Y-99063928D01*
X149257142Y-99849642D02*
X149400000Y-99921071D01*
X149685714Y-99921071D01*
X149828571Y-99849642D01*
X149900000Y-99706785D01*
X149900000Y-99135357D01*
X149828571Y-98992500D01*
X149685714Y-98921071D01*
X149400000Y-98921071D01*
X149257142Y-98992500D01*
X149185714Y-99135357D01*
X149185714Y-99278214D01*
X149900000Y-99421071D01*
X148542857Y-99921071D02*
X148542857Y-98921071D01*
X148542857Y-99206785D02*
X148471428Y-99063928D01*
X148400000Y-98992500D01*
X148257142Y-98921071D01*
X148114285Y-98921071D01*
X145685714Y-99921071D02*
X146542857Y-99921071D01*
X146114285Y-99921071D02*
X146114285Y-98421071D01*
X146257142Y-98635357D01*
X146400000Y-98778214D01*
X146542857Y-98849642D01*
X145042857Y-99778214D02*
X144971428Y-99849642D01*
X145042857Y-99921071D01*
X145114285Y-99849642D01*
X145042857Y-99778214D01*
X145042857Y-99921071D01*
X144042857Y-98421071D02*
X143900000Y-98421071D01*
X143757142Y-98492500D01*
X143685714Y-98563928D01*
X143614285Y-98706785D01*
X143542857Y-98992500D01*
X143542857Y-99349642D01*
X143614285Y-99635357D01*
X143685714Y-99778214D01*
X143757142Y-99849642D01*
X143900000Y-99921071D01*
X144042857Y-99921071D01*
X144185714Y-99849642D01*
X144257142Y-99778214D01*
X144328571Y-99635357D01*
X144400000Y-99349642D01*
X144400000Y-98992500D01*
X144328571Y-98706785D01*
X144257142Y-98563928D01*
X144185714Y-98492500D01*
X144042857Y-98421071D01*
X158935714Y-102336071D02*
X158935714Y-100836071D01*
X158935714Y-101407500D02*
X158792857Y-101336071D01*
X158507142Y-101336071D01*
X158364285Y-101407500D01*
X158292857Y-101478928D01*
X158221428Y-101621785D01*
X158221428Y-102050357D01*
X158292857Y-102193214D01*
X158364285Y-102264642D01*
X158507142Y-102336071D01*
X158792857Y-102336071D01*
X158935714Y-102264642D01*
X157721428Y-101336071D02*
X157364285Y-102336071D01*
X157007142Y-101336071D02*
X157364285Y-102336071D01*
X157507142Y-102693214D01*
X157578571Y-102764642D01*
X157721428Y-102836071D01*
X154435714Y-102336071D02*
X154935714Y-101621785D01*
X155292857Y-102336071D02*
X155292857Y-100836071D01*
X154721428Y-100836071D01*
X154578571Y-100907500D01*
X154507142Y-100978928D01*
X154435714Y-101121785D01*
X154435714Y-101336071D01*
X154507142Y-101478928D01*
X154578571Y-101550357D01*
X154721428Y-101621785D01*
X155292857Y-101621785D01*
X153221428Y-102264642D02*
X153364285Y-102336071D01*
X153650000Y-102336071D01*
X153792857Y-102264642D01*
X153864285Y-102121785D01*
X153864285Y-101550357D01*
X153792857Y-101407500D01*
X153650000Y-101336071D01*
X153364285Y-101336071D01*
X153221428Y-101407500D01*
X153150000Y-101550357D01*
X153150000Y-101693214D01*
X153864285Y-101836071D01*
X152507142Y-101336071D02*
X152507142Y-102336071D01*
X152507142Y-101478928D02*
X152435714Y-101407500D01*
X152292857Y-101336071D01*
X152078571Y-101336071D01*
X151935714Y-101407500D01*
X151864285Y-101550357D01*
X151864285Y-102336071D01*
X150507142Y-102336071D02*
X150507142Y-101550357D01*
X150578571Y-101407500D01*
X150721428Y-101336071D01*
X151007142Y-101336071D01*
X151150000Y-101407500D01*
X150507142Y-102264642D02*
X150650000Y-102336071D01*
X151007142Y-102336071D01*
X151150000Y-102264642D01*
X151221428Y-102121785D01*
X151221428Y-101978928D01*
X151150000Y-101836071D01*
X151007142Y-101764642D01*
X150650000Y-101764642D01*
X150507142Y-101693214D01*
X150007142Y-101336071D02*
X149435714Y-101336071D01*
X149792857Y-100836071D02*
X149792857Y-102121785D01*
X149721428Y-102264642D01*
X149578571Y-102336071D01*
X149435714Y-102336071D01*
X148292857Y-102336071D02*
X148292857Y-101550357D01*
X148364285Y-101407500D01*
X148507142Y-101336071D01*
X148792857Y-101336071D01*
X148935714Y-101407500D01*
X148292857Y-102264642D02*
X148435714Y-102336071D01*
X148792857Y-102336071D01*
X148935714Y-102264642D01*
X149007142Y-102121785D01*
X149007142Y-101978928D01*
X148935714Y-101836071D01*
X148792857Y-101764642D01*
X148435714Y-101764642D01*
X148292857Y-101693214D01*
X146578571Y-100836071D02*
X145578571Y-100836071D01*
X146578571Y-102336071D01*
X145578571Y-102336071D01*
X144435714Y-102264642D02*
X144578571Y-102336071D01*
X144864285Y-102336071D01*
X145007142Y-102264642D01*
X145078571Y-102121785D01*
X145078571Y-101550357D01*
X145007142Y-101407500D01*
X144864285Y-101336071D01*
X144578571Y-101336071D01*
X144435714Y-101407500D01*
X144364285Y-101550357D01*
X144364285Y-101693214D01*
X145078571Y-101836071D01*
X143721428Y-102336071D02*
X143721428Y-101336071D01*
X143721428Y-101478928D02*
X143650000Y-101407500D01*
X143507142Y-101336071D01*
X143292857Y-101336071D01*
X143150000Y-101407500D01*
X143078571Y-101550357D01*
X143078571Y-102336071D01*
X143078571Y-101550357D02*
X143007142Y-101407500D01*
X142864285Y-101336071D01*
X142650000Y-101336071D01*
X142507142Y-101407500D01*
X142435714Y-101550357D01*
X142435714Y-102336071D01*
X141078571Y-102336071D02*
X141078571Y-101550357D01*
X141150000Y-101407500D01*
X141292857Y-101336071D01*
X141578571Y-101336071D01*
X141721428Y-101407500D01*
X141078571Y-102264642D02*
X141221428Y-102336071D01*
X141578571Y-102336071D01*
X141721428Y-102264642D01*
X141792857Y-102121785D01*
X141792857Y-101978928D01*
X141721428Y-101836071D01*
X141578571Y-101764642D01*
X141221428Y-101764642D01*
X141078571Y-101693214D01*
X140364285Y-101336071D02*
X140364285Y-102336071D01*
X140364285Y-101478928D02*
X140292857Y-101407500D01*
X140150000Y-101336071D01*
X139935714Y-101336071D01*
X139792857Y-101407500D01*
X139721428Y-101550357D01*
X139721428Y-102336071D01*
X138792857Y-102336071D02*
X138935714Y-102264642D01*
X139007142Y-102193214D01*
X139078571Y-102050357D01*
X139078571Y-101621785D01*
X139007142Y-101478928D01*
X138935714Y-101407500D01*
X138792857Y-101336071D01*
X138578571Y-101336071D01*
X138435714Y-101407500D01*
X138364285Y-101478928D01*
X138292857Y-101621785D01*
X138292857Y-102050357D01*
X138364285Y-102193214D01*
X138435714Y-102264642D01*
X138578571Y-102336071D01*
X138792857Y-102336071D01*
X137792857Y-101336071D02*
X137435714Y-102336071D01*
X137078571Y-101336071D01*
X135864285Y-102336071D02*
X135864285Y-101550357D01*
X135935714Y-101407500D01*
X136078571Y-101336071D01*
X136364285Y-101336071D01*
X136507142Y-101407500D01*
X135864285Y-102264642D02*
X136007142Y-102336071D01*
X136364285Y-102336071D01*
X136507142Y-102264642D01*
X136578571Y-102121785D01*
X136578571Y-101978928D01*
X136507142Y-101836071D01*
X136364285Y-101764642D01*
X136007142Y-101764642D01*
X135864285Y-101693214D01*
X136078571Y-100764642D02*
X136292857Y-100978928D01*
X150935714Y-104751071D02*
X150935714Y-103251071D01*
X150935714Y-103822500D02*
X150792857Y-103751071D01*
X150507142Y-103751071D01*
X150364285Y-103822500D01*
X150292857Y-103893928D01*
X150221428Y-104036785D01*
X150221428Y-104465357D01*
X150292857Y-104608214D01*
X150364285Y-104679642D01*
X150507142Y-104751071D01*
X150792857Y-104751071D01*
X150935714Y-104679642D01*
X149364285Y-104751071D02*
X149507142Y-104679642D01*
X149578571Y-104608214D01*
X149650000Y-104465357D01*
X149650000Y-104036785D01*
X149578571Y-103893928D01*
X149507142Y-103822500D01*
X149364285Y-103751071D01*
X149150000Y-103751071D01*
X149007142Y-103822500D01*
X148935714Y-103893928D01*
X148864285Y-104036785D01*
X148864285Y-104465357D01*
X148935714Y-104608214D01*
X149007142Y-104679642D01*
X149150000Y-104751071D01*
X149364285Y-104751071D01*
X148435714Y-103751071D02*
X147864285Y-103751071D01*
X148221428Y-103251071D02*
X148221428Y-104536785D01*
X148150000Y-104679642D01*
X148007142Y-104751071D01*
X147864285Y-104751071D01*
X147578571Y-103751071D02*
X147007142Y-103751071D01*
X147364285Y-103251071D02*
X147364285Y-104536785D01*
X147292857Y-104679642D01*
X147150000Y-104751071D01*
X147007142Y-104751071D01*
X146292857Y-104751071D02*
X146435714Y-104679642D01*
X146507142Y-104608214D01*
X146578571Y-104465357D01*
X146578571Y-104036785D01*
X146507142Y-103893928D01*
X146435714Y-103822500D01*
X146292857Y-103751071D01*
X146078571Y-103751071D01*
X145935714Y-103822500D01*
X145864285Y-103893928D01*
X145792857Y-104036785D01*
X145792857Y-104465357D01*
X145864285Y-104608214D01*
X145935714Y-104679642D01*
X146078571Y-104751071D01*
X146292857Y-104751071D01*
X145150000Y-104751071D02*
X145150000Y-103751071D01*
X145150000Y-103893928D02*
X145078571Y-103822500D01*
X144935714Y-103751071D01*
X144721428Y-103751071D01*
X144578571Y-103822500D01*
X144507142Y-103965357D01*
X144507142Y-104751071D01*
X144507142Y-103965357D02*
X144435714Y-103822500D01*
X144292857Y-103751071D01*
X144078571Y-103751071D01*
X143935714Y-103822500D01*
X143864285Y-103965357D01*
X143864285Y-104751071D01*
D11*
G04 #@! TO.C,BZ1*
X123350000Y-61750000D02*
X123350000Y-60250000D01*
X122600000Y-61000000D02*
X124100000Y-61000000D01*
G04 #@! TD*
M02*
