M48
; DRILL file {KiCad 6.0.11-2627ca5db0~126~ubuntu20.04.1} date Fri Apr 28 08:06:44 2023
; FORMAT={-:-/ absolute / metric / decimal}
; #@! TF.CreationDate,2023-04-28T08:06:44+02:00
; #@! TF.GenerationSoftware,Kicad,Pcbnew,6.0.11-2627ca5db0~126~ubuntu20.04.1
; #@! TF.FileFunction,MixedPlating,1,2
FMAT,2
METRIC
; #@! TA.AperFunction,Plated,PTH,ViaDrill
T1C0.300
; #@! TA.AperFunction,Plated,PTH,ViaDrill
T2C0.500
; #@! TA.AperFunction,Plated,PTH,ViaDrill
T3C1.000
; #@! TA.AperFunction,Plated,PTH,ComponentDrill
T4C1.000
%
G90
G05
T1
X145.1Y-55.5
X159.75Y-55.25
T2
X101.35Y-103.27
X105.55Y-78.95
X109.95Y-126.6
X121.4Y-59.9
X129.05Y-142.45
X144.25Y-52.5
X144.61Y-51.35
X153.51Y-146.56
X153.55Y-52.5
X168.85Y-55.45
X176.55Y-138.0
X178.0Y-81.1
X187.95Y-71.25
X192.4Y-118.95
X196.56Y-94.44
T3
X106.7Y-94.5
X108.575Y-116.575
X115.7Y-74.45
X124.45Y-132.45
X131.075Y-59.075
X136.25Y-56.6
X144.4Y-143.35
X153.5Y-56.6
X167.175Y-139.925
X172.675Y-65.325
X183.4Y-123.7
X188.325Y-80.975
X192.75Y-103.5
T4
X125.612Y-118.612
X126.612Y-78.388
X127.408Y-120.408
X128.408Y-76.592
X129.204Y-122.204
X130.204Y-74.796
X131.0Y-124.0
X132.0Y-73.0
X185.0Y-84.0
X186.796Y-85.796
X188.592Y-87.592
X190.388Y-89.388
X192.184Y-91.184
X193.98Y-92.98
T0
M30
